%TF.GenerationSoftware,KiCad,Pcbnew,9.0.0*%
%TF.CreationDate,2025-04-09T12:02:38+02:00*%
%TF.ProjectId,LocalRoboCaster,4c6f6361-6c52-46f6-926f-436173746572,rev?*%
%TF.SameCoordinates,Original*%
%TF.FileFunction,Paste,Bot*%
%TF.FilePolarity,Positive*%
%FSLAX46Y46*%
G04 Gerber Fmt 4.6, Leading zero omitted, Abs format (unit mm)*
G04 Created by KiCad (PCBNEW 9.0.0) date 2025-04-09 12:02:38*
%MOMM*%
%LPD*%
G01*
G04 APERTURE LIST*
G04 Aperture macros list*
%AMRoundRect*
0 Rectangle with rounded corners*
0 $1 Rounding radius*
0 $2 $3 $4 $5 $6 $7 $8 $9 X,Y pos of 4 corners*
0 Add a 4 corners polygon primitive as box body*
4,1,4,$2,$3,$4,$5,$6,$7,$8,$9,$2,$3,0*
0 Add four circle primitives for the rounded corners*
1,1,$1+$1,$2,$3*
1,1,$1+$1,$4,$5*
1,1,$1+$1,$6,$7*
1,1,$1+$1,$8,$9*
0 Add four rect primitives between the rounded corners*
20,1,$1+$1,$2,$3,$4,$5,0*
20,1,$1+$1,$4,$5,$6,$7,0*
20,1,$1+$1,$6,$7,$8,$9,0*
20,1,$1+$1,$8,$9,$2,$3,0*%
G04 Aperture macros list end*
%ADD10RoundRect,0.237500X0.237500X-0.250000X0.237500X0.250000X-0.237500X0.250000X-0.237500X-0.250000X0*%
%ADD11RoundRect,0.237500X0.237500X-0.300000X0.237500X0.300000X-0.237500X0.300000X-0.237500X-0.300000X0*%
%ADD12RoundRect,0.237500X-0.237500X0.250000X-0.237500X-0.250000X0.237500X-0.250000X0.237500X0.250000X0*%
%ADD13RoundRect,0.237500X0.300000X0.237500X-0.300000X0.237500X-0.300000X-0.237500X0.300000X-0.237500X0*%
%ADD14RoundRect,0.237500X-0.300000X-0.237500X0.300000X-0.237500X0.300000X0.237500X-0.300000X0.237500X0*%
G04 APERTURE END LIST*
D10*
%TO.C,R13*%
X78000000Y-62288395D03*
X78000000Y-60463395D03*
%TD*%
%TO.C,R9*%
X71200000Y-62288395D03*
X71200000Y-60463395D03*
%TD*%
D11*
%TO.C,C6*%
X121000000Y-47622500D03*
X121000000Y-45897500D03*
%TD*%
D12*
%TO.C,R15*%
X54960000Y-91687500D03*
X54960000Y-93512500D03*
%TD*%
%TO.C,R18*%
X60000000Y-92175000D03*
X60000000Y-94000000D03*
%TD*%
%TO.C,R12*%
X85050000Y-99457500D03*
X85050000Y-101282500D03*
%TD*%
D10*
%TO.C,R8*%
X50800000Y-83468395D03*
X50800000Y-81643395D03*
%TD*%
D13*
%TO.C,C7*%
X110310000Y-110475000D03*
X108585000Y-110475000D03*
%TD*%
D11*
%TO.C,C2*%
X52705000Y-83418395D03*
X52705000Y-81693395D03*
%TD*%
%TO.C,C3*%
X43180000Y-83418395D03*
X43180000Y-81693395D03*
%TD*%
D10*
%TO.C,R6*%
X46990000Y-83468395D03*
X46990000Y-81643395D03*
%TD*%
D12*
%TO.C,R4*%
X59895000Y-60463395D03*
X59895000Y-62288395D03*
%TD*%
D10*
%TO.C,R7*%
X45085000Y-83468395D03*
X45085000Y-81643395D03*
%TD*%
%TO.C,R3*%
X63705000Y-62288395D03*
X63705000Y-60463395D03*
%TD*%
D14*
%TO.C,C8*%
X89307500Y-110490000D03*
X91032500Y-110490000D03*
%TD*%
D10*
%TO.C,R14*%
X73105000Y-62288395D03*
X73105000Y-60463395D03*
%TD*%
%TO.C,R5*%
X76095000Y-62288395D03*
X76095000Y-60463395D03*
%TD*%
D11*
%TO.C,C1*%
X61800000Y-62238395D03*
X61800000Y-60513395D03*
%TD*%
D10*
%TO.C,R16*%
X99480000Y-75802500D03*
X99480000Y-73977500D03*
%TD*%
D11*
%TO.C,C5*%
X66200000Y-62238395D03*
X66200000Y-60513395D03*
%TD*%
D10*
%TO.C,R10*%
X54610000Y-83468395D03*
X54610000Y-81643395D03*
%TD*%
%TO.C,R11*%
X58560000Y-83452500D03*
X58560000Y-81627500D03*
%TD*%
%TO.C,R1*%
X48050000Y-50112500D03*
X48050000Y-48287500D03*
%TD*%
D11*
%TO.C,C4*%
X48895000Y-83418395D03*
X48895000Y-81693395D03*
%TD*%
D10*
%TO.C,R17*%
X100500000Y-50502500D03*
X100500000Y-48677500D03*
%TD*%
M02*
