%TF.GenerationSoftware,KiCad,Pcbnew,9.0.0*%
%TF.CreationDate,2025-04-09T12:02:38+02:00*%
%TF.ProjectId,LocalRoboCaster,4c6f6361-6c52-46f6-926f-436173746572,rev?*%
%TF.SameCoordinates,Original*%
%TF.FileFunction,Legend,Top*%
%TF.FilePolarity,Positive*%
%FSLAX46Y46*%
G04 Gerber Fmt 4.6, Leading zero omitted, Abs format (unit mm)*
G04 Created by KiCad (PCBNEW 9.0.0) date 2025-04-09 12:02:38*
%MOMM*%
%LPD*%
G01*
G04 APERTURE LIST*
%ADD10C,0.150000*%
%ADD11C,0.300000*%
%ADD12C,0.100000*%
%ADD13C,0.120000*%
%ADD14C,0.000000*%
G04 APERTURE END LIST*
D10*
G36*
X64846343Y-43823414D02*
G01*
X64943505Y-43865732D01*
X65025289Y-43936069D01*
X65085770Y-44026823D01*
X65123579Y-44137583D01*
X65137067Y-44273710D01*
X65123662Y-44407390D01*
X65085930Y-44517100D01*
X65025289Y-44607889D01*
X64943518Y-44678127D01*
X64846355Y-44720395D01*
X64729029Y-44735164D01*
X64053581Y-44735164D01*
X64053581Y-43808629D01*
X64729029Y-43808629D01*
X64846343Y-43823414D01*
G37*
G36*
X71909625Y-46461897D02*
G01*
X61306341Y-46461897D01*
X61306341Y-46134200D01*
X63677032Y-46134200D01*
X64053581Y-46134200D01*
X64053581Y-45093249D01*
X64716169Y-45093249D01*
X64875978Y-45081294D01*
X65016423Y-45047004D01*
X65140694Y-44991693D01*
X65252417Y-44914713D01*
X65345729Y-44819947D01*
X65422117Y-44705654D01*
X65476876Y-44578975D01*
X65510844Y-44436037D01*
X65522684Y-44273710D01*
X65510812Y-44110162D01*
X65476814Y-43966710D01*
X65422117Y-43840118D01*
X65401106Y-43808629D01*
X65882417Y-43808629D01*
X66640956Y-43808629D01*
X66640956Y-46134200D01*
X67017505Y-46134200D01*
X67017505Y-44425055D01*
X68013613Y-44425055D01*
X68013613Y-45161502D01*
X68027333Y-45359321D01*
X68066648Y-45533456D01*
X68129842Y-45687583D01*
X68218745Y-45827666D01*
X68327172Y-45943488D01*
X68456602Y-46037424D01*
X68601489Y-46105447D01*
X68763925Y-46147350D01*
X68947567Y-46161897D01*
X69100177Y-46150519D01*
X69240990Y-46117200D01*
X69372091Y-46062319D01*
X69493006Y-45987204D01*
X69600311Y-45894701D01*
X69695060Y-45783534D01*
X69772045Y-45659267D01*
X69831207Y-45520336D01*
X69872289Y-45364615D01*
X69486507Y-45364615D01*
X69438040Y-45495748D01*
X69368689Y-45600783D01*
X69277954Y-45683956D01*
X69170512Y-45746256D01*
X69061096Y-45782537D01*
X68947567Y-45794580D01*
X68827062Y-45783167D01*
X68722535Y-45750374D01*
X68630813Y-45696838D01*
X68549750Y-45621143D01*
X68468434Y-45497528D01*
X68419193Y-45351590D01*
X70369188Y-45351590D01*
X71609625Y-45351590D01*
X71609625Y-44993506D01*
X70369188Y-44993506D01*
X70369188Y-45351590D01*
X68419193Y-45351590D01*
X68417551Y-45346725D01*
X68399394Y-45161502D01*
X68399394Y-44425055D01*
X68417533Y-44239820D01*
X68468403Y-44088715D01*
X68549750Y-43964590D01*
X68630875Y-43888417D01*
X68722619Y-43834585D01*
X68827123Y-43801630D01*
X68947567Y-43790164D01*
X69063333Y-43803432D01*
X69176398Y-43843745D01*
X69279636Y-43907746D01*
X69369289Y-43994101D01*
X69439274Y-44098365D01*
X69486507Y-44220129D01*
X69872289Y-44220129D01*
X69831301Y-44064348D01*
X69772460Y-43925415D01*
X69696049Y-43801210D01*
X69601839Y-43690161D01*
X69494559Y-43597704D01*
X69373081Y-43522590D01*
X69241336Y-43467586D01*
X69100181Y-43434227D01*
X68947567Y-43422847D01*
X68763934Y-43437412D01*
X68601499Y-43479369D01*
X68456602Y-43547485D01*
X68327178Y-43641324D01*
X68218751Y-43757088D01*
X68129842Y-43897161D01*
X68066702Y-44051306D01*
X68027361Y-44226011D01*
X68013613Y-44425055D01*
X67017505Y-44425055D01*
X67017505Y-43808629D01*
X67776044Y-43808629D01*
X67776044Y-43450545D01*
X65882417Y-43450545D01*
X65882417Y-43808629D01*
X65401106Y-43808629D01*
X65345750Y-43725665D01*
X65252435Y-43630561D01*
X65140694Y-43553090D01*
X65016365Y-43497219D01*
X64875925Y-43462607D01*
X64716169Y-43450545D01*
X64053581Y-43450545D01*
X63677032Y-43450545D01*
X63677032Y-46134200D01*
X61306341Y-46134200D01*
X61306341Y-44718513D01*
X61606341Y-44718513D01*
X61606341Y-45076597D01*
X62167538Y-45076597D01*
X62167538Y-45646862D01*
X62544087Y-45646862D01*
X62544087Y-45076597D01*
X63105119Y-45076597D01*
X63105119Y-44718513D01*
X62544087Y-44718513D01*
X62544087Y-44148249D01*
X62167538Y-44148249D01*
X62167538Y-44718513D01*
X61606341Y-44718513D01*
X61306341Y-44718513D01*
X61306341Y-43122847D01*
X71909625Y-43122847D01*
X71909625Y-46461897D01*
G37*
G36*
X60178738Y-46442813D02*
G01*
X50095271Y-46442813D01*
X50095271Y-45358390D01*
X50395271Y-45358390D01*
X51635707Y-45358390D01*
X51635707Y-45000306D01*
X50395271Y-45000306D01*
X50395271Y-45358390D01*
X50095271Y-45358390D01*
X50095271Y-44158676D01*
X52115131Y-44158676D01*
X52115131Y-44160489D01*
X52504705Y-44160489D01*
X52504705Y-44158676D01*
X52529845Y-44044946D01*
X52571680Y-43955158D01*
X52629177Y-43884672D01*
X52702664Y-43831626D01*
X52789711Y-43799147D01*
X52894113Y-43787732D01*
X53006446Y-43798734D01*
X53093767Y-43828972D01*
X53161687Y-43876429D01*
X53212656Y-43941096D01*
X53244419Y-44022480D01*
X53255825Y-44125538D01*
X53255825Y-44129165D01*
X53245071Y-44231328D01*
X53210652Y-44345137D01*
X53157135Y-44456502D01*
X53084201Y-44566549D01*
X52148434Y-45814239D01*
X52148434Y-46141000D01*
X53661885Y-46141000D01*
X53661885Y-45782915D01*
X52646817Y-45782915D01*
X52926606Y-45402739D01*
X53993261Y-45402739D01*
X53993261Y-45729334D01*
X55150606Y-45729334D01*
X55150606Y-46142813D01*
X55517923Y-46142813D01*
X55517923Y-45729334D01*
X55719057Y-45729334D01*
X55719057Y-45380647D01*
X55517923Y-45380647D01*
X55517923Y-44562922D01*
X55150606Y-44562922D01*
X55150606Y-45380647D01*
X54403113Y-45380647D01*
X55281673Y-43459158D01*
X54894077Y-43459158D01*
X53993261Y-45402739D01*
X52926606Y-45402739D01*
X53423821Y-44727127D01*
X53518044Y-44580497D01*
X53588025Y-44429053D01*
X53633002Y-44273571D01*
X53647212Y-44130979D01*
X53647212Y-44129165D01*
X53633518Y-43963759D01*
X53594986Y-43825669D01*
X53533774Y-43709819D01*
X53449705Y-43612482D01*
X53346467Y-43535854D01*
X53221910Y-43478963D01*
X53132504Y-43457345D01*
X55958604Y-43457345D01*
X56833372Y-46141000D01*
X57191456Y-46141000D01*
X57653002Y-44725313D01*
X58379960Y-44725313D01*
X58379960Y-45083397D01*
X58941157Y-45083397D01*
X58941157Y-45653662D01*
X59317706Y-45653662D01*
X59317706Y-45083397D01*
X59878738Y-45083397D01*
X59878738Y-44725313D01*
X59317706Y-44725313D01*
X59317706Y-44155049D01*
X58941157Y-44155049D01*
X58941157Y-44725313D01*
X58379960Y-44725313D01*
X57653002Y-44725313D01*
X58066389Y-43457345D01*
X57656702Y-43457345D01*
X57012414Y-45561503D01*
X56368291Y-43457345D01*
X55958604Y-43457345D01*
X53132504Y-43457345D01*
X53071733Y-43442651D01*
X52890486Y-43429647D01*
X52733007Y-43442441D01*
X52595648Y-43479100D01*
X52474875Y-43538354D01*
X52368032Y-43620725D01*
X52279156Y-43721793D01*
X52207089Y-43842868D01*
X52151951Y-43987127D01*
X52115131Y-44158676D01*
X50095271Y-44158676D01*
X50095271Y-43129647D01*
X60178738Y-43129647D01*
X60178738Y-46442813D01*
G37*
G36*
X138646273Y-95931627D02*
G01*
X138634826Y-95990109D01*
X138600842Y-96037206D01*
X138539112Y-96075718D01*
X138418109Y-96108401D01*
X138217957Y-96121879D01*
X138088805Y-96112638D01*
X137993586Y-96088138D01*
X137924499Y-96051812D01*
X137871311Y-95998215D01*
X137838553Y-95927986D01*
X137826735Y-95835676D01*
X137835989Y-95748994D01*
X137861159Y-95684037D01*
X137900594Y-95635531D01*
X137953732Y-95600949D01*
X138025095Y-95578317D01*
X138120192Y-95569915D01*
X138646273Y-95569915D01*
X138646273Y-95931627D01*
G37*
G36*
X130991902Y-94089714D02*
G01*
X131089064Y-94132032D01*
X131170848Y-94202369D01*
X131231329Y-94293123D01*
X131269138Y-94403883D01*
X131282626Y-94540010D01*
X131269221Y-94673690D01*
X131231489Y-94783400D01*
X131170848Y-94874189D01*
X131089077Y-94944427D01*
X130991914Y-94986695D01*
X130874588Y-95001464D01*
X130199141Y-95001464D01*
X130199141Y-94074929D01*
X130874588Y-94074929D01*
X130991902Y-94089714D01*
G37*
G36*
X141413956Y-96728197D02*
G01*
X129522591Y-96728197D01*
X129522591Y-96400500D01*
X129822591Y-96400500D01*
X130199141Y-96400500D01*
X130199141Y-95359549D01*
X130861729Y-95359549D01*
X131021537Y-95347594D01*
X131161983Y-95313304D01*
X131286253Y-95257993D01*
X131397976Y-95181013D01*
X131491289Y-95086247D01*
X131567676Y-94971954D01*
X131622435Y-94845275D01*
X131656403Y-94702337D01*
X131657204Y-94691355D01*
X132083205Y-94691355D01*
X132083205Y-95427802D01*
X132096926Y-95625621D01*
X132136240Y-95799756D01*
X132199434Y-95953883D01*
X132288337Y-96093966D01*
X132396765Y-96209788D01*
X132526195Y-96303724D01*
X132671082Y-96371747D01*
X132833517Y-96413650D01*
X133017160Y-96428197D01*
X133169770Y-96416819D01*
X133238737Y-96400500D01*
X135488635Y-96400500D01*
X135865184Y-96400500D01*
X135865184Y-95835676D01*
X137472277Y-95835676D01*
X137484816Y-95985156D01*
X137519619Y-96105927D01*
X137574194Y-96203661D01*
X137648517Y-96282457D01*
X137739256Y-96341932D01*
X137853943Y-96387470D01*
X137997868Y-96417308D01*
X138177400Y-96428197D01*
X138293940Y-96421646D01*
X138392383Y-96403302D01*
X138483215Y-96371731D01*
X138561368Y-96328619D01*
X138628966Y-96272033D01*
X138646273Y-96250154D01*
X138646273Y-96400500D01*
X139004358Y-96400500D01*
X139004358Y-95169461D01*
X138990636Y-95001068D01*
X138952041Y-94860446D01*
X138890800Y-94742481D01*
X138806851Y-94643380D01*
X138703360Y-94565018D01*
X138578958Y-94507032D01*
X138488171Y-94484616D01*
X139574622Y-94484616D01*
X139574622Y-96400500D01*
X139951171Y-96400500D01*
X139951171Y-95187925D01*
X139963417Y-95073912D01*
X139997431Y-94984077D01*
X140051738Y-94912932D01*
X140124536Y-94860377D01*
X140217639Y-94827079D01*
X140336953Y-94815003D01*
X140460215Y-94828497D01*
X140556877Y-94865944D01*
X140633048Y-94925792D01*
X140688933Y-95005701D01*
X140724487Y-95108118D01*
X140737407Y-95239528D01*
X140737407Y-96400500D01*
X141113956Y-96400500D01*
X141113956Y-95237714D01*
X141101645Y-95049648D01*
X141067395Y-94894361D01*
X141014130Y-94766280D01*
X140943157Y-94660855D01*
X140850978Y-94573102D01*
X140742278Y-94510078D01*
X140613748Y-94470801D01*
X140460601Y-94456919D01*
X140347788Y-94467486D01*
X140242937Y-94498715D01*
X140144062Y-94551056D01*
X140056301Y-94621126D01*
X139979213Y-94709556D01*
X139951171Y-94755423D01*
X139951171Y-94484616D01*
X139574622Y-94484616D01*
X138488171Y-94484616D01*
X138429445Y-94470116D01*
X138249446Y-94456919D01*
X138038552Y-94475735D01*
X137853443Y-94529953D01*
X137740127Y-94586367D01*
X137645177Y-94654305D01*
X137566415Y-94733890D01*
X137841572Y-94922165D01*
X137933332Y-94865530D01*
X138038090Y-94823411D01*
X138148875Y-94797649D01*
X138260492Y-94789120D01*
X138379172Y-94801862D01*
X138472240Y-94837183D01*
X138545541Y-94893478D01*
X138599715Y-94968882D01*
X138633914Y-95064441D01*
X138646273Y-95185947D01*
X138646273Y-95267225D01*
X138118379Y-95267225D01*
X137907285Y-95285435D01*
X137749966Y-95334290D01*
X137633844Y-95408513D01*
X137565913Y-95484150D01*
X137515820Y-95577743D01*
X137483811Y-95693170D01*
X137472277Y-95835676D01*
X135865184Y-95835676D01*
X135865184Y-95270852D01*
X136974388Y-95270852D01*
X136974388Y-94912932D01*
X135865184Y-94912932D01*
X135865184Y-94074929D01*
X137177501Y-94074929D01*
X137177501Y-93716845D01*
X135865184Y-93716845D01*
X135488635Y-93716845D01*
X135488635Y-96400500D01*
X133238737Y-96400500D01*
X133310583Y-96383500D01*
X133441684Y-96328619D01*
X133562599Y-96253504D01*
X133669903Y-96161001D01*
X133764653Y-96049834D01*
X133841638Y-95925567D01*
X133900800Y-95786636D01*
X133941881Y-95630915D01*
X133556100Y-95630915D01*
X133507632Y-95762048D01*
X133438282Y-95867083D01*
X133347547Y-95950256D01*
X133240104Y-96012556D01*
X133130689Y-96048837D01*
X133017160Y-96060880D01*
X132896655Y-96049467D01*
X132792128Y-96016674D01*
X132700405Y-95963138D01*
X132619343Y-95887443D01*
X132538026Y-95763828D01*
X132487144Y-95613025D01*
X132468987Y-95427802D01*
X132468987Y-94691355D01*
X132487126Y-94506120D01*
X132537996Y-94355015D01*
X132619343Y-94230890D01*
X132700467Y-94154717D01*
X132792211Y-94100885D01*
X132896716Y-94067930D01*
X133017160Y-94056464D01*
X133132925Y-94069732D01*
X133245991Y-94110045D01*
X133349228Y-94174046D01*
X133438881Y-94260401D01*
X133508867Y-94364665D01*
X133556100Y-94486429D01*
X133941881Y-94486429D01*
X133900894Y-94330648D01*
X133842052Y-94191715D01*
X133765642Y-94067510D01*
X133671432Y-93956461D01*
X133564151Y-93864004D01*
X133442673Y-93788890D01*
X133310929Y-93733886D01*
X133169774Y-93700527D01*
X133017160Y-93689147D01*
X132833526Y-93703712D01*
X132671091Y-93745669D01*
X132526195Y-93813785D01*
X132396771Y-93907624D01*
X132288344Y-94023388D01*
X132199434Y-94163461D01*
X132136295Y-94317606D01*
X132096954Y-94492311D01*
X132083205Y-94691355D01*
X131657204Y-94691355D01*
X131668243Y-94540010D01*
X131656371Y-94376462D01*
X131622373Y-94233010D01*
X131567676Y-94106418D01*
X131491309Y-93991965D01*
X131397994Y-93896861D01*
X131286253Y-93819390D01*
X131161925Y-93763519D01*
X131021484Y-93728907D01*
X130861729Y-93716845D01*
X130199141Y-93716845D01*
X129822591Y-93716845D01*
X129822591Y-96400500D01*
X129522591Y-96400500D01*
X129522591Y-93389147D01*
X141413956Y-93389147D01*
X141413956Y-96728197D01*
G37*
D11*
X59083082Y-76900828D02*
X59083082Y-77972257D01*
X59083082Y-77972257D02*
X59011653Y-78186542D01*
X59011653Y-78186542D02*
X58868796Y-78329400D01*
X58868796Y-78329400D02*
X58654510Y-78400828D01*
X58654510Y-78400828D02*
X58511653Y-78400828D01*
X60511653Y-78400828D02*
X59797367Y-78400828D01*
X59797367Y-78400828D02*
X59797367Y-76900828D01*
X61868796Y-78257971D02*
X61797368Y-78329400D01*
X61797368Y-78329400D02*
X61583082Y-78400828D01*
X61583082Y-78400828D02*
X61440225Y-78400828D01*
X61440225Y-78400828D02*
X61225939Y-78329400D01*
X61225939Y-78329400D02*
X61083082Y-78186542D01*
X61083082Y-78186542D02*
X61011653Y-78043685D01*
X61011653Y-78043685D02*
X60940225Y-77757971D01*
X60940225Y-77757971D02*
X60940225Y-77543685D01*
X60940225Y-77543685D02*
X61011653Y-77257971D01*
X61011653Y-77257971D02*
X61083082Y-77115114D01*
X61083082Y-77115114D02*
X61225939Y-76972257D01*
X61225939Y-76972257D02*
X61440225Y-76900828D01*
X61440225Y-76900828D02*
X61583082Y-76900828D01*
X61583082Y-76900828D02*
X61797368Y-76972257D01*
X61797368Y-76972257D02*
X61868796Y-77043685D01*
X62940225Y-76900828D02*
X62940225Y-77972257D01*
X62940225Y-77972257D02*
X62868796Y-78186542D01*
X62868796Y-78186542D02*
X62725939Y-78329400D01*
X62725939Y-78329400D02*
X62511653Y-78400828D01*
X62511653Y-78400828D02*
X62368796Y-78400828D01*
X64368796Y-78400828D02*
X63654510Y-78400828D01*
X63654510Y-78400828D02*
X63654510Y-76900828D01*
X65725939Y-78257971D02*
X65654511Y-78329400D01*
X65654511Y-78329400D02*
X65440225Y-78400828D01*
X65440225Y-78400828D02*
X65297368Y-78400828D01*
X65297368Y-78400828D02*
X65083082Y-78329400D01*
X65083082Y-78329400D02*
X64940225Y-78186542D01*
X64940225Y-78186542D02*
X64868796Y-78043685D01*
X64868796Y-78043685D02*
X64797368Y-77757971D01*
X64797368Y-77757971D02*
X64797368Y-77543685D01*
X64797368Y-77543685D02*
X64868796Y-77257971D01*
X64868796Y-77257971D02*
X64940225Y-77115114D01*
X64940225Y-77115114D02*
X65083082Y-76972257D01*
X65083082Y-76972257D02*
X65297368Y-76900828D01*
X65297368Y-76900828D02*
X65440225Y-76900828D01*
X65440225Y-76900828D02*
X65654511Y-76972257D01*
X65654511Y-76972257D02*
X65725939Y-77043685D01*
X66797368Y-76900828D02*
X66797368Y-77972257D01*
X66797368Y-77972257D02*
X66725939Y-78186542D01*
X66725939Y-78186542D02*
X66583082Y-78329400D01*
X66583082Y-78329400D02*
X66368796Y-78400828D01*
X66368796Y-78400828D02*
X66225939Y-78400828D01*
X68225939Y-78400828D02*
X67511653Y-78400828D01*
X67511653Y-78400828D02*
X67511653Y-76900828D01*
X69583082Y-78257971D02*
X69511654Y-78329400D01*
X69511654Y-78329400D02*
X69297368Y-78400828D01*
X69297368Y-78400828D02*
X69154511Y-78400828D01*
X69154511Y-78400828D02*
X68940225Y-78329400D01*
X68940225Y-78329400D02*
X68797368Y-78186542D01*
X68797368Y-78186542D02*
X68725939Y-78043685D01*
X68725939Y-78043685D02*
X68654511Y-77757971D01*
X68654511Y-77757971D02*
X68654511Y-77543685D01*
X68654511Y-77543685D02*
X68725939Y-77257971D01*
X68725939Y-77257971D02*
X68797368Y-77115114D01*
X68797368Y-77115114D02*
X68940225Y-76972257D01*
X68940225Y-76972257D02*
X69154511Y-76900828D01*
X69154511Y-76900828D02*
X69297368Y-76900828D01*
X69297368Y-76900828D02*
X69511654Y-76972257D01*
X69511654Y-76972257D02*
X69583082Y-77043685D01*
X70654511Y-76900828D02*
X70654511Y-77972257D01*
X70654511Y-77972257D02*
X70583082Y-78186542D01*
X70583082Y-78186542D02*
X70440225Y-78329400D01*
X70440225Y-78329400D02*
X70225939Y-78400828D01*
X70225939Y-78400828D02*
X70083082Y-78400828D01*
X72083082Y-78400828D02*
X71368796Y-78400828D01*
X71368796Y-78400828D02*
X71368796Y-76900828D01*
X73440225Y-78257971D02*
X73368797Y-78329400D01*
X73368797Y-78329400D02*
X73154511Y-78400828D01*
X73154511Y-78400828D02*
X73011654Y-78400828D01*
X73011654Y-78400828D02*
X72797368Y-78329400D01*
X72797368Y-78329400D02*
X72654511Y-78186542D01*
X72654511Y-78186542D02*
X72583082Y-78043685D01*
X72583082Y-78043685D02*
X72511654Y-77757971D01*
X72511654Y-77757971D02*
X72511654Y-77543685D01*
X72511654Y-77543685D02*
X72583082Y-77257971D01*
X72583082Y-77257971D02*
X72654511Y-77115114D01*
X72654511Y-77115114D02*
X72797368Y-76972257D01*
X72797368Y-76972257D02*
X73011654Y-76900828D01*
X73011654Y-76900828D02*
X73154511Y-76900828D01*
X73154511Y-76900828D02*
X73368797Y-76972257D01*
X73368797Y-76972257D02*
X73440225Y-77043685D01*
D10*
G36*
X47214800Y-92505836D02*
G01*
X47338302Y-92536350D01*
X47441083Y-92584286D01*
X47526612Y-92649077D01*
X47596074Y-92731013D01*
X47646732Y-92828491D01*
X47678647Y-92944635D01*
X47689992Y-93083658D01*
X47689992Y-93873686D01*
X47678647Y-94012709D01*
X47646732Y-94128853D01*
X47596074Y-94226332D01*
X47526612Y-94308267D01*
X47441083Y-94373058D01*
X47338302Y-94420994D01*
X47214800Y-94451508D01*
X47066147Y-94462415D01*
X46580787Y-94462415D01*
X46580787Y-92494929D01*
X47066147Y-92494929D01*
X47214800Y-92505836D01*
G37*
G36*
X48375773Y-95120500D02*
G01*
X41480609Y-95120500D01*
X41480609Y-94820500D01*
X41780609Y-94820500D01*
X41968884Y-94820500D01*
X42157159Y-94820500D01*
X43504591Y-94820500D01*
X43946262Y-94820500D01*
X44128931Y-94820500D01*
X44322811Y-94820500D01*
X45670244Y-94820500D01*
X46204238Y-94820500D01*
X46458953Y-94820500D01*
X46580787Y-94820500D01*
X47053287Y-94820500D01*
X47267485Y-94806794D01*
X47450400Y-94768117D01*
X47606900Y-94707073D01*
X47748665Y-94619139D01*
X47864032Y-94510195D01*
X47955752Y-94378499D01*
X48020643Y-94230555D01*
X48061401Y-94058896D01*
X48075773Y-93858848D01*
X48075773Y-93098496D01*
X48057256Y-92871538D01*
X48005153Y-92681876D01*
X47922444Y-92522645D01*
X47809023Y-92388757D01*
X47669334Y-92282941D01*
X47501204Y-92204598D01*
X47298901Y-92154693D01*
X47055101Y-92136845D01*
X46580787Y-92136845D01*
X46204238Y-92136845D01*
X46204238Y-94820500D01*
X45670244Y-94820500D01*
X45670244Y-94462415D01*
X44322811Y-94462415D01*
X44322811Y-93666947D01*
X45467131Y-93666947D01*
X45467131Y-93308862D01*
X44322811Y-93308862D01*
X44322811Y-92494929D01*
X45670244Y-92494929D01*
X45670244Y-92136845D01*
X44322811Y-92136845D01*
X43946262Y-92136845D01*
X43946262Y-94820500D01*
X43504591Y-94820500D01*
X43504591Y-94462415D01*
X42157159Y-94462415D01*
X42157159Y-92136845D01*
X41780609Y-92136845D01*
X41780609Y-94820500D01*
X41480609Y-94820500D01*
X41480609Y-91836845D01*
X48375773Y-91836845D01*
X48375773Y-95120500D01*
G37*
G36*
X106278738Y-46342813D02*
G01*
X96195271Y-46342813D01*
X96195271Y-45258390D01*
X96495271Y-45258390D01*
X97735707Y-45258390D01*
X97735707Y-44900306D01*
X96495271Y-44900306D01*
X96495271Y-45258390D01*
X96195271Y-45258390D01*
X96195271Y-44058676D01*
X98215131Y-44058676D01*
X98215131Y-44060489D01*
X98604705Y-44060489D01*
X98604705Y-44058676D01*
X98629845Y-43944946D01*
X98671680Y-43855158D01*
X98729177Y-43784672D01*
X98802664Y-43731626D01*
X98889711Y-43699147D01*
X98994113Y-43687732D01*
X99106446Y-43698734D01*
X99193767Y-43728972D01*
X99261687Y-43776429D01*
X99312656Y-43841096D01*
X99344419Y-43922480D01*
X99355825Y-44025538D01*
X99355825Y-44029165D01*
X99345071Y-44131328D01*
X99310652Y-44245137D01*
X99257135Y-44356502D01*
X99184201Y-44466549D01*
X98248434Y-45714239D01*
X98248434Y-46041000D01*
X99761885Y-46041000D01*
X99761885Y-45682915D01*
X98746817Y-45682915D01*
X99026606Y-45302739D01*
X100093261Y-45302739D01*
X100093261Y-45629334D01*
X101250606Y-45629334D01*
X101250606Y-46042813D01*
X101617923Y-46042813D01*
X101617923Y-45629334D01*
X101819057Y-45629334D01*
X101819057Y-45280647D01*
X101617923Y-45280647D01*
X101617923Y-44462922D01*
X101250606Y-44462922D01*
X101250606Y-45280647D01*
X100503113Y-45280647D01*
X101381673Y-43359158D01*
X100994077Y-43359158D01*
X100093261Y-45302739D01*
X99026606Y-45302739D01*
X99523821Y-44627127D01*
X99618044Y-44480497D01*
X99688025Y-44329053D01*
X99733002Y-44173571D01*
X99747212Y-44030979D01*
X99747212Y-44029165D01*
X99733518Y-43863759D01*
X99694986Y-43725669D01*
X99633774Y-43609819D01*
X99549705Y-43512482D01*
X99446467Y-43435854D01*
X99321910Y-43378963D01*
X99232504Y-43357345D01*
X102058604Y-43357345D01*
X102933372Y-46041000D01*
X103291456Y-46041000D01*
X103753002Y-44625313D01*
X104479960Y-44625313D01*
X104479960Y-44983397D01*
X105041157Y-44983397D01*
X105041157Y-45553662D01*
X105417706Y-45553662D01*
X105417706Y-44983397D01*
X105978738Y-44983397D01*
X105978738Y-44625313D01*
X105417706Y-44625313D01*
X105417706Y-44055049D01*
X105041157Y-44055049D01*
X105041157Y-44625313D01*
X104479960Y-44625313D01*
X103753002Y-44625313D01*
X104166389Y-43357345D01*
X103756702Y-43357345D01*
X103112414Y-45461503D01*
X102468291Y-43357345D01*
X102058604Y-43357345D01*
X99232504Y-43357345D01*
X99171733Y-43342651D01*
X98990486Y-43329647D01*
X98833007Y-43342441D01*
X98695648Y-43379100D01*
X98574875Y-43438354D01*
X98468032Y-43520725D01*
X98379156Y-43621793D01*
X98307089Y-43742868D01*
X98251951Y-43887127D01*
X98215131Y-44058676D01*
X96195271Y-44058676D01*
X96195271Y-43029647D01*
X106278738Y-43029647D01*
X106278738Y-46342813D01*
G37*
G36*
X106422870Y-108066262D02*
G01*
X106507680Y-108106307D01*
X106579280Y-108173710D01*
X106632161Y-108259630D01*
X106670271Y-108369900D01*
X106691326Y-108510459D01*
X105908648Y-108510459D01*
X105918898Y-108394845D01*
X105956392Y-108274916D01*
X106014468Y-108182258D01*
X106095421Y-108111157D01*
X106195484Y-108067749D01*
X106320535Y-108052351D01*
X106422870Y-108066262D01*
G37*
G36*
X108298655Y-108066262D02*
G01*
X108383465Y-108106307D01*
X108455065Y-108173710D01*
X108507946Y-108259630D01*
X108546056Y-108369900D01*
X108567111Y-108510459D01*
X107784433Y-108510459D01*
X107794683Y-108394845D01*
X107832177Y-108274916D01*
X107890253Y-108182258D01*
X107971206Y-108111157D01*
X108071269Y-108067749D01*
X108196320Y-108052351D01*
X108298655Y-108066262D01*
G37*
G36*
X113892778Y-109840924D02*
G01*
X99873793Y-109840924D01*
X99873793Y-109255553D01*
X100151571Y-109255553D01*
X100277636Y-109349705D01*
X100411995Y-109426370D01*
X100555552Y-109485891D01*
X100711193Y-109528952D01*
X100874177Y-109554377D01*
X101052217Y-109563146D01*
X101271748Y-109549530D01*
X101453068Y-109511693D01*
X101602530Y-109453021D01*
X101725411Y-109375232D01*
X101829167Y-109272700D01*
X101902994Y-109152569D01*
X101948683Y-109011337D01*
X101964769Y-108843698D01*
X101964769Y-108840187D01*
X101956277Y-108705741D01*
X101932937Y-108597395D01*
X101897145Y-108510459D01*
X101889912Y-108500079D01*
X102374029Y-108500079D01*
X102374029Y-108792407D01*
X102388120Y-108975469D01*
X102427632Y-109127883D01*
X102489977Y-109255154D01*
X102574766Y-109361493D01*
X102680814Y-109446751D01*
X102807606Y-109509365D01*
X102959312Y-109549014D01*
X103141409Y-109563146D01*
X103277785Y-109554722D01*
X103402253Y-109530255D01*
X103516475Y-109490484D01*
X103622859Y-109434143D01*
X103711364Y-109365625D01*
X103784073Y-109284557D01*
X103532808Y-109041840D01*
X103451997Y-109122572D01*
X103358327Y-109182127D01*
X103254875Y-109219256D01*
X103146599Y-109231586D01*
X103016881Y-109217644D01*
X102914704Y-109178922D01*
X102833816Y-109117097D01*
X102774190Y-109034250D01*
X102736396Y-108928262D01*
X102722685Y-108792407D01*
X102722685Y-108500079D01*
X102736318Y-108367781D01*
X102774030Y-108263977D01*
X102833816Y-108182258D01*
X102914573Y-108121412D01*
X103016746Y-108083218D01*
X103146599Y-108069448D01*
X103255034Y-108081015D01*
X103358327Y-108115702D01*
X103452223Y-108171516D01*
X103532808Y-108247288D01*
X103784073Y-108021668D01*
X103711191Y-107938330D01*
X103622947Y-107868438D01*
X103517391Y-107811467D01*
X103403604Y-107771248D01*
X103364806Y-107763534D01*
X104166771Y-107763534D01*
X104166771Y-109537501D01*
X104515428Y-109537501D01*
X104515428Y-108568467D01*
X105573610Y-108568467D01*
X105573610Y-108768441D01*
X105587973Y-108958743D01*
X105628152Y-109116510D01*
X105691335Y-109247581D01*
X105776942Y-109356455D01*
X105884516Y-109443932D01*
X106013050Y-109508092D01*
X106166762Y-109548684D01*
X106351218Y-109563146D01*
X106515139Y-109546159D01*
X106681099Y-109493995D01*
X106836642Y-109410701D01*
X106976785Y-109298295D01*
X106747808Y-109069165D01*
X106660162Y-109137543D01*
X106561420Y-109188844D01*
X106455950Y-109221061D01*
X106351218Y-109231586D01*
X106214718Y-109217197D01*
X106107246Y-109177285D01*
X106022254Y-109113739D01*
X105959491Y-109028074D01*
X105919654Y-108917696D01*
X105906738Y-108790728D01*
X107022886Y-108790728D01*
X107022886Y-108674407D01*
X107016596Y-108568467D01*
X107449395Y-108568467D01*
X107449395Y-108768441D01*
X107463758Y-108958743D01*
X107503937Y-109116510D01*
X107567120Y-109247581D01*
X107652727Y-109356455D01*
X107760301Y-109443932D01*
X107888835Y-109508092D01*
X108042547Y-109548684D01*
X108227003Y-109563146D01*
X108390924Y-109546159D01*
X108556884Y-109493995D01*
X108712427Y-109410701D01*
X108852570Y-109298295D01*
X108623593Y-109069165D01*
X108535947Y-109137543D01*
X108437205Y-109188844D01*
X108331735Y-109221061D01*
X108227003Y-109231586D01*
X108090503Y-109217197D01*
X107983031Y-109177285D01*
X107898039Y-109113739D01*
X107835276Y-109028074D01*
X107795439Y-108917696D01*
X107782523Y-108790728D01*
X108898671Y-108790728D01*
X108898671Y-108674407D01*
X108885298Y-108449176D01*
X108848173Y-108263156D01*
X108790736Y-108109933D01*
X108714878Y-107984116D01*
X108613964Y-107876693D01*
X108496408Y-107800876D01*
X108386307Y-107763534D01*
X109376471Y-107763534D01*
X109376471Y-109537501D01*
X109725128Y-109537501D01*
X109725128Y-108414747D01*
X109736467Y-108309179D01*
X109767961Y-108225998D01*
X109818245Y-108160123D01*
X109885651Y-108111461D01*
X109971857Y-108080630D01*
X110082333Y-108069448D01*
X110196465Y-108081942D01*
X110285967Y-108116616D01*
X110356496Y-108172030D01*
X110408240Y-108246021D01*
X110441161Y-108340851D01*
X110453124Y-108462527D01*
X110453124Y-109537501D01*
X110801781Y-109537501D01*
X110801781Y-108460847D01*
X110790381Y-108286712D01*
X110758668Y-108142927D01*
X110709349Y-108024334D01*
X110643634Y-107926719D01*
X110558283Y-107845466D01*
X110457635Y-107787110D01*
X110338625Y-107750743D01*
X110196822Y-107737889D01*
X110092366Y-107747673D01*
X109995281Y-107776589D01*
X109903730Y-107825053D01*
X109822471Y-107889932D01*
X109751092Y-107971812D01*
X109725128Y-108014281D01*
X109725128Y-107763534D01*
X109376471Y-107763534D01*
X108386307Y-107763534D01*
X108358928Y-107754248D01*
X108196320Y-107737889D01*
X108020747Y-107752834D01*
X107873672Y-107794991D01*
X107749744Y-107862210D01*
X107645095Y-107954960D01*
X107563231Y-108068090D01*
X107502303Y-108204702D01*
X107463352Y-108369518D01*
X107453464Y-108510459D01*
X107449395Y-108568467D01*
X107016596Y-108568467D01*
X107009513Y-108449176D01*
X106972388Y-108263156D01*
X106914951Y-108109933D01*
X106839093Y-107984116D01*
X106738179Y-107876693D01*
X106620623Y-107800876D01*
X106483143Y-107754248D01*
X106320535Y-107737889D01*
X106144962Y-107752834D01*
X105997887Y-107794991D01*
X105873959Y-107862210D01*
X105769310Y-107954960D01*
X105687446Y-108068090D01*
X105626517Y-108204702D01*
X105587567Y-108369518D01*
X105577679Y-108510459D01*
X105573610Y-108568467D01*
X104515428Y-108568467D01*
X104515428Y-108414747D01*
X104526533Y-108310163D01*
X104557450Y-108227153D01*
X104606866Y-108160887D01*
X104673202Y-108111620D01*
X104757226Y-108080631D01*
X104864085Y-108069448D01*
X104952741Y-108077100D01*
X105026353Y-108098605D01*
X105090849Y-108134664D01*
X105142674Y-108183937D01*
X105369973Y-107876344D01*
X105290608Y-107816552D01*
X105198087Y-107772999D01*
X105096209Y-107747002D01*
X104978573Y-107737889D01*
X104876469Y-107747821D01*
X104781068Y-107777273D01*
X104690520Y-107826885D01*
X104610219Y-107892523D01*
X104540018Y-107973894D01*
X104515428Y-108014183D01*
X104515428Y-107763534D01*
X104166771Y-107763534D01*
X103364806Y-107763534D01*
X103278871Y-107746448D01*
X103141409Y-107737889D01*
X102959146Y-107751877D01*
X102807385Y-107791099D01*
X102680655Y-107852974D01*
X102574766Y-107937099D01*
X102489920Y-108042229D01*
X102427592Y-108168096D01*
X102388108Y-108318881D01*
X102374029Y-108500079D01*
X101889912Y-108500079D01*
X101817760Y-108396527D01*
X101717779Y-108311401D01*
X101600612Y-108247712D01*
X101469109Y-108200271D01*
X101195710Y-108134478D01*
X100911167Y-108068685D01*
X100788324Y-108022479D01*
X100696691Y-107960150D01*
X100652455Y-107905961D01*
X100624740Y-107836301D01*
X100614717Y-107746437D01*
X100614717Y-107744758D01*
X100620680Y-107702016D01*
X112182821Y-107702016D01*
X112182821Y-107703695D01*
X112543538Y-107703695D01*
X112543538Y-107702016D01*
X112566815Y-107596711D01*
X112605552Y-107513573D01*
X112658790Y-107448308D01*
X112726833Y-107399192D01*
X112807432Y-107369118D01*
X112904101Y-107358549D01*
X113008113Y-107368737D01*
X113088966Y-107396734D01*
X113151855Y-107440676D01*
X113199048Y-107500553D01*
X113228459Y-107575908D01*
X113239019Y-107671332D01*
X113239019Y-107674691D01*
X113229062Y-107769286D01*
X113197193Y-107874665D01*
X113147639Y-107977781D01*
X113080109Y-108079676D01*
X112213657Y-109234945D01*
X112213657Y-109537501D01*
X113615000Y-109537501D01*
X113615000Y-109205941D01*
X112675123Y-109205941D01*
X113394571Y-108228359D01*
X113481815Y-108092591D01*
X113546612Y-107952364D01*
X113588257Y-107808400D01*
X113601414Y-107676370D01*
X113601414Y-107674691D01*
X113588735Y-107521537D01*
X113553057Y-107393676D01*
X113496379Y-107286407D01*
X113418538Y-107196280D01*
X113322947Y-107125329D01*
X113207616Y-107072652D01*
X113068564Y-107039029D01*
X112900743Y-107026989D01*
X112754928Y-107038835D01*
X112627744Y-107072779D01*
X112515918Y-107127643D01*
X112416989Y-107203913D01*
X112334696Y-107297494D01*
X112267967Y-107409601D01*
X112216914Y-107543174D01*
X112182821Y-107702016D01*
X100620680Y-107702016D01*
X100631034Y-107627799D01*
X100677575Y-107533703D01*
X100755615Y-107456857D01*
X100854837Y-107403254D01*
X100984046Y-107368134D01*
X101151288Y-107355191D01*
X101291917Y-107367841D01*
X101433999Y-107406482D01*
X101572290Y-107469688D01*
X101716863Y-107563560D01*
X101915158Y-107286803D01*
X101729030Y-107170842D01*
X101542535Y-107091103D01*
X101348881Y-107042984D01*
X101151288Y-107026989D01*
X100939181Y-107040737D01*
X100763905Y-107078986D01*
X100619236Y-107138458D01*
X100500076Y-107217651D01*
X100400609Y-107320764D01*
X100329361Y-107441998D01*
X100285056Y-107584973D01*
X100269419Y-107754986D01*
X100269419Y-107756665D01*
X100278634Y-107900219D01*
X100303785Y-108014007D01*
X100342081Y-108103642D01*
X100427346Y-108219315D01*
X100534270Y-108302853D01*
X100658800Y-108362492D01*
X100796678Y-108404519D01*
X101079542Y-108460847D01*
X101346835Y-108521603D01*
X101459576Y-108569184D01*
X101544214Y-108633497D01*
X101584521Y-108688110D01*
X101610141Y-108758819D01*
X101619471Y-108850415D01*
X101619471Y-108852247D01*
X101602603Y-108965115D01*
X101553903Y-109057359D01*
X101470788Y-109134194D01*
X101366677Y-109187082D01*
X101230044Y-109222013D01*
X101052217Y-109234945D01*
X100857320Y-109219202D01*
X100681273Y-109173426D01*
X100518315Y-109096909D01*
X100368490Y-108988870D01*
X100151571Y-109255553D01*
X99873793Y-109255553D01*
X99873793Y-106749211D01*
X113892778Y-106749211D01*
X113892778Y-109840924D01*
G37*
G36*
X93005269Y-108066261D02*
G01*
X93090079Y-108106306D01*
X93161679Y-108173709D01*
X93214560Y-108259629D01*
X93252670Y-108369899D01*
X93273725Y-108510458D01*
X92491047Y-108510458D01*
X92501297Y-108394844D01*
X92538791Y-108274915D01*
X92596867Y-108182257D01*
X92677820Y-108111156D01*
X92777883Y-108067748D01*
X92902934Y-108052350D01*
X93005269Y-108066261D01*
G37*
G36*
X94881054Y-108066261D02*
G01*
X94965864Y-108106306D01*
X95037464Y-108173709D01*
X95090345Y-108259629D01*
X95128455Y-108369899D01*
X95149510Y-108510458D01*
X94366832Y-108510458D01*
X94377082Y-108394844D01*
X94414576Y-108274915D01*
X94472652Y-108182257D01*
X94553605Y-108111156D01*
X94653668Y-108067748D01*
X94778719Y-108052350D01*
X94881054Y-108066261D01*
G37*
G36*
X99711308Y-109840923D02*
G01*
X86456192Y-109840923D01*
X86456192Y-109255552D01*
X86733970Y-109255552D01*
X86860035Y-109349704D01*
X86994394Y-109426369D01*
X87137951Y-109485890D01*
X87293592Y-109528951D01*
X87456576Y-109554376D01*
X87634616Y-109563145D01*
X87854147Y-109549529D01*
X88035467Y-109511692D01*
X88184929Y-109453020D01*
X88307810Y-109375231D01*
X88411566Y-109272699D01*
X88485393Y-109152568D01*
X88531082Y-109011336D01*
X88547168Y-108843697D01*
X88547168Y-108840186D01*
X88538676Y-108705740D01*
X88515336Y-108597394D01*
X88479544Y-108510458D01*
X88472311Y-108500078D01*
X88956428Y-108500078D01*
X88956428Y-108792406D01*
X88970519Y-108975468D01*
X89010031Y-109127882D01*
X89072376Y-109255153D01*
X89157165Y-109361492D01*
X89263213Y-109446750D01*
X89390005Y-109509364D01*
X89541711Y-109549013D01*
X89723808Y-109563145D01*
X89860184Y-109554721D01*
X89984652Y-109530254D01*
X90098874Y-109490483D01*
X90205258Y-109434142D01*
X90293763Y-109365624D01*
X90366472Y-109284556D01*
X90115207Y-109041839D01*
X90034396Y-109122571D01*
X89940726Y-109182126D01*
X89837274Y-109219255D01*
X89728998Y-109231585D01*
X89599280Y-109217643D01*
X89497103Y-109178921D01*
X89416215Y-109117096D01*
X89356589Y-109034249D01*
X89318795Y-108928261D01*
X89305084Y-108792406D01*
X89305084Y-108500078D01*
X89318717Y-108367780D01*
X89356429Y-108263976D01*
X89416215Y-108182257D01*
X89496972Y-108121411D01*
X89599145Y-108083217D01*
X89728998Y-108069447D01*
X89837433Y-108081014D01*
X89940726Y-108115701D01*
X90034622Y-108171515D01*
X90115207Y-108247287D01*
X90366472Y-108021667D01*
X90293590Y-107938329D01*
X90205346Y-107868437D01*
X90099790Y-107811466D01*
X89986003Y-107771247D01*
X89947205Y-107763533D01*
X90749170Y-107763533D01*
X90749170Y-109537500D01*
X91097827Y-109537500D01*
X91097827Y-108568466D01*
X92156009Y-108568466D01*
X92156009Y-108768440D01*
X92170372Y-108958742D01*
X92210551Y-109116509D01*
X92273734Y-109247580D01*
X92359341Y-109356454D01*
X92466915Y-109443931D01*
X92595449Y-109508091D01*
X92749161Y-109548683D01*
X92933617Y-109563145D01*
X93097538Y-109546158D01*
X93263498Y-109493994D01*
X93419041Y-109410700D01*
X93559184Y-109298294D01*
X93330207Y-109069164D01*
X93242561Y-109137542D01*
X93143819Y-109188843D01*
X93038349Y-109221060D01*
X92933617Y-109231585D01*
X92797117Y-109217196D01*
X92689645Y-109177284D01*
X92604653Y-109113738D01*
X92541890Y-109028073D01*
X92502053Y-108917695D01*
X92489137Y-108790727D01*
X93605285Y-108790727D01*
X93605285Y-108674406D01*
X93598995Y-108568466D01*
X94031794Y-108568466D01*
X94031794Y-108768440D01*
X94046157Y-108958742D01*
X94086336Y-109116509D01*
X94149519Y-109247580D01*
X94235126Y-109356454D01*
X94342700Y-109443931D01*
X94471234Y-109508091D01*
X94624946Y-109548683D01*
X94809402Y-109563145D01*
X94973323Y-109546158D01*
X95139283Y-109493994D01*
X95294826Y-109410700D01*
X95434969Y-109298294D01*
X95205992Y-109069164D01*
X95118346Y-109137542D01*
X95019604Y-109188843D01*
X94914134Y-109221060D01*
X94809402Y-109231585D01*
X94672902Y-109217196D01*
X94565430Y-109177284D01*
X94480438Y-109113738D01*
X94417675Y-109028073D01*
X94377838Y-108917695D01*
X94364922Y-108790727D01*
X95481070Y-108790727D01*
X95481070Y-108674406D01*
X95467697Y-108449175D01*
X95430572Y-108263155D01*
X95373135Y-108109932D01*
X95297277Y-107984115D01*
X95196363Y-107876692D01*
X95078807Y-107800875D01*
X94968706Y-107763533D01*
X95958870Y-107763533D01*
X95958870Y-109537500D01*
X96307527Y-109537500D01*
X96307527Y-108414746D01*
X96318866Y-108309178D01*
X96350360Y-108225997D01*
X96400644Y-108160122D01*
X96468050Y-108111460D01*
X96554256Y-108080629D01*
X96664732Y-108069447D01*
X96778864Y-108081941D01*
X96868366Y-108116615D01*
X96938895Y-108172029D01*
X96990639Y-108246020D01*
X97023560Y-108340850D01*
X97035523Y-108462526D01*
X97035523Y-109537500D01*
X97384180Y-109537500D01*
X97384180Y-108460846D01*
X97372780Y-108286711D01*
X97341067Y-108142926D01*
X97291748Y-108024333D01*
X97226033Y-107926718D01*
X97140682Y-107845465D01*
X97040034Y-107787109D01*
X96921024Y-107750742D01*
X96779221Y-107737888D01*
X96674765Y-107747672D01*
X96577680Y-107776588D01*
X96486129Y-107825052D01*
X96404870Y-107889931D01*
X96333491Y-107971811D01*
X96307527Y-108014280D01*
X96307527Y-107763533D01*
X95958870Y-107763533D01*
X94968706Y-107763533D01*
X94941327Y-107754247D01*
X94778719Y-107737888D01*
X94603146Y-107752833D01*
X94456071Y-107794990D01*
X94332143Y-107862209D01*
X94227494Y-107954959D01*
X94145630Y-108068089D01*
X94084702Y-108204701D01*
X94045751Y-108369517D01*
X94035863Y-108510458D01*
X94031794Y-108568466D01*
X93598995Y-108568466D01*
X93591912Y-108449175D01*
X93554787Y-108263155D01*
X93497350Y-108109932D01*
X93421492Y-107984115D01*
X93320578Y-107876692D01*
X93203022Y-107800875D01*
X93065542Y-107754247D01*
X92902934Y-107737888D01*
X92727361Y-107752833D01*
X92580286Y-107794990D01*
X92456358Y-107862209D01*
X92351709Y-107954959D01*
X92269845Y-108068089D01*
X92208916Y-108204701D01*
X92169966Y-108369517D01*
X92160078Y-108510458D01*
X92156009Y-108568466D01*
X91097827Y-108568466D01*
X91097827Y-108414746D01*
X91108932Y-108310162D01*
X91139849Y-108227152D01*
X91189265Y-108160886D01*
X91255601Y-108111619D01*
X91339625Y-108080630D01*
X91446484Y-108069447D01*
X91535140Y-108077099D01*
X91608752Y-108098604D01*
X91673248Y-108134663D01*
X91725073Y-108183936D01*
X91952372Y-107876343D01*
X91873007Y-107816551D01*
X91780486Y-107772998D01*
X91678608Y-107747001D01*
X91560972Y-107737888D01*
X91458868Y-107747820D01*
X91363467Y-107777272D01*
X91272919Y-107826884D01*
X91192618Y-107892522D01*
X91122417Y-107973893D01*
X91097827Y-108014182D01*
X91097827Y-107763533D01*
X90749170Y-107763533D01*
X89947205Y-107763533D01*
X89861270Y-107746447D01*
X89723808Y-107737888D01*
X89541545Y-107751876D01*
X89389784Y-107791098D01*
X89263054Y-107852973D01*
X89157165Y-107937098D01*
X89072319Y-108042228D01*
X89009991Y-108168095D01*
X88970507Y-108318880D01*
X88956428Y-108500078D01*
X88472311Y-108500078D01*
X88400159Y-108396526D01*
X88300178Y-108311400D01*
X88183011Y-108247711D01*
X88051508Y-108200270D01*
X87778109Y-108134477D01*
X87493566Y-108068684D01*
X87370723Y-108022478D01*
X87279090Y-107960149D01*
X87234854Y-107905960D01*
X87207139Y-107836300D01*
X87197116Y-107746436D01*
X87197116Y-107744757D01*
X87213433Y-107627798D01*
X87259974Y-107533702D01*
X87338014Y-107456856D01*
X87437236Y-107403253D01*
X87566445Y-107368133D01*
X87733687Y-107355190D01*
X87874316Y-107367840D01*
X88016398Y-107406481D01*
X88154689Y-107469687D01*
X88299262Y-107563559D01*
X88496354Y-107288481D01*
X98731179Y-107288481D01*
X98731179Y-107649044D01*
X99084873Y-107431974D01*
X99084873Y-109537500D01*
X99433530Y-109537500D01*
X99433530Y-107052634D01*
X99084873Y-107052634D01*
X98731179Y-107288481D01*
X88496354Y-107288481D01*
X88497557Y-107286802D01*
X88311429Y-107170841D01*
X88124934Y-107091102D01*
X87931280Y-107042983D01*
X87733687Y-107026988D01*
X87521580Y-107040736D01*
X87346304Y-107078985D01*
X87201635Y-107138457D01*
X87082475Y-107217650D01*
X86983008Y-107320763D01*
X86911760Y-107441997D01*
X86867455Y-107584972D01*
X86851818Y-107754985D01*
X86851818Y-107756664D01*
X86861033Y-107900218D01*
X86886184Y-108014006D01*
X86924480Y-108103641D01*
X87009745Y-108219314D01*
X87116669Y-108302852D01*
X87241199Y-108362491D01*
X87379077Y-108404518D01*
X87661941Y-108460846D01*
X87929234Y-108521602D01*
X88041975Y-108569183D01*
X88126613Y-108633496D01*
X88166920Y-108688109D01*
X88192540Y-108758818D01*
X88201870Y-108850414D01*
X88201870Y-108852246D01*
X88185002Y-108965114D01*
X88136302Y-109057358D01*
X88053187Y-109134193D01*
X87949076Y-109187081D01*
X87812443Y-109222012D01*
X87634616Y-109234944D01*
X87439719Y-109219201D01*
X87263672Y-109173425D01*
X87100714Y-109096908D01*
X86950889Y-108988869D01*
X86733970Y-109255552D01*
X86456192Y-109255552D01*
X86456192Y-106749210D01*
X99711308Y-106749210D01*
X99711308Y-109840923D01*
G37*
G36*
X138384590Y-101030713D02*
G01*
X137603575Y-101030713D01*
X137603575Y-100805252D01*
X138384590Y-100805252D01*
X138384590Y-101030713D01*
G37*
G36*
X138465972Y-98347857D02*
G01*
X137522297Y-98347857D01*
X137522297Y-98122396D01*
X138465972Y-98122396D01*
X138465972Y-98347857D01*
G37*
G36*
X137875539Y-98706912D02*
G01*
X137875539Y-97763341D01*
X138112626Y-97763341D01*
X138112626Y-98706912D01*
X137875539Y-98706912D01*
G37*
G36*
X80443319Y-108258021D02*
G01*
X80535709Y-108295949D01*
X80609285Y-108357257D01*
X80662583Y-108438132D01*
X80696785Y-108542460D01*
X80709271Y-108676910D01*
X80709271Y-108970765D01*
X80696824Y-109105231D01*
X80662648Y-109210189D01*
X80609285Y-109292096D01*
X80535577Y-109354397D01*
X80443184Y-109392844D01*
X80326421Y-109406585D01*
X80210761Y-109392909D01*
X80118542Y-109354515D01*
X80044320Y-109292096D01*
X79990521Y-109210129D01*
X79956100Y-109105170D01*
X79943570Y-108970765D01*
X79943570Y-108676910D01*
X79956140Y-108542522D01*
X79990586Y-108438192D01*
X80044320Y-108357257D01*
X80118411Y-108295832D01*
X80210627Y-108257957D01*
X80326421Y-108244447D01*
X80443319Y-108258021D01*
G37*
G36*
X74305863Y-108609138D02*
G01*
X74410223Y-108647194D01*
X74483521Y-108704998D01*
X74536662Y-108783747D01*
X74569934Y-108880435D01*
X74581829Y-108999921D01*
X74581829Y-109004959D01*
X74568402Y-109114979D01*
X74530003Y-109206397D01*
X74466424Y-109283548D01*
X74382269Y-109337754D01*
X74256594Y-109375054D01*
X74074262Y-109389488D01*
X73542728Y-109389488D01*
X73542728Y-108594783D01*
X74159594Y-108594783D01*
X74305863Y-108609138D01*
G37*
G36*
X74255086Y-107562606D02*
G01*
X74361573Y-107594612D01*
X74439863Y-107642999D01*
X74498739Y-107711695D01*
X74535807Y-107802193D01*
X74549314Y-107921436D01*
X74537179Y-108034672D01*
X74503810Y-108121784D01*
X74451006Y-108188882D01*
X74379954Y-108237275D01*
X74285208Y-108268704D01*
X74159594Y-108280321D01*
X73542728Y-108280321D01*
X73542728Y-107550645D01*
X74111814Y-107550645D01*
X74255086Y-107562606D01*
G37*
G36*
X83254386Y-110015923D02*
G01*
X72917973Y-110015923D01*
X72917973Y-109712500D01*
X73195751Y-109712500D01*
X73400915Y-109712500D01*
X73542728Y-109712500D01*
X74204016Y-109712500D01*
X74371365Y-109699630D01*
X74513232Y-109663261D01*
X74634050Y-109605418D01*
X74737229Y-109526264D01*
X74822366Y-109427002D01*
X74883201Y-109314132D01*
X74920736Y-109184978D01*
X74933844Y-109035794D01*
X74933844Y-109030604D01*
X74932461Y-109017018D01*
X75420803Y-109017018D01*
X75432284Y-109190022D01*
X75464264Y-109333181D01*
X75514091Y-109451570D01*
X75580630Y-109549315D01*
X75666821Y-109630382D01*
X75768819Y-109688765D01*
X75889799Y-109725234D01*
X76034311Y-109738145D01*
X76159871Y-109726655D01*
X76262593Y-109694485D01*
X76347094Y-109643348D01*
X76450590Y-109539947D01*
X76490739Y-109470226D01*
X76490739Y-109712500D01*
X76837564Y-109712500D01*
X76837564Y-107938533D01*
X77228353Y-107938533D01*
X77228353Y-108252996D01*
X77411230Y-108252996D01*
X77411230Y-109251033D01*
X77423722Y-109399728D01*
X77457564Y-109513360D01*
X77509385Y-109599690D01*
X77583498Y-109664243D01*
X77685970Y-109705671D01*
X77826443Y-109721048D01*
X78028096Y-109721048D01*
X78028096Y-109389488D01*
X77860637Y-109389488D01*
X77816422Y-109380234D01*
X77785379Y-109353615D01*
X77766762Y-109313225D01*
X77759734Y-109254544D01*
X77759734Y-108252996D01*
X78028096Y-108252996D01*
X78028096Y-107938533D01*
X78368967Y-107938533D01*
X78368967Y-108252996D01*
X78551844Y-108252996D01*
X78551844Y-109251033D01*
X78564336Y-109399728D01*
X78598178Y-109513360D01*
X78649999Y-109599690D01*
X78724113Y-109664243D01*
X78826584Y-109705671D01*
X78967057Y-109721048D01*
X79168710Y-109721048D01*
X79168710Y-109389488D01*
X79001251Y-109389488D01*
X78957036Y-109380234D01*
X78925993Y-109353615D01*
X78907376Y-109313225D01*
X78900348Y-109254544D01*
X78900348Y-108676910D01*
X79594913Y-108676910D01*
X79594913Y-108965727D01*
X79595284Y-108970765D01*
X79608436Y-109149397D01*
X79646293Y-109302196D01*
X79705817Y-109429559D01*
X79786339Y-109535729D01*
X79888056Y-109621750D01*
X80009152Y-109684516D01*
X80153524Y-109724078D01*
X80326421Y-109738145D01*
X80499431Y-109724176D01*
X80643841Y-109684902D01*
X80764895Y-109622643D01*
X80866503Y-109537408D01*
X80947033Y-109432026D01*
X81006549Y-109305492D01*
X81044403Y-109153556D01*
X81057928Y-108970765D01*
X81057928Y-108676910D01*
X81044413Y-108495017D01*
X81006577Y-108343798D01*
X80947068Y-108217820D01*
X80866503Y-108112862D01*
X80764944Y-108027983D01*
X80643910Y-107965954D01*
X80542728Y-107938533D01*
X81551299Y-107938533D01*
X81551299Y-109712500D01*
X81899955Y-109712500D01*
X81899955Y-108589746D01*
X81911294Y-108484178D01*
X81942788Y-108400997D01*
X81993073Y-108335122D01*
X82060478Y-108286460D01*
X82146684Y-108255629D01*
X82257160Y-108244447D01*
X82371292Y-108256941D01*
X82460794Y-108291615D01*
X82531323Y-108347029D01*
X82583068Y-108421020D01*
X82615988Y-108515850D01*
X82627952Y-108637526D01*
X82627952Y-109712500D01*
X82976608Y-109712500D01*
X82976608Y-108635846D01*
X82965208Y-108461711D01*
X82933496Y-108317926D01*
X82884177Y-108199333D01*
X82818461Y-108101718D01*
X82733110Y-108020465D01*
X82632462Y-107962109D01*
X82513453Y-107925742D01*
X82371649Y-107912888D01*
X82267193Y-107922672D01*
X82170109Y-107951588D01*
X82078558Y-108000052D01*
X81997298Y-108064931D01*
X81925920Y-108146811D01*
X81899955Y-108189281D01*
X81899955Y-107938533D01*
X81551299Y-107938533D01*
X80542728Y-107938533D01*
X80499482Y-107926813D01*
X80326421Y-107912888D01*
X80153359Y-107926813D01*
X80008932Y-107965954D01*
X79887897Y-108027983D01*
X79786339Y-108112862D01*
X79705774Y-108217820D01*
X79646264Y-108343798D01*
X79608429Y-108495017D01*
X79594913Y-108676910D01*
X78900348Y-108676910D01*
X78900348Y-108252996D01*
X79168710Y-108252996D01*
X79168710Y-107938533D01*
X78900348Y-107938533D01*
X78900348Y-107422418D01*
X78551844Y-107422418D01*
X78551844Y-107938533D01*
X78368967Y-107938533D01*
X78028096Y-107938533D01*
X77759734Y-107938533D01*
X77759734Y-107422418D01*
X77411230Y-107422418D01*
X77411230Y-107938533D01*
X77228353Y-107938533D01*
X76837564Y-107938533D01*
X76490739Y-107938533D01*
X76490739Y-109057929D01*
X76479367Y-109164641D01*
X76447802Y-109248667D01*
X76397469Y-109315147D01*
X76329973Y-109364185D01*
X76243308Y-109395289D01*
X76131855Y-109406585D01*
X76021092Y-109394271D01*
X75933676Y-109359975D01*
X75864257Y-109304919D01*
X75813531Y-109231666D01*
X75781213Y-109137685D01*
X75769460Y-109017018D01*
X75769460Y-107938533D01*
X75420803Y-107938533D01*
X75420803Y-109017018D01*
X74932461Y-109017018D01*
X74919434Y-108889032D01*
X74877167Y-108760780D01*
X74806532Y-108642716D01*
X74711336Y-108545774D01*
X74593694Y-108478222D01*
X74448411Y-108439231D01*
X74596446Y-108395944D01*
X74708536Y-108329978D01*
X74791878Y-108242005D01*
X74852995Y-108134613D01*
X74889156Y-108021701D01*
X74901329Y-107900981D01*
X74889079Y-107748787D01*
X74854295Y-107618768D01*
X74798609Y-107506992D01*
X74721811Y-107410511D01*
X74627231Y-107334726D01*
X74508421Y-107277840D01*
X74359985Y-107241008D01*
X74175012Y-107227634D01*
X73542728Y-107227634D01*
X73195751Y-107227634D01*
X73195751Y-109712500D01*
X72917973Y-109712500D01*
X72917973Y-106949856D01*
X83254386Y-106949856D01*
X83254386Y-110015923D01*
G37*
G36*
X61276146Y-57143642D02*
G01*
X57258642Y-57143642D01*
X57258642Y-55805264D01*
X57391975Y-55805264D01*
X57780761Y-56998000D01*
X57939910Y-56998000D01*
X57984032Y-56862665D01*
X58410761Y-56862665D01*
X58471272Y-56907858D01*
X58535764Y-56944657D01*
X58604671Y-56973227D01*
X58679379Y-56993896D01*
X58757611Y-57006100D01*
X58843071Y-57010309D01*
X58948446Y-57003774D01*
X59035479Y-56985612D01*
X59107221Y-56957449D01*
X59166204Y-56920110D01*
X59216007Y-56870895D01*
X59251444Y-56813232D01*
X59273374Y-56745441D01*
X59281096Y-56664974D01*
X59281096Y-56663289D01*
X59277020Y-56598755D01*
X59265817Y-56546749D01*
X59248636Y-56505020D01*
X59210532Y-56450332D01*
X59162540Y-56409472D01*
X59106300Y-56378901D01*
X59043179Y-56356129D01*
X58911947Y-56324549D01*
X58775367Y-56292968D01*
X58716402Y-56270789D01*
X58672418Y-56240871D01*
X58651185Y-56214860D01*
X58637882Y-56181424D01*
X58633071Y-56138289D01*
X58633071Y-56137483D01*
X58640903Y-56081343D01*
X58663243Y-56036177D01*
X58700702Y-55999290D01*
X58748328Y-55973561D01*
X58810349Y-55956703D01*
X58890625Y-55950491D01*
X58958127Y-55956563D01*
X59026326Y-55975110D01*
X59092706Y-56005450D01*
X59162101Y-56050508D01*
X59257282Y-55917665D01*
X59167941Y-55862003D01*
X59078423Y-55823729D01*
X59004111Y-55805264D01*
X59346309Y-55805264D01*
X59709742Y-56513226D01*
X59709742Y-56998000D01*
X59877097Y-56998000D01*
X59877097Y-56862665D01*
X60272478Y-56862665D01*
X60332989Y-56907858D01*
X60397481Y-56944657D01*
X60466388Y-56973227D01*
X60541096Y-56993896D01*
X60619328Y-57006100D01*
X60704787Y-57010309D01*
X60810162Y-57003774D01*
X60897196Y-56985612D01*
X60968938Y-56957449D01*
X61027921Y-56920110D01*
X61077723Y-56870895D01*
X61113160Y-56813232D01*
X61135091Y-56745441D01*
X61142813Y-56664974D01*
X61142813Y-56663289D01*
X61138736Y-56598755D01*
X61127533Y-56546749D01*
X61110353Y-56505020D01*
X61072248Y-56450332D01*
X61024257Y-56409472D01*
X60968017Y-56378901D01*
X60904896Y-56356129D01*
X60773664Y-56324549D01*
X60637083Y-56292968D01*
X60578119Y-56270789D01*
X60534135Y-56240871D01*
X60512902Y-56214860D01*
X60499598Y-56181424D01*
X60494787Y-56138289D01*
X60494787Y-56137483D01*
X60502619Y-56081343D01*
X60524959Y-56036177D01*
X60562418Y-55999290D01*
X60610045Y-55973561D01*
X60672066Y-55956703D01*
X60752342Y-55950491D01*
X60819844Y-55956563D01*
X60888043Y-55975110D01*
X60954422Y-56005450D01*
X61023817Y-56050508D01*
X61118999Y-55917665D01*
X61029658Y-55862003D01*
X60940140Y-55823729D01*
X60847186Y-55800632D01*
X60752342Y-55792954D01*
X60650530Y-55799553D01*
X60566398Y-55817913D01*
X60496957Y-55846459D01*
X60439760Y-55884472D01*
X60392016Y-55933966D01*
X60357817Y-55992158D01*
X60336550Y-56060786D01*
X60329044Y-56142392D01*
X60329044Y-56143198D01*
X60333468Y-56212104D01*
X60345540Y-56266723D01*
X60363922Y-56309748D01*
X60404849Y-56365271D01*
X60456173Y-56405369D01*
X60515948Y-56433995D01*
X60582129Y-56454168D01*
X60717903Y-56481206D01*
X60846204Y-56510369D01*
X60900320Y-56533208D01*
X60940946Y-56564078D01*
X60960293Y-56590292D01*
X60972591Y-56624232D01*
X60977069Y-56668198D01*
X60977069Y-56669078D01*
X60968973Y-56723255D01*
X60945597Y-56767531D01*
X60905702Y-56804413D01*
X60855728Y-56829799D01*
X60790144Y-56846565D01*
X60704787Y-56852773D01*
X60611237Y-56845216D01*
X60526734Y-56823244D01*
X60448514Y-56786515D01*
X60376598Y-56734657D01*
X60272478Y-56862665D01*
X59877097Y-56862665D01*
X59877097Y-56513226D01*
X60240457Y-55805264D01*
X60054271Y-55805264D01*
X59793420Y-56343380D01*
X59532495Y-55805264D01*
X59346309Y-55805264D01*
X59004111Y-55805264D01*
X58985469Y-55800632D01*
X58890625Y-55792954D01*
X58788814Y-55799553D01*
X58704681Y-55817913D01*
X58635240Y-55846459D01*
X58578043Y-55884472D01*
X58530299Y-55933966D01*
X58496100Y-55992158D01*
X58474834Y-56060786D01*
X58467328Y-56142392D01*
X58467328Y-56143198D01*
X58471751Y-56212104D01*
X58483823Y-56266723D01*
X58502205Y-56309748D01*
X58543133Y-56365271D01*
X58594456Y-56405369D01*
X58654231Y-56433995D01*
X58720412Y-56454168D01*
X58856187Y-56481206D01*
X58984487Y-56510369D01*
X59038603Y-56533208D01*
X59079229Y-56564078D01*
X59098577Y-56590292D01*
X59110874Y-56624232D01*
X59115353Y-56668198D01*
X59115353Y-56669078D01*
X59107256Y-56723255D01*
X59083880Y-56767531D01*
X59043985Y-56804413D01*
X58994012Y-56829799D01*
X58928428Y-56846565D01*
X58843071Y-56852773D01*
X58749520Y-56845216D01*
X58665018Y-56823244D01*
X58586798Y-56786515D01*
X58514882Y-56734657D01*
X58410761Y-56862665D01*
X57984032Y-56862665D01*
X58328769Y-55805264D01*
X58146686Y-55805264D01*
X57860335Y-56740445D01*
X57574058Y-55805264D01*
X57391975Y-55805264D01*
X57258642Y-55805264D01*
X57258642Y-55659621D01*
X61276146Y-55659621D01*
X61276146Y-57143642D01*
G37*
G36*
X117537887Y-112387288D02*
G01*
X117532625Y-112494113D01*
X117517370Y-112591903D01*
X117491534Y-112685288D01*
X117455821Y-112771421D01*
X117409822Y-112852037D01*
X117353331Y-112927676D01*
X117193321Y-112797525D01*
X117258144Y-112707630D01*
X117304055Y-112609855D01*
X117331521Y-112504227D01*
X117340966Y-112387288D01*
X117333207Y-112280592D01*
X117312248Y-112198612D01*
X117280516Y-112136146D01*
X117234414Y-112086277D01*
X117179068Y-112057057D01*
X117111347Y-112046936D01*
X117110248Y-112046936D01*
X117055290Y-112052534D01*
X117012865Y-112067906D01*
X116980097Y-112092090D01*
X116941510Y-112142873D01*
X116912961Y-112210518D01*
X116876508Y-112370894D01*
X116842711Y-112540612D01*
X116817494Y-112623338D01*
X116781711Y-112698057D01*
X116731588Y-112762211D01*
X116662185Y-112813370D01*
X116608404Y-112836348D01*
X116540131Y-112851438D01*
X116453998Y-112856967D01*
X116452991Y-112856967D01*
X116350983Y-112847585D01*
X116265198Y-112821002D01*
X116192458Y-112778253D01*
X116130590Y-112718573D01*
X116083074Y-112647077D01*
X116047391Y-112560275D01*
X116024441Y-112455110D01*
X116016193Y-112327846D01*
X116025790Y-112209290D01*
X116054661Y-112093098D01*
X116102504Y-111981201D01*
X116172081Y-111869524D01*
X116338135Y-111988501D01*
X116281812Y-112075245D01*
X116243888Y-112158219D01*
X116220704Y-112243468D01*
X116213114Y-112327846D01*
X116220879Y-112428191D01*
X116241951Y-112505716D01*
X116274113Y-112565250D01*
X116320221Y-112612073D01*
X116376679Y-112639998D01*
X116446854Y-112649788D01*
X116447862Y-112649788D01*
X116501780Y-112643775D01*
X116543576Y-112627145D01*
X116576089Y-112600604D01*
X116613487Y-112545624D01*
X116641210Y-112471919D01*
X116680686Y-112301193D01*
X116720162Y-112137153D01*
X116748626Y-112058251D01*
X116786840Y-111987951D01*
X116837916Y-111927962D01*
X116906275Y-111880332D01*
X116958436Y-111858856D01*
X117023444Y-111844852D01*
X117104112Y-111839757D01*
X117106218Y-111839757D01*
X117206801Y-111849409D01*
X117291541Y-111876822D01*
X117363619Y-111921118D01*
X117425138Y-111983372D01*
X117471812Y-112057101D01*
X117507015Y-112146778D01*
X117529717Y-112255570D01*
X117537887Y-112387288D01*
G37*
G36*
X117537887Y-111095854D02*
G01*
X117529805Y-111197878D01*
X117506526Y-111288120D01*
X117468736Y-111368613D01*
X117416549Y-111440518D01*
X117352203Y-111500756D01*
X117274379Y-111550146D01*
X117188753Y-111585254D01*
X117092011Y-111607095D01*
X116982112Y-111614718D01*
X116572975Y-111614718D01*
X116462395Y-111607080D01*
X116365337Y-111585224D01*
X116279700Y-111550146D01*
X116201882Y-111500752D01*
X116137569Y-111440515D01*
X116085436Y-111368613D01*
X116047593Y-111288114D01*
X116024284Y-111197873D01*
X116016193Y-111095854D01*
X116022515Y-111011069D01*
X116041048Y-110932649D01*
X116071605Y-110859458D01*
X116113336Y-110791970D01*
X116164700Y-110732370D01*
X116226394Y-110680031D01*
X116295397Y-110637581D01*
X116372582Y-110604891D01*
X116459127Y-110582120D01*
X116459127Y-110796443D01*
X116391480Y-110822684D01*
X116333556Y-110861564D01*
X116285581Y-110911372D01*
X116250025Y-110968726D01*
X116227629Y-111031540D01*
X116220258Y-111095854D01*
X116226627Y-111162768D01*
X116244936Y-111220826D01*
X116274843Y-111271794D01*
X116317161Y-111316864D01*
X116386119Y-111362057D01*
X116470066Y-111390318D01*
X116572975Y-111400395D01*
X116982112Y-111400395D01*
X117085013Y-111390307D01*
X117168793Y-111362039D01*
X117237468Y-111316864D01*
X117279521Y-111271829D01*
X117309263Y-111220872D01*
X117327482Y-111162801D01*
X117333822Y-111095854D01*
X117327131Y-111032782D01*
X117306975Y-110971996D01*
X117272364Y-110912306D01*
X117226157Y-110861898D01*
X117167804Y-110823369D01*
X117094952Y-110796443D01*
X117094952Y-110582120D01*
X117181464Y-110604943D01*
X117258648Y-110637811D01*
X117327685Y-110680580D01*
X117389445Y-110733219D01*
X117440835Y-110792832D01*
X117482566Y-110860007D01*
X117513055Y-110932842D01*
X117531566Y-111011071D01*
X117537887Y-111095854D01*
G37*
G36*
X117182056Y-110172708D02*
G01*
X116868265Y-110142025D01*
X116031580Y-109483668D01*
X116031580Y-109226297D01*
X117182056Y-110172708D01*
G37*
G36*
X117522500Y-110306065D02*
G01*
X116031580Y-110306065D01*
X116031580Y-110096871D01*
X117522500Y-110096871D01*
X117522500Y-110306065D01*
G37*
G36*
X117522500Y-109420104D02*
G01*
X116726756Y-109893813D01*
X116573982Y-109728766D01*
X117522500Y-109163741D01*
X117522500Y-109420104D01*
G37*
G36*
X119536001Y-112201725D02*
G01*
X118551580Y-111763920D01*
X118551580Y-111568006D01*
X120042500Y-111568006D01*
X120042500Y-111772071D01*
X118925821Y-111772071D01*
X118991492Y-111761813D01*
X119835412Y-112128910D01*
X119835412Y-112274540D01*
X119012008Y-112641637D01*
X118925821Y-112631379D01*
X120042500Y-112631379D01*
X120042500Y-112835443D01*
X118551580Y-112835443D01*
X118551580Y-112639622D01*
X119536001Y-112201725D01*
G37*
G36*
X119616756Y-110190452D02*
G01*
X119712503Y-110212458D01*
X119797493Y-110247904D01*
X119874491Y-110297599D01*
X119938151Y-110358331D01*
X119989743Y-110430995D01*
X120026927Y-110512095D01*
X120049898Y-110603336D01*
X120057887Y-110706775D01*
X120049899Y-110810216D01*
X120026930Y-110901489D01*
X119989743Y-110982648D01*
X119938157Y-111055254D01*
X119874498Y-111115958D01*
X119797493Y-111165647D01*
X119712503Y-111201093D01*
X119616756Y-111223099D01*
X119508249Y-111230768D01*
X119085831Y-111230768D01*
X118976645Y-111223074D01*
X118880777Y-111201045D01*
X118796128Y-111165647D01*
X118719421Y-111115982D01*
X118655937Y-111055281D01*
X118604428Y-110982648D01*
X118567189Y-110901484D01*
X118544190Y-110810211D01*
X118536193Y-110706775D01*
X118742273Y-110706775D01*
X118752985Y-110795701D01*
X118783562Y-110869387D01*
X118834047Y-110931357D01*
X118899842Y-110977521D01*
X118980036Y-111006227D01*
X119078595Y-111016445D01*
X119515484Y-111016445D01*
X119613375Y-111006262D01*
X119693462Y-110977586D01*
X119759575Y-110931357D01*
X119810332Y-110869353D01*
X119841050Y-110795667D01*
X119851807Y-110706775D01*
X119841006Y-110617170D01*
X119810253Y-110543375D01*
X119759575Y-110481736D01*
X119693496Y-110435773D01*
X119613409Y-110407242D01*
X119515484Y-110397106D01*
X119078595Y-110397106D01*
X118980002Y-110407277D01*
X118899807Y-110435838D01*
X118834047Y-110481736D01*
X118783641Y-110543341D01*
X118753028Y-110617135D01*
X118742273Y-110706775D01*
X118536193Y-110706775D01*
X118544192Y-110603341D01*
X118567192Y-110512101D01*
X118604428Y-110430995D01*
X118655943Y-110358304D01*
X118719427Y-110297575D01*
X118796128Y-110247904D01*
X118880777Y-110212506D01*
X118976645Y-110190477D01*
X119085831Y-110182783D01*
X119508249Y-110182783D01*
X119616756Y-110190452D01*
G37*
G36*
X120057887Y-109437323D02*
G01*
X120052625Y-109544147D01*
X120037370Y-109641938D01*
X120011534Y-109735322D01*
X119975821Y-109821456D01*
X119929822Y-109902072D01*
X119873331Y-109977711D01*
X119713321Y-109847560D01*
X119778144Y-109757665D01*
X119824055Y-109659890D01*
X119851521Y-109554261D01*
X119860966Y-109437323D01*
X119853207Y-109330627D01*
X119832248Y-109248647D01*
X119800516Y-109186181D01*
X119754414Y-109136312D01*
X119699068Y-109107092D01*
X119631347Y-109096971D01*
X119630248Y-109096971D01*
X119575290Y-109102569D01*
X119532865Y-109117941D01*
X119500097Y-109142125D01*
X119461510Y-109192908D01*
X119432961Y-109260553D01*
X119396508Y-109420928D01*
X119362711Y-109590647D01*
X119337494Y-109673373D01*
X119301711Y-109748092D01*
X119251588Y-109812246D01*
X119182185Y-109863405D01*
X119128404Y-109886383D01*
X119060131Y-109901473D01*
X118973998Y-109907002D01*
X118972991Y-109907002D01*
X118870983Y-109897620D01*
X118785198Y-109871037D01*
X118712458Y-109828288D01*
X118650590Y-109768608D01*
X118603074Y-109697112D01*
X118567391Y-109610310D01*
X118544441Y-109505145D01*
X118536193Y-109377881D01*
X118545790Y-109259325D01*
X118574661Y-109143133D01*
X118622504Y-109031236D01*
X118692081Y-108919559D01*
X118858135Y-109038536D01*
X118801812Y-109125280D01*
X118763888Y-109208254D01*
X118740704Y-109293503D01*
X118733114Y-109377881D01*
X118740879Y-109478226D01*
X118761951Y-109555751D01*
X118794113Y-109615285D01*
X118840221Y-109662108D01*
X118896679Y-109690033D01*
X118966854Y-109699823D01*
X118967862Y-109699823D01*
X119021780Y-109693810D01*
X119063576Y-109677180D01*
X119096089Y-109650639D01*
X119133487Y-109595659D01*
X119161210Y-109521953D01*
X119200686Y-109351228D01*
X119240162Y-109187188D01*
X119268626Y-109108286D01*
X119306840Y-109037986D01*
X119357916Y-108977997D01*
X119426275Y-108930367D01*
X119478436Y-108908891D01*
X119543444Y-108894887D01*
X119624112Y-108889792D01*
X119626218Y-108889792D01*
X119726801Y-108899444D01*
X119811541Y-108926857D01*
X119883619Y-108971153D01*
X119945138Y-109033407D01*
X119991812Y-109107135D01*
X120027015Y-109196813D01*
X120049717Y-109305605D01*
X120057887Y-109437323D01*
G37*
G36*
X118551580Y-108404268D02*
G01*
X120042500Y-108404268D01*
X120042500Y-108613462D01*
X118551580Y-108613462D01*
X118551580Y-108404268D01*
G37*
G36*
X122056001Y-112201725D02*
G01*
X121071580Y-111763920D01*
X121071580Y-111568006D01*
X122562500Y-111568006D01*
X122562500Y-111772071D01*
X121445821Y-111772071D01*
X121511492Y-111761813D01*
X122355412Y-112128910D01*
X122355412Y-112274540D01*
X121532008Y-112641637D01*
X121445821Y-112631379D01*
X122562500Y-112631379D01*
X122562500Y-112835443D01*
X121071580Y-112835443D01*
X121071580Y-112639622D01*
X122056001Y-112201725D01*
G37*
G36*
X121071580Y-110990799D02*
G01*
X122562500Y-110990799D01*
X122562500Y-111199993D01*
X121071580Y-111199993D01*
X121071580Y-110990799D01*
G37*
G36*
X122577887Y-110174448D02*
G01*
X122572625Y-110281272D01*
X122557370Y-110379063D01*
X122531534Y-110472447D01*
X122495821Y-110558581D01*
X122449822Y-110639197D01*
X122393331Y-110714836D01*
X122233321Y-110584685D01*
X122298144Y-110494789D01*
X122344055Y-110397015D01*
X122371521Y-110291386D01*
X122380966Y-110174448D01*
X122373207Y-110067752D01*
X122352248Y-109985772D01*
X122320516Y-109923306D01*
X122274414Y-109873437D01*
X122219068Y-109844217D01*
X122151347Y-109834096D01*
X122150248Y-109834096D01*
X122095290Y-109839694D01*
X122052865Y-109855066D01*
X122020097Y-109879250D01*
X121981510Y-109930033D01*
X121952961Y-109997677D01*
X121916508Y-110158053D01*
X121882711Y-110327772D01*
X121857494Y-110410498D01*
X121821711Y-110485217D01*
X121771588Y-110549371D01*
X121702185Y-110600530D01*
X121648404Y-110623508D01*
X121580131Y-110638598D01*
X121493998Y-110644127D01*
X121492991Y-110644127D01*
X121390983Y-110634745D01*
X121305198Y-110608162D01*
X121232458Y-110565413D01*
X121170590Y-110505733D01*
X121123074Y-110434237D01*
X121087391Y-110347435D01*
X121064441Y-110242270D01*
X121056193Y-110115006D01*
X121065790Y-109996450D01*
X121094661Y-109880258D01*
X121142504Y-109768360D01*
X121212081Y-109656684D01*
X121378135Y-109775661D01*
X121321812Y-109862404D01*
X121283888Y-109945379D01*
X121260704Y-110030628D01*
X121253114Y-110115006D01*
X121260879Y-110215351D01*
X121281951Y-110292876D01*
X121314113Y-110352410D01*
X121360221Y-110399233D01*
X121416679Y-110427158D01*
X121486854Y-110436948D01*
X121487862Y-110436948D01*
X121541780Y-110430935D01*
X121583576Y-110414305D01*
X121616089Y-110387764D01*
X121653487Y-110332784D01*
X121681210Y-110259078D01*
X121720686Y-110088353D01*
X121760162Y-109924313D01*
X121788626Y-109845411D01*
X121826840Y-109775111D01*
X121877916Y-109715122D01*
X121946275Y-109667492D01*
X121998436Y-109646016D01*
X122063444Y-109632012D01*
X122144112Y-109626917D01*
X122146218Y-109626917D01*
X122246801Y-109636569D01*
X122331541Y-109663982D01*
X122403619Y-109708278D01*
X122465138Y-109770532D01*
X122511812Y-109844260D01*
X122547015Y-109933938D01*
X122569717Y-110042730D01*
X122577887Y-110174448D01*
G37*
G36*
X122136756Y-108361561D02*
G01*
X122232503Y-108383567D01*
X122317493Y-108419014D01*
X122394491Y-108468708D01*
X122458151Y-108529441D01*
X122509743Y-108602104D01*
X122546927Y-108683205D01*
X122569898Y-108774445D01*
X122577887Y-108877885D01*
X122569899Y-108981325D01*
X122546930Y-109072599D01*
X122509743Y-109153757D01*
X122458157Y-109226363D01*
X122394498Y-109287067D01*
X122317493Y-109336756D01*
X122232503Y-109372203D01*
X122136756Y-109394209D01*
X122028249Y-109401878D01*
X121605831Y-109401878D01*
X121496645Y-109394184D01*
X121400777Y-109372155D01*
X121316128Y-109336756D01*
X121239421Y-109287091D01*
X121175937Y-109226391D01*
X121124428Y-109153757D01*
X121087189Y-109072593D01*
X121064190Y-108981321D01*
X121056193Y-108877885D01*
X121262273Y-108877885D01*
X121272985Y-108966810D01*
X121303562Y-109040496D01*
X121354047Y-109102466D01*
X121419842Y-109148631D01*
X121500036Y-109177336D01*
X121598595Y-109187554D01*
X122035484Y-109187554D01*
X122133375Y-109177372D01*
X122213462Y-109148695D01*
X122279575Y-109102466D01*
X122330332Y-109040462D01*
X122361050Y-108966777D01*
X122371807Y-108877885D01*
X122361006Y-108788279D01*
X122330253Y-108714484D01*
X122279575Y-108652846D01*
X122213496Y-108606883D01*
X122133409Y-108578351D01*
X122035484Y-108568216D01*
X121598595Y-108568216D01*
X121500002Y-108578386D01*
X121419807Y-108606947D01*
X121354047Y-108652846D01*
X121303641Y-108714450D01*
X121273028Y-108788245D01*
X121262273Y-108877885D01*
X121056193Y-108877885D01*
X121064192Y-108774450D01*
X121087192Y-108683210D01*
X121124428Y-108602104D01*
X121175943Y-108529413D01*
X121239427Y-108468684D01*
X121316128Y-108419014D01*
X121400777Y-108383615D01*
X121496645Y-108361586D01*
X121605831Y-108353893D01*
X122028249Y-108353893D01*
X122136756Y-108361561D01*
G37*
G36*
X124750992Y-112073063D02*
G01*
X124841096Y-112094640D01*
X124916077Y-112128475D01*
X124978452Y-112174064D01*
X125029372Y-112232118D01*
X125066372Y-112301123D01*
X125089628Y-112383284D01*
X125097887Y-112481627D01*
X125089732Y-112579577D01*
X125066764Y-112661478D01*
X125030237Y-112730315D01*
X124980009Y-112788274D01*
X124918362Y-112833887D01*
X124844213Y-112867714D01*
X124755056Y-112889279D01*
X124647717Y-112896993D01*
X124646709Y-112896993D01*
X124549276Y-112890572D01*
X124442186Y-112870340D01*
X124335961Y-112837766D01*
X124233450Y-112793403D01*
X123591580Y-112469354D01*
X123591580Y-112243765D01*
X124242955Y-112577116D01*
X124223174Y-112551339D01*
X124203609Y-112499629D01*
X124202782Y-112491885D01*
X124397581Y-112491885D01*
X124405574Y-112550665D01*
X124428320Y-112597939D01*
X124466275Y-112636508D01*
X124514751Y-112663569D01*
X124578010Y-112681274D01*
X124660081Y-112687799D01*
X124661089Y-112687799D01*
X124735116Y-112681032D01*
X124792133Y-112662571D01*
X124835936Y-112633943D01*
X124869101Y-112594296D01*
X124889602Y-112544544D01*
X124896936Y-112481627D01*
X124889483Y-112417411D01*
X124868756Y-112367252D01*
X124835387Y-112327846D01*
X124791345Y-112299512D01*
X124734157Y-112281235D01*
X124660081Y-112274540D01*
X124658982Y-112274540D01*
X124577390Y-112281649D01*
X124514356Y-112301029D01*
X124465817Y-112330960D01*
X124428581Y-112372814D01*
X124405732Y-112425351D01*
X124397581Y-112491885D01*
X124202782Y-112491885D01*
X124196539Y-112433450D01*
X124204433Y-112347505D01*
X124226797Y-112275222D01*
X124262758Y-112213927D01*
X124312951Y-112161791D01*
X124373068Y-112121728D01*
X124446066Y-112091646D01*
X124534520Y-112072300D01*
X124641580Y-112065346D01*
X124642588Y-112065346D01*
X124750992Y-112073063D01*
G37*
G36*
X126111580Y-112096120D02*
G01*
X126298243Y-112096120D01*
X127602500Y-112481627D01*
X127602500Y-112704193D01*
X126310516Y-112318595D01*
X126310516Y-112698057D01*
X126524839Y-112698057D01*
X126524839Y-112907251D01*
X126111580Y-112907251D01*
X126111580Y-112096120D01*
G37*
G36*
X130122500Y-112888750D02*
G01*
X129940966Y-112888750D01*
X129247805Y-112368879D01*
X129186668Y-112328360D01*
X129124798Y-112298628D01*
X129061571Y-112279507D01*
X129004814Y-112273532D01*
X129002799Y-112273532D01*
X128945544Y-112279869D01*
X128900331Y-112297515D01*
X128864405Y-112325831D01*
X128838040Y-112363564D01*
X128821241Y-112412076D01*
X128815129Y-112474483D01*
X128821470Y-112532485D01*
X128839514Y-112580844D01*
X128868984Y-112621670D01*
X128908143Y-112653613D01*
X128958026Y-112676855D01*
X129021209Y-112690821D01*
X129022216Y-112690821D01*
X129022216Y-112907251D01*
X129021209Y-112907251D01*
X128925904Y-112886796D01*
X128845760Y-112856164D01*
X128778496Y-112816126D01*
X128722347Y-112766750D01*
X128676585Y-112707393D01*
X128643667Y-112640297D01*
X128623300Y-112563987D01*
X128616193Y-112476498D01*
X128623417Y-112375806D01*
X128643591Y-112292374D01*
X128675196Y-112223176D01*
X128717767Y-112165821D01*
X128771844Y-112119116D01*
X128836205Y-112085110D01*
X128912921Y-112063703D01*
X129004814Y-112056095D01*
X129005821Y-112056095D01*
X129085039Y-112063990D01*
X129171418Y-112088976D01*
X129255554Y-112127855D01*
X129337015Y-112180201D01*
X129923564Y-112611870D01*
X129923564Y-112047943D01*
X130122500Y-112047943D01*
X130122500Y-112888750D01*
G37*
G36*
X129805449Y-110899299D02*
G01*
X129877705Y-110918288D01*
X129942065Y-110949125D01*
X129999337Y-110991552D01*
X130047307Y-111043847D01*
X130086596Y-111107120D01*
X130114443Y-111176519D01*
X130131813Y-111255216D01*
X130137887Y-111344890D01*
X130131813Y-111434627D01*
X130114443Y-111513385D01*
X130086596Y-111582844D01*
X130047313Y-111646059D01*
X129999343Y-111698325D01*
X129942065Y-111740747D01*
X129877705Y-111771585D01*
X129805449Y-111790573D01*
X129723620Y-111797167D01*
X129698982Y-111797167D01*
X129625947Y-111790955D01*
X129556241Y-111772446D01*
X129488872Y-111741297D01*
X129427824Y-111699213D01*
X129378642Y-111649671D01*
X129340129Y-111592095D01*
X129307446Y-111640356D01*
X129266225Y-111682249D01*
X129215565Y-111718216D01*
X129159661Y-111745206D01*
X129102697Y-111761097D01*
X129043831Y-111766393D01*
X129007928Y-111766393D01*
X128920905Y-111758688D01*
X128845863Y-111736658D01*
X128780546Y-111700987D01*
X128723354Y-111651079D01*
X128677605Y-111590548D01*
X128644330Y-111520618D01*
X128623519Y-111439507D01*
X128616193Y-111344890D01*
X128817144Y-111344890D01*
X128823994Y-111406131D01*
X128843423Y-111456625D01*
X128875121Y-111498763D01*
X128916978Y-111530663D01*
X128967583Y-111550265D01*
X129029452Y-111557199D01*
X129044839Y-111557199D01*
X129108051Y-111550266D01*
X129160012Y-111530650D01*
X129203200Y-111498763D01*
X129236085Y-111456476D01*
X129256140Y-111405983D01*
X129263192Y-111344890D01*
X129464234Y-111344890D01*
X129471749Y-111415559D01*
X129492975Y-111473633D01*
X129527341Y-111521844D01*
X129573162Y-111558669D01*
X129628128Y-111581092D01*
X129694952Y-111588981D01*
X129710248Y-111588981D01*
X129775698Y-111581123D01*
X129829712Y-111558738D01*
X129874929Y-111521844D01*
X129908654Y-111473715D01*
X129929534Y-111415639D01*
X129936936Y-111344890D01*
X129929431Y-111274279D01*
X129908235Y-111216266D01*
X129873921Y-111168120D01*
X129828083Y-111131136D01*
X129773706Y-111108736D01*
X129708233Y-111100892D01*
X129693853Y-111100892D01*
X129627771Y-111108761D01*
X129573144Y-111131186D01*
X129527341Y-111168120D01*
X129492974Y-111216273D01*
X129471749Y-111274286D01*
X129464234Y-111344890D01*
X129263192Y-111344890D01*
X129256097Y-111283893D01*
X129235902Y-111233429D01*
X129202742Y-111191109D01*
X129159194Y-111159253D01*
X129106695Y-111139621D01*
X129042732Y-111132674D01*
X129028444Y-111132674D01*
X128967252Y-111139583D01*
X128916956Y-111159162D01*
X128875121Y-111191109D01*
X128843418Y-111233245D01*
X128823992Y-111283712D01*
X128817144Y-111344890D01*
X128616193Y-111344890D01*
X128623519Y-111250322D01*
X128644329Y-111169258D01*
X128677605Y-111099373D01*
X128723354Y-111038885D01*
X128780552Y-110988934D01*
X128845871Y-110953235D01*
X128920911Y-110931189D01*
X129007928Y-110923480D01*
X129043831Y-110923480D01*
X129103991Y-110928878D01*
X129161459Y-110944990D01*
X129217122Y-110972206D01*
X129267232Y-111008560D01*
X129307950Y-111051275D01*
X129340129Y-111100892D01*
X129378678Y-111042564D01*
X129427871Y-110992358D01*
X129488872Y-110949675D01*
X129556301Y-110917891D01*
X129625998Y-110899031D01*
X129698982Y-110892705D01*
X129723620Y-110892705D01*
X129805449Y-110899299D01*
G37*
G36*
X126076339Y-39999775D02*
G01*
X126142859Y-40027083D01*
X126195834Y-40071225D01*
X126234208Y-40129455D01*
X126258834Y-40204571D01*
X126267824Y-40301375D01*
X126267824Y-40512950D01*
X126258862Y-40609766D01*
X126234256Y-40685336D01*
X126195834Y-40744309D01*
X126142765Y-40789166D01*
X126076241Y-40816848D01*
X125992172Y-40826741D01*
X125908897Y-40816894D01*
X125842499Y-40789250D01*
X125789060Y-40744309D01*
X125750324Y-40685293D01*
X125725541Y-40609722D01*
X125716519Y-40512950D01*
X125716519Y-40301375D01*
X125725569Y-40204616D01*
X125750371Y-40129498D01*
X125789060Y-40071225D01*
X125842405Y-40026999D01*
X125908801Y-39999729D01*
X125992172Y-39990002D01*
X126076339Y-39999775D01*
G37*
G36*
X128269249Y-39999775D02*
G01*
X128335769Y-40027083D01*
X128388744Y-40071225D01*
X128427118Y-40129455D01*
X128451744Y-40204571D01*
X128460734Y-40301375D01*
X128460734Y-40512950D01*
X128451772Y-40609766D01*
X128427166Y-40685336D01*
X128388744Y-40744309D01*
X128335675Y-40789166D01*
X128269151Y-40816848D01*
X128185082Y-40826741D01*
X128101807Y-40816894D01*
X128035409Y-40789250D01*
X127981970Y-40744309D01*
X127943234Y-40685293D01*
X127918451Y-40609722D01*
X127909429Y-40512950D01*
X127909429Y-40301375D01*
X127918479Y-40204616D01*
X127943281Y-40129498D01*
X127981970Y-40071225D01*
X128035315Y-40026999D01*
X128101711Y-39999729D01*
X128185082Y-39990002D01*
X128269249Y-39999775D01*
G37*
G36*
X131436383Y-41265464D02*
G01*
X123364496Y-41265464D01*
X123364496Y-41047000D01*
X123564496Y-41047000D01*
X123809374Y-41047000D01*
X123809374Y-39838021D01*
X124237580Y-40798495D01*
X124412336Y-40798495D01*
X124840542Y-39814089D01*
X124840542Y-41047000D01*
X125085420Y-41047000D01*
X125085420Y-40301375D01*
X125465487Y-40301375D01*
X125465487Y-40509323D01*
X125465754Y-40512950D01*
X125475223Y-40641565D01*
X125502480Y-40751581D01*
X125545337Y-40843282D01*
X125603313Y-40919725D01*
X125676549Y-40981660D01*
X125763738Y-41026851D01*
X125867687Y-41055336D01*
X125992172Y-41065464D01*
X126116739Y-41055406D01*
X126220714Y-41027130D01*
X126307873Y-40982303D01*
X126381031Y-40920934D01*
X126439013Y-40845059D01*
X126481864Y-40753954D01*
X126509119Y-40644560D01*
X126518857Y-40512950D01*
X126518857Y-40301375D01*
X126509126Y-40170412D01*
X126481885Y-40061534D01*
X126439038Y-39970830D01*
X126381031Y-39895260D01*
X126307909Y-39834148D01*
X126220764Y-39789487D01*
X126147915Y-39769744D01*
X126775715Y-39769744D01*
X126775715Y-39996157D01*
X126907386Y-39996157D01*
X126907386Y-40714744D01*
X126916381Y-40821804D01*
X126940747Y-40903619D01*
X126978058Y-40965777D01*
X127031420Y-41012255D01*
X127105199Y-41042083D01*
X127206340Y-41053154D01*
X127351530Y-41053154D01*
X127351530Y-40814431D01*
X127230959Y-40814431D01*
X127199125Y-40807768D01*
X127176774Y-40788603D01*
X127163370Y-40759522D01*
X127158309Y-40717272D01*
X127158309Y-40301375D01*
X127658397Y-40301375D01*
X127658397Y-40509323D01*
X127658664Y-40512950D01*
X127668133Y-40641565D01*
X127695390Y-40751581D01*
X127738247Y-40843282D01*
X127796223Y-40919725D01*
X127869459Y-40981660D01*
X127956648Y-41026851D01*
X128060596Y-41055336D01*
X128185082Y-41065464D01*
X128309649Y-41055406D01*
X128413624Y-41027130D01*
X128500783Y-40982303D01*
X128573941Y-40920934D01*
X128631923Y-40845059D01*
X128674774Y-40753954D01*
X128702029Y-40644560D01*
X128711767Y-40512950D01*
X128711767Y-40301375D01*
X128702036Y-40170412D01*
X128674794Y-40061534D01*
X128631948Y-39970830D01*
X128573941Y-39895260D01*
X128500819Y-39834148D01*
X128413674Y-39789487D01*
X128340825Y-39769744D01*
X129066994Y-39769744D01*
X129066994Y-41047000D01*
X129318027Y-41047000D01*
X129318027Y-40238617D01*
X129326022Y-40163316D01*
X129348282Y-40103550D01*
X129383862Y-40055838D01*
X129431624Y-40020366D01*
X129492121Y-39998054D01*
X129569060Y-39990002D01*
X129632892Y-39995511D01*
X129685893Y-40010995D01*
X129732330Y-40036957D01*
X129769644Y-40072434D01*
X129933299Y-39850967D01*
X129876157Y-39807917D01*
X129809541Y-39776558D01*
X129736189Y-39757841D01*
X129651492Y-39751279D01*
X129577977Y-39758430D01*
X129509287Y-39779636D01*
X129444093Y-39815356D01*
X129386277Y-39862616D01*
X129335732Y-39921203D01*
X129318027Y-39950211D01*
X129318027Y-39769744D01*
X129066994Y-39769744D01*
X128340825Y-39769744D01*
X128309686Y-39761305D01*
X128185082Y-39751279D01*
X128060477Y-39761305D01*
X127956490Y-39789487D01*
X127869345Y-39834148D01*
X127796223Y-39895260D01*
X127738216Y-39970830D01*
X127695369Y-40061534D01*
X127668128Y-40170412D01*
X127658397Y-40301375D01*
X127158309Y-40301375D01*
X127158309Y-39996157D01*
X127351530Y-39996157D01*
X127351530Y-39769744D01*
X127158309Y-39769744D01*
X127158309Y-39427706D01*
X130730691Y-39427706D01*
X130730691Y-39687312D01*
X130985351Y-39531021D01*
X130985351Y-41047000D01*
X131236383Y-41047000D01*
X131236383Y-39257896D01*
X130985351Y-39257896D01*
X130730691Y-39427706D01*
X127158309Y-39427706D01*
X127158309Y-39398140D01*
X126907386Y-39398140D01*
X126907386Y-39769744D01*
X126775715Y-39769744D01*
X126147915Y-39769744D01*
X126116776Y-39761305D01*
X125992172Y-39751279D01*
X125867567Y-39761305D01*
X125763580Y-39789487D01*
X125676435Y-39834148D01*
X125603313Y-39895260D01*
X125545306Y-39970830D01*
X125502459Y-40061534D01*
X125475218Y-40170412D01*
X125465487Y-40301375D01*
X125085420Y-40301375D01*
X125085420Y-39257896D01*
X124850324Y-39257896D01*
X124324958Y-40439201D01*
X123799482Y-39257896D01*
X123564496Y-39257896D01*
X123564496Y-41047000D01*
X123364496Y-41047000D01*
X123364496Y-39057896D01*
X131436383Y-39057896D01*
X131436383Y-41265464D01*
G37*
G36*
X54035246Y-103154306D02*
G01*
X52542129Y-103154306D01*
X52542129Y-102723279D01*
X54035246Y-102723279D01*
X54035246Y-103154306D01*
G37*
G36*
X54190829Y-98025317D02*
G01*
X52386744Y-98025317D01*
X52386744Y-97594289D01*
X54190829Y-97594289D01*
X54190829Y-98025317D01*
G37*
G36*
X53062060Y-98711746D02*
G01*
X53062060Y-96907860D01*
X53515314Y-96907860D01*
X53515314Y-98711746D01*
X53062060Y-98711746D01*
G37*
G36*
X77911404Y-45187386D02*
G01*
X77074393Y-45187386D01*
X77492852Y-43969206D01*
X77911404Y-45187386D01*
G37*
G36*
X83417350Y-46434200D02*
G01*
X72524071Y-46434200D01*
X72524071Y-46134200D01*
X74673185Y-46134200D01*
X75049734Y-46134200D01*
X76343091Y-46134200D01*
X76749151Y-46134200D01*
X76951387Y-45545470D01*
X78034437Y-45545470D01*
X78236718Y-46134200D01*
X78642778Y-46134200D01*
X78642109Y-46132386D01*
X79046695Y-46132386D01*
X79419617Y-46132386D01*
X79419617Y-44158474D01*
X80683793Y-46132386D01*
X81029018Y-46132386D01*
X81029018Y-44718513D01*
X81618572Y-44718513D01*
X81618572Y-45076597D01*
X82179769Y-45076597D01*
X82179769Y-45646862D01*
X82556318Y-45646862D01*
X82556318Y-45076597D01*
X83117350Y-45076597D01*
X83117350Y-44718513D01*
X82556318Y-44718513D01*
X82556318Y-44148249D01*
X82179769Y-44148249D01*
X82179769Y-44718513D01*
X81618572Y-44718513D01*
X81029018Y-44718513D01*
X81029018Y-43450545D01*
X80656096Y-43450545D01*
X80656096Y-45455080D01*
X79388128Y-43450545D01*
X79046695Y-43450545D01*
X79046695Y-46132386D01*
X78642109Y-46132386D01*
X77653430Y-43450545D01*
X77332440Y-43450545D01*
X76343091Y-46134200D01*
X75049734Y-46134200D01*
X75049734Y-45004552D01*
X76158938Y-45004552D01*
X76158938Y-44646632D01*
X75049734Y-44646632D01*
X75049734Y-43808629D01*
X76362051Y-43808629D01*
X76362051Y-43450545D01*
X75049734Y-43450545D01*
X74673185Y-43450545D01*
X74673185Y-46134200D01*
X72524071Y-46134200D01*
X72524071Y-45351590D01*
X72824071Y-45351590D01*
X74064507Y-45351590D01*
X74064507Y-44993506D01*
X72824071Y-44993506D01*
X72824071Y-45351590D01*
X72524071Y-45351590D01*
X72524071Y-43150545D01*
X83417350Y-43150545D01*
X83417350Y-46434200D01*
G37*
G36*
X135575921Y-107370309D02*
G01*
X135508577Y-107365045D01*
X135449785Y-107349969D01*
X135398087Y-107325655D01*
X135352366Y-107291981D01*
X135313921Y-107250316D01*
X135282784Y-107200492D01*
X135258915Y-107141247D01*
X135242823Y-107070916D01*
X135242823Y-107070037D01*
X135410178Y-107070037D01*
X135410178Y-107070916D01*
X135420444Y-107112574D01*
X135437953Y-107146110D01*
X135462641Y-107173059D01*
X135493510Y-107192832D01*
X135530720Y-107205166D01*
X135575921Y-107209549D01*
X135626968Y-107203176D01*
X135667566Y-107185235D01*
X135700192Y-107155840D01*
X135723493Y-107117598D01*
X135738563Y-107068169D01*
X135744082Y-107004458D01*
X135744082Y-106904367D01*
X135738553Y-106840658D01*
X135723476Y-106791395D01*
X135700192Y-106753425D01*
X135667594Y-106724249D01*
X135626998Y-106706420D01*
X135575921Y-106700083D01*
X135533639Y-106706115D01*
X135492170Y-106724702D01*
X135455045Y-106753690D01*
X135421682Y-106793652D01*
X135269128Y-106793652D01*
X135269128Y-106165264D01*
X135876926Y-106165264D01*
X135876926Y-106324413D01*
X135436410Y-106324413D01*
X135436410Y-106592665D01*
X135469381Y-106570157D01*
X135506165Y-106553317D01*
X135545219Y-106542805D01*
X135584934Y-106539322D01*
X135661877Y-106545908D01*
X135726243Y-106564476D01*
X135780406Y-106594081D01*
X135826075Y-106634943D01*
X135861744Y-106684690D01*
X135888302Y-106744716D01*
X135905281Y-106817082D01*
X135911364Y-106904367D01*
X135911364Y-107004458D01*
X135905119Y-107092016D01*
X135887680Y-107164599D01*
X135860362Y-107224824D01*
X135823583Y-107274762D01*
X135776798Y-107315482D01*
X135721214Y-107345087D01*
X135655062Y-107363700D01*
X135575921Y-107370309D01*
G37*
G36*
X136447648Y-107358000D02*
G01*
X136058862Y-106165264D01*
X136240945Y-106165264D01*
X136527222Y-107100445D01*
X136813573Y-106165264D01*
X136995656Y-106165264D01*
X136606797Y-107358000D01*
X136447648Y-107358000D01*
G37*
G36*
X138274590Y-107100713D02*
G01*
X137493575Y-107100713D01*
X137493575Y-106875252D01*
X138274590Y-106875252D01*
X138274590Y-107100713D01*
G37*
G36*
X138355972Y-104417857D02*
G01*
X137412297Y-104417857D01*
X137412297Y-104192396D01*
X138355972Y-104192396D01*
X138355972Y-104417857D01*
G37*
G36*
X137765539Y-104776912D02*
G01*
X137765539Y-103833341D01*
X138002626Y-103833341D01*
X138002626Y-104776912D01*
X137765539Y-104776912D01*
G37*
G36*
X134805126Y-101378000D02*
G01*
X134805126Y-101232773D01*
X135221022Y-100678244D01*
X135253437Y-100629334D01*
X135277222Y-100579838D01*
X135292520Y-100529257D01*
X135297299Y-100483851D01*
X135297299Y-100482239D01*
X135292230Y-100436435D01*
X135278113Y-100400265D01*
X135255460Y-100371524D01*
X135225274Y-100350432D01*
X135186464Y-100336993D01*
X135136539Y-100332103D01*
X135090137Y-100337176D01*
X135051450Y-100351611D01*
X135018789Y-100375187D01*
X134993235Y-100406514D01*
X134974641Y-100446420D01*
X134963468Y-100496967D01*
X134963468Y-100497773D01*
X134790324Y-100497773D01*
X134790324Y-100496967D01*
X134806689Y-100420723D01*
X134831194Y-100356608D01*
X134863224Y-100302797D01*
X134902725Y-100257877D01*
X134950211Y-100221268D01*
X135003887Y-100194933D01*
X135064936Y-100178640D01*
X135134927Y-100172954D01*
X135215481Y-100178733D01*
X135282226Y-100194872D01*
X135337585Y-100220157D01*
X135383468Y-100254214D01*
X135420832Y-100297475D01*
X135448037Y-100348964D01*
X135465163Y-100410337D01*
X135471249Y-100483851D01*
X135471249Y-100484657D01*
X135464933Y-100548031D01*
X135444944Y-100617134D01*
X135413841Y-100684443D01*
X135371964Y-100749612D01*
X135026629Y-101218851D01*
X135477770Y-101218851D01*
X135477770Y-101378000D01*
X134805126Y-101378000D01*
G37*
G36*
X135625049Y-101195037D02*
G01*
X135625049Y-101049884D01*
X136025412Y-100186070D01*
X136197676Y-100186070D01*
X135807205Y-101040065D01*
X136392069Y-101040065D01*
X136392069Y-101195037D01*
X135625049Y-101195037D01*
G37*
G36*
X136139424Y-101378806D02*
G01*
X136139424Y-100676632D01*
X136302676Y-100676632D01*
X136302676Y-101378806D01*
X136139424Y-101378806D01*
G37*
G36*
X136887320Y-101378000D02*
G01*
X136498534Y-100185264D01*
X136680617Y-100185264D01*
X136966895Y-101120445D01*
X137253245Y-100185264D01*
X137435328Y-100185264D01*
X137046469Y-101378000D01*
X136887320Y-101378000D01*
G37*
G36*
X52529612Y-112352975D02*
G01*
X52529612Y-111836218D01*
X52790097Y-111836218D01*
X52900650Y-111843908D01*
X52997901Y-111865936D01*
X53083921Y-111901339D01*
X53162052Y-111951025D01*
X53226541Y-112011423D01*
X53278736Y-112083331D01*
X53316458Y-112163849D01*
X53339771Y-112254727D01*
X53347887Y-112358104D01*
X53340230Y-112462389D01*
X53318244Y-112554353D01*
X53282766Y-112635991D01*
X53233255Y-112709598D01*
X53172421Y-112770790D01*
X53099217Y-112820639D01*
X53017915Y-112856391D01*
X52926467Y-112878518D01*
X52822887Y-112886218D01*
X52382975Y-112886218D01*
X52272424Y-112878519D01*
X52175368Y-112856483D01*
X52089700Y-112821097D01*
X52011867Y-112771435D01*
X51947553Y-112711040D01*
X51895436Y-112639105D01*
X51857658Y-112558523D01*
X51834317Y-112467613D01*
X51826193Y-112364241D01*
X51832532Y-112278785D01*
X51851082Y-112200073D01*
X51881605Y-112126928D01*
X51923314Y-112059409D01*
X51974678Y-111999619D01*
X52036394Y-111946952D01*
X52105431Y-111904182D01*
X52182615Y-111871314D01*
X52269127Y-111848491D01*
X52269127Y-112075088D01*
X52196051Y-112101204D01*
X52137763Y-112138444D01*
X52091807Y-112186920D01*
X52057097Y-112244601D01*
X52036940Y-112303303D01*
X52030258Y-112364241D01*
X52036658Y-112432279D01*
X52055018Y-112491106D01*
X52084937Y-112542541D01*
X52127161Y-112587814D01*
X52196160Y-112633324D01*
X52280106Y-112661760D01*
X52382975Y-112671895D01*
X52822887Y-112671895D01*
X52916471Y-112661647D01*
X52992975Y-112632720D01*
X53056169Y-112585799D01*
X53104146Y-112523474D01*
X53133485Y-112448770D01*
X53143822Y-112358104D01*
X53133040Y-112269246D01*
X53102308Y-112195956D01*
X53051590Y-112134622D01*
X52985299Y-112089545D01*
X52901153Y-112060915D01*
X52794127Y-112050541D01*
X52729556Y-112050541D01*
X52729556Y-112352975D01*
X52529612Y-112352975D01*
G37*
G36*
X53331492Y-111518947D02*
G01*
X51841580Y-111518947D01*
X51841580Y-111329262D01*
X52994162Y-110600197D01*
X53020815Y-110624835D01*
X51841580Y-110624835D01*
X51841580Y-110417656D01*
X53331492Y-110417656D01*
X53331492Y-110609447D01*
X52196404Y-111336406D01*
X52169751Y-111311768D01*
X53331492Y-111311768D01*
X53331492Y-111518947D01*
G37*
G36*
X53332500Y-109907585D02*
G01*
X53133564Y-109907585D01*
X53133564Y-109570255D01*
X53127504Y-109487670D01*
X53110552Y-109419058D01*
X53083921Y-109361957D01*
X53047926Y-109314441D01*
X53002406Y-109275851D01*
X52948251Y-109247708D01*
X52883727Y-109229977D01*
X52806492Y-109223674D01*
X52367588Y-109223674D01*
X52290353Y-109229977D01*
X52225828Y-109247708D01*
X52171673Y-109275851D01*
X52126154Y-109314441D01*
X52090159Y-109361957D01*
X52063527Y-109419058D01*
X52046575Y-109487670D01*
X52040516Y-109570255D01*
X52040516Y-109907585D01*
X51841580Y-109907585D01*
X51841580Y-109576392D01*
X51851496Y-109440947D01*
X51879221Y-109328557D01*
X51922745Y-109235151D01*
X51981531Y-109157546D01*
X52055914Y-109094534D01*
X52144375Y-109048585D01*
X52249743Y-109019639D01*
X52375831Y-109009351D01*
X52798249Y-109009351D01*
X52909386Y-109017336D01*
X53004753Y-109039979D01*
X53086944Y-109076030D01*
X53160108Y-109126985D01*
X53220632Y-109191078D01*
X53269485Y-109269836D01*
X53303398Y-109356781D01*
X53324885Y-109458400D01*
X53332500Y-109577399D01*
X53332500Y-109907585D01*
G37*
G36*
X53332500Y-110049093D02*
G01*
X51841580Y-110049093D01*
X51841580Y-109839899D01*
X53332500Y-109839899D01*
X53332500Y-110049093D01*
G37*
G36*
X55867887Y-112469845D02*
G01*
X55861306Y-112554025D01*
X55842461Y-112627515D01*
X55812068Y-112692137D01*
X55769976Y-112749289D01*
X55717895Y-112797345D01*
X55655615Y-112836266D01*
X55581558Y-112866103D01*
X55493646Y-112886218D01*
X55492547Y-112886218D01*
X55492547Y-112677024D01*
X55493646Y-112677024D01*
X55545718Y-112664192D01*
X55587638Y-112642305D01*
X55621324Y-112611445D01*
X55646040Y-112572859D01*
X55661457Y-112526347D01*
X55666936Y-112469845D01*
X55658970Y-112406036D01*
X55636544Y-112355289D01*
X55599800Y-112314507D01*
X55551997Y-112285380D01*
X55490211Y-112266543D01*
X55410573Y-112259644D01*
X55285459Y-112259644D01*
X55205823Y-112266556D01*
X55144244Y-112285402D01*
X55096782Y-112314507D01*
X55060311Y-112355253D01*
X55038025Y-112405999D01*
X55030103Y-112469845D01*
X55037644Y-112522698D01*
X55060878Y-112574534D01*
X55097113Y-112620940D01*
X55147065Y-112662644D01*
X55147065Y-112853337D01*
X54361580Y-112853337D01*
X54361580Y-112093589D01*
X54560516Y-112093589D01*
X54560516Y-112644234D01*
X54895831Y-112644234D01*
X54867696Y-112603020D01*
X54846646Y-112557040D01*
X54833506Y-112508223D01*
X54829153Y-112458579D01*
X54837385Y-112362401D01*
X54860596Y-112281943D01*
X54897602Y-112214239D01*
X54948679Y-112157153D01*
X55010862Y-112112566D01*
X55085895Y-112079369D01*
X55176353Y-112058145D01*
X55285459Y-112050541D01*
X55410573Y-112050541D01*
X55520020Y-112058347D01*
X55610749Y-112080147D01*
X55686030Y-112114294D01*
X55748452Y-112160267D01*
X55799353Y-112218749D01*
X55836359Y-112288229D01*
X55859625Y-112370919D01*
X55867887Y-112469845D01*
G37*
G36*
X55852500Y-111380186D02*
G01*
X54361580Y-111866168D01*
X54361580Y-111638565D01*
X55530557Y-111280718D01*
X54361580Y-110922780D01*
X54361580Y-110695177D01*
X55852500Y-111181250D01*
X55852500Y-111380186D01*
G37*
G36*
X57569612Y-112352975D02*
G01*
X57569612Y-111836218D01*
X57830097Y-111836218D01*
X57940650Y-111843908D01*
X58037901Y-111865936D01*
X58123921Y-111901339D01*
X58202052Y-111951025D01*
X58266541Y-112011423D01*
X58318736Y-112083331D01*
X58356458Y-112163849D01*
X58379771Y-112254727D01*
X58387887Y-112358104D01*
X58380230Y-112462389D01*
X58358244Y-112554353D01*
X58322766Y-112635991D01*
X58273255Y-112709598D01*
X58212421Y-112770790D01*
X58139217Y-112820639D01*
X58057915Y-112856391D01*
X57966467Y-112878518D01*
X57862887Y-112886218D01*
X57422975Y-112886218D01*
X57312424Y-112878519D01*
X57215368Y-112856483D01*
X57129700Y-112821097D01*
X57051867Y-112771435D01*
X56987553Y-112711040D01*
X56935436Y-112639105D01*
X56897658Y-112558523D01*
X56874317Y-112467613D01*
X56866193Y-112364241D01*
X56872532Y-112278785D01*
X56891082Y-112200073D01*
X56921605Y-112126928D01*
X56963314Y-112059409D01*
X57014678Y-111999619D01*
X57076394Y-111946952D01*
X57145431Y-111904182D01*
X57222615Y-111871314D01*
X57309127Y-111848491D01*
X57309127Y-112075088D01*
X57236051Y-112101204D01*
X57177763Y-112138444D01*
X57131807Y-112186920D01*
X57097097Y-112244601D01*
X57076940Y-112303303D01*
X57070258Y-112364241D01*
X57076658Y-112432279D01*
X57095018Y-112491106D01*
X57124937Y-112542541D01*
X57167161Y-112587814D01*
X57236160Y-112633324D01*
X57320106Y-112661760D01*
X57422975Y-112671895D01*
X57862887Y-112671895D01*
X57956471Y-112661647D01*
X58032975Y-112632720D01*
X58096169Y-112585799D01*
X58144146Y-112523474D01*
X58173485Y-112448770D01*
X58183822Y-112358104D01*
X58173040Y-112269246D01*
X58142308Y-112195956D01*
X58091590Y-112134622D01*
X58025299Y-112089545D01*
X57941153Y-112060915D01*
X57834127Y-112050541D01*
X57769556Y-112050541D01*
X57769556Y-112352975D01*
X57569612Y-112352975D01*
G37*
G36*
X58371492Y-111518947D02*
G01*
X56881580Y-111518947D01*
X56881580Y-111329262D01*
X58034162Y-110600197D01*
X58060815Y-110624835D01*
X56881580Y-110624835D01*
X56881580Y-110417656D01*
X58371492Y-110417656D01*
X58371492Y-110609447D01*
X57236404Y-111336406D01*
X57209751Y-111311768D01*
X58371492Y-111311768D01*
X58371492Y-111518947D01*
G37*
G36*
X58372500Y-109907585D02*
G01*
X58173564Y-109907585D01*
X58173564Y-109570255D01*
X58167504Y-109487670D01*
X58150552Y-109419058D01*
X58123921Y-109361957D01*
X58087926Y-109314441D01*
X58042406Y-109275851D01*
X57988251Y-109247708D01*
X57923727Y-109229977D01*
X57846492Y-109223674D01*
X57407588Y-109223674D01*
X57330353Y-109229977D01*
X57265828Y-109247708D01*
X57211673Y-109275851D01*
X57166154Y-109314441D01*
X57130159Y-109361957D01*
X57103527Y-109419058D01*
X57086575Y-109487670D01*
X57080516Y-109570255D01*
X57080516Y-109907585D01*
X56881580Y-109907585D01*
X56881580Y-109576392D01*
X56891496Y-109440947D01*
X56919221Y-109328557D01*
X56962745Y-109235151D01*
X57021531Y-109157546D01*
X57095914Y-109094534D01*
X57184375Y-109048585D01*
X57289743Y-109019639D01*
X57415831Y-109009351D01*
X57838249Y-109009351D01*
X57949386Y-109017336D01*
X58044753Y-109039979D01*
X58126944Y-109076030D01*
X58200108Y-109126985D01*
X58260632Y-109191078D01*
X58309485Y-109269836D01*
X58343398Y-109356781D01*
X58364885Y-109458400D01*
X58372500Y-109577399D01*
X58372500Y-109907585D01*
G37*
G36*
X58372500Y-110049093D02*
G01*
X56881580Y-110049093D01*
X56881580Y-109839899D01*
X58372500Y-109839899D01*
X58372500Y-110049093D01*
G37*
G36*
X60907887Y-112500620D02*
G01*
X60902489Y-112583700D01*
X60887037Y-112656882D01*
X60862274Y-112721629D01*
X60827161Y-112780963D01*
X60783460Y-112831421D01*
X60730566Y-112873853D01*
X60670867Y-112906748D01*
X60601626Y-112931534D01*
X60521281Y-112947676D01*
X60521281Y-112734452D01*
X60582424Y-112718626D01*
X60628376Y-112693202D01*
X60662331Y-112658614D01*
X60686374Y-112615497D01*
X60701531Y-112563538D01*
X60706936Y-112500620D01*
X60700147Y-112433759D01*
X60681363Y-112381179D01*
X60651615Y-112339694D01*
X60611255Y-112308669D01*
X60560301Y-112289254D01*
X60495635Y-112282267D01*
X60450573Y-112282267D01*
X60377964Y-112289043D01*
X60321581Y-112307615D01*
X60277832Y-112336580D01*
X60244646Y-112376535D01*
X60224098Y-112426760D01*
X60216741Y-112490362D01*
X60216741Y-112595966D01*
X60017805Y-112595966D01*
X60017805Y-112490362D01*
X60011461Y-112433886D01*
X59993819Y-112389545D01*
X59965506Y-112354532D01*
X59927915Y-112329020D01*
X59879708Y-112312737D01*
X59817862Y-112306813D01*
X59771791Y-112306813D01*
X59715124Y-112312999D01*
X59670590Y-112330179D01*
X59635412Y-112357646D01*
X59609557Y-112394288D01*
X59593118Y-112441283D01*
X59587144Y-112501627D01*
X59592330Y-112552668D01*
X59607253Y-112596790D01*
X59631748Y-112635442D01*
X59665062Y-112666647D01*
X59710998Y-112691986D01*
X59772799Y-112710821D01*
X59772799Y-112923129D01*
X59681657Y-112901040D01*
X59605015Y-112869678D01*
X59540749Y-112829707D01*
X59487218Y-112781163D01*
X59443591Y-112723279D01*
X59412258Y-112658360D01*
X59392922Y-112585066D01*
X59386193Y-112501627D01*
X59393365Y-112405361D01*
X59413441Y-112325371D01*
X59445016Y-112258771D01*
X59487767Y-112203315D01*
X59541583Y-112158497D01*
X59605699Y-112125738D01*
X59682185Y-112105065D01*
X59773806Y-112097711D01*
X59798444Y-112097711D01*
X59870940Y-112104687D01*
X59935123Y-112124915D01*
X59992709Y-112158252D01*
X60041994Y-112203126D01*
X60082459Y-112259551D01*
X60114250Y-112329436D01*
X60139517Y-112252872D01*
X60179121Y-112190603D01*
X60233685Y-112140209D01*
X60299296Y-112103959D01*
X60377754Y-112081174D01*
X60472096Y-112073073D01*
X60496734Y-112073073D01*
X60593969Y-112080857D01*
X60675136Y-112102738D01*
X60743170Y-112137403D01*
X60800267Y-112184814D01*
X60845562Y-112243500D01*
X60879015Y-112313996D01*
X60900287Y-112398681D01*
X60907887Y-112500620D01*
G37*
G36*
X60892500Y-111802513D02*
G01*
X60673047Y-111802513D01*
X60673047Y-111583060D01*
X60892500Y-111583060D01*
X60892500Y-111802513D01*
G37*
G36*
X60907887Y-110916461D02*
G01*
X60902489Y-110999541D01*
X60887037Y-111072722D01*
X60862274Y-111137470D01*
X60827161Y-111196804D01*
X60783460Y-111247262D01*
X60730566Y-111289694D01*
X60670867Y-111322589D01*
X60601626Y-111347375D01*
X60521281Y-111363517D01*
X60521281Y-111150293D01*
X60582424Y-111134467D01*
X60628376Y-111109043D01*
X60662331Y-111074455D01*
X60686374Y-111031338D01*
X60701531Y-110979379D01*
X60706936Y-110916461D01*
X60700147Y-110849600D01*
X60681363Y-110797020D01*
X60651615Y-110755535D01*
X60611255Y-110724510D01*
X60560301Y-110705095D01*
X60495635Y-110698107D01*
X60450573Y-110698107D01*
X60377964Y-110704884D01*
X60321581Y-110723456D01*
X60277832Y-110752421D01*
X60244646Y-110792376D01*
X60224098Y-110842601D01*
X60216741Y-110906202D01*
X60216741Y-111011807D01*
X60017805Y-111011807D01*
X60017805Y-110906202D01*
X60011461Y-110849726D01*
X59993819Y-110805386D01*
X59965506Y-110770373D01*
X59927915Y-110744861D01*
X59879708Y-110728578D01*
X59817862Y-110722654D01*
X59771791Y-110722654D01*
X59715124Y-110728840D01*
X59670590Y-110746020D01*
X59635412Y-110773487D01*
X59609557Y-110810129D01*
X59593118Y-110857124D01*
X59587144Y-110917468D01*
X59592330Y-110968509D01*
X59607253Y-111012630D01*
X59631748Y-111051283D01*
X59665062Y-111082488D01*
X59710998Y-111107827D01*
X59772799Y-111126662D01*
X59772799Y-111338970D01*
X59681657Y-111316881D01*
X59605015Y-111285519D01*
X59540749Y-111245548D01*
X59487218Y-111197004D01*
X59443591Y-111139120D01*
X59412258Y-111074201D01*
X59392922Y-111000907D01*
X59386193Y-110917468D01*
X59393365Y-110821201D01*
X59413441Y-110741212D01*
X59445016Y-110674612D01*
X59487767Y-110619156D01*
X59541583Y-110574338D01*
X59605699Y-110541579D01*
X59682185Y-110520906D01*
X59773806Y-110513551D01*
X59798444Y-110513551D01*
X59870940Y-110520528D01*
X59935123Y-110540756D01*
X59992709Y-110574093D01*
X60041994Y-110618966D01*
X60082459Y-110675392D01*
X60114250Y-110745277D01*
X60139517Y-110668713D01*
X60179121Y-110606444D01*
X60233685Y-110556050D01*
X60299296Y-110519800D01*
X60377754Y-110497015D01*
X60472096Y-110488913D01*
X60496734Y-110488913D01*
X60593969Y-110496698D01*
X60675136Y-110518579D01*
X60743170Y-110553244D01*
X60800267Y-110600655D01*
X60845562Y-110659341D01*
X60879015Y-110729837D01*
X60900287Y-110814522D01*
X60907887Y-110916461D01*
G37*
G36*
X60892500Y-109829733D02*
G01*
X59401580Y-110315715D01*
X59401580Y-110088111D01*
X60570557Y-109730265D01*
X59401580Y-109372327D01*
X59401580Y-109144723D01*
X60892500Y-109630797D01*
X60892500Y-109829733D01*
G37*
G36*
X62609612Y-112352975D02*
G01*
X62609612Y-111836218D01*
X62870097Y-111836218D01*
X62980650Y-111843908D01*
X63077901Y-111865936D01*
X63163921Y-111901339D01*
X63242052Y-111951025D01*
X63306541Y-112011423D01*
X63358736Y-112083331D01*
X63396458Y-112163849D01*
X63419771Y-112254727D01*
X63427887Y-112358104D01*
X63420230Y-112462389D01*
X63398244Y-112554353D01*
X63362766Y-112635991D01*
X63313255Y-112709598D01*
X63252421Y-112770790D01*
X63179217Y-112820639D01*
X63097915Y-112856391D01*
X63006467Y-112878518D01*
X62902887Y-112886218D01*
X62462975Y-112886218D01*
X62352424Y-112878519D01*
X62255368Y-112856483D01*
X62169700Y-112821097D01*
X62091867Y-112771435D01*
X62027553Y-112711040D01*
X61975436Y-112639105D01*
X61937658Y-112558523D01*
X61914317Y-112467613D01*
X61906193Y-112364241D01*
X61912532Y-112278785D01*
X61931082Y-112200073D01*
X61961605Y-112126928D01*
X62003314Y-112059409D01*
X62054678Y-111999619D01*
X62116394Y-111946952D01*
X62185431Y-111904182D01*
X62262615Y-111871314D01*
X62349127Y-111848491D01*
X62349127Y-112075088D01*
X62276051Y-112101204D01*
X62217763Y-112138444D01*
X62171807Y-112186920D01*
X62137097Y-112244601D01*
X62116940Y-112303303D01*
X62110258Y-112364241D01*
X62116658Y-112432279D01*
X62135018Y-112491106D01*
X62164937Y-112542541D01*
X62207161Y-112587814D01*
X62276160Y-112633324D01*
X62360106Y-112661760D01*
X62462975Y-112671895D01*
X62902887Y-112671895D01*
X62996471Y-112661647D01*
X63072975Y-112632720D01*
X63136169Y-112585799D01*
X63184146Y-112523474D01*
X63213485Y-112448770D01*
X63223822Y-112358104D01*
X63213040Y-112269246D01*
X63182308Y-112195956D01*
X63131590Y-112134622D01*
X63065299Y-112089545D01*
X62981153Y-112060915D01*
X62874127Y-112050541D01*
X62809556Y-112050541D01*
X62809556Y-112352975D01*
X62609612Y-112352975D01*
G37*
G36*
X63411492Y-111518947D02*
G01*
X61921580Y-111518947D01*
X61921580Y-111329262D01*
X63074162Y-110600197D01*
X63100815Y-110624835D01*
X61921580Y-110624835D01*
X61921580Y-110417656D01*
X63411492Y-110417656D01*
X63411492Y-110609447D01*
X62276404Y-111336406D01*
X62249751Y-111311768D01*
X63411492Y-111311768D01*
X63411492Y-111518947D01*
G37*
G36*
X63412500Y-109907585D02*
G01*
X63213564Y-109907585D01*
X63213564Y-109570255D01*
X63207504Y-109487670D01*
X63190552Y-109419058D01*
X63163921Y-109361957D01*
X63127926Y-109314441D01*
X63082406Y-109275851D01*
X63028251Y-109247708D01*
X62963727Y-109229977D01*
X62886492Y-109223674D01*
X62447588Y-109223674D01*
X62370353Y-109229977D01*
X62305828Y-109247708D01*
X62251673Y-109275851D01*
X62206154Y-109314441D01*
X62170159Y-109361957D01*
X62143527Y-109419058D01*
X62126575Y-109487670D01*
X62120516Y-109570255D01*
X62120516Y-109907585D01*
X61921580Y-109907585D01*
X61921580Y-109576392D01*
X61931496Y-109440947D01*
X61959221Y-109328557D01*
X62002745Y-109235151D01*
X62061531Y-109157546D01*
X62135914Y-109094534D01*
X62224375Y-109048585D01*
X62329743Y-109019639D01*
X62455831Y-109009351D01*
X62878249Y-109009351D01*
X62989386Y-109017336D01*
X63084753Y-109039979D01*
X63166944Y-109076030D01*
X63240108Y-109126985D01*
X63300632Y-109191078D01*
X63349485Y-109269836D01*
X63383398Y-109356781D01*
X63404885Y-109458400D01*
X63412500Y-109577399D01*
X63412500Y-109907585D01*
G37*
G36*
X63412500Y-110049093D02*
G01*
X61921580Y-110049093D01*
X61921580Y-109839899D01*
X63412500Y-109839899D01*
X63412500Y-110049093D01*
G37*
G36*
X65932500Y-112908750D02*
G01*
X65750966Y-112908750D01*
X65057805Y-112388879D01*
X64996668Y-112348360D01*
X64934798Y-112318628D01*
X64871571Y-112299507D01*
X64814814Y-112293532D01*
X64812799Y-112293532D01*
X64755544Y-112299869D01*
X64710331Y-112317515D01*
X64674405Y-112345831D01*
X64648040Y-112383564D01*
X64631241Y-112432076D01*
X64625129Y-112494483D01*
X64631470Y-112552485D01*
X64649514Y-112600844D01*
X64678984Y-112641670D01*
X64718143Y-112673613D01*
X64768026Y-112696855D01*
X64831209Y-112710821D01*
X64832216Y-112710821D01*
X64832216Y-112927251D01*
X64831209Y-112927251D01*
X64735904Y-112906796D01*
X64655760Y-112876164D01*
X64588496Y-112836126D01*
X64532347Y-112786750D01*
X64486585Y-112727393D01*
X64453667Y-112660297D01*
X64433300Y-112583987D01*
X64426193Y-112496498D01*
X64433417Y-112395806D01*
X64453591Y-112312374D01*
X64485196Y-112243176D01*
X64527767Y-112185821D01*
X64581844Y-112139116D01*
X64646205Y-112105110D01*
X64722921Y-112083703D01*
X64814814Y-112076095D01*
X64815821Y-112076095D01*
X64895039Y-112083990D01*
X64981418Y-112108976D01*
X65065554Y-112147855D01*
X65147015Y-112200201D01*
X65733564Y-112631870D01*
X65733564Y-112067943D01*
X65932500Y-112067943D01*
X65932500Y-112908750D01*
G37*
G36*
X65703797Y-111883845D02*
G01*
X65522355Y-111883845D01*
X64442588Y-111383392D01*
X64442588Y-111168061D01*
X65510081Y-111656150D01*
X65510081Y-110925070D01*
X65703797Y-110925070D01*
X65703797Y-111883845D01*
G37*
G36*
X65933507Y-111240876D02*
G01*
X65055790Y-111240876D01*
X65055790Y-111036811D01*
X65933507Y-111036811D01*
X65933507Y-111240876D01*
G37*
G36*
X65932500Y-110306006D02*
G01*
X64441580Y-110791988D01*
X64441580Y-110564385D01*
X65610557Y-110206538D01*
X64441580Y-109848600D01*
X64441580Y-109620997D01*
X65932500Y-110107070D01*
X65932500Y-110306006D01*
G37*
G36*
X112144211Y-39999775D02*
G01*
X112210731Y-40027083D01*
X112263706Y-40071225D01*
X112302080Y-40129455D01*
X112326706Y-40204571D01*
X112335696Y-40301375D01*
X112335696Y-40512950D01*
X112326734Y-40609766D01*
X112302128Y-40685336D01*
X112263706Y-40744309D01*
X112210637Y-40789166D01*
X112144113Y-40816848D01*
X112060044Y-40826741D01*
X111976769Y-40816894D01*
X111910371Y-40789250D01*
X111856932Y-40744309D01*
X111818196Y-40685293D01*
X111793413Y-40609722D01*
X111784391Y-40512950D01*
X111784391Y-40301375D01*
X111793441Y-40204616D01*
X111818243Y-40129498D01*
X111856932Y-40071225D01*
X111910277Y-40026999D01*
X111976673Y-39999729D01*
X112060044Y-39990002D01*
X112144211Y-39999775D01*
G37*
G36*
X114337121Y-39999775D02*
G01*
X114403641Y-40027083D01*
X114456616Y-40071225D01*
X114494990Y-40129455D01*
X114519616Y-40204571D01*
X114528606Y-40301375D01*
X114528606Y-40512950D01*
X114519644Y-40609766D01*
X114495038Y-40685336D01*
X114456616Y-40744309D01*
X114403547Y-40789166D01*
X114337023Y-40816848D01*
X114252954Y-40826741D01*
X114169679Y-40816894D01*
X114103281Y-40789250D01*
X114049842Y-40744309D01*
X114011106Y-40685293D01*
X113986323Y-40609722D01*
X113977301Y-40512950D01*
X113977301Y-40301375D01*
X113986351Y-40204616D01*
X114011153Y-40129498D01*
X114049842Y-40071225D01*
X114103187Y-40026999D01*
X114169583Y-39999729D01*
X114252954Y-39990002D01*
X114337121Y-39999775D01*
G37*
G36*
X118054241Y-41265464D02*
G01*
X109432368Y-41265464D01*
X109432368Y-41047000D01*
X109632368Y-41047000D01*
X109877246Y-41047000D01*
X109877246Y-39838021D01*
X110305452Y-40798495D01*
X110480208Y-40798495D01*
X110908414Y-39814089D01*
X110908414Y-41047000D01*
X111153292Y-41047000D01*
X111153292Y-40301375D01*
X111533359Y-40301375D01*
X111533359Y-40509323D01*
X111533626Y-40512950D01*
X111543095Y-40641565D01*
X111570352Y-40751581D01*
X111613209Y-40843282D01*
X111671185Y-40919725D01*
X111744421Y-40981660D01*
X111831610Y-41026851D01*
X111935559Y-41055336D01*
X112060044Y-41065464D01*
X112184611Y-41055406D01*
X112288586Y-41027130D01*
X112375745Y-40982303D01*
X112448903Y-40920934D01*
X112506885Y-40845059D01*
X112549736Y-40753954D01*
X112576991Y-40644560D01*
X112586729Y-40512950D01*
X112586729Y-40301375D01*
X112576998Y-40170412D01*
X112549757Y-40061534D01*
X112506910Y-39970830D01*
X112448903Y-39895260D01*
X112375781Y-39834148D01*
X112288636Y-39789487D01*
X112215787Y-39769744D01*
X112843587Y-39769744D01*
X112843587Y-39996157D01*
X112975258Y-39996157D01*
X112975258Y-40714744D01*
X112984253Y-40821804D01*
X113008619Y-40903619D01*
X113045930Y-40965777D01*
X113099292Y-41012255D01*
X113173071Y-41042083D01*
X113274212Y-41053154D01*
X113419402Y-41053154D01*
X113419402Y-40814431D01*
X113298831Y-40814431D01*
X113266997Y-40807768D01*
X113244646Y-40788603D01*
X113231242Y-40759522D01*
X113226181Y-40717272D01*
X113226181Y-40301375D01*
X113726269Y-40301375D01*
X113726269Y-40509323D01*
X113726536Y-40512950D01*
X113736005Y-40641565D01*
X113763262Y-40751581D01*
X113806119Y-40843282D01*
X113864095Y-40919725D01*
X113937331Y-40981660D01*
X114024520Y-41026851D01*
X114128468Y-41055336D01*
X114252954Y-41065464D01*
X114377521Y-41055406D01*
X114481496Y-41027130D01*
X114568655Y-40982303D01*
X114641813Y-40920934D01*
X114699795Y-40845059D01*
X114742646Y-40753954D01*
X114769901Y-40644560D01*
X114779639Y-40512950D01*
X114779639Y-40301375D01*
X114769908Y-40170412D01*
X114742666Y-40061534D01*
X114699820Y-39970830D01*
X114641813Y-39895260D01*
X114568691Y-39834148D01*
X114481546Y-39789487D01*
X114408697Y-39769744D01*
X115134866Y-39769744D01*
X115134866Y-41047000D01*
X115385899Y-41047000D01*
X115385899Y-40238617D01*
X115393894Y-40163316D01*
X115416154Y-40103550D01*
X115451734Y-40055838D01*
X115499496Y-40020366D01*
X115559993Y-39998054D01*
X115636932Y-39990002D01*
X115700764Y-39995511D01*
X115753765Y-40010995D01*
X115800202Y-40036957D01*
X115837516Y-40072434D01*
X116001171Y-39850967D01*
X115944029Y-39807917D01*
X115877413Y-39776558D01*
X115804061Y-39757841D01*
X115719364Y-39751279D01*
X115645849Y-39758430D01*
X115577159Y-39779636D01*
X115511965Y-39815356D01*
X115454149Y-39862616D01*
X115403604Y-39921203D01*
X115385899Y-39950211D01*
X115385899Y-39769744D01*
X115134866Y-39769744D01*
X114408697Y-39769744D01*
X114377558Y-39761305D01*
X114252954Y-39751279D01*
X114128349Y-39761305D01*
X114024362Y-39789487D01*
X113937217Y-39834148D01*
X113864095Y-39895260D01*
X113806088Y-39970830D01*
X113763241Y-40061534D01*
X113736000Y-40170412D01*
X113726269Y-40301375D01*
X113226181Y-40301375D01*
X113226181Y-39996157D01*
X113419402Y-39996157D01*
X113419402Y-39769744D01*
X113226181Y-39769744D01*
X113226181Y-39725450D01*
X116823073Y-39725450D01*
X116823073Y-39726659D01*
X117082788Y-39726659D01*
X117082788Y-39725450D01*
X117099548Y-39649631D01*
X117127439Y-39589772D01*
X117165770Y-39542781D01*
X117214761Y-39507417D01*
X117272792Y-39485764D01*
X117342394Y-39478154D01*
X117417283Y-39485489D01*
X117475497Y-39505648D01*
X117520777Y-39537286D01*
X117554755Y-39580397D01*
X117575931Y-39634653D01*
X117583535Y-39703359D01*
X117583535Y-39705777D01*
X117576366Y-39773885D01*
X117553420Y-39849758D01*
X117517741Y-39924001D01*
X117469119Y-39997366D01*
X116845274Y-40829159D01*
X116845274Y-41047000D01*
X117854241Y-41047000D01*
X117854241Y-40808277D01*
X117177530Y-40808277D01*
X117695532Y-40104418D01*
X117758348Y-40006664D01*
X117805002Y-39905702D01*
X117834986Y-39802047D01*
X117844459Y-39706986D01*
X117844459Y-39705777D01*
X117835330Y-39595506D01*
X117809642Y-39503446D01*
X117768834Y-39426213D01*
X117712788Y-39361321D01*
X117643963Y-39310236D01*
X117560925Y-39272309D01*
X117460807Y-39248100D01*
X117339976Y-39239431D01*
X117234989Y-39247960D01*
X117143417Y-39272400D01*
X117062902Y-39311902D01*
X116991673Y-39366816D01*
X116932422Y-39434195D01*
X116884377Y-39514912D01*
X116847619Y-39611085D01*
X116823073Y-39725450D01*
X113226181Y-39725450D01*
X113226181Y-39398140D01*
X112975258Y-39398140D01*
X112975258Y-39769744D01*
X112843587Y-39769744D01*
X112215787Y-39769744D01*
X112184648Y-39761305D01*
X112060044Y-39751279D01*
X111935439Y-39761305D01*
X111831452Y-39789487D01*
X111744307Y-39834148D01*
X111671185Y-39895260D01*
X111613178Y-39970830D01*
X111570331Y-40061534D01*
X111543090Y-40170412D01*
X111533359Y-40301375D01*
X111153292Y-40301375D01*
X111153292Y-39257896D01*
X110918196Y-39257896D01*
X110392830Y-40439201D01*
X109867354Y-39257896D01*
X109632368Y-39257896D01*
X109632368Y-41047000D01*
X109432368Y-41047000D01*
X109432368Y-39039431D01*
X118054241Y-39039431D01*
X118054241Y-41265464D01*
G37*
G36*
X94778738Y-46542813D02*
G01*
X84695271Y-46542813D01*
X84695271Y-45458390D01*
X84995271Y-45458390D01*
X86235707Y-45458390D01*
X86235707Y-45100306D01*
X84995271Y-45100306D01*
X84995271Y-45458390D01*
X84695271Y-45458390D01*
X84695271Y-44258676D01*
X86715131Y-44258676D01*
X86715131Y-44260489D01*
X87104705Y-44260489D01*
X87104705Y-44258676D01*
X87129845Y-44144946D01*
X87171680Y-44055158D01*
X87229177Y-43984672D01*
X87302664Y-43931626D01*
X87389711Y-43899147D01*
X87494113Y-43887732D01*
X87606446Y-43898734D01*
X87693767Y-43928972D01*
X87761687Y-43976429D01*
X87812656Y-44041096D01*
X87844419Y-44122480D01*
X87855825Y-44225538D01*
X87855825Y-44229165D01*
X87845071Y-44331328D01*
X87810652Y-44445137D01*
X87757135Y-44556502D01*
X87684201Y-44666549D01*
X86748434Y-45914239D01*
X86748434Y-46241000D01*
X88261885Y-46241000D01*
X88261885Y-45882915D01*
X87246817Y-45882915D01*
X87526606Y-45502739D01*
X88593261Y-45502739D01*
X88593261Y-45829334D01*
X89750606Y-45829334D01*
X89750606Y-46242813D01*
X90117923Y-46242813D01*
X90117923Y-45829334D01*
X90319057Y-45829334D01*
X90319057Y-45480647D01*
X90117923Y-45480647D01*
X90117923Y-44662922D01*
X89750606Y-44662922D01*
X89750606Y-45480647D01*
X89003113Y-45480647D01*
X89881673Y-43559158D01*
X89494077Y-43559158D01*
X88593261Y-45502739D01*
X87526606Y-45502739D01*
X88023821Y-44827127D01*
X88118044Y-44680497D01*
X88188025Y-44529053D01*
X88233002Y-44373571D01*
X88247212Y-44230979D01*
X88247212Y-44229165D01*
X88233518Y-44063759D01*
X88194986Y-43925669D01*
X88133774Y-43809819D01*
X88049705Y-43712482D01*
X87946467Y-43635854D01*
X87821910Y-43578963D01*
X87732504Y-43557345D01*
X90558604Y-43557345D01*
X91433372Y-46241000D01*
X91791456Y-46241000D01*
X92253002Y-44825313D01*
X92979960Y-44825313D01*
X92979960Y-45183397D01*
X93541157Y-45183397D01*
X93541157Y-45753662D01*
X93917706Y-45753662D01*
X93917706Y-45183397D01*
X94478738Y-45183397D01*
X94478738Y-44825313D01*
X93917706Y-44825313D01*
X93917706Y-44255049D01*
X93541157Y-44255049D01*
X93541157Y-44825313D01*
X92979960Y-44825313D01*
X92253002Y-44825313D01*
X92666389Y-43557345D01*
X92256702Y-43557345D01*
X91612414Y-45661503D01*
X90968291Y-43557345D01*
X90558604Y-43557345D01*
X87732504Y-43557345D01*
X87671733Y-43542651D01*
X87490486Y-43529647D01*
X87333007Y-43542441D01*
X87195648Y-43579100D01*
X87074875Y-43638354D01*
X86968032Y-43720725D01*
X86879156Y-43821793D01*
X86807089Y-43942868D01*
X86751951Y-44087127D01*
X86715131Y-44258676D01*
X84695271Y-44258676D01*
X84695271Y-43229647D01*
X94778738Y-43229647D01*
X94778738Y-46542813D01*
G37*
G36*
X44624363Y-42239756D02*
G01*
X44675249Y-42263783D01*
X44718209Y-42304225D01*
X44749938Y-42355777D01*
X44772804Y-42421939D01*
X44785437Y-42506275D01*
X44315830Y-42506275D01*
X44321980Y-42436906D01*
X44344476Y-42364949D01*
X44379322Y-42309354D01*
X44427894Y-42266694D01*
X44487932Y-42240649D01*
X44562962Y-42231410D01*
X44624363Y-42239756D01*
G37*
G36*
X47813775Y-43304554D02*
G01*
X41612293Y-43304554D01*
X41612293Y-41830516D01*
X41778960Y-41830516D01*
X42200371Y-41830516D01*
X42200371Y-43122500D01*
X42409565Y-43122500D01*
X42973216Y-43122500D01*
X43182410Y-43122500D01*
X43182410Y-42445733D01*
X43189211Y-42383159D01*
X43208098Y-42333954D01*
X43238281Y-42295066D01*
X43278644Y-42266450D01*
X43330365Y-42248271D01*
X43396733Y-42241668D01*
X43465212Y-42249165D01*
X43518913Y-42269969D01*
X43561231Y-42303217D01*
X43592278Y-42347612D01*
X43612030Y-42404510D01*
X43619208Y-42477515D01*
X43619208Y-43122500D01*
X43828402Y-43122500D01*
X43828402Y-42541079D01*
X44114807Y-42541079D01*
X44114807Y-42661064D01*
X44123425Y-42775245D01*
X44147532Y-42869905D01*
X44185442Y-42948548D01*
X44236806Y-43013872D01*
X44301351Y-43066358D01*
X44378471Y-43104854D01*
X44470699Y-43129210D01*
X44581372Y-43137887D01*
X44679724Y-43127694D01*
X44779300Y-43096396D01*
X44872626Y-43046420D01*
X44956712Y-42978976D01*
X44819326Y-42841498D01*
X44766738Y-42882525D01*
X44707493Y-42913306D01*
X44644211Y-42932636D01*
X44581372Y-42938951D01*
X44499472Y-42930317D01*
X44434989Y-42906370D01*
X44383993Y-42868243D01*
X44346336Y-42816844D01*
X44322433Y-42750617D01*
X44314684Y-42674436D01*
X44984373Y-42674436D01*
X44984373Y-42604644D01*
X44976349Y-42469505D01*
X44954074Y-42357893D01*
X44919611Y-42265959D01*
X44874097Y-42190469D01*
X44813549Y-42126015D01*
X44743015Y-42080525D01*
X44676956Y-42058120D01*
X45271053Y-42058120D01*
X45271053Y-43122500D01*
X45480247Y-43122500D01*
X45480247Y-42448847D01*
X45486910Y-42386097D01*
X45505460Y-42336291D01*
X45535110Y-42296531D01*
X45574911Y-42266971D01*
X45625325Y-42248378D01*
X45689441Y-42241668D01*
X45742634Y-42246259D01*
X45786802Y-42259162D01*
X45825499Y-42280798D01*
X45856594Y-42310362D01*
X45992974Y-42125806D01*
X45945355Y-42089930D01*
X45889842Y-42063798D01*
X45867591Y-42058120D01*
X46166447Y-42058120D01*
X46166447Y-43122500D01*
X46375641Y-43122500D01*
X46375641Y-42448847D01*
X46382444Y-42385507D01*
X46401341Y-42335598D01*
X46431512Y-42296073D01*
X46471955Y-42266876D01*
X46523678Y-42248377D01*
X46589964Y-42241668D01*
X46654914Y-42249099D01*
X46706121Y-42269822D01*
X46746768Y-42303217D01*
X46776343Y-42347409D01*
X46795277Y-42404301D01*
X46802181Y-42477515D01*
X46802181Y-43122500D01*
X47011375Y-43122500D01*
X47011375Y-42476508D01*
X47010713Y-42466134D01*
X47011375Y-42469364D01*
X47018016Y-42398755D01*
X47036231Y-42343862D01*
X47064681Y-42301202D01*
X47103911Y-42268866D01*
X47153158Y-42248838D01*
X47215440Y-42241668D01*
X47283918Y-42249165D01*
X47337620Y-42269969D01*
X47379937Y-42303217D01*
X47410984Y-42347612D01*
X47430736Y-42404510D01*
X47437914Y-42477515D01*
X47437914Y-43122500D01*
X47647108Y-43122500D01*
X47647108Y-42476508D01*
X47640268Y-42372026D01*
X47621241Y-42285756D01*
X47591649Y-42214600D01*
X47552220Y-42156031D01*
X47501009Y-42107279D01*
X47440620Y-42072265D01*
X47369215Y-42050445D01*
X47284133Y-42042732D01*
X47219615Y-42049142D01*
X47159510Y-42068140D01*
X47102599Y-42100160D01*
X47052585Y-42142664D01*
X47008190Y-42196802D01*
X46974145Y-42255934D01*
X46957327Y-42214431D01*
X46919051Y-42156031D01*
X46869027Y-42107105D01*
X46810257Y-42072123D01*
X46740993Y-42050396D01*
X46658657Y-42042732D01*
X46595984Y-42048603D01*
X46537733Y-42065953D01*
X46482803Y-42095031D01*
X46434047Y-42133959D01*
X46391220Y-42183087D01*
X46375641Y-42208568D01*
X46375641Y-42058120D01*
X46166447Y-42058120D01*
X45867591Y-42058120D01*
X45828716Y-42048200D01*
X45758134Y-42042732D01*
X45696872Y-42048692D01*
X45639631Y-42066363D01*
X45585302Y-42096130D01*
X45537122Y-42135513D01*
X45495001Y-42184335D01*
X45480247Y-42208508D01*
X45480247Y-42058120D01*
X45271053Y-42058120D01*
X44676956Y-42058120D01*
X44660527Y-42052548D01*
X44562962Y-42042732D01*
X44457618Y-42051700D01*
X44369373Y-42076994D01*
X44295016Y-42117325D01*
X44232227Y-42172975D01*
X44183109Y-42240853D01*
X44146552Y-42322821D01*
X44123181Y-42421710D01*
X44117249Y-42506275D01*
X44114807Y-42541079D01*
X43828402Y-42541079D01*
X43828402Y-42476508D01*
X43821562Y-42372026D01*
X43802534Y-42285756D01*
X43772943Y-42214600D01*
X43733513Y-42156031D01*
X43682303Y-42107279D01*
X43621914Y-42072265D01*
X43550508Y-42050445D01*
X43465426Y-42042732D01*
X43402729Y-42048556D01*
X43344475Y-42065760D01*
X43289572Y-42094573D01*
X43240706Y-42133078D01*
X43197891Y-42181360D01*
X43182410Y-42206168D01*
X43182410Y-41631580D01*
X42973216Y-41631580D01*
X42973216Y-43122500D01*
X42409565Y-43122500D01*
X42409565Y-41830516D01*
X42830975Y-41830516D01*
X42830975Y-41631580D01*
X41778960Y-41631580D01*
X41778960Y-41830516D01*
X41612293Y-41830516D01*
X41612293Y-41464913D01*
X47813775Y-41464913D01*
X47813775Y-43304554D01*
G37*
G36*
X47985509Y-53704554D02*
G01*
X41553675Y-53704554D01*
X41553675Y-53353331D01*
X41720342Y-53353331D01*
X41795981Y-53409822D01*
X41876597Y-53455821D01*
X41962730Y-53491534D01*
X42056115Y-53517370D01*
X42153905Y-53532625D01*
X42260730Y-53537887D01*
X42392448Y-53529717D01*
X42501240Y-53507015D01*
X42590917Y-53471812D01*
X42664646Y-53425138D01*
X42726900Y-53363619D01*
X42771196Y-53291541D01*
X42798609Y-53206801D01*
X42808261Y-53106218D01*
X42808261Y-53104112D01*
X42803166Y-53023444D01*
X42789162Y-52958436D01*
X42767686Y-52906275D01*
X42720056Y-52837916D01*
X42660067Y-52786840D01*
X42589767Y-52748626D01*
X42510865Y-52720162D01*
X42346825Y-52680686D01*
X42176099Y-52641210D01*
X42102394Y-52613487D01*
X42047414Y-52576089D01*
X42020873Y-52543576D01*
X42004243Y-52501780D01*
X41999374Y-52458120D01*
X42992359Y-52458120D01*
X43320438Y-53522500D01*
X43478341Y-53522500D01*
X43737819Y-52787298D01*
X43997205Y-53522500D01*
X44155108Y-53522500D01*
X44708318Y-53522500D01*
X44917512Y-53522500D01*
X44917512Y-52458120D01*
X45152443Y-52458120D01*
X45152443Y-52646797D01*
X45262169Y-52646797D01*
X45262169Y-53245620D01*
X45269664Y-53334836D01*
X45289970Y-53403016D01*
X45321062Y-53454814D01*
X45365530Y-53493546D01*
X45427013Y-53518402D01*
X45511297Y-53527629D01*
X45632288Y-53527629D01*
X45632288Y-53328693D01*
X45531813Y-53328693D01*
X45505284Y-53323140D01*
X45486659Y-53307169D01*
X45475488Y-53282935D01*
X45471271Y-53247726D01*
X45471271Y-52900047D01*
X45888011Y-52900047D01*
X45888011Y-53075443D01*
X45896465Y-53185281D01*
X45920173Y-53276729D01*
X45957579Y-53353092D01*
X46008453Y-53416895D01*
X46072082Y-53468050D01*
X46148157Y-53505618D01*
X46239181Y-53529408D01*
X46348439Y-53537887D01*
X46430264Y-53532833D01*
X46482827Y-53522500D01*
X46963656Y-53522500D01*
X47172850Y-53522500D01*
X47172850Y-52845733D01*
X47179651Y-52783159D01*
X47198538Y-52733954D01*
X47228721Y-52695066D01*
X47269084Y-52666450D01*
X47320806Y-52648271D01*
X47387173Y-52641668D01*
X47455652Y-52649165D01*
X47509353Y-52669969D01*
X47551671Y-52703217D01*
X47582718Y-52747612D01*
X47602470Y-52804510D01*
X47609648Y-52877515D01*
X47609648Y-53522500D01*
X47818842Y-53522500D01*
X47818842Y-52876508D01*
X47812002Y-52772026D01*
X47792974Y-52685756D01*
X47763383Y-52614600D01*
X47723954Y-52556031D01*
X47672743Y-52507279D01*
X47612354Y-52472265D01*
X47540949Y-52450445D01*
X47455867Y-52442732D01*
X47393169Y-52448556D01*
X47334915Y-52465760D01*
X47280012Y-52494573D01*
X47231146Y-52533078D01*
X47188331Y-52581360D01*
X47172850Y-52606168D01*
X47172850Y-52031580D01*
X46963656Y-52031580D01*
X46963656Y-53522500D01*
X46482827Y-53522500D01*
X46504945Y-53518152D01*
X46573478Y-53494289D01*
X46637309Y-53460485D01*
X46690412Y-53419374D01*
X46734037Y-53370733D01*
X46583278Y-53225103D01*
X46534792Y-53273543D01*
X46478590Y-53309275D01*
X46416518Y-53331553D01*
X46351553Y-53338951D01*
X46273722Y-53330585D01*
X46212416Y-53307352D01*
X46163883Y-53270258D01*
X46128107Y-53220549D01*
X46105431Y-53156957D01*
X46097205Y-53075443D01*
X46097205Y-52900047D01*
X46105384Y-52820668D01*
X46128012Y-52758385D01*
X46163883Y-52709354D01*
X46212337Y-52672847D01*
X46273641Y-52649930D01*
X46351553Y-52641668D01*
X46416614Y-52648608D01*
X46478590Y-52669420D01*
X46534927Y-52702909D01*
X46583278Y-52748372D01*
X46734037Y-52613000D01*
X46690308Y-52562997D01*
X46637362Y-52521062D01*
X46574028Y-52486879D01*
X46505756Y-52462748D01*
X46430916Y-52447868D01*
X46348439Y-52442732D01*
X46239081Y-52451125D01*
X46148025Y-52474659D01*
X46071986Y-52511784D01*
X46008453Y-52562259D01*
X45957545Y-52625336D01*
X45920149Y-52700857D01*
X45896458Y-52791328D01*
X45888011Y-52900047D01*
X45471271Y-52900047D01*
X45471271Y-52646797D01*
X45632288Y-52646797D01*
X45632288Y-52458120D01*
X45471271Y-52458120D01*
X45471271Y-52148450D01*
X45262169Y-52148450D01*
X45262169Y-52458120D01*
X45152443Y-52458120D01*
X44917512Y-52458120D01*
X44708318Y-52458120D01*
X44708318Y-53522500D01*
X44155108Y-53522500D01*
X44483278Y-52458120D01*
X44264834Y-52458120D01*
X44076156Y-53217959D01*
X43810634Y-52458120D01*
X43665004Y-52458120D01*
X43399390Y-53217959D01*
X43210712Y-52458120D01*
X42992359Y-52458120D01*
X41999374Y-52458120D01*
X41998230Y-52447862D01*
X41998230Y-52446854D01*
X42008020Y-52376679D01*
X42035945Y-52320221D01*
X42082768Y-52274113D01*
X42142302Y-52241951D01*
X42219827Y-52220879D01*
X42320172Y-52213114D01*
X42404550Y-52220704D01*
X42489799Y-52243888D01*
X42572773Y-52281812D01*
X42659517Y-52338135D01*
X42729276Y-52240774D01*
X44708318Y-52240774D01*
X44917512Y-52240774D01*
X44917512Y-52031580D01*
X44708318Y-52031580D01*
X44708318Y-52240774D01*
X42729276Y-52240774D01*
X42778494Y-52172081D01*
X42666817Y-52102504D01*
X42554920Y-52054661D01*
X42438728Y-52025790D01*
X42320172Y-52016193D01*
X42192908Y-52024441D01*
X42087743Y-52047391D01*
X42000941Y-52083074D01*
X41929445Y-52130590D01*
X41869765Y-52192458D01*
X41827016Y-52265198D01*
X41800433Y-52350983D01*
X41791051Y-52452991D01*
X41791051Y-52453998D01*
X41796580Y-52540131D01*
X41811670Y-52608404D01*
X41834648Y-52662185D01*
X41885807Y-52731588D01*
X41949961Y-52781711D01*
X42024680Y-52817494D01*
X42107406Y-52842711D01*
X42277124Y-52876508D01*
X42437500Y-52912961D01*
X42505145Y-52941510D01*
X42555928Y-52980097D01*
X42580112Y-53012865D01*
X42595484Y-53055290D01*
X42601082Y-53110248D01*
X42601082Y-53111347D01*
X42590961Y-53179068D01*
X42561741Y-53234414D01*
X42511872Y-53280516D01*
X42449406Y-53312248D01*
X42367426Y-53333207D01*
X42260730Y-53340966D01*
X42143791Y-53331521D01*
X42038163Y-53304055D01*
X41940388Y-53258144D01*
X41850493Y-53193321D01*
X41720342Y-53353331D01*
X41553675Y-53353331D01*
X41553675Y-51849526D01*
X47985509Y-51849526D01*
X47985509Y-53704554D01*
G37*
D12*
G36*
X138525000Y-88848750D02*
G01*
X138343466Y-88848750D01*
X137650305Y-88328879D01*
X137589168Y-88288360D01*
X137527298Y-88258628D01*
X137464071Y-88239507D01*
X137407314Y-88233532D01*
X137405299Y-88233532D01*
X137348044Y-88239869D01*
X137302831Y-88257515D01*
X137266905Y-88285831D01*
X137240540Y-88323564D01*
X137223741Y-88372076D01*
X137217629Y-88434483D01*
X137223970Y-88492485D01*
X137242014Y-88540844D01*
X137271484Y-88581670D01*
X137310643Y-88613613D01*
X137360526Y-88636855D01*
X137423709Y-88650821D01*
X137424716Y-88650821D01*
X137424716Y-88867251D01*
X137423709Y-88867251D01*
X137328404Y-88846796D01*
X137248260Y-88816164D01*
X137180996Y-88776126D01*
X137124847Y-88726750D01*
X137079085Y-88667393D01*
X137046167Y-88600297D01*
X137025800Y-88523987D01*
X137018693Y-88436498D01*
X137025917Y-88335806D01*
X137046091Y-88252374D01*
X137077696Y-88183176D01*
X137120267Y-88125821D01*
X137174344Y-88079116D01*
X137238705Y-88045110D01*
X137315421Y-88023703D01*
X137407314Y-88016095D01*
X137408321Y-88016095D01*
X137487539Y-88023990D01*
X137573918Y-88048976D01*
X137658054Y-88087855D01*
X137739515Y-88140201D01*
X138326064Y-88571870D01*
X138326064Y-88007943D01*
X138525000Y-88007943D01*
X138525000Y-88848750D01*
G37*
G36*
X138296297Y-87823845D02*
G01*
X138114855Y-87823845D01*
X137035088Y-87323392D01*
X137035088Y-87108061D01*
X138102581Y-87596150D01*
X138102581Y-86865070D01*
X138296297Y-86865070D01*
X138296297Y-87823845D01*
G37*
G36*
X138526007Y-87180876D02*
G01*
X137648290Y-87180876D01*
X137648290Y-86976811D01*
X138526007Y-86976811D01*
X138526007Y-87180876D01*
G37*
G36*
X138525000Y-86246006D02*
G01*
X137034080Y-86731988D01*
X137034080Y-86504385D01*
X138203057Y-86146538D01*
X137034080Y-85788600D01*
X137034080Y-85560997D01*
X138525000Y-86047070D01*
X138525000Y-86246006D01*
G37*
G36*
X137034080Y-84573828D02*
G01*
X138525000Y-84573828D01*
X138525000Y-84783022D01*
X137034080Y-84783022D01*
X137034080Y-84573828D01*
G37*
G36*
X138523992Y-84205632D02*
G01*
X137034080Y-84205632D01*
X137034080Y-84015947D01*
X138186662Y-83286882D01*
X138213315Y-83311520D01*
X137034080Y-83311520D01*
X137034080Y-83104341D01*
X138523992Y-83104341D01*
X138523992Y-83296133D01*
X137388904Y-84023091D01*
X137362251Y-83998453D01*
X138523992Y-83998453D01*
X138523992Y-84205632D01*
G37*
G36*
X137891281Y-82756295D02*
G01*
X137891281Y-82067164D01*
X138090217Y-82067164D01*
X138090217Y-82756295D01*
X137891281Y-82756295D01*
G37*
G36*
X123325000Y-89048750D02*
G01*
X123143466Y-89048750D01*
X122450305Y-88528879D01*
X122389168Y-88488360D01*
X122327298Y-88458628D01*
X122264071Y-88439507D01*
X122207314Y-88433532D01*
X122205299Y-88433532D01*
X122148044Y-88439869D01*
X122102831Y-88457515D01*
X122066905Y-88485831D01*
X122040540Y-88523564D01*
X122023741Y-88572076D01*
X122017629Y-88634483D01*
X122023970Y-88692485D01*
X122042014Y-88740844D01*
X122071484Y-88781670D01*
X122110643Y-88813613D01*
X122160526Y-88836855D01*
X122223709Y-88850821D01*
X122224716Y-88850821D01*
X122224716Y-89067251D01*
X122223709Y-89067251D01*
X122128404Y-89046796D01*
X122048260Y-89016164D01*
X121980996Y-88976126D01*
X121924847Y-88926750D01*
X121879085Y-88867393D01*
X121846167Y-88800297D01*
X121825800Y-88723987D01*
X121818693Y-88636498D01*
X121825917Y-88535806D01*
X121846091Y-88452374D01*
X121877696Y-88383176D01*
X121920267Y-88325821D01*
X121974344Y-88279116D01*
X122038705Y-88245110D01*
X122115421Y-88223703D01*
X122207314Y-88216095D01*
X122208321Y-88216095D01*
X122287539Y-88223990D01*
X122373918Y-88248976D01*
X122458054Y-88287855D01*
X122539515Y-88340201D01*
X123126064Y-88771870D01*
X123126064Y-88207943D01*
X123325000Y-88207943D01*
X123325000Y-89048750D01*
G37*
G36*
X123096297Y-88023845D02*
G01*
X122914855Y-88023845D01*
X121835088Y-87523392D01*
X121835088Y-87308061D01*
X122902581Y-87796150D01*
X122902581Y-87065070D01*
X123096297Y-87065070D01*
X123096297Y-88023845D01*
G37*
G36*
X123326007Y-87380876D02*
G01*
X122448290Y-87380876D01*
X122448290Y-87176811D01*
X123326007Y-87176811D01*
X123326007Y-87380876D01*
G37*
G36*
X123325000Y-86446006D02*
G01*
X121834080Y-86931988D01*
X121834080Y-86704385D01*
X123003057Y-86346538D01*
X121834080Y-85988600D01*
X121834080Y-85760997D01*
X123325000Y-86247070D01*
X123325000Y-86446006D01*
G37*
G36*
X121834080Y-84773828D02*
G01*
X123325000Y-84773828D01*
X123325000Y-84983022D01*
X121834080Y-84983022D01*
X121834080Y-84773828D01*
G37*
G36*
X123323992Y-84405632D02*
G01*
X121834080Y-84405632D01*
X121834080Y-84215947D01*
X122986662Y-83486882D01*
X123013315Y-83511520D01*
X121834080Y-83511520D01*
X121834080Y-83304341D01*
X123323992Y-83304341D01*
X123323992Y-83496133D01*
X122188904Y-84223091D01*
X122162251Y-84198453D01*
X123323992Y-84198453D01*
X123323992Y-84405632D01*
G37*
G36*
X122538507Y-82976811D02*
G01*
X122538507Y-82144157D01*
X122737443Y-82144157D01*
X122737443Y-82976811D01*
X122538507Y-82976811D01*
G37*
G36*
X122221693Y-82455841D02*
G01*
X123054256Y-82455841D01*
X123054256Y-82665035D01*
X122221693Y-82665035D01*
X122221693Y-82455841D01*
G37*
G36*
X123340387Y-61009845D02*
G01*
X123333806Y-61094025D01*
X123314961Y-61167515D01*
X123284568Y-61232137D01*
X123242476Y-61289289D01*
X123190395Y-61337345D01*
X123128115Y-61376266D01*
X123054058Y-61406103D01*
X122966146Y-61426218D01*
X122965047Y-61426218D01*
X122965047Y-61217024D01*
X122966146Y-61217024D01*
X123018218Y-61204192D01*
X123060138Y-61182305D01*
X123093824Y-61151445D01*
X123118540Y-61112859D01*
X123133957Y-61066347D01*
X123139436Y-61009845D01*
X123131470Y-60946036D01*
X123109044Y-60895289D01*
X123072300Y-60854507D01*
X123024497Y-60825380D01*
X122962711Y-60806543D01*
X122883073Y-60799644D01*
X122757959Y-60799644D01*
X122678323Y-60806556D01*
X122616744Y-60825402D01*
X122569282Y-60854507D01*
X122532811Y-60895253D01*
X122510525Y-60945999D01*
X122502603Y-61009845D01*
X122510144Y-61062698D01*
X122533378Y-61114534D01*
X122569613Y-61160940D01*
X122619565Y-61202644D01*
X122619565Y-61393337D01*
X121834080Y-61393337D01*
X121834080Y-60633589D01*
X122033016Y-60633589D01*
X122033016Y-61184234D01*
X122368331Y-61184234D01*
X122340196Y-61143020D01*
X122319146Y-61097040D01*
X122306006Y-61048223D01*
X122301653Y-60998579D01*
X122309885Y-60902401D01*
X122333096Y-60821943D01*
X122370102Y-60754239D01*
X122421179Y-60697153D01*
X122483362Y-60652566D01*
X122558395Y-60619369D01*
X122648853Y-60598145D01*
X122757959Y-60590541D01*
X122883073Y-60590541D01*
X122992520Y-60598347D01*
X123083249Y-60620147D01*
X123158530Y-60654294D01*
X123220952Y-60700267D01*
X123271853Y-60758749D01*
X123308859Y-60828229D01*
X123332125Y-60910919D01*
X123340387Y-61009845D01*
G37*
G36*
X123325000Y-59920186D02*
G01*
X121834080Y-60406168D01*
X121834080Y-60178565D01*
X123003057Y-59820718D01*
X121834080Y-59462780D01*
X121834080Y-59235177D01*
X123325000Y-59721250D01*
X123325000Y-59920186D01*
G37*
G36*
X122899256Y-57447660D02*
G01*
X122995003Y-57469666D01*
X123079993Y-57505113D01*
X123156991Y-57554807D01*
X123220651Y-57615540D01*
X123272243Y-57688203D01*
X123309427Y-57769304D01*
X123332398Y-57860544D01*
X123340387Y-57963984D01*
X123332399Y-58067425D01*
X123309430Y-58158698D01*
X123272243Y-58239856D01*
X123220657Y-58312462D01*
X123156998Y-58373166D01*
X123079993Y-58422855D01*
X122995003Y-58458302D01*
X122899256Y-58480308D01*
X122790749Y-58487977D01*
X122368331Y-58487977D01*
X122259145Y-58480283D01*
X122163277Y-58458254D01*
X122078628Y-58422855D01*
X122001921Y-58373190D01*
X121938437Y-58312490D01*
X121886928Y-58239856D01*
X121849689Y-58158692D01*
X121826690Y-58067420D01*
X121818693Y-57963984D01*
X122024773Y-57963984D01*
X122035485Y-58052910D01*
X122066062Y-58126596D01*
X122116547Y-58188565D01*
X122182342Y-58234730D01*
X122262536Y-58263435D01*
X122361095Y-58273654D01*
X122797984Y-58273654D01*
X122895875Y-58263471D01*
X122975962Y-58234795D01*
X123042075Y-58188565D01*
X123092832Y-58126561D01*
X123123550Y-58052876D01*
X123134307Y-57963984D01*
X123123506Y-57874378D01*
X123092753Y-57800583D01*
X123042075Y-57738945D01*
X122975996Y-57692982D01*
X122895909Y-57664450D01*
X122797984Y-57654315D01*
X122361095Y-57654315D01*
X122262502Y-57664485D01*
X122182307Y-57693047D01*
X122116547Y-57738945D01*
X122066141Y-57800549D01*
X122035528Y-57874344D01*
X122024773Y-57963984D01*
X121818693Y-57963984D01*
X121826692Y-57860549D01*
X121849692Y-57769309D01*
X121886928Y-57688203D01*
X121938443Y-57615512D01*
X122001927Y-57554783D01*
X122078628Y-57505113D01*
X122163277Y-57469714D01*
X122259145Y-57447686D01*
X122368331Y-57439992D01*
X122790749Y-57439992D01*
X122899256Y-57447660D01*
G37*
G36*
X123340387Y-56640218D02*
G01*
X123330311Y-56763776D01*
X123301966Y-56866983D01*
X123256982Y-56953587D01*
X123195307Y-57026366D01*
X123119297Y-57083859D01*
X123027887Y-57126414D01*
X122917981Y-57153514D01*
X122785620Y-57163203D01*
X121834080Y-57163203D01*
X121834080Y-56954009D01*
X122792855Y-56954009D01*
X122898573Y-56943834D01*
X122980922Y-56915868D01*
X123045097Y-56872035D01*
X123083104Y-56828273D01*
X123110747Y-56776257D01*
X123128132Y-56714328D01*
X123134307Y-56640218D01*
X123128124Y-56565567D01*
X123110723Y-56503227D01*
X123083075Y-56450909D01*
X123045097Y-56406936D01*
X122980878Y-56362788D01*
X122898529Y-56334647D01*
X122792855Y-56324412D01*
X121834080Y-56324412D01*
X121834080Y-56115218D01*
X122785620Y-56115218D01*
X122917943Y-56124941D01*
X123027838Y-56152138D01*
X123119261Y-56194860D01*
X123195307Y-56252605D01*
X123256953Y-56325595D01*
X123301942Y-56412501D01*
X123330302Y-56516120D01*
X123340387Y-56640218D01*
G37*
G36*
X123325000Y-55550285D02*
G01*
X121956079Y-55550285D01*
X121956079Y-55341091D01*
X123325000Y-55341091D01*
X123325000Y-55550285D01*
G37*
G36*
X122033016Y-55971695D02*
G01*
X121834080Y-55971695D01*
X121834080Y-54919680D01*
X122033016Y-54919680D01*
X122033016Y-55971695D01*
G37*
G36*
X122538507Y-54797956D02*
G01*
X122538507Y-53965301D01*
X122737443Y-53965301D01*
X122737443Y-54797956D01*
X122538507Y-54797956D01*
G37*
G36*
X122221693Y-54276986D02*
G01*
X123054256Y-54276986D01*
X123054256Y-54486180D01*
X122221693Y-54486180D01*
X122221693Y-54276986D01*
G37*
G36*
X138540387Y-61009845D02*
G01*
X138533806Y-61094025D01*
X138514961Y-61167515D01*
X138484568Y-61232137D01*
X138442476Y-61289289D01*
X138390395Y-61337345D01*
X138328115Y-61376266D01*
X138254058Y-61406103D01*
X138166146Y-61426218D01*
X138165047Y-61426218D01*
X138165047Y-61217024D01*
X138166146Y-61217024D01*
X138218218Y-61204192D01*
X138260138Y-61182305D01*
X138293824Y-61151445D01*
X138318540Y-61112859D01*
X138333957Y-61066347D01*
X138339436Y-61009845D01*
X138331470Y-60946036D01*
X138309044Y-60895289D01*
X138272300Y-60854507D01*
X138224497Y-60825380D01*
X138162711Y-60806543D01*
X138083073Y-60799644D01*
X137957959Y-60799644D01*
X137878323Y-60806556D01*
X137816744Y-60825402D01*
X137769282Y-60854507D01*
X137732811Y-60895253D01*
X137710525Y-60945999D01*
X137702603Y-61009845D01*
X137710144Y-61062698D01*
X137733378Y-61114534D01*
X137769613Y-61160940D01*
X137819565Y-61202644D01*
X137819565Y-61393337D01*
X137034080Y-61393337D01*
X137034080Y-60633589D01*
X137233016Y-60633589D01*
X137233016Y-61184234D01*
X137568331Y-61184234D01*
X137540196Y-61143020D01*
X137519146Y-61097040D01*
X137506006Y-61048223D01*
X137501653Y-60998579D01*
X137509885Y-60902401D01*
X137533096Y-60821943D01*
X137570102Y-60754239D01*
X137621179Y-60697153D01*
X137683362Y-60652566D01*
X137758395Y-60619369D01*
X137848853Y-60598145D01*
X137957959Y-60590541D01*
X138083073Y-60590541D01*
X138192520Y-60598347D01*
X138283249Y-60620147D01*
X138358530Y-60654294D01*
X138420952Y-60700267D01*
X138471853Y-60758749D01*
X138508859Y-60828229D01*
X138532125Y-60910919D01*
X138540387Y-61009845D01*
G37*
G36*
X138525000Y-59920186D02*
G01*
X137034080Y-60406168D01*
X137034080Y-60178565D01*
X138203057Y-59820718D01*
X137034080Y-59462780D01*
X137034080Y-59235177D01*
X138525000Y-59721250D01*
X138525000Y-59920186D01*
G37*
G36*
X138099256Y-57447660D02*
G01*
X138195003Y-57469666D01*
X138279993Y-57505113D01*
X138356991Y-57554807D01*
X138420651Y-57615540D01*
X138472243Y-57688203D01*
X138509427Y-57769304D01*
X138532398Y-57860544D01*
X138540387Y-57963984D01*
X138532399Y-58067425D01*
X138509430Y-58158698D01*
X138472243Y-58239856D01*
X138420657Y-58312462D01*
X138356998Y-58373166D01*
X138279993Y-58422855D01*
X138195003Y-58458302D01*
X138099256Y-58480308D01*
X137990749Y-58487977D01*
X137568331Y-58487977D01*
X137459145Y-58480283D01*
X137363277Y-58458254D01*
X137278628Y-58422855D01*
X137201921Y-58373190D01*
X137138437Y-58312490D01*
X137086928Y-58239856D01*
X137049689Y-58158692D01*
X137026690Y-58067420D01*
X137018693Y-57963984D01*
X137224773Y-57963984D01*
X137235485Y-58052910D01*
X137266062Y-58126596D01*
X137316547Y-58188565D01*
X137382342Y-58234730D01*
X137462536Y-58263435D01*
X137561095Y-58273654D01*
X137997984Y-58273654D01*
X138095875Y-58263471D01*
X138175962Y-58234795D01*
X138242075Y-58188565D01*
X138292832Y-58126561D01*
X138323550Y-58052876D01*
X138334307Y-57963984D01*
X138323506Y-57874378D01*
X138292753Y-57800583D01*
X138242075Y-57738945D01*
X138175996Y-57692982D01*
X138095909Y-57664450D01*
X137997984Y-57654315D01*
X137561095Y-57654315D01*
X137462502Y-57664485D01*
X137382307Y-57693047D01*
X137316547Y-57738945D01*
X137266141Y-57800549D01*
X137235528Y-57874344D01*
X137224773Y-57963984D01*
X137018693Y-57963984D01*
X137026692Y-57860549D01*
X137049692Y-57769309D01*
X137086928Y-57688203D01*
X137138443Y-57615512D01*
X137201927Y-57554783D01*
X137278628Y-57505113D01*
X137363277Y-57469714D01*
X137459145Y-57447686D01*
X137568331Y-57439992D01*
X137990749Y-57439992D01*
X138099256Y-57447660D01*
G37*
G36*
X138540387Y-56640218D02*
G01*
X138530311Y-56763776D01*
X138501966Y-56866983D01*
X138456982Y-56953587D01*
X138395307Y-57026366D01*
X138319297Y-57083859D01*
X138227887Y-57126414D01*
X138117981Y-57153514D01*
X137985620Y-57163203D01*
X137034080Y-57163203D01*
X137034080Y-56954009D01*
X137992855Y-56954009D01*
X138098573Y-56943834D01*
X138180922Y-56915868D01*
X138245097Y-56872035D01*
X138283104Y-56828273D01*
X138310747Y-56776257D01*
X138328132Y-56714328D01*
X138334307Y-56640218D01*
X138328124Y-56565567D01*
X138310723Y-56503227D01*
X138283075Y-56450909D01*
X138245097Y-56406936D01*
X138180878Y-56362788D01*
X138098529Y-56334647D01*
X137992855Y-56324412D01*
X137034080Y-56324412D01*
X137034080Y-56115218D01*
X137985620Y-56115218D01*
X138117943Y-56124941D01*
X138227838Y-56152138D01*
X138319261Y-56194860D01*
X138395307Y-56252605D01*
X138456953Y-56325595D01*
X138501942Y-56412501D01*
X138530302Y-56516120D01*
X138540387Y-56640218D01*
G37*
G36*
X138525000Y-55550285D02*
G01*
X137156079Y-55550285D01*
X137156079Y-55341091D01*
X138525000Y-55341091D01*
X138525000Y-55550285D01*
G37*
G36*
X137233016Y-55971695D02*
G01*
X137034080Y-55971695D01*
X137034080Y-54919680D01*
X137233016Y-54919680D01*
X137233016Y-55971695D01*
G37*
G36*
X137891281Y-54777439D02*
G01*
X137891281Y-54088308D01*
X138090217Y-54088308D01*
X138090217Y-54777439D01*
X137891281Y-54777439D01*
G37*
D10*
X88479048Y-102983866D02*
X89240953Y-102983866D01*
X88860000Y-103364819D02*
X88860000Y-102602914D01*
D13*
%TO.C,Q7*%
X62973000Y-105850000D02*
X58032000Y-105850000D01*
X62973000Y-102451000D02*
X60955000Y-102451000D01*
X62973000Y-98750000D02*
X60955000Y-98750000D01*
X62973000Y-95350000D02*
X62973000Y-105850000D01*
X62973000Y-95350000D02*
X58032000Y-95350000D01*
X60213000Y-104243000D02*
X60213000Y-105850000D01*
X60213000Y-101703000D02*
X60213000Y-102038000D01*
X60213000Y-99163000D02*
X60213000Y-99498000D01*
X60213000Y-95350000D02*
X60213000Y-96957000D01*
X58032000Y-95350000D02*
X58032000Y-105850000D01*
%TO.C,F3*%
X52400000Y-91950000D02*
X55600000Y-91950000D01*
X55600000Y-94821000D02*
X55600000Y-91950000D01*
X52400000Y-105021000D02*
X52400000Y-91950000D01*
X55600000Y-109651000D02*
X55600000Y-96578000D01*
X52400000Y-109651000D02*
X52400000Y-106779000D01*
X52400000Y-109651000D02*
X55600000Y-109651000D01*
%TO.C,U8*%
D12*
X119180000Y-93230000D02*
X140780000Y-93230000D01*
X140780000Y-48930000D01*
X119180000Y-48930000D01*
X119180000Y-93230000D01*
D13*
%TO.C,J1*%
X115620000Y-115930000D02*
X115620000Y-114600000D01*
X116950000Y-115930000D02*
X115620000Y-115930000D01*
X118220000Y-113270000D02*
X130980000Y-113270000D01*
X118220000Y-115930000D02*
X118220000Y-113270000D01*
X118220000Y-115930000D02*
X130980000Y-115930000D01*
X130980000Y-115930000D02*
X130980000Y-113270000D01*
%TO.C,J6*%
X84305000Y-43147500D02*
X84305000Y-33107500D01*
X85554000Y-39011500D02*
X85598000Y-38967500D01*
X85781000Y-39238500D02*
X85825000Y-39194500D01*
X88105000Y-36460500D02*
X88149000Y-36417500D01*
X88332000Y-36687500D02*
X88376000Y-36644500D01*
X91745000Y-33107500D02*
X84305000Y-33107500D01*
X94705000Y-33107500D02*
X92345000Y-33107500D01*
X94705000Y-33727500D02*
X84305000Y-33727500D01*
X94705000Y-35227500D02*
X84305000Y-35227500D01*
X94705000Y-40127500D02*
X84305000Y-40127500D01*
X94705000Y-43147500D02*
X84305000Y-43147500D01*
X94705000Y-43147500D02*
X94705000Y-33107500D01*
X90265000Y-38367500D02*
G75*
G02*
X90264794Y-37288179I1780013J540000D01*
G01*
X91505000Y-36047500D02*
G75*
G02*
X92584321Y-36047294I540000J-1780013D01*
G01*
X92585000Y-39607500D02*
G75*
G02*
X91505679Y-39607706I-540000J1780000D01*
G01*
X93825000Y-37287500D02*
G75*
G02*
X93825206Y-38366821I-1780000J-540000D01*
G01*
X88825000Y-37827500D02*
G75*
G02*
X85105000Y-37827500I-1860000J0D01*
G01*
X85105000Y-37827500D02*
G75*
G02*
X88825000Y-37827500I1860000J0D01*
G01*
X92045000Y-33107500D02*
X91605000Y-32497500D01*
X92485000Y-32497500D01*
X92045000Y-33107500D01*
G36*
X92045000Y-33107500D02*
G01*
X91605000Y-32497500D01*
X92485000Y-32497500D01*
X92045000Y-33107500D01*
G37*
%TO.C,M3*%
X138470000Y-96985000D02*
X139800000Y-96985000D01*
X138470000Y-98315000D02*
X138470000Y-96985000D01*
X138470000Y-99585000D02*
X138470000Y-102185000D01*
X138470000Y-99585000D02*
X141130000Y-99585000D01*
X138470000Y-102185000D02*
X141130000Y-102185000D01*
X141130000Y-99585000D02*
X141130000Y-102185000D01*
%TO.C,M5*%
X138465000Y-102880000D02*
X139795000Y-102880000D01*
X138465000Y-104210000D02*
X138465000Y-102880000D01*
X138465000Y-105480000D02*
X138465000Y-108080000D01*
X138465000Y-105480000D02*
X141125000Y-105480000D01*
X138465000Y-108080000D02*
X141125000Y-108080000D01*
X141125000Y-105480000D02*
X141125000Y-108080000D01*
%TO.C,BZ1*%
X91150000Y-100370000D02*
G75*
G02*
X78950000Y-100370000I-6100000J0D01*
G01*
X78950000Y-100370000D02*
G75*
G02*
X91150000Y-100370000I6100000J0D01*
G01*
%TO.C,D3*%
X127260000Y-104240000D02*
X128280000Y-104240000D01*
X128280000Y-102770000D02*
X128280000Y-105710000D01*
X128280000Y-105710000D02*
X133720000Y-105710000D01*
X132700000Y-105710000D02*
X132700000Y-102770000D01*
X132820000Y-105710000D02*
X132820000Y-102770000D01*
X132940000Y-105710000D02*
X132940000Y-102770000D01*
X133720000Y-102770000D02*
X128280000Y-102770000D01*
X133720000Y-105710000D02*
X133720000Y-102770000D01*
X134740000Y-104240000D02*
X133720000Y-104240000D01*
%TO.C,U4*%
X70350000Y-109725000D02*
X70350000Y-110975000D01*
X70640000Y-110015000D02*
X70640000Y-115985000D01*
X70640000Y-115985000D02*
X85760000Y-115985000D01*
X70650000Y-110025000D02*
X70650000Y-110775000D01*
X70650000Y-110775000D02*
X72450000Y-110775000D01*
X70650000Y-112275000D02*
X71400000Y-112275000D01*
X71400000Y-112275000D02*
X71400000Y-115225000D01*
X71400000Y-115225000D02*
X78200000Y-115225000D01*
X71600000Y-109725000D02*
X70350000Y-109725000D01*
X72450000Y-110025000D02*
X70650000Y-110025000D01*
X72450000Y-110775000D02*
X72450000Y-110025000D01*
X73950000Y-110025000D02*
X73950000Y-110775000D01*
X73950000Y-110775000D02*
X82450000Y-110775000D01*
X82450000Y-110025000D02*
X73950000Y-110025000D01*
X82450000Y-110775000D02*
X82450000Y-110025000D01*
X83950000Y-110025000D02*
X83950000Y-110775000D01*
X83950000Y-110775000D02*
X85750000Y-110775000D01*
X85000000Y-112275000D02*
X85000000Y-115225000D01*
X85000000Y-115225000D02*
X78200000Y-115225000D01*
X85750000Y-110025000D02*
X83950000Y-110025000D01*
X85750000Y-110775000D02*
X85750000Y-110025000D01*
X85750000Y-112275000D02*
X85000000Y-112275000D01*
X85760000Y-110015000D02*
X70640000Y-110015000D01*
X85760000Y-115985000D02*
X85760000Y-110015000D01*
%TO.C,J8*%
X51260000Y-115930000D02*
X51260000Y-114600000D01*
X52590000Y-115930000D02*
X51260000Y-115930000D01*
X53860000Y-113270000D02*
X66620000Y-113270000D01*
X53860000Y-115930000D02*
X53860000Y-113270000D01*
X53860000Y-115930000D02*
X66620000Y-115930000D01*
X66620000Y-115930000D02*
X66620000Y-113270000D01*
D14*
%TO.C,G\u002A\u002A\u002A*%
G36*
X130744041Y-46643328D02*
G01*
X130744041Y-47062823D01*
X130678238Y-47062823D01*
X130612435Y-47062823D01*
X130612435Y-46643328D01*
X130612435Y-46223833D01*
X130678238Y-46223833D01*
X130744041Y-46223833D01*
X130744041Y-46643328D01*
G37*
G36*
X125298834Y-46280872D02*
G01*
X125298834Y-46337911D01*
X125113763Y-46342563D01*
X124928691Y-46347214D01*
X124928691Y-46454144D01*
X124928691Y-46561074D01*
X125097312Y-46565762D01*
X125265932Y-46570451D01*
X125265932Y-46635103D01*
X125265932Y-46699755D01*
X125097312Y-46704443D01*
X124928691Y-46709131D01*
X124926320Y-46881864D01*
X124923949Y-47054598D01*
X124856404Y-47059656D01*
X124788860Y-47064715D01*
X124788860Y-46644274D01*
X124788860Y-46223833D01*
X125043847Y-46223833D01*
X125298834Y-46223833D01*
X125298834Y-46280872D01*
G37*
G36*
X126039119Y-46280719D02*
G01*
X126039119Y-46337605D01*
X125911625Y-46342410D01*
X125784132Y-46347214D01*
X125775907Y-46700906D01*
X125767681Y-47054598D01*
X125705858Y-47059711D01*
X125657360Y-47057798D01*
X125636047Y-47043260D01*
X125633432Y-47020879D01*
X125630756Y-46970885D01*
X125628198Y-46898565D01*
X125625938Y-46809207D01*
X125624156Y-46708098D01*
X125623841Y-46684455D01*
X125619624Y-46347214D01*
X125500356Y-46342381D01*
X125381088Y-46337547D01*
X125381088Y-46280690D01*
X125381088Y-46223833D01*
X125710103Y-46223833D01*
X126039119Y-46223833D01*
X126039119Y-46280719D01*
G37*
G36*
X130480829Y-46280719D02*
G01*
X130480829Y-46337605D01*
X130353335Y-46342410D01*
X130225842Y-46347214D01*
X130221408Y-46705019D01*
X130216975Y-47062823D01*
X130150976Y-47062823D01*
X130105846Y-47058045D01*
X130079570Y-47045808D01*
X130077373Y-47042260D01*
X130074875Y-47020193D01*
X130072302Y-46970494D01*
X130069827Y-46898429D01*
X130067624Y-46809266D01*
X130065867Y-46708272D01*
X130065551Y-46684455D01*
X130061334Y-46347214D01*
X129942066Y-46342381D01*
X129822798Y-46337547D01*
X129822798Y-46280690D01*
X129822798Y-46223833D01*
X130151813Y-46223833D01*
X130480829Y-46223833D01*
X130480829Y-46280719D01*
G37*
G36*
X126880160Y-47528749D02*
G01*
X126927835Y-47536422D01*
X126969779Y-47549955D01*
X126980226Y-47554284D01*
X127057362Y-47603376D01*
X127109803Y-47670973D01*
X127135571Y-47751781D01*
X127132689Y-47840504D01*
X127111750Y-47906339D01*
X127078153Y-47964176D01*
X127033141Y-48004587D01*
X126970673Y-48030725D01*
X126884710Y-48045740D01*
X126836982Y-48049693D01*
X126705375Y-48058095D01*
X126700645Y-48210265D01*
X126695915Y-48362434D01*
X126622222Y-48362434D01*
X126548528Y-48362434D01*
X126552923Y-47947052D01*
X126553228Y-47918263D01*
X126697150Y-47918263D01*
X126811111Y-47918263D01*
X126872725Y-47917120D01*
X126911236Y-47911718D01*
X126936419Y-47899102D01*
X126958048Y-47876315D01*
X126960654Y-47873029D01*
X126986431Y-47825647D01*
X126987201Y-47772128D01*
X126987076Y-47771351D01*
X126973437Y-47721029D01*
X126947929Y-47688347D01*
X126904204Y-47669182D01*
X126835915Y-47659414D01*
X126812253Y-47657842D01*
X126697150Y-47651338D01*
X126697150Y-47784801D01*
X126697150Y-47918263D01*
X126553228Y-47918263D01*
X126554640Y-47784801D01*
X126557318Y-47531670D01*
X126731564Y-47527027D01*
X126817741Y-47525947D01*
X126880160Y-47528749D01*
G37*
G36*
X132652331Y-42522408D02*
G01*
X132652331Y-42670465D01*
X127907628Y-42670465D01*
X127514425Y-42670500D01*
X127129669Y-42670600D01*
X126754665Y-42670765D01*
X126390720Y-42670991D01*
X126039140Y-42671275D01*
X125701231Y-42671615D01*
X125378301Y-42672008D01*
X125071654Y-42672451D01*
X124782599Y-42672941D01*
X124512440Y-42673476D01*
X124262484Y-42674053D01*
X124034039Y-42674670D01*
X123828409Y-42675322D01*
X123646902Y-42676009D01*
X123490823Y-42676727D01*
X123361480Y-42677473D01*
X123260178Y-42678244D01*
X123188224Y-42679039D01*
X123146924Y-42679853D01*
X123136902Y-42680451D01*
X123132526Y-42684450D01*
X123128664Y-42694162D01*
X123125286Y-42711506D01*
X123122358Y-42738401D01*
X123119849Y-42776767D01*
X123117729Y-42828523D01*
X123115965Y-42895588D01*
X123114525Y-42979882D01*
X123113379Y-43083323D01*
X123112493Y-43207830D01*
X123111838Y-43355323D01*
X123111381Y-43527722D01*
X123111090Y-43726944D01*
X123110934Y-43954910D01*
X123110882Y-44213539D01*
X123110881Y-44259726D01*
X123110881Y-45829015D01*
X122954598Y-45829015D01*
X122798316Y-45829015D01*
X122798316Y-44101683D01*
X122798316Y-42374351D01*
X127725324Y-42374351D01*
X132652331Y-42374351D01*
X132652331Y-42522408D01*
G37*
G36*
X126254109Y-47526612D02*
G01*
X126321041Y-47531670D01*
X126320513Y-47825716D01*
X126318817Y-47961326D01*
X126313406Y-48068475D01*
X126302982Y-48151516D01*
X126286242Y-48214800D01*
X126261888Y-48262681D01*
X126228618Y-48299510D01*
X126185134Y-48329640D01*
X126167025Y-48339530D01*
X126114633Y-48356825D01*
X126043311Y-48368010D01*
X125966649Y-48371972D01*
X125898237Y-48367595D01*
X125876631Y-48363362D01*
X125794789Y-48328358D01*
X125731425Y-48268040D01*
X125698248Y-48213522D01*
X125685215Y-48185031D01*
X125675634Y-48155711D01*
X125668934Y-48119961D01*
X125664542Y-48072181D01*
X125661888Y-48006768D01*
X125660400Y-47918123D01*
X125659724Y-47836010D01*
X125657731Y-47531670D01*
X125725044Y-47526612D01*
X125792357Y-47521553D01*
X125792357Y-47802690D01*
X125793433Y-47925750D01*
X125797350Y-48020434D01*
X125805139Y-48091217D01*
X125817833Y-48142577D01*
X125836464Y-48178990D01*
X125862064Y-48204930D01*
X125888949Y-48221510D01*
X125962775Y-48244487D01*
X126036244Y-48241188D01*
X126101421Y-48213972D01*
X126150371Y-48165197D01*
X126163796Y-48139785D01*
X126173482Y-48105301D01*
X126180365Y-48052651D01*
X126184728Y-47977745D01*
X126186855Y-47876493D01*
X126187176Y-47802690D01*
X126187176Y-47521553D01*
X126254109Y-47526612D01*
G37*
G36*
X129454361Y-46222332D02*
G01*
X129524749Y-46240304D01*
X129583226Y-46275137D01*
X129637656Y-46328512D01*
X129683750Y-46393525D01*
X129713125Y-46468030D01*
X129728152Y-46559991D01*
X129731426Y-46643328D01*
X129720445Y-46773822D01*
X129686522Y-46881358D01*
X129629840Y-46965558D01*
X129550582Y-47026045D01*
X129544568Y-47029190D01*
X129472174Y-47054831D01*
X129384921Y-47069614D01*
X129299754Y-47071113D01*
X129273380Y-47068019D01*
X129208750Y-47045730D01*
X129140669Y-47004002D01*
X129082510Y-46951670D01*
X129065861Y-46930935D01*
X129020884Y-46844388D01*
X128994375Y-46742681D01*
X128988645Y-46667823D01*
X129133204Y-46667823D01*
X129151182Y-46766815D01*
X129157521Y-46786792D01*
X129190802Y-46858982D01*
X129235087Y-46904766D01*
X129296408Y-46930262D01*
X129299812Y-46931064D01*
X129383956Y-46936421D01*
X129459016Y-46910794D01*
X129477331Y-46899092D01*
X129529880Y-46849595D01*
X129563124Y-46785622D01*
X129579440Y-46701186D01*
X129582097Y-46635239D01*
X129572913Y-46527899D01*
X129544711Y-46445899D01*
X129496518Y-46387069D01*
X129460109Y-46363266D01*
X129383828Y-46338668D01*
X129312901Y-46343080D01*
X129250030Y-46372717D01*
X129197922Y-46423795D01*
X129159278Y-46492528D01*
X129136805Y-46575132D01*
X129133204Y-46667823D01*
X128988645Y-46667823D01*
X128986049Y-46633905D01*
X128995617Y-46526154D01*
X129022793Y-46427522D01*
X129067290Y-46346102D01*
X129087437Y-46322621D01*
X129146967Y-46269819D01*
X129206858Y-46237415D01*
X129277895Y-46221273D01*
X129362176Y-46217229D01*
X129454361Y-46222332D01*
G37*
G36*
X125179233Y-47520072D02*
G01*
X125229576Y-47529820D01*
X125274002Y-47549551D01*
X125294737Y-47561986D01*
X125373206Y-47630359D01*
X125431090Y-47721003D01*
X125466409Y-47829054D01*
X125477186Y-47949649D01*
X125473960Y-48002457D01*
X125449600Y-48120182D01*
X125404329Y-48219785D01*
X125340540Y-48297103D01*
X125280836Y-48338558D01*
X125241759Y-48351918D01*
X125185371Y-48363583D01*
X125123512Y-48372000D01*
X125068027Y-48375616D01*
X125030756Y-48372878D01*
X125027396Y-48371795D01*
X125000025Y-48363632D01*
X124966007Y-48355410D01*
X124912306Y-48331127D01*
X124854238Y-48285206D01*
X124800965Y-48226003D01*
X124768014Y-48174808D01*
X124747665Y-48114706D01*
X124735119Y-48033804D01*
X124733034Y-47992792D01*
X124877192Y-47992792D01*
X124894312Y-48087131D01*
X124913350Y-48134268D01*
X124961426Y-48194449D01*
X125026893Y-48232048D01*
X125101421Y-48244999D01*
X125176681Y-48231235D01*
X125217959Y-48209813D01*
X125270851Y-48155685D01*
X125307207Y-48080833D01*
X125326375Y-47993347D01*
X125327706Y-47901316D01*
X125310547Y-47812828D01*
X125274249Y-47735972D01*
X125257821Y-47714379D01*
X125201651Y-47670945D01*
X125132705Y-47649243D01*
X125060272Y-47649190D01*
X124993644Y-47670699D01*
X124942109Y-47713686D01*
X124939445Y-47717304D01*
X124900477Y-47796412D01*
X124879487Y-47892064D01*
X124877192Y-47992792D01*
X124733034Y-47992792D01*
X124730495Y-47942829D01*
X124733907Y-47852506D01*
X124745474Y-47773562D01*
X124763080Y-47720854D01*
X124823061Y-47629293D01*
X124896164Y-47566270D01*
X124986122Y-47529591D01*
X125096668Y-47517059D01*
X125109573Y-47517055D01*
X125179233Y-47520072D01*
G37*
G36*
X131377800Y-46216528D02*
G01*
X131377832Y-46216533D01*
X131437295Y-46231765D01*
X131492623Y-46255757D01*
X131504100Y-46262781D01*
X131537081Y-46292747D01*
X131570619Y-46334997D01*
X131599563Y-46381006D01*
X131618764Y-46422249D01*
X131623073Y-46450202D01*
X131620288Y-46455113D01*
X131594407Y-46466585D01*
X131554244Y-46473921D01*
X131511742Y-46476355D01*
X131478846Y-46473122D01*
X131467328Y-46464917D01*
X131457142Y-46439012D01*
X131437858Y-46411320D01*
X131378792Y-46360579D01*
X131315484Y-46339681D01*
X131252564Y-46346785D01*
X131194663Y-46380051D01*
X131146409Y-46437638D01*
X131112433Y-46517706D01*
X131106268Y-46543133D01*
X131096232Y-46644354D01*
X131106461Y-46742054D01*
X131135196Y-46827225D01*
X131172567Y-46882727D01*
X131206825Y-46913341D01*
X131243500Y-46927615D01*
X131297428Y-46931214D01*
X131299524Y-46931217D01*
X131373751Y-46920995D01*
X131430833Y-46892707D01*
X131464846Y-46849919D01*
X131470887Y-46828072D01*
X131478655Y-46805123D01*
X131499479Y-46794332D01*
X131542627Y-46791411D01*
X131550129Y-46791385D01*
X131624158Y-46791385D01*
X131619547Y-46848064D01*
X131600157Y-46913473D01*
X131557827Y-46976791D01*
X131501057Y-47026228D01*
X131484252Y-47035718D01*
X131423801Y-47055874D01*
X131347020Y-47068364D01*
X131269937Y-47071478D01*
X131212888Y-47064682D01*
X131119416Y-47024922D01*
X131044224Y-46959644D01*
X130988902Y-46871683D01*
X130955043Y-46763876D01*
X130944236Y-46639059D01*
X130946363Y-46589613D01*
X130968167Y-46465882D01*
X131012143Y-46364927D01*
X131076694Y-46288132D01*
X131160220Y-46236879D01*
X131261121Y-46212550D01*
X131377800Y-46216528D01*
G37*
G36*
X124246897Y-47527237D02*
G01*
X124333390Y-47535507D01*
X124401515Y-47553113D01*
X124458193Y-47581359D01*
X124471625Y-47590407D01*
X124523089Y-47645326D01*
X124551792Y-47715392D01*
X124558362Y-47792608D01*
X124543424Y-47868979D01*
X124507607Y-47936509D01*
X124451537Y-47987203D01*
X124440008Y-47993585D01*
X124403227Y-48012777D01*
X124381786Y-48024872D01*
X124380347Y-48025900D01*
X124386637Y-48040594D01*
X124407908Y-48076665D01*
X124440612Y-48128301D01*
X124471998Y-48175977D01*
X124513311Y-48238016D01*
X124548368Y-48291061D01*
X124572746Y-48328398D01*
X124581255Y-48341871D01*
X124579964Y-48353877D01*
X124555223Y-48360348D01*
X124502539Y-48362390D01*
X124497829Y-48362395D01*
X124402267Y-48362356D01*
X124355132Y-48272149D01*
X124319590Y-48207031D01*
X124280507Y-48139654D01*
X124260255Y-48106659D01*
X124229972Y-48062653D01*
X124205650Y-48041107D01*
X124177805Y-48035431D01*
X124159332Y-48036511D01*
X124106153Y-48041644D01*
X124101444Y-48202039D01*
X124096736Y-48362434D01*
X124023021Y-48362434D01*
X123949305Y-48362434D01*
X123953700Y-47947052D01*
X123953831Y-47934714D01*
X124097927Y-47934714D01*
X124195561Y-47934714D01*
X124256900Y-47931958D01*
X124311011Y-47924865D01*
X124336188Y-47918368D01*
X124375038Y-47889273D01*
X124403373Y-47844124D01*
X124417937Y-47801596D01*
X124416460Y-47769798D01*
X124402407Y-47737577D01*
X124375032Y-47696746D01*
X124339144Y-47671578D01*
X124286904Y-47658780D01*
X124210471Y-47655058D01*
X124205939Y-47655051D01*
X124097927Y-47655051D01*
X124097927Y-47794883D01*
X124097927Y-47934714D01*
X123953831Y-47934714D01*
X123955310Y-47794883D01*
X123958096Y-47531670D01*
X124135118Y-47526999D01*
X124246897Y-47527237D01*
G37*
G36*
X127718326Y-46215777D02*
G01*
X127809154Y-46243720D01*
X127891409Y-46297704D01*
X127955495Y-46370883D01*
X127969410Y-46394907D01*
X127992947Y-46461559D01*
X128008532Y-46548262D01*
X128015093Y-46642890D01*
X128011554Y-46733320D01*
X128003724Y-46782376D01*
X127970174Y-46878108D01*
X127918341Y-46959170D01*
X127853565Y-47017783D01*
X127834622Y-47028713D01*
X127765168Y-47053752D01*
X127681914Y-47069141D01*
X127601931Y-47072314D01*
X127569041Y-47068620D01*
X127471642Y-47034078D01*
X127387708Y-46970373D01*
X127319466Y-46879262D01*
X127311820Y-46865414D01*
X127296890Y-46829821D01*
X127287507Y-46785550D01*
X127282614Y-46724661D01*
X127281850Y-46679942D01*
X127421050Y-46679942D01*
X127438293Y-46770795D01*
X127474090Y-46848289D01*
X127528728Y-46903511D01*
X127596270Y-46934127D01*
X127670778Y-46937805D01*
X127746316Y-46912210D01*
X127766451Y-46899750D01*
X127816903Y-46847194D01*
X127850855Y-46775198D01*
X127868526Y-46691219D01*
X127870135Y-46602714D01*
X127855903Y-46517139D01*
X127826050Y-46441950D01*
X127780794Y-46384605D01*
X127750655Y-46364004D01*
X127701170Y-46347289D01*
X127643363Y-46339143D01*
X127635661Y-46338989D01*
X127590028Y-46343463D01*
X127552374Y-46361176D01*
X127509490Y-46398559D01*
X127505809Y-46402221D01*
X127451847Y-46478811D01*
X127423328Y-46572838D01*
X127421050Y-46679942D01*
X127281850Y-46679942D01*
X127281155Y-46639216D01*
X127281153Y-46635103D01*
X127281836Y-46555486D01*
X127284986Y-46499793D01*
X127292248Y-46459058D01*
X127305270Y-46424313D01*
X127325699Y-46386593D01*
X127327301Y-46383861D01*
X127393816Y-46300451D01*
X127478840Y-46243822D01*
X127580926Y-46214596D01*
X127698631Y-46213395D01*
X127718326Y-46215777D01*
G37*
G36*
X124291335Y-46216645D02*
G01*
X124339099Y-46221446D01*
X124375215Y-46232544D01*
X124410298Y-46252473D01*
X124428739Y-46265111D01*
X124491575Y-46323570D01*
X124541199Y-46396278D01*
X124561101Y-46438949D01*
X124573581Y-46479556D01*
X124580303Y-46527866D01*
X124582926Y-46593646D01*
X124583225Y-46643328D01*
X124582209Y-46723620D01*
X124578053Y-46780811D01*
X124569096Y-46824668D01*
X124553677Y-46864957D01*
X124541197Y-46890382D01*
X124484141Y-46967109D01*
X124405131Y-47025413D01*
X124311226Y-47062393D01*
X124209482Y-47075147D01*
X124118903Y-47063987D01*
X124027620Y-47024894D01*
X123950125Y-46959731D01*
X123892725Y-46874470D01*
X123876162Y-46834207D01*
X123863024Y-46777032D01*
X123854132Y-46701164D01*
X123851166Y-46626897D01*
X123854594Y-46589603D01*
X124001412Y-46589603D01*
X124001796Y-46675018D01*
X124007388Y-46744100D01*
X124018006Y-46792168D01*
X124037066Y-46831072D01*
X124053473Y-46854288D01*
X124113496Y-46908358D01*
X124185982Y-46935553D01*
X124263082Y-46934627D01*
X124336945Y-46904336D01*
X124343020Y-46900229D01*
X124397778Y-46843126D01*
X124431029Y-46762990D01*
X124443300Y-46658495D01*
X124443394Y-46647169D01*
X124436448Y-46546995D01*
X124413926Y-46470502D01*
X124373302Y-46411165D01*
X124340769Y-46382284D01*
X124268301Y-46344661D01*
X124194374Y-46339152D01*
X124122924Y-46365650D01*
X124091279Y-46389163D01*
X124043323Y-46443070D01*
X124014103Y-46507535D01*
X124001412Y-46589603D01*
X123854594Y-46589603D01*
X123862799Y-46500338D01*
X123898159Y-46395728D01*
X123957935Y-46311521D01*
X124012978Y-46265062D01*
X124051630Y-46240291D01*
X124086402Y-46225509D01*
X124127980Y-46218179D01*
X124187050Y-46215766D01*
X124221308Y-46215608D01*
X124291335Y-46216645D01*
G37*
G36*
X126701263Y-46224195D02*
G01*
X126819256Y-46227528D01*
X126909807Y-46238094D01*
X126977884Y-46257461D01*
X127028455Y-46287197D01*
X127066488Y-46328867D01*
X127075117Y-46342145D01*
X127102918Y-46412866D01*
X127109092Y-46490518D01*
X127095305Y-46566077D01*
X127063225Y-46630518D01*
X127014519Y-46674819D01*
X127013549Y-46675349D01*
X126975405Y-46696435D01*
X126952382Y-46714320D01*
X126945033Y-46734913D01*
X126953912Y-46764124D01*
X126979570Y-46807862D01*
X127022559Y-46872035D01*
X127033438Y-46888067D01*
X127081726Y-46960667D01*
X127110731Y-47010419D01*
X127120246Y-47041283D01*
X127110066Y-47057216D01*
X127079986Y-47062177D01*
X127029799Y-47060125D01*
X127024524Y-47059748D01*
X126953314Y-47054598D01*
X126863385Y-46894203D01*
X126823970Y-46824579D01*
X126795846Y-46778735D01*
X126774299Y-46751703D01*
X126754618Y-46738515D01*
X126732088Y-46734204D01*
X126711222Y-46733807D01*
X126648989Y-46733807D01*
X126644281Y-46894203D01*
X126639572Y-47054598D01*
X126581407Y-47059493D01*
X126539486Y-47059735D01*
X126513135Y-47053901D01*
X126511491Y-47052639D01*
X126508259Y-47033594D01*
X126505367Y-46986239D01*
X126502943Y-46915165D01*
X126501116Y-46824961D01*
X126500014Y-46720219D01*
X126499750Y-46635103D01*
X126646517Y-46635103D01*
X126738165Y-46635103D01*
X126801205Y-46630904D01*
X126859916Y-46620202D01*
X126884028Y-46612450D01*
X126936794Y-46575861D01*
X126965331Y-46524657D01*
X126966173Y-46466806D01*
X126957718Y-46443035D01*
X126916059Y-46391764D01*
X126851320Y-46357211D01*
X126770396Y-46342527D01*
X126738277Y-46342730D01*
X126656023Y-46347214D01*
X126651270Y-46491158D01*
X126646517Y-46635103D01*
X126499750Y-46635103D01*
X126499741Y-46632361D01*
X126499741Y-46223833D01*
X126701263Y-46224195D01*
G37*
G36*
X128533935Y-46226556D02*
G01*
X128624386Y-46235606D01*
X128692235Y-46252308D01*
X128742442Y-46277987D01*
X128779963Y-46313967D01*
X128786611Y-46322836D01*
X128814208Y-46385367D01*
X128818913Y-46455116D01*
X128802957Y-46522950D01*
X128768572Y-46579735D01*
X128717990Y-46616337D01*
X128714573Y-46617661D01*
X128694446Y-46627287D01*
X128697780Y-46637562D01*
X128727516Y-46654840D01*
X128733141Y-46657759D01*
X128793306Y-46700807D01*
X128825729Y-46756204D01*
X128833382Y-46829730D01*
X128831956Y-46849767D01*
X128816939Y-46919643D01*
X128784989Y-46973843D01*
X128733220Y-47013809D01*
X128658747Y-47040980D01*
X128558682Y-47056797D01*
X128430141Y-47062702D01*
X128405100Y-47062823D01*
X128210622Y-47062823D01*
X128210622Y-46813320D01*
X128210622Y-46717357D01*
X128342228Y-46717357D01*
X128342228Y-46813320D01*
X128343976Y-46866883D01*
X128348498Y-46906249D01*
X128353195Y-46920250D01*
X128377528Y-46927752D01*
X128424036Y-46930958D01*
X128482331Y-46930263D01*
X128542022Y-46926061D01*
X128592720Y-46918746D01*
X128621618Y-46910061D01*
X128664981Y-46872687D01*
X128682447Y-46822861D01*
X128671293Y-46769930D01*
X128665366Y-46759758D01*
X128650174Y-46739556D01*
X128631844Y-46727055D01*
X128602763Y-46720415D01*
X128555315Y-46717797D01*
X128489906Y-46717357D01*
X128342228Y-46717357D01*
X128210622Y-46717357D01*
X128210622Y-46643328D01*
X128210622Y-46512069D01*
X128344961Y-46512069D01*
X128355692Y-46555135D01*
X128383123Y-46577362D01*
X128432707Y-46583720D01*
X128495959Y-46580392D01*
X128574479Y-46569289D01*
X128626993Y-46551868D01*
X128640281Y-46542868D01*
X128664466Y-46502435D01*
X128671243Y-46460199D01*
X128660632Y-46409912D01*
X128627100Y-46375275D01*
X128568099Y-46354881D01*
X128481083Y-46347327D01*
X128466373Y-46347214D01*
X128350453Y-46347214D01*
X128345478Y-46443194D01*
X128344961Y-46512069D01*
X128210622Y-46512069D01*
X128210622Y-46223833D01*
X128415923Y-46223833D01*
X128533935Y-46226556D01*
G37*
G36*
X132216460Y-46225636D02*
G01*
X132277608Y-46248268D01*
X132286753Y-46254128D01*
X132339934Y-46304785D01*
X132376368Y-46364853D01*
X132389119Y-46420426D01*
X132377363Y-46448516D01*
X132346859Y-46457378D01*
X132304756Y-46448083D01*
X132258201Y-46421698D01*
X132229594Y-46396567D01*
X132187007Y-46358948D01*
X132147219Y-46342146D01*
X132108085Y-46338989D01*
X132037694Y-46349115D01*
X131987988Y-46377501D01*
X131963315Y-46421158D01*
X131961399Y-46439764D01*
X131965343Y-46463382D01*
X131979889Y-46485103D01*
X132009104Y-46507425D01*
X132057056Y-46532846D01*
X132127813Y-46563866D01*
X132225444Y-46602980D01*
X132230223Y-46604849D01*
X132322726Y-46651928D01*
X132384572Y-46709350D01*
X132416666Y-46778158D01*
X132422020Y-46826434D01*
X132408826Y-46912578D01*
X132368605Y-46980342D01*
X132308347Y-47027099D01*
X132253129Y-47048187D01*
X132179263Y-47063854D01*
X132100817Y-47072151D01*
X132031860Y-47071131D01*
X132012164Y-47068127D01*
X131936111Y-47037646D01*
X131867089Y-46984202D01*
X131816934Y-46917383D01*
X131811078Y-46905254D01*
X131794072Y-46859397D01*
X131787282Y-46825208D01*
X131788783Y-46815872D01*
X131810556Y-46804909D01*
X131850431Y-46799683D01*
X131855847Y-46799611D01*
X131898763Y-46805088D01*
X131921842Y-46825857D01*
X131927866Y-46839077D01*
X131963269Y-46890991D01*
X132022448Y-46921513D01*
X132103973Y-46931217D01*
X132175436Y-46922150D01*
X132229001Y-46898180D01*
X132262034Y-46864150D01*
X132271899Y-46824905D01*
X132255959Y-46785289D01*
X132211580Y-46750147D01*
X132204437Y-46746565D01*
X132154870Y-46723566D01*
X132110183Y-46703881D01*
X132109456Y-46703576D01*
X132004331Y-46657720D01*
X131926380Y-46618669D01*
X131871465Y-46583133D01*
X131835445Y-46547820D01*
X131814180Y-46509440D01*
X131803532Y-46464702D01*
X131802906Y-46459874D01*
X131808978Y-46381691D01*
X131843632Y-46310597D01*
X131902572Y-46254894D01*
X131912046Y-46249069D01*
X131974391Y-46225810D01*
X132053485Y-46214253D01*
X132137964Y-46214246D01*
X132216460Y-46225636D01*
G37*
G36*
X123437321Y-46217505D02*
G01*
X123485879Y-46223488D01*
X123521872Y-46235970D01*
X123551391Y-46254128D01*
X123604571Y-46304785D01*
X123641005Y-46364853D01*
X123653756Y-46420426D01*
X123642000Y-46448516D01*
X123611496Y-46457378D01*
X123569393Y-46448083D01*
X123522839Y-46421698D01*
X123494231Y-46396567D01*
X123452556Y-46359427D01*
X123413707Y-46342603D01*
X123368736Y-46338989D01*
X123297669Y-46349409D01*
X123246543Y-46378724D01*
X123221385Y-46420800D01*
X123218596Y-46448615D01*
X123228458Y-46473401D01*
X123254651Y-46497664D01*
X123300853Y-46523912D01*
X123370743Y-46554651D01*
X123468000Y-46592388D01*
X123479573Y-46596718D01*
X123542530Y-46627751D01*
X123604636Y-46669859D01*
X123623518Y-46686021D01*
X123661483Y-46725049D01*
X123680182Y-46758830D01*
X123686265Y-46802387D01*
X123686658Y-46828703D01*
X123671651Y-46913980D01*
X123627730Y-46984422D01*
X123557188Y-47037042D01*
X123510095Y-47052781D01*
X123444059Y-47064779D01*
X123372971Y-47071388D01*
X123310724Y-47070959D01*
X123291839Y-47068527D01*
X123211595Y-47041835D01*
X123141644Y-46996648D01*
X123088771Y-46939138D01*
X123059759Y-46875473D01*
X123056605Y-46854573D01*
X123057675Y-46823630D01*
X123072852Y-46809142D01*
X123111213Y-46803050D01*
X123115022Y-46802728D01*
X123157761Y-46802623D01*
X123180470Y-46815382D01*
X123192125Y-46838083D01*
X123227735Y-46890672D01*
X123286879Y-46921522D01*
X123367310Y-46931217D01*
X123436372Y-46922614D01*
X123492561Y-46899489D01*
X123528779Y-46865862D01*
X123538601Y-46834186D01*
X123527526Y-46805354D01*
X123501433Y-46771025D01*
X123471016Y-46743254D01*
X123449547Y-46733807D01*
X123425238Y-46726883D01*
X123379926Y-46708669D01*
X123321826Y-46683003D01*
X123259154Y-46653722D01*
X123200123Y-46624664D01*
X123152950Y-46599666D01*
X123125906Y-46582615D01*
X123081789Y-46527041D01*
X123063295Y-46459981D01*
X123069213Y-46388986D01*
X123098330Y-46321605D01*
X123149434Y-46265388D01*
X123180069Y-46245314D01*
X123226658Y-46227632D01*
X123289982Y-46218294D01*
X123366071Y-46215935D01*
X123437321Y-46217505D01*
G37*
G36*
X123529438Y-47530668D02*
G01*
X123616719Y-47570982D01*
X123683575Y-47636331D01*
X123698502Y-47659162D01*
X123731587Y-47715238D01*
X123663883Y-47733425D01*
X123618722Y-47743156D01*
X123589505Y-47739054D01*
X123561089Y-47718066D01*
X123553813Y-47711234D01*
X123486711Y-47667032D01*
X123411944Y-47650075D01*
X123337665Y-47660694D01*
X123272028Y-47699221D01*
X123271437Y-47699754D01*
X123226938Y-47752782D01*
X123199702Y-47819058D01*
X123187251Y-47905858D01*
X123185827Y-47951165D01*
X123187311Y-48022341D01*
X123194614Y-48072456D01*
X123210107Y-48113166D01*
X123223512Y-48136635D01*
X123279621Y-48201960D01*
X123346504Y-48238399D01*
X123419933Y-48244592D01*
X123489787Y-48222324D01*
X123537922Y-48182765D01*
X123573637Y-48126667D01*
X123587947Y-48068235D01*
X123587953Y-48067137D01*
X123581672Y-48043799D01*
X123556899Y-48034486D01*
X123531446Y-48033419D01*
X123478028Y-48028480D01*
X123432080Y-48017124D01*
X123402910Y-48001716D01*
X123400384Y-47981910D01*
X123406911Y-47967771D01*
X123419571Y-47951237D01*
X123440704Y-47941328D01*
X123477767Y-47936442D01*
X123538214Y-47934981D01*
X123559743Y-47934966D01*
X123625201Y-47936639D01*
X123679045Y-47940857D01*
X123711908Y-47946802D01*
X123715993Y-47948613D01*
X123725475Y-47964376D01*
X123731200Y-47999904D01*
X123733497Y-48059391D01*
X123732696Y-48147029D01*
X123732444Y-48158108D01*
X123727785Y-48354209D01*
X123666094Y-48359315D01*
X123625859Y-48360917D01*
X123608546Y-48350662D01*
X123604485Y-48319593D01*
X123604404Y-48302183D01*
X123604404Y-48239946D01*
X123555903Y-48293049D01*
X123488317Y-48349461D01*
X123414270Y-48375432D01*
X123329753Y-48371825D01*
X123269421Y-48354788D01*
X123185434Y-48308291D01*
X123112302Y-48234837D01*
X123072360Y-48173250D01*
X123055173Y-48135806D01*
X123044465Y-48094882D01*
X123038844Y-48041455D01*
X123036919Y-47966502D01*
X123036852Y-47942940D01*
X123037723Y-47864459D01*
X123041388Y-47809943D01*
X123049424Y-47770479D01*
X123063412Y-47737153D01*
X123077636Y-47712629D01*
X123147074Y-47621246D01*
X123225551Y-47559830D01*
X123317716Y-47525741D01*
X123423445Y-47516276D01*
X123529438Y-47530668D01*
G37*
G36*
X132668782Y-44274416D02*
G01*
X132668782Y-45861916D01*
X127906282Y-45861916D01*
X123143782Y-45861916D01*
X123143782Y-44274416D01*
X123143782Y-44271674D01*
X123143782Y-43756217D01*
X123851166Y-43756217D01*
X123851166Y-44271674D01*
X123851503Y-44398758D01*
X123852460Y-44515151D01*
X123853951Y-44616808D01*
X123855893Y-44699682D01*
X123858201Y-44759725D01*
X123860791Y-44792890D01*
X123862133Y-44798099D01*
X123882503Y-44803008D01*
X123927598Y-44806781D01*
X123989244Y-44808846D01*
X124018415Y-44809067D01*
X124163730Y-44809067D01*
X124163730Y-44658450D01*
X124164562Y-44585051D01*
X124168327Y-44535476D01*
X124176932Y-44500663D01*
X124192282Y-44471550D01*
X124207479Y-44450475D01*
X124224929Y-44427202D01*
X124238852Y-44412430D01*
X124252383Y-44409054D01*
X124268655Y-44419965D01*
X124290804Y-44448056D01*
X124321964Y-44496221D01*
X124365270Y-44567353D01*
X124404406Y-44632221D01*
X124511296Y-44809067D01*
X124701190Y-44809067D01*
X124783733Y-44808458D01*
X124838194Y-44806215D01*
X124869377Y-44801708D01*
X124882088Y-44794309D01*
X124882014Y-44785428D01*
X124870515Y-44765265D01*
X124843444Y-44722136D01*
X124803599Y-44660368D01*
X124753781Y-44584289D01*
X124696792Y-44498224D01*
X124673298Y-44462991D01*
X124608134Y-44365286D01*
X124559361Y-44291141D01*
X124525067Y-44236776D01*
X124503341Y-44198411D01*
X124492270Y-44172265D01*
X124489944Y-44154558D01*
X124494449Y-44141509D01*
X124503876Y-44129339D01*
X124504321Y-44128826D01*
X124526519Y-44103787D01*
X124565737Y-44060099D01*
X124616851Y-44003449D01*
X124674738Y-43939524D01*
X124688066Y-43924837D01*
X124841143Y-43756217D01*
X124920466Y-43756217D01*
X124920558Y-44130472D01*
X124921384Y-44251157D01*
X124923666Y-44359807D01*
X124927203Y-44451447D01*
X124931791Y-44521100D01*
X124937229Y-44563791D01*
X124938357Y-44568500D01*
X124975456Y-44646243D01*
X125037767Y-44716477D01*
X125117597Y-44771654D01*
X125167455Y-44793291D01*
X125259249Y-44814633D01*
X125367555Y-44823929D01*
X125478065Y-44820654D01*
X125549854Y-44809684D01*
X126318782Y-44809684D01*
X126324031Y-44809622D01*
X127174223Y-44809622D01*
X127597830Y-44805232D01*
X128021438Y-44800841D01*
X128021438Y-44669235D01*
X128021438Y-44537629D01*
X127754112Y-44533108D01*
X127486787Y-44528588D01*
X127486787Y-44463193D01*
X127486787Y-44397797D01*
X127725324Y-44397797D01*
X127963860Y-44397797D01*
X127963860Y-44274416D01*
X127963860Y-44151035D01*
X127725324Y-44151035D01*
X127486787Y-44151035D01*
X127486787Y-44130581D01*
X127486787Y-44085232D01*
X127486787Y-44019429D01*
X127750000Y-44019429D01*
X128013212Y-44019429D01*
X128013212Y-43887823D01*
X128013212Y-43756217D01*
X128111917Y-43756217D01*
X128111917Y-44130581D01*
X128112610Y-44241740D01*
X128114549Y-44344829D01*
X128117528Y-44434270D01*
X128121339Y-44504482D01*
X128125774Y-44549885D01*
X128127919Y-44560741D01*
X128171085Y-44653767D01*
X128240373Y-44730732D01*
X128331201Y-44787398D01*
X128398560Y-44811065D01*
X128437408Y-44816372D01*
X128498553Y-44819476D01*
X128571437Y-44819961D01*
X128605440Y-44819208D01*
X128693345Y-44814286D01*
X128757650Y-44804984D01*
X128807542Y-44789679D01*
X128829083Y-44779716D01*
X128905409Y-44727377D01*
X128968625Y-44658904D01*
X129010102Y-44584139D01*
X129015720Y-44566867D01*
X129020916Y-44531682D01*
X129025454Y-44469001D01*
X129029118Y-44384228D01*
X129031696Y-44282765D01*
X129032970Y-44170015D01*
X129033069Y-44130472D01*
X129033158Y-43764442D01*
X129087477Y-43764442D01*
X129132499Y-43920725D01*
X129162360Y-44024129D01*
X129194775Y-44135945D01*
X129228417Y-44251638D01*
X129261958Y-44366673D01*
X129294070Y-44476514D01*
X129323427Y-44576625D01*
X129348701Y-44662473D01*
X129368564Y-44729521D01*
X129381688Y-44773235D01*
X129386497Y-44788503D01*
X129402128Y-44798723D01*
X129442212Y-44805282D01*
X129509937Y-44808542D01*
X129566588Y-44809067D01*
X129739131Y-44809067D01*
X129790173Y-44640446D01*
X129810956Y-44571978D01*
X129838965Y-44479983D01*
X129871781Y-44372389D01*
X129902542Y-44271674D01*
X129906985Y-44257126D01*
X129942158Y-44142123D01*
X129947162Y-44125779D01*
X129978047Y-44024363D01*
X130005386Y-43933559D01*
X130027789Y-43858069D01*
X130043867Y-43802594D01*
X130052231Y-43771835D01*
X130053109Y-43767379D01*
X130037852Y-43762575D01*
X129996786Y-43759643D01*
X129936967Y-43758919D01*
X129893377Y-43759734D01*
X129733645Y-43764442D01*
X129658704Y-44055322D01*
X129634319Y-44148509D01*
X129612174Y-44230399D01*
X129593742Y-44295765D01*
X129580493Y-44339383D01*
X129574070Y-44355894D01*
X129567018Y-44343957D01*
X129553248Y-44304916D01*
X129534236Y-44243534D01*
X129511457Y-44164572D01*
X129486506Y-44073240D01*
X129461100Y-43979605D01*
X129437797Y-43896964D01*
X129418154Y-43830589D01*
X129403731Y-43785755D01*
X129396268Y-43767903D01*
X129375299Y-43762637D01*
X129329632Y-43759518D01*
X129267428Y-43758962D01*
X129235690Y-43759677D01*
X129087477Y-43764442D01*
X129033158Y-43764442D01*
X129033160Y-43756217D01*
X130102461Y-43756217D01*
X130102461Y-44271674D01*
X130102799Y-44398758D01*
X130103755Y-44515151D01*
X130105247Y-44616808D01*
X130107188Y-44699682D01*
X130109496Y-44759725D01*
X130112086Y-44792890D01*
X130113428Y-44798099D01*
X130132227Y-44801087D01*
X130179396Y-44803764D01*
X130250405Y-44806016D01*
X130340724Y-44807725D01*
X130445821Y-44808777D01*
X130541148Y-44809067D01*
X130957901Y-44809067D01*
X130957901Y-44669235D01*
X130957901Y-44529403D01*
X130686464Y-44529403D01*
X130415026Y-44529403D01*
X130415026Y-44463600D01*
X130415026Y-44397797D01*
X130653562Y-44397797D01*
X130892098Y-44397797D01*
X130892098Y-44274416D01*
X130892098Y-44271099D01*
X130892098Y-44151035D01*
X130653562Y-44151035D01*
X130415026Y-44151035D01*
X130415026Y-44085232D01*
X130415026Y-44019429D01*
X130678238Y-44019429D01*
X130941451Y-44019429D01*
X130941451Y-43887823D01*
X130941451Y-43756217D01*
X130521956Y-43756217D01*
X130102461Y-43756217D01*
X129033160Y-43756217D01*
X128876878Y-43756217D01*
X128720596Y-43756217D01*
X128720596Y-44102500D01*
X128719949Y-44237676D01*
X128717205Y-44343520D01*
X128711159Y-44423591D01*
X128700604Y-44481448D01*
X128684335Y-44520648D01*
X128661145Y-44544751D01*
X128629831Y-44557314D01*
X128589184Y-44561895D01*
X128564790Y-44562305D01*
X128513642Y-44552627D01*
X128471544Y-44530884D01*
X128459024Y-44519930D01*
X128449470Y-44507087D01*
X128442408Y-44488014D01*
X128437367Y-44458374D01*
X128433876Y-44413827D01*
X128431463Y-44350034D01*
X128429656Y-44262656D01*
X128427982Y-44147355D01*
X128427720Y-44127840D01*
X128422732Y-43756217D01*
X128267324Y-43756217D01*
X128111917Y-43756217D01*
X128013212Y-43756217D01*
X127593717Y-43756217D01*
X127174223Y-43756217D01*
X127174223Y-44282919D01*
X127174223Y-44809622D01*
X126324031Y-44809622D01*
X126693037Y-44805263D01*
X127067293Y-44800841D01*
X127067293Y-44669235D01*
X127067293Y-44537629D01*
X126849320Y-44533039D01*
X126631347Y-44528448D01*
X126631347Y-44282919D01*
X126631347Y-44142333D01*
X126631347Y-43756217D01*
X126475065Y-43756217D01*
X126318782Y-43756217D01*
X126318782Y-44282951D01*
X126318782Y-44809684D01*
X125549854Y-44809684D01*
X125562046Y-44807821D01*
X125663054Y-44769289D01*
X125744062Y-44705023D01*
X125800038Y-44623018D01*
X125813169Y-44595776D01*
X125823205Y-44570360D01*
X125830561Y-44542023D01*
X125835652Y-44506020D01*
X125838897Y-44457607D01*
X125840709Y-44392037D01*
X125841507Y-44304565D01*
X125841545Y-44282951D01*
X125841705Y-44190447D01*
X125841710Y-44147805D01*
X125841710Y-43756217D01*
X125686302Y-43756217D01*
X125530894Y-43756217D01*
X125525907Y-44127840D01*
X125524213Y-44247601D01*
X125522455Y-44338801D01*
X125520160Y-44405781D01*
X125516857Y-44452878D01*
X125512073Y-44484433D01*
X125505337Y-44504783D01*
X125496177Y-44518269D01*
X125484122Y-44529229D01*
X125482083Y-44530884D01*
X125437354Y-44553514D01*
X125388836Y-44562305D01*
X125343032Y-44560397D01*
X125307166Y-44552300D01*
X125280034Y-44534456D01*
X125260429Y-44503306D01*
X125247146Y-44455293D01*
X125238979Y-44386859D01*
X125234722Y-44294444D01*
X125233170Y-44174490D01*
X125233031Y-44102500D01*
X125233031Y-43756217D01*
X125076748Y-43756217D01*
X124920466Y-43756217D01*
X124841143Y-43756217D01*
X124645911Y-43756217D01*
X124450678Y-43756217D01*
X124319542Y-43928144D01*
X124269931Y-43992081D01*
X124226980Y-44045365D01*
X124194770Y-44083084D01*
X124177383Y-44100321D01*
X124176068Y-44100877D01*
X124171006Y-44085907D01*
X124166950Y-44044793D01*
X124164385Y-43984288D01*
X124163730Y-43928950D01*
X124163730Y-43756217D01*
X124007448Y-43756217D01*
X123851166Y-43756217D01*
X123143782Y-43756217D01*
X123143782Y-43755066D01*
X131040155Y-43755066D01*
X131040155Y-44271099D01*
X131040492Y-44398255D01*
X131041448Y-44514723D01*
X131042938Y-44616458D01*
X131044878Y-44699417D01*
X131047184Y-44759553D01*
X131049771Y-44792824D01*
X131051122Y-44798099D01*
X131071603Y-44803140D01*
X131116518Y-44806959D01*
X131177404Y-44808929D01*
X131199179Y-44809067D01*
X131336269Y-44809067D01*
X131336792Y-44525291D01*
X131336807Y-44422115D01*
X131337786Y-44346369D01*
X131341775Y-44298198D01*
X131350825Y-44277745D01*
X131366981Y-44285154D01*
X131392292Y-44320571D01*
X131428806Y-44384140D01*
X131478570Y-44476005D01*
X131511781Y-44537629D01*
X131555360Y-44617654D01*
X131594433Y-44688275D01*
X131625927Y-44744021D01*
X131646767Y-44779421D01*
X131652784Y-44788503D01*
X131680618Y-44800432D01*
X131740690Y-44807274D01*
X131815356Y-44809067D01*
X131961399Y-44809067D01*
X131961399Y-44282642D01*
X131961399Y-43756217D01*
X131813740Y-43756217D01*
X131666080Y-43756217D01*
X131661570Y-44031767D01*
X131657059Y-44307318D01*
X131515084Y-44035880D01*
X131373109Y-43764442D01*
X131206632Y-43759754D01*
X131040155Y-43755066D01*
X123143782Y-43755066D01*
X123143782Y-42686916D01*
X127906282Y-42686916D01*
X132668782Y-42686916D01*
X132668782Y-44274416D01*
G37*
D13*
%TO.C,D1*%
X86260000Y-47250000D02*
X87280000Y-47250000D01*
X87280000Y-45780000D02*
X87280000Y-48720000D01*
X87280000Y-48720000D02*
X92720000Y-48720000D01*
X91700000Y-48720000D02*
X91700000Y-45780000D01*
X91820000Y-48720000D02*
X91820000Y-45780000D01*
X91940000Y-48720000D02*
X91940000Y-45780000D01*
X92720000Y-45780000D02*
X87280000Y-45780000D01*
X92720000Y-48720000D02*
X92720000Y-45780000D01*
X93740000Y-47250000D02*
X92720000Y-47250000D01*
%TO.C,J2*%
X41507500Y-95195000D02*
X41507500Y-97555000D01*
X41507500Y-98155000D02*
X41507500Y-105595000D01*
X42127500Y-95195000D02*
X42127500Y-105595000D01*
X43627500Y-95195000D02*
X43627500Y-105595000D01*
X44860500Y-101795000D02*
X44817500Y-101751000D01*
X45087500Y-101568000D02*
X45044500Y-101524000D01*
X47411500Y-104346000D02*
X47367500Y-104302000D01*
X47638500Y-104119000D02*
X47594500Y-104075000D01*
X48527500Y-95195000D02*
X48527500Y-105595000D01*
X51547500Y-95195000D02*
X41507500Y-95195000D01*
X51547500Y-95195000D02*
X51547500Y-105595000D01*
X51547500Y-105595000D02*
X41507500Y-105595000D01*
X44447500Y-98395000D02*
G75*
G02*
X44447294Y-97315679I1780013J540000D01*
G01*
X45687500Y-96075000D02*
G75*
G02*
X46766821Y-96074794I540000J-1780000D01*
G01*
X46767500Y-99635000D02*
G75*
G02*
X45688179Y-99635206I-540000J1780013D01*
G01*
X48007500Y-97315000D02*
G75*
G02*
X48007706Y-98394321I-1780000J-540000D01*
G01*
X48087500Y-102935000D02*
G75*
G02*
X44367500Y-102935000I-1860000J0D01*
G01*
X44367500Y-102935000D02*
G75*
G02*
X48087500Y-102935000I1860000J0D01*
G01*
X41507500Y-97855000D02*
X40897500Y-98295000D01*
X40897500Y-97415000D01*
X41507500Y-97855000D01*
G36*
X41507500Y-97855000D02*
G01*
X40897500Y-98295000D01*
X40897500Y-97415000D01*
X41507500Y-97855000D01*
G37*
%TO.C,J5*%
X86550000Y-109650000D02*
X86550000Y-110900000D01*
X86840000Y-109940000D02*
X86840000Y-115910000D01*
X86840000Y-115910000D02*
X99460000Y-115910000D01*
X86850000Y-109950000D02*
X86850000Y-110700000D01*
X86850000Y-110700000D02*
X88650000Y-110700000D01*
X86850000Y-112200000D02*
X87600000Y-112200000D01*
X87600000Y-112200000D02*
X87600000Y-115150000D01*
X87600000Y-115150000D02*
X93150000Y-115150000D01*
X87800000Y-109650000D02*
X86550000Y-109650000D01*
X88650000Y-109950000D02*
X86850000Y-109950000D01*
X88650000Y-110700000D02*
X88650000Y-109950000D01*
X90150000Y-109950000D02*
X90150000Y-110700000D01*
X90150000Y-110700000D02*
X96150000Y-110700000D01*
X96150000Y-109950000D02*
X90150000Y-109950000D01*
X96150000Y-110700000D02*
X96150000Y-109950000D01*
X97650000Y-109950000D02*
X97650000Y-110700000D01*
X97650000Y-110700000D02*
X99450000Y-110700000D01*
X98700000Y-112200000D02*
X98700000Y-115150000D01*
X98700000Y-115150000D02*
X93150000Y-115150000D01*
X99450000Y-109950000D02*
X97650000Y-109950000D01*
X99450000Y-110700000D02*
X99450000Y-109950000D01*
X99450000Y-112200000D02*
X98700000Y-112200000D01*
X99460000Y-109940000D02*
X86840000Y-109940000D01*
X99460000Y-115910000D02*
X99460000Y-109940000D01*
%TO.C,A1*%
X40552500Y-73345895D02*
X41372500Y-73345895D01*
X40552500Y-81565895D02*
X40552500Y-73345895D01*
X40552500Y-81565895D02*
X41372500Y-81565895D01*
X41372500Y-73345895D02*
X41372500Y-73555895D01*
X41372500Y-73555895D02*
X42768500Y-73555895D01*
X41372500Y-81355895D02*
X42768500Y-81355895D01*
X41372500Y-81565895D02*
X41372500Y-81355895D01*
X41852500Y-67455895D02*
X41852500Y-69945895D01*
X41852500Y-69945895D02*
X42766020Y-69945895D01*
X41852500Y-71293834D02*
X41852500Y-69945895D01*
X41852500Y-73220895D02*
X41852500Y-72217956D01*
X41852500Y-81690895D02*
X41852500Y-73220895D01*
X41852500Y-82693834D02*
X41852500Y-81690895D01*
X41852500Y-84965895D02*
X41852500Y-83617955D01*
X41852500Y-84965895D02*
X42766020Y-84965895D01*
X41852500Y-87455895D02*
X41852500Y-84965895D01*
X41915500Y-87725895D02*
X93009500Y-87725895D01*
X42462500Y-66845895D02*
X92462500Y-66845895D01*
X42462500Y-88065895D02*
X92462500Y-88065895D01*
X44132500Y-88385895D02*
X42532500Y-88385895D01*
X45156500Y-73555895D02*
X46372500Y-73555895D01*
X45156500Y-81355895D02*
X46372500Y-81355895D01*
X45158980Y-69945895D02*
X89766020Y-69945895D01*
X45158980Y-84965895D02*
X89766020Y-84965895D01*
X46372500Y-73555895D02*
X46372500Y-81355895D01*
X92158980Y-69945895D02*
X93072500Y-69945895D01*
X92158980Y-84965895D02*
X93072500Y-84965895D01*
X93009500Y-67185895D02*
X41915500Y-67185895D01*
X93072500Y-71293834D02*
X93072500Y-67455895D01*
X93072500Y-72217956D02*
X93072500Y-73855895D01*
X93072500Y-81055895D02*
X93072500Y-82693834D01*
X93072500Y-87455895D02*
X93072500Y-83617956D01*
X41852500Y-67455895D02*
G75*
G02*
X42462500Y-66845895I610000J0D01*
G01*
X42462500Y-88065895D02*
G75*
G02*
X41852500Y-87455895I0J610000D01*
G01*
%TO.C,TH1*%
X41690000Y-43490000D02*
X41690000Y-51110000D01*
X41690000Y-51110000D02*
X47660000Y-51110000D01*
X42450000Y-44250000D02*
X42450000Y-47300000D01*
X42450000Y-50350000D02*
X42450000Y-47300000D01*
X45400000Y-43500000D02*
X45400000Y-44250000D01*
X45400000Y-44250000D02*
X42450000Y-44250000D01*
X45400000Y-50350000D02*
X42450000Y-50350000D01*
X45400000Y-51100000D02*
X45400000Y-50350000D01*
X46900000Y-43500000D02*
X46900000Y-45300000D01*
X46900000Y-45300000D02*
X47650000Y-45300000D01*
X46900000Y-46800000D02*
X46900000Y-47800000D01*
X46900000Y-47800000D02*
X47650000Y-47800000D01*
X46900000Y-49300000D02*
X46900000Y-51100000D01*
X46900000Y-51100000D02*
X47650000Y-51100000D01*
X47650000Y-43500000D02*
X46900000Y-43500000D01*
X47650000Y-45300000D02*
X47650000Y-43500000D01*
X47650000Y-46800000D02*
X46900000Y-46800000D01*
X47650000Y-47800000D02*
X47650000Y-46800000D01*
X47650000Y-49300000D02*
X46900000Y-49300000D01*
X47650000Y-51100000D02*
X47650000Y-49300000D01*
X47660000Y-43490000D02*
X41690000Y-43490000D01*
X47660000Y-51110000D02*
X47660000Y-43490000D01*
X47950000Y-43200000D02*
X46700000Y-43200000D01*
X47950000Y-44450000D02*
X47950000Y-43200000D01*
%TO.C,J7*%
X95805000Y-43147500D02*
X95805000Y-33107500D01*
X97054000Y-39011500D02*
X97098000Y-38967500D01*
X97281000Y-39238500D02*
X97325000Y-39194500D01*
X99605000Y-36460500D02*
X99649000Y-36417500D01*
X99832000Y-36687500D02*
X99876000Y-36644500D01*
X103245000Y-33107500D02*
X95805000Y-33107500D01*
X106205000Y-33107500D02*
X103845000Y-33107500D01*
X106205000Y-33727500D02*
X95805000Y-33727500D01*
X106205000Y-35227500D02*
X95805000Y-35227500D01*
X106205000Y-40127500D02*
X95805000Y-40127500D01*
X106205000Y-43147500D02*
X95805000Y-43147500D01*
X106205000Y-43147500D02*
X106205000Y-33107500D01*
X101765000Y-38367500D02*
G75*
G02*
X101764794Y-37288179I1780013J540000D01*
G01*
X103005000Y-36047500D02*
G75*
G02*
X104084321Y-36047294I540000J-1780013D01*
G01*
X104085000Y-39607500D02*
G75*
G02*
X103005679Y-39607706I-540000J1780000D01*
G01*
X105325000Y-37287500D02*
G75*
G02*
X105325206Y-38366821I-1780000J-540000D01*
G01*
X100325000Y-37827500D02*
G75*
G02*
X96605000Y-37827500I-1860000J0D01*
G01*
X96605000Y-37827500D02*
G75*
G02*
X100325000Y-37827500I1860000J0D01*
G01*
X103545000Y-33107500D02*
X103105000Y-32497500D01*
X103985000Y-32497500D01*
X103545000Y-33107500D01*
G36*
X103545000Y-33107500D02*
G01*
X103105000Y-32497500D01*
X103985000Y-32497500D01*
X103545000Y-33107500D01*
G37*
%TO.C,U1*%
X98065000Y-77110000D02*
X98065000Y-97690000D01*
X98065000Y-97690000D02*
X110895000Y-97690000D01*
X100735000Y-97690000D02*
X100735000Y-77110000D01*
X110895000Y-95020000D02*
X110895000Y-77110000D01*
X110895000Y-95020000D02*
X113565000Y-95020000D01*
X110895000Y-97690000D02*
X110895000Y-95020000D01*
X112165000Y-97690000D02*
X113565000Y-97690000D01*
X113565000Y-77110000D02*
X98065000Y-77110000D01*
X113565000Y-95020000D02*
X113565000Y-77110000D01*
X113565000Y-97690000D02*
X113565000Y-96290000D01*
%TO.C,Q6*%
X72427000Y-95150000D02*
X72427000Y-105650000D01*
X74608000Y-95150000D02*
X74608000Y-96757000D01*
X74608000Y-98963000D02*
X74608000Y-99298000D01*
X74608000Y-101503000D02*
X74608000Y-101838000D01*
X74608000Y-104043000D02*
X74608000Y-105650000D01*
X77368000Y-95150000D02*
X72427000Y-95150000D01*
X77368000Y-95150000D02*
X77368000Y-105650000D01*
X77368000Y-98550000D02*
X75350000Y-98550000D01*
X77368000Y-102251000D02*
X75350000Y-102251000D01*
X77368000Y-105650000D02*
X72427000Y-105650000D01*
%TO.C,Q4*%
X84750000Y-49027000D02*
X84750000Y-53968000D01*
X84750000Y-49027000D02*
X95250000Y-49027000D01*
X84750000Y-51787000D02*
X86357000Y-51787000D01*
X84750000Y-53968000D02*
X95250000Y-53968000D01*
X88150000Y-49027000D02*
X88150000Y-51045000D01*
X88563000Y-51787000D02*
X88898000Y-51787000D01*
X91103000Y-51787000D02*
X91438000Y-51787000D01*
X91851000Y-49027000D02*
X91851000Y-51045000D01*
X93643000Y-51787000D02*
X95250000Y-51787000D01*
X95250000Y-49027000D02*
X95250000Y-53968000D01*
%TO.C,J3*%
X49805000Y-43147500D02*
X49805000Y-33107500D01*
X51054000Y-39011500D02*
X51098000Y-38967500D01*
X51281000Y-39238500D02*
X51325000Y-39194500D01*
X53605000Y-36460500D02*
X53649000Y-36417500D01*
X53832000Y-36687500D02*
X53876000Y-36644500D01*
X57245000Y-33107500D02*
X49805000Y-33107500D01*
X60205000Y-33107500D02*
X57845000Y-33107500D01*
X60205000Y-33727500D02*
X49805000Y-33727500D01*
X60205000Y-35227500D02*
X49805000Y-35227500D01*
X60205000Y-40127500D02*
X49805000Y-40127500D01*
X60205000Y-43147500D02*
X49805000Y-43147500D01*
X60205000Y-43147500D02*
X60205000Y-33107500D01*
X55765000Y-38367500D02*
G75*
G02*
X55764794Y-37288179I1780013J540000D01*
G01*
X57005000Y-36047500D02*
G75*
G02*
X58084321Y-36047294I540000J-1780013D01*
G01*
X58085000Y-39607500D02*
G75*
G02*
X57005679Y-39607706I-540000J1780000D01*
G01*
X59325000Y-37287500D02*
G75*
G02*
X59325206Y-38366821I-1780000J-540000D01*
G01*
X54325000Y-37827500D02*
G75*
G02*
X50605000Y-37827500I-1860000J0D01*
G01*
X50605000Y-37827500D02*
G75*
G02*
X54325000Y-37827500I1860000J0D01*
G01*
X57545000Y-33107500D02*
X57105000Y-32497500D01*
X57985000Y-32497500D01*
X57545000Y-33107500D01*
G36*
X57545000Y-33107500D02*
G01*
X57105000Y-32497500D01*
X57985000Y-32497500D01*
X57545000Y-33107500D01*
G37*
%TO.C,J4*%
X100150000Y-109650000D02*
X100150000Y-110900000D01*
X100440000Y-109940000D02*
X100440000Y-115910000D01*
X100440000Y-115910000D02*
X113060000Y-115910000D01*
X100450000Y-109950000D02*
X100450000Y-110700000D01*
X100450000Y-110700000D02*
X102250000Y-110700000D01*
X100450000Y-112200000D02*
X101200000Y-112200000D01*
X101200000Y-112200000D02*
X101200000Y-115150000D01*
X101200000Y-115150000D02*
X106750000Y-115150000D01*
X101400000Y-109650000D02*
X100150000Y-109650000D01*
X102250000Y-109950000D02*
X100450000Y-109950000D01*
X102250000Y-110700000D02*
X102250000Y-109950000D01*
X103750000Y-109950000D02*
X103750000Y-110700000D01*
X103750000Y-110700000D02*
X109750000Y-110700000D01*
X109750000Y-109950000D02*
X103750000Y-109950000D01*
X109750000Y-110700000D02*
X109750000Y-109950000D01*
X111250000Y-109950000D02*
X111250000Y-110700000D01*
X111250000Y-110700000D02*
X113050000Y-110700000D01*
X112300000Y-112200000D02*
X112300000Y-115150000D01*
X112300000Y-115150000D02*
X106750000Y-115150000D01*
X113050000Y-109950000D02*
X111250000Y-109950000D01*
X113050000Y-110700000D02*
X113050000Y-109950000D01*
X113050000Y-112200000D02*
X112300000Y-112200000D01*
X113060000Y-109940000D02*
X100440000Y-109940000D01*
X113060000Y-115910000D02*
X113060000Y-109940000D01*
%TO.C,M1*%
X72833800Y-43140700D02*
X72833800Y-33100700D01*
X74082800Y-39004700D02*
X74126800Y-38960700D01*
X74309800Y-39231700D02*
X74353800Y-39187700D01*
X76633800Y-36453700D02*
X76677800Y-36410700D01*
X76860800Y-36680700D02*
X76904800Y-36637700D01*
X80273800Y-33100700D02*
X72833800Y-33100700D01*
X83233800Y-33100700D02*
X80873800Y-33100700D01*
X83233800Y-33720700D02*
X72833800Y-33720700D01*
X83233800Y-35220700D02*
X72833800Y-35220700D01*
X83233800Y-40120700D02*
X72833800Y-40120700D01*
X83233800Y-43140700D02*
X72833800Y-43140700D01*
X83233800Y-43140700D02*
X83233800Y-33100700D01*
X78793800Y-38360700D02*
G75*
G02*
X78793594Y-37281379I1780013J540000D01*
G01*
X80033800Y-36040700D02*
G75*
G02*
X81113121Y-36040494I540000J-1780013D01*
G01*
X81113800Y-39600700D02*
G75*
G02*
X80034479Y-39600906I-540000J1780000D01*
G01*
X82353800Y-37280700D02*
G75*
G02*
X82354006Y-38360021I-1780000J-540000D01*
G01*
X77353800Y-37820700D02*
G75*
G02*
X73633800Y-37820700I-1860000J0D01*
G01*
X73633800Y-37820700D02*
G75*
G02*
X77353800Y-37820700I1860000J0D01*
G01*
X80573800Y-33100700D02*
X80133800Y-32490700D01*
X81013800Y-32490700D01*
X80573800Y-33100700D01*
G36*
X80573800Y-33100700D02*
G01*
X80133800Y-32490700D01*
X81013800Y-32490700D01*
X80573800Y-33100700D01*
G37*
%TO.C,Q5*%
X70250000Y-49027000D02*
X70250000Y-53968000D01*
X70250000Y-49027000D02*
X80750000Y-49027000D01*
X70250000Y-51787000D02*
X71857000Y-51787000D01*
X70250000Y-53968000D02*
X80750000Y-53968000D01*
X73650000Y-49027000D02*
X73650000Y-51045000D01*
X74063000Y-51787000D02*
X74398000Y-51787000D01*
X76603000Y-51787000D02*
X76938000Y-51787000D01*
X77351000Y-49027000D02*
X77351000Y-51045000D01*
X79143000Y-51787000D02*
X80750000Y-51787000D01*
X80750000Y-49027000D02*
X80750000Y-53968000D01*
%TO.C,U2*%
X98065000Y-51510000D02*
X98065000Y-72090000D01*
X98065000Y-72090000D02*
X110895000Y-72090000D01*
X100735000Y-72090000D02*
X100735000Y-51510000D01*
X110895000Y-69420000D02*
X110895000Y-51510000D01*
X110895000Y-69420000D02*
X113565000Y-69420000D01*
X110895000Y-72090000D02*
X110895000Y-69420000D01*
X112165000Y-72090000D02*
X113565000Y-72090000D01*
X113565000Y-51510000D02*
X98065000Y-51510000D01*
X113565000Y-69420000D02*
X113565000Y-51510000D01*
X113565000Y-72090000D02*
X113565000Y-70690000D01*
%TO.C,R2*%
X61353000Y-43147500D02*
X61353000Y-33107500D01*
X62602000Y-39011500D02*
X62646000Y-38967500D01*
X62829000Y-39238500D02*
X62873000Y-39194500D01*
X65153000Y-36460500D02*
X65197000Y-36417500D01*
X65380000Y-36687500D02*
X65424000Y-36644500D01*
X68793000Y-33107500D02*
X61353000Y-33107500D01*
X71753000Y-33107500D02*
X69393000Y-33107500D01*
X71753000Y-33727500D02*
X61353000Y-33727500D01*
X71753000Y-35227500D02*
X61353000Y-35227500D01*
X71753000Y-40127500D02*
X61353000Y-40127500D01*
X71753000Y-43147500D02*
X61353000Y-43147500D01*
X71753000Y-43147500D02*
X71753000Y-33107500D01*
X67313000Y-38367500D02*
G75*
G02*
X67312794Y-37288179I1780013J540000D01*
G01*
X68553000Y-36047500D02*
G75*
G02*
X69632321Y-36047294I540000J-1780013D01*
G01*
X69633000Y-39607500D02*
G75*
G02*
X68553679Y-39607706I-540000J1780000D01*
G01*
X70873000Y-37287500D02*
G75*
G02*
X70873206Y-38366821I-1780000J-540000D01*
G01*
X65873000Y-37827500D02*
G75*
G02*
X62153000Y-37827500I-1860000J0D01*
G01*
X62153000Y-37827500D02*
G75*
G02*
X65873000Y-37827500I1860000J0D01*
G01*
X69093000Y-33107500D02*
X68653000Y-32497500D01*
X69533000Y-32497500D01*
X69093000Y-33107500D01*
G36*
X69093000Y-33107500D02*
G01*
X68653000Y-32497500D01*
X69533000Y-32497500D01*
X69093000Y-33107500D01*
G37*
%TO.C,M2*%
X121040000Y-33090000D02*
X121040000Y-39060000D01*
X121040000Y-39060000D02*
X133660000Y-39060000D01*
X121050000Y-36800000D02*
X121800000Y-36800000D01*
X121050000Y-38300000D02*
X121050000Y-39050000D01*
X121050000Y-39050000D02*
X122850000Y-39050000D01*
X121800000Y-33850000D02*
X127350000Y-33850000D01*
X121800000Y-36800000D02*
X121800000Y-33850000D01*
X122850000Y-38300000D02*
X121050000Y-38300000D01*
X122850000Y-39050000D02*
X122850000Y-38300000D01*
X124350000Y-38300000D02*
X124350000Y-39050000D01*
X124350000Y-39050000D02*
X130350000Y-39050000D01*
X130350000Y-38300000D02*
X124350000Y-38300000D01*
X130350000Y-39050000D02*
X130350000Y-38300000D01*
X131850000Y-38300000D02*
X131850000Y-39050000D01*
X131850000Y-39050000D02*
X133650000Y-39050000D01*
X132700000Y-39350000D02*
X133950000Y-39350000D01*
X132900000Y-33850000D02*
X127350000Y-33850000D01*
X132900000Y-36800000D02*
X132900000Y-33850000D01*
X133650000Y-36800000D02*
X132900000Y-36800000D01*
X133650000Y-38300000D02*
X131850000Y-38300000D01*
X133650000Y-39050000D02*
X133650000Y-38300000D01*
X133660000Y-33090000D02*
X121040000Y-33090000D01*
X133660000Y-39060000D02*
X133660000Y-33090000D01*
X133950000Y-39350000D02*
X133950000Y-38100000D01*
%TO.C,JP5V7*%
X57850000Y-58500000D02*
X57850000Y-57900000D01*
X58550000Y-57200000D02*
X59950000Y-57200000D01*
X59950000Y-59200000D02*
X58550000Y-59200000D01*
X60650000Y-57900000D02*
X60650000Y-58500000D01*
X57850000Y-57900000D02*
G75*
G02*
X58550000Y-57200000I699999J1D01*
G01*
X58550000Y-59200000D02*
G75*
G02*
X57850000Y-58500000I-1J699999D01*
G01*
X59950000Y-57200000D02*
G75*
G02*
X60650000Y-57900000I0J-700000D01*
G01*
X60650000Y-58500000D02*
G75*
G02*
X59950000Y-59200000I-700000J0D01*
G01*
%TO.C,D2*%
X127260000Y-98500000D02*
X128280000Y-98500000D01*
X128280000Y-97030000D02*
X128280000Y-99970000D01*
X128280000Y-99970000D02*
X133720000Y-99970000D01*
X132700000Y-99970000D02*
X132700000Y-97030000D01*
X132820000Y-99970000D02*
X132820000Y-97030000D01*
X132940000Y-99970000D02*
X132940000Y-97030000D01*
X133720000Y-97030000D02*
X128280000Y-97030000D01*
X133720000Y-99970000D02*
X133720000Y-97030000D01*
X134740000Y-98500000D02*
X133720000Y-98500000D01*
%TO.C,F2*%
D10*
X51731468Y-48843262D02*
X66962915Y-48843262D01*
X66962915Y-53800000D01*
X51731468Y-53800000D01*
X51731468Y-48843262D01*
D13*
%TO.C,U3*%
X41690000Y-53840000D02*
X41690000Y-61460000D01*
X41690000Y-61460000D02*
X47660000Y-61460000D01*
X42450000Y-54600000D02*
X42450000Y-57650000D01*
X42450000Y-60700000D02*
X42450000Y-57650000D01*
X45400000Y-53850000D02*
X45400000Y-54600000D01*
X45400000Y-54600000D02*
X42450000Y-54600000D01*
X45400000Y-60700000D02*
X42450000Y-60700000D01*
X45400000Y-61450000D02*
X45400000Y-60700000D01*
X46900000Y-53850000D02*
X46900000Y-55650000D01*
X46900000Y-55650000D02*
X47650000Y-55650000D01*
X46900000Y-57150000D02*
X46900000Y-58150000D01*
X46900000Y-58150000D02*
X47650000Y-58150000D01*
X46900000Y-59650000D02*
X46900000Y-61450000D01*
X46900000Y-61450000D02*
X47650000Y-61450000D01*
X47650000Y-53850000D02*
X46900000Y-53850000D01*
X47650000Y-55650000D02*
X47650000Y-53850000D01*
X47650000Y-57150000D02*
X46900000Y-57150000D01*
X47650000Y-58150000D02*
X47650000Y-57150000D01*
X47650000Y-59650000D02*
X46900000Y-59650000D01*
X47650000Y-61450000D02*
X47650000Y-59650000D01*
X47660000Y-53840000D02*
X41690000Y-53840000D01*
X47660000Y-61460000D02*
X47660000Y-53840000D01*
X47950000Y-53550000D02*
X46700000Y-53550000D01*
X47950000Y-54800000D02*
X47950000Y-53550000D01*
%TO.C,M4*%
X107440000Y-33090000D02*
X107440000Y-39060000D01*
X107440000Y-39060000D02*
X120060000Y-39060000D01*
X107450000Y-36800000D02*
X108200000Y-36800000D01*
X107450000Y-38300000D02*
X107450000Y-39050000D01*
X107450000Y-39050000D02*
X109250000Y-39050000D01*
X108200000Y-33850000D02*
X113750000Y-33850000D01*
X108200000Y-36800000D02*
X108200000Y-33850000D01*
X109250000Y-38300000D02*
X107450000Y-38300000D01*
X109250000Y-39050000D02*
X109250000Y-38300000D01*
X110750000Y-38300000D02*
X110750000Y-39050000D01*
X110750000Y-39050000D02*
X116750000Y-39050000D01*
X116750000Y-38300000D02*
X110750000Y-38300000D01*
X116750000Y-39050000D02*
X116750000Y-38300000D01*
X118250000Y-38300000D02*
X118250000Y-39050000D01*
X118250000Y-39050000D02*
X120050000Y-39050000D01*
X119100000Y-39350000D02*
X120350000Y-39350000D01*
X119300000Y-33850000D02*
X113750000Y-33850000D01*
X119300000Y-36800000D02*
X119300000Y-33850000D01*
X120050000Y-36800000D02*
X119300000Y-36800000D01*
X120050000Y-38300000D02*
X118250000Y-38300000D01*
X120050000Y-39050000D02*
X120050000Y-38300000D01*
X120060000Y-33090000D02*
X107440000Y-33090000D01*
X120060000Y-39060000D02*
X120060000Y-33090000D01*
X120350000Y-39350000D02*
X120350000Y-38100000D01*
%TD*%
M02*
