%TF.GenerationSoftware,KiCad,Pcbnew,9.0.0*%
%TF.CreationDate,2025-04-09T12:02:38+02:00*%
%TF.ProjectId,LocalRoboCaster,4c6f6361-6c52-46f6-926f-436173746572,rev?*%
%TF.SameCoordinates,Original*%
%TF.FileFunction,Legend,Bot*%
%TF.FilePolarity,Positive*%
%FSLAX46Y46*%
G04 Gerber Fmt 4.6, Leading zero omitted, Abs format (unit mm)*
G04 Created by KiCad (PCBNEW 9.0.0) date 2025-04-09 12:02:38*
%MOMM*%
%LPD*%
G01*
G04 APERTURE LIST*
%ADD10C,0.150000*%
%ADD11C,0.100000*%
%ADD12C,0.300000*%
%ADD13C,0.120000*%
%ADD14C,0.000000*%
G04 APERTURE END LIST*
D10*
G36*
X123017664Y-33685000D02*
G01*
X123017664Y-33814204D01*
X123287003Y-33814204D01*
X123359936Y-33819978D01*
X123410206Y-33834898D01*
X123443868Y-33856580D01*
X123469300Y-33887440D01*
X123484659Y-33924008D01*
X123490030Y-33968016D01*
X123490030Y-33970031D01*
X123485272Y-34017825D01*
X123471963Y-34056501D01*
X123450707Y-34088000D01*
X123421388Y-34111122D01*
X123379644Y-34126344D01*
X123321136Y-34132086D01*
X123017664Y-34132086D01*
X123017664Y-34257871D01*
X123321136Y-34257871D01*
X123371382Y-34262518D01*
X123409280Y-34275089D01*
X123437701Y-34294446D01*
X123458823Y-34321286D01*
X123472170Y-34356130D01*
X123477024Y-34401425D01*
X123471621Y-34449122D01*
X123456794Y-34485321D01*
X123433244Y-34512800D01*
X123401928Y-34532155D01*
X123359333Y-34544957D01*
X123302024Y-34549741D01*
X123017664Y-34549741D01*
X123017664Y-34678946D01*
X123327303Y-34678946D01*
X123401292Y-34673596D01*
X123460667Y-34658863D01*
X123508191Y-34636109D01*
X123546023Y-34605795D01*
X123576742Y-34567202D01*
X123599017Y-34522492D01*
X123612930Y-34470484D01*
X123617830Y-34409607D01*
X123612961Y-34361319D01*
X123598497Y-34316154D01*
X123574050Y-34273197D01*
X123540713Y-34238008D01*
X123495877Y-34211622D01*
X123436663Y-34194307D01*
X123494776Y-34178711D01*
X123541833Y-34151690D01*
X123579911Y-34112913D01*
X123608165Y-34065687D01*
X123625072Y-34014386D01*
X123630836Y-33957758D01*
X123630836Y-33955682D01*
X123625593Y-33896008D01*
X123610579Y-33844346D01*
X123586245Y-33799198D01*
X123552190Y-33759494D01*
X123510919Y-33727832D01*
X123462591Y-33704695D01*
X123405845Y-33690147D01*
X123338905Y-33685000D01*
X123017664Y-33685000D01*
G37*
G36*
X122935599Y-33685000D02*
G01*
X122935599Y-34678946D01*
X123074390Y-34678946D01*
X123074390Y-33685000D01*
X122935599Y-33685000D01*
G37*
G36*
X123825620Y-34107479D02*
G01*
X124285041Y-34107479D01*
X124285041Y-33974855D01*
X123825620Y-33974855D01*
X123825620Y-34107479D01*
G37*
G36*
X86750693Y-33764753D02*
G01*
X86750693Y-35257870D01*
X87181720Y-35257870D01*
X87181720Y-33764753D01*
X86750693Y-33764753D01*
G37*
G36*
X91879682Y-33609170D02*
G01*
X91879682Y-35413255D01*
X92310710Y-35413255D01*
X92310710Y-33609170D01*
X91879682Y-33609170D01*
G37*
G36*
X91193253Y-34737939D02*
G01*
X92997139Y-34737939D01*
X92997139Y-34284685D01*
X91193253Y-34284685D01*
X91193253Y-34737939D01*
G37*
G36*
X132254874Y-101278000D02*
G01*
X132254874Y-101132773D01*
X131838977Y-100578244D01*
X131806562Y-100529334D01*
X131782777Y-100479838D01*
X131767479Y-100429257D01*
X131762700Y-100383851D01*
X131762700Y-100382239D01*
X131767769Y-100336435D01*
X131781886Y-100300265D01*
X131804539Y-100271524D01*
X131834725Y-100250432D01*
X131873535Y-100236993D01*
X131923460Y-100232103D01*
X131969862Y-100237176D01*
X132008549Y-100251611D01*
X132041210Y-100275187D01*
X132066764Y-100306514D01*
X132085358Y-100346420D01*
X132096531Y-100396967D01*
X132096531Y-100397773D01*
X132269675Y-100397773D01*
X132269675Y-100396967D01*
X132253310Y-100320723D01*
X132228805Y-100256608D01*
X132196775Y-100202797D01*
X132157274Y-100157877D01*
X132109788Y-100121268D01*
X132056112Y-100094933D01*
X131995063Y-100078640D01*
X131925072Y-100072954D01*
X131844518Y-100078733D01*
X131777773Y-100094872D01*
X131722414Y-100120157D01*
X131676531Y-100154214D01*
X131639167Y-100197475D01*
X131611962Y-100248964D01*
X131594836Y-100310337D01*
X131588750Y-100383851D01*
X131588750Y-100384657D01*
X131595066Y-100448031D01*
X131615055Y-100517134D01*
X131646158Y-100584443D01*
X131688035Y-100649612D01*
X132033370Y-101118851D01*
X131582229Y-101118851D01*
X131582229Y-101278000D01*
X132254874Y-101278000D01*
G37*
G36*
X131434950Y-101095037D02*
G01*
X131434950Y-100949884D01*
X131034587Y-100086070D01*
X130862323Y-100086070D01*
X131252794Y-100940065D01*
X130667930Y-100940065D01*
X130667930Y-101095037D01*
X131434950Y-101095037D01*
G37*
G36*
X130920575Y-101278806D02*
G01*
X130920575Y-100576632D01*
X130757323Y-100576632D01*
X130757323Y-101278806D01*
X130920575Y-101278806D01*
G37*
G36*
X130172679Y-101278000D02*
G01*
X130561465Y-100085264D01*
X130379382Y-100085264D01*
X130093104Y-101020445D01*
X129806754Y-100085264D01*
X129624671Y-100085264D01*
X130013530Y-101278000D01*
X130172679Y-101278000D01*
G37*
G36*
X111883470Y-33685000D02*
G01*
X111883470Y-33814204D01*
X112152809Y-33814204D01*
X112225742Y-33819978D01*
X112276012Y-33834898D01*
X112309674Y-33856580D01*
X112335106Y-33887440D01*
X112350465Y-33924008D01*
X112355836Y-33968016D01*
X112355836Y-33970031D01*
X112351078Y-34017825D01*
X112337769Y-34056501D01*
X112316513Y-34088000D01*
X112287194Y-34111122D01*
X112245450Y-34126344D01*
X112186942Y-34132086D01*
X111883470Y-34132086D01*
X111883470Y-34257871D01*
X112186942Y-34257871D01*
X112237188Y-34262518D01*
X112275086Y-34275089D01*
X112303507Y-34294446D01*
X112324629Y-34321286D01*
X112337976Y-34356130D01*
X112342830Y-34401425D01*
X112337427Y-34449122D01*
X112322600Y-34485321D01*
X112299050Y-34512800D01*
X112267734Y-34532155D01*
X112225139Y-34544957D01*
X112167830Y-34549741D01*
X111883470Y-34549741D01*
X111883470Y-34678946D01*
X112193109Y-34678946D01*
X112267098Y-34673596D01*
X112326473Y-34658863D01*
X112373997Y-34636109D01*
X112411829Y-34605795D01*
X112442548Y-34567202D01*
X112464823Y-34522492D01*
X112478736Y-34470484D01*
X112483636Y-34409607D01*
X112478767Y-34361319D01*
X112464303Y-34316154D01*
X112439856Y-34273197D01*
X112406519Y-34238008D01*
X112361683Y-34211622D01*
X112302469Y-34194307D01*
X112360582Y-34178711D01*
X112407639Y-34151690D01*
X112445717Y-34112913D01*
X112473971Y-34065687D01*
X112490878Y-34014386D01*
X112496642Y-33957758D01*
X112496642Y-33955682D01*
X112491399Y-33896008D01*
X112476385Y-33844346D01*
X112452051Y-33799198D01*
X112417996Y-33759494D01*
X112376725Y-33727832D01*
X112328397Y-33704695D01*
X112271651Y-33690147D01*
X112204711Y-33685000D01*
X111883470Y-33685000D01*
G37*
G36*
X111801405Y-33685000D02*
G01*
X111801405Y-34678946D01*
X111940196Y-34678946D01*
X111940196Y-33685000D01*
X111801405Y-33685000D01*
G37*
G36*
X112677748Y-34209328D02*
G01*
X113232851Y-34209328D01*
X113232851Y-34076704D01*
X112677748Y-34076704D01*
X112677748Y-34209328D01*
G37*
G36*
X113025061Y-34420537D02*
G01*
X113025061Y-33865495D01*
X112885599Y-33865495D01*
X112885599Y-34420537D01*
X113025061Y-34420537D01*
G37*
D11*
G36*
X92059252Y-106340206D02*
G01*
X92103562Y-106337327D01*
X92142592Y-106329086D01*
X92177124Y-106315879D01*
X92208769Y-106297152D01*
X92235680Y-106273845D01*
X92258310Y-106245635D01*
X92275854Y-106213796D01*
X92289073Y-106176867D01*
X92297682Y-106134016D01*
X92183963Y-106134016D01*
X92175522Y-106166626D01*
X92161963Y-106191134D01*
X92143516Y-106209243D01*
X92120520Y-106222066D01*
X92092809Y-106230150D01*
X92059252Y-106233032D01*
X92023593Y-106229411D01*
X91995551Y-106219393D01*
X91973425Y-106203528D01*
X91956879Y-106182002D01*
X91946524Y-106154827D01*
X91942797Y-106120339D01*
X91942797Y-106096305D01*
X91946411Y-106057580D01*
X91956316Y-106027510D01*
X91971764Y-106004177D01*
X91993074Y-105986478D01*
X92019861Y-105975519D01*
X92053781Y-105971595D01*
X92110104Y-105971595D01*
X92110104Y-105865496D01*
X92053781Y-105865496D01*
X92023661Y-105862112D01*
X92000012Y-105852703D01*
X91981339Y-105837603D01*
X91967732Y-105817554D01*
X91959048Y-105791844D01*
X91955889Y-105758859D01*
X91955889Y-105734288D01*
X91959188Y-105704066D01*
X91968351Y-105680314D01*
X91983000Y-105661553D01*
X92002542Y-105647764D01*
X92027606Y-105638996D01*
X92059790Y-105635810D01*
X92087012Y-105638576D01*
X92110543Y-105646535D01*
X92131157Y-105659599D01*
X92147800Y-105677366D01*
X92161314Y-105701866D01*
X92171360Y-105734826D01*
X92284591Y-105734826D01*
X92272810Y-105686217D01*
X92256083Y-105645341D01*
X92234766Y-105611066D01*
X92208875Y-105582516D01*
X92178004Y-105559248D01*
X92143380Y-105542538D01*
X92104290Y-105532225D01*
X92059790Y-105528636D01*
X92008447Y-105532461D01*
X91965787Y-105543169D01*
X91930266Y-105560008D01*
X91900690Y-105582809D01*
X91876787Y-105611511D01*
X91859315Y-105645706D01*
X91848290Y-105686499D01*
X91844367Y-105735363D01*
X91844367Y-105748503D01*
X91848088Y-105787168D01*
X91858876Y-105821399D01*
X91876656Y-105852111D01*
X91900589Y-105878396D01*
X91930682Y-105899978D01*
X91967954Y-105916933D01*
X91927120Y-105930409D01*
X91893910Y-105951531D01*
X91867033Y-105980632D01*
X91847700Y-106015624D01*
X91835548Y-106057468D01*
X91831227Y-106107785D01*
X91831227Y-106120925D01*
X91835379Y-106172783D01*
X91847049Y-106216073D01*
X91865537Y-106252357D01*
X91890822Y-106282809D01*
X91922122Y-106306966D01*
X91959720Y-106324808D01*
X92004885Y-106336153D01*
X92059252Y-106340206D01*
G37*
G36*
X91686928Y-106332000D02*
G01*
X91686928Y-106214958D01*
X91569887Y-106214958D01*
X91569887Y-106332000D01*
X91686928Y-106332000D01*
G37*
G36*
X91214367Y-106340206D02*
G01*
X91258677Y-106337327D01*
X91297707Y-106329086D01*
X91332239Y-106315879D01*
X91363884Y-106297152D01*
X91390795Y-106273845D01*
X91413425Y-106245635D01*
X91430969Y-106213796D01*
X91444189Y-106176867D01*
X91452797Y-106134016D01*
X91339078Y-106134016D01*
X91330637Y-106166626D01*
X91317078Y-106191134D01*
X91298631Y-106209243D01*
X91275635Y-106222066D01*
X91247924Y-106230150D01*
X91214367Y-106233032D01*
X91178708Y-106229411D01*
X91150666Y-106219393D01*
X91128540Y-106203528D01*
X91111994Y-106182002D01*
X91101639Y-106154827D01*
X91097912Y-106120339D01*
X91097912Y-106096305D01*
X91101527Y-106057580D01*
X91111431Y-106027510D01*
X91126880Y-106004177D01*
X91148189Y-105986478D01*
X91174976Y-105975519D01*
X91208896Y-105971595D01*
X91265219Y-105971595D01*
X91265219Y-105865496D01*
X91208896Y-105865496D01*
X91178776Y-105862112D01*
X91155127Y-105852703D01*
X91136454Y-105837603D01*
X91122847Y-105817554D01*
X91114164Y-105791844D01*
X91111004Y-105758859D01*
X91111004Y-105734288D01*
X91114303Y-105704066D01*
X91123466Y-105680314D01*
X91138115Y-105661553D01*
X91157657Y-105647764D01*
X91182721Y-105638996D01*
X91214905Y-105635810D01*
X91242127Y-105638576D01*
X91265658Y-105646535D01*
X91286273Y-105659599D01*
X91302915Y-105677366D01*
X91316429Y-105701866D01*
X91326475Y-105734826D01*
X91439706Y-105734826D01*
X91427925Y-105686217D01*
X91411199Y-105645341D01*
X91389881Y-105611066D01*
X91363991Y-105582516D01*
X91333119Y-105559248D01*
X91298495Y-105542538D01*
X91259405Y-105532225D01*
X91214905Y-105528636D01*
X91163563Y-105532461D01*
X91120902Y-105543169D01*
X91085381Y-105560008D01*
X91055805Y-105582809D01*
X91031902Y-105611511D01*
X91014430Y-105645706D01*
X91003405Y-105686499D01*
X90999483Y-105735363D01*
X90999483Y-105748503D01*
X91003203Y-105787168D01*
X91013992Y-105821399D01*
X91031771Y-105852111D01*
X91055704Y-105878396D01*
X91085797Y-105899978D01*
X91123069Y-105916933D01*
X91082235Y-105930409D01*
X91049025Y-105951531D01*
X91022148Y-105980632D01*
X91002815Y-106015624D01*
X90990663Y-106057468D01*
X90986342Y-106107785D01*
X90986342Y-106120925D01*
X90990494Y-106172783D01*
X91002164Y-106216073D01*
X91020652Y-106252357D01*
X91045938Y-106282809D01*
X91077237Y-106306966D01*
X91114835Y-106324808D01*
X91160000Y-106336153D01*
X91214367Y-106340206D01*
G37*
G36*
X90634779Y-106332000D02*
G01*
X90893970Y-105536842D01*
X90772581Y-105536842D01*
X90581730Y-106160297D01*
X90390829Y-105536842D01*
X90269441Y-105536842D01*
X90528680Y-106332000D01*
X90634779Y-106332000D01*
G37*
G36*
X89129385Y-106340206D02*
G01*
X89174281Y-106336696D01*
X89213476Y-106326646D01*
X89247941Y-106310436D01*
X89278422Y-106287987D01*
X89304052Y-106260211D01*
X89324810Y-106226994D01*
X89340723Y-106187498D01*
X89351451Y-106140611D01*
X89351451Y-106140025D01*
X89239881Y-106140025D01*
X89239881Y-106140611D01*
X89233037Y-106168383D01*
X89221364Y-106190740D01*
X89204905Y-106208706D01*
X89184326Y-106221888D01*
X89159519Y-106230110D01*
X89129385Y-106233032D01*
X89095354Y-106228784D01*
X89068289Y-106216823D01*
X89046538Y-106197226D01*
X89031004Y-106171732D01*
X89020957Y-106138779D01*
X89017278Y-106096305D01*
X89017278Y-106029578D01*
X89020964Y-105987105D01*
X89031015Y-105954263D01*
X89046538Y-105928950D01*
X89068270Y-105909499D01*
X89095334Y-105897613D01*
X89129385Y-105893388D01*
X89157573Y-105897410D01*
X89185219Y-105909801D01*
X89209969Y-105929127D01*
X89232211Y-105955768D01*
X89333914Y-105955768D01*
X89333914Y-105536842D01*
X88928715Y-105536842D01*
X88928715Y-105642942D01*
X89222393Y-105642942D01*
X89222393Y-105821776D01*
X89200412Y-105806771D01*
X89175889Y-105795545D01*
X89149853Y-105788536D01*
X89123377Y-105786214D01*
X89072081Y-105790605D01*
X89029171Y-105802984D01*
X88993062Y-105822721D01*
X88962616Y-105849962D01*
X88938837Y-105883126D01*
X88921131Y-105923144D01*
X88909812Y-105971388D01*
X88905756Y-106029578D01*
X88905756Y-106096305D01*
X88909920Y-106154677D01*
X88921546Y-106203066D01*
X88939758Y-106243216D01*
X88964277Y-106276508D01*
X88995467Y-106303655D01*
X89032523Y-106323391D01*
X89076625Y-106335800D01*
X89129385Y-106340206D01*
G37*
G36*
X88548234Y-106332000D02*
G01*
X88807424Y-105536842D01*
X88686036Y-105536842D01*
X88495184Y-106160297D01*
X88304284Y-105536842D01*
X88182895Y-105536842D01*
X88442135Y-106332000D01*
X88548234Y-106332000D01*
G37*
D10*
G36*
X96330561Y-107625293D02*
G01*
X96363913Y-107637365D01*
X96391302Y-107657518D01*
X96411418Y-107685237D01*
X96423436Y-107718929D01*
X96427782Y-107761807D01*
X96427782Y-107955247D01*
X96423438Y-107998807D01*
X96411418Y-108033161D01*
X96391279Y-108061575D01*
X96363913Y-108082376D01*
X96330516Y-108094952D01*
X96288320Y-108099473D01*
X96244124Y-108094410D01*
X96209177Y-108080272D01*
X96181341Y-108057463D01*
X96161082Y-108027262D01*
X96148136Y-107988523D01*
X96143423Y-107938822D01*
X96143423Y-107785010D01*
X96148141Y-107734381D01*
X96161097Y-107694874D01*
X96181341Y-107664049D01*
X96209263Y-107640590D01*
X96244212Y-107626113D01*
X96288320Y-107620940D01*
X96330561Y-107625293D01*
G37*
G36*
X97476829Y-107625440D02*
G01*
X97511801Y-107639917D01*
X97539759Y-107663377D01*
X97560003Y-107694202D01*
X97572959Y-107733709D01*
X97577678Y-107784338D01*
X97577678Y-107938822D01*
X97572951Y-107988982D01*
X97559992Y-108027922D01*
X97539759Y-108058135D01*
X97511886Y-108080946D01*
X97476917Y-108095083D01*
X97432720Y-108100144D01*
X97390606Y-108095548D01*
X97357249Y-108082742D01*
X97329879Y-108061529D01*
X97309743Y-108032489D01*
X97297657Y-107997499D01*
X97293318Y-107953843D01*
X97293318Y-107763150D01*
X97297661Y-107720184D01*
X97309743Y-107685908D01*
X97329860Y-107657578D01*
X97357249Y-107637060D01*
X97390565Y-107624713D01*
X97432720Y-107620268D01*
X97476829Y-107625440D01*
G37*
G36*
X93774462Y-107627099D02*
G01*
X93814487Y-107644462D01*
X93846868Y-107672903D01*
X93870099Y-107709966D01*
X93885096Y-107757937D01*
X93889197Y-107804183D01*
X93576125Y-107804183D01*
X93584547Y-107747959D01*
X93599791Y-107703851D01*
X93620944Y-107669483D01*
X93649584Y-107642522D01*
X93683508Y-107626504D01*
X93724442Y-107620940D01*
X93774462Y-107627099D01*
G37*
G36*
X95580415Y-107633182D02*
G01*
X95617302Y-107648333D01*
X95646938Y-107672903D01*
X95668432Y-107705277D01*
X95682210Y-107747009D01*
X95687238Y-107800764D01*
X95687238Y-107918306D01*
X95682226Y-107972068D01*
X95668458Y-108014051D01*
X95646938Y-108046838D01*
X95617250Y-108071806D01*
X95580362Y-108087163D01*
X95534098Y-108092634D01*
X95487393Y-108087137D01*
X95450435Y-108071759D01*
X95420952Y-108046838D01*
X95399607Y-108014075D01*
X95385937Y-107972092D01*
X95380958Y-107918306D01*
X95380958Y-107800764D01*
X95385952Y-107746984D01*
X95399633Y-107705252D01*
X95420952Y-107672903D01*
X95450383Y-107648379D01*
X95487339Y-107633208D01*
X95534098Y-107627779D01*
X95580415Y-107633182D01*
G37*
G36*
X98908782Y-108614561D02*
G01*
X92659990Y-108614561D01*
X92659990Y-107550537D01*
X92771101Y-107550537D01*
X92862020Y-107673574D01*
X92882750Y-107653865D01*
X92908548Y-107639441D01*
X92937993Y-107630839D01*
X92973456Y-107627779D01*
X93016199Y-107632252D01*
X93049809Y-107644647D01*
X93076343Y-107664354D01*
X93096110Y-107690861D01*
X93108477Y-107724064D01*
X93112918Y-107765898D01*
X93112918Y-108215000D01*
X93252381Y-108215000D01*
X93252381Y-107869762D01*
X93443501Y-107869762D01*
X93443501Y-107916290D01*
X93889961Y-107916290D01*
X93884794Y-107967078D01*
X93868859Y-108011229D01*
X93843754Y-108045495D01*
X93809757Y-108070913D01*
X93766768Y-108086878D01*
X93712168Y-108092634D01*
X93670276Y-108088424D01*
X93628088Y-108075537D01*
X93588591Y-108055017D01*
X93553533Y-108027665D01*
X93461942Y-108119317D01*
X93517999Y-108164280D01*
X93580216Y-108197597D01*
X93646600Y-108218463D01*
X93712168Y-108225258D01*
X93785951Y-108219473D01*
X93847435Y-108203236D01*
X93898849Y-108177572D01*
X93941879Y-108142581D01*
X93976121Y-108099032D01*
X94001395Y-108046603D01*
X94017466Y-107983496D01*
X94023212Y-107907376D01*
X94023212Y-107827386D01*
X94017629Y-107747807D01*
X94002049Y-107681880D01*
X93977677Y-107627235D01*
X93944932Y-107581983D01*
X93903072Y-107544883D01*
X93853501Y-107517996D01*
X93809603Y-107505413D01*
X94139044Y-107505413D01*
X94357824Y-108215000D01*
X94463093Y-108215000D01*
X94636017Y-107724865D01*
X94809002Y-108215000D01*
X94914271Y-108215000D01*
X95041953Y-107800764D01*
X95241495Y-107800764D01*
X95241495Y-107918306D01*
X95246905Y-107991422D01*
X95262047Y-108052196D01*
X95285853Y-108102810D01*
X95318065Y-108144963D01*
X95358708Y-108179057D01*
X95407130Y-108203961D01*
X95464894Y-108219670D01*
X95534098Y-108225258D01*
X95603256Y-108219631D01*
X95661005Y-108203806D01*
X95709444Y-108178700D01*
X95750131Y-108144291D01*
X95782339Y-108101823D01*
X95806149Y-108050878D01*
X95821292Y-107989758D01*
X95826701Y-107916290D01*
X95826701Y-107800764D01*
X95825481Y-107784338D01*
X96003960Y-107784338D01*
X96003960Y-107938822D01*
X96008563Y-108007265D01*
X96021400Y-108064030D01*
X96041438Y-108111103D01*
X96068257Y-108150092D01*
X96102858Y-108182386D01*
X96143659Y-108205627D01*
X96191902Y-108220130D01*
X96249363Y-108225258D01*
X96292628Y-108221560D01*
X96330826Y-108210896D01*
X96364890Y-108193506D01*
X96394612Y-108169578D01*
X96418667Y-108139869D01*
X96427782Y-108122174D01*
X96427782Y-108503450D01*
X96567245Y-108503450D01*
X96567245Y-108215000D01*
X97153855Y-108215000D01*
X97293318Y-108215000D01*
X97293318Y-108120381D01*
X97309130Y-108148120D01*
X97349677Y-108189415D01*
X97382797Y-108209913D01*
X97422871Y-108222758D01*
X97471676Y-108227334D01*
X97529514Y-108222168D01*
X97577926Y-108207579D01*
X97618734Y-108184226D01*
X97653210Y-108151802D01*
X97679827Y-108112674D01*
X97699758Y-108065297D01*
X97712549Y-108008021D01*
X97717140Y-107938822D01*
X97717140Y-107782262D01*
X97712627Y-107712592D01*
X97700077Y-107655081D01*
X97680983Y-107608667D01*
X97849703Y-107608667D01*
X97950209Y-107698914D01*
X97982443Y-107668606D01*
X98020002Y-107646280D01*
X98061319Y-107632405D01*
X98104693Y-107627779D01*
X98156634Y-107633286D01*
X98197503Y-107648564D01*
X98229806Y-107672903D01*
X98253720Y-107705590D01*
X98268805Y-107747112D01*
X98274258Y-107800031D01*
X98274258Y-107916962D01*
X98268774Y-107971304D01*
X98253656Y-108013699D01*
X98229806Y-108046838D01*
X98197451Y-108071568D01*
X98156580Y-108087057D01*
X98104693Y-108092634D01*
X98061383Y-108087702D01*
X98020002Y-108072850D01*
X97982534Y-108049028D01*
X97950209Y-108016735D01*
X97849703Y-108113822D01*
X97878787Y-108146249D01*
X97914189Y-108173656D01*
X97956743Y-108196193D01*
X98002431Y-108212101D01*
X98052219Y-108221888D01*
X98106769Y-108225258D01*
X98179608Y-108219605D01*
X98240290Y-108203745D01*
X98291007Y-108178700D01*
X98333426Y-108144596D01*
X98367342Y-108102061D01*
X98375310Y-108085795D01*
X98549520Y-108085795D01*
X98549520Y-108218419D01*
X98631525Y-108218419D01*
X98681763Y-108212530D01*
X98721783Y-108196013D01*
X98753951Y-108169204D01*
X98777286Y-108133925D01*
X98792226Y-108088608D01*
X98797671Y-108030413D01*
X98797671Y-107221053D01*
X98658208Y-107221053D01*
X98658208Y-108031817D01*
X98655140Y-108055199D01*
X98646912Y-108071446D01*
X98633564Y-108082099D01*
X98615160Y-108085795D01*
X98549520Y-108085795D01*
X98375310Y-108085795D01*
X98392280Y-108051152D01*
X98408085Y-107990187D01*
X98413721Y-107916962D01*
X98413721Y-107800031D01*
X98408089Y-107727552D01*
X98392296Y-107667238D01*
X98367365Y-107616891D01*
X98333426Y-107574839D01*
X98291071Y-107541189D01*
X98240378Y-107516439D01*
X98179674Y-107500750D01*
X98106769Y-107495155D01*
X98051784Y-107498578D01*
X98001891Y-107508498D01*
X97956376Y-107524586D01*
X97914154Y-107547375D01*
X97878856Y-107575331D01*
X97849703Y-107608667D01*
X97680983Y-107608667D01*
X97680573Y-107607670D01*
X97654614Y-107568672D01*
X97620753Y-107536091D01*
X97580991Y-107512759D01*
X97534153Y-107498256D01*
X97478515Y-107493140D01*
X97437530Y-107496827D01*
X97399369Y-107507717D01*
X97363355Y-107525929D01*
X97331127Y-107550402D01*
X97303047Y-107580919D01*
X97293318Y-107595941D01*
X97293318Y-107221053D01*
X97153855Y-107221053D01*
X97153855Y-108215000D01*
X96567245Y-108215000D01*
X96567245Y-107505413D01*
X96427782Y-107505413D01*
X96427782Y-107601856D01*
X96417934Y-107585952D01*
X96389957Y-107554238D01*
X96358051Y-107529043D01*
X96322157Y-107510231D01*
X96283892Y-107498973D01*
X96242524Y-107495155D01*
X96186518Y-107500290D01*
X96139546Y-107514819D01*
X96099838Y-107538152D01*
X96066181Y-107570687D01*
X96040362Y-107609665D01*
X96020951Y-107657076D01*
X96008455Y-107714613D01*
X96003960Y-107784338D01*
X95825481Y-107784338D01*
X95821295Y-107728007D01*
X95806160Y-107667519D01*
X95782357Y-107617128D01*
X95750131Y-107575144D01*
X95709507Y-107541193D01*
X95661093Y-107516381D01*
X95603323Y-107500725D01*
X95534098Y-107495155D01*
X95464873Y-107500725D01*
X95407102Y-107516381D01*
X95358688Y-107541193D01*
X95318065Y-107575144D01*
X95285839Y-107617128D01*
X95262035Y-107667519D01*
X95246901Y-107728007D01*
X95241495Y-107800764D01*
X95041953Y-107800764D01*
X95132990Y-107505413D01*
X94987421Y-107505413D01*
X94861636Y-108011973D01*
X94684560Y-107505413D01*
X94587474Y-107505413D01*
X94410459Y-108011973D01*
X94284674Y-107505413D01*
X94139044Y-107505413D01*
X93809603Y-107505413D01*
X93794671Y-107501133D01*
X93724442Y-107495155D01*
X93659399Y-107501699D01*
X93604406Y-107520350D01*
X93557384Y-107550676D01*
X93517018Y-107593646D01*
X93486675Y-107643973D01*
X93463701Y-107705262D01*
X93448850Y-107779670D01*
X93447395Y-107804183D01*
X93443501Y-107869762D01*
X93252381Y-107869762D01*
X93252381Y-107505413D01*
X93112918Y-107505413D01*
X93112918Y-107605671D01*
X93103083Y-107589557D01*
X93075002Y-107557009D01*
X93042882Y-107530753D01*
X93006663Y-107510909D01*
X92968502Y-107499128D01*
X92927660Y-107495155D01*
X92880606Y-107498800D01*
X92839855Y-107509199D01*
X92802846Y-107526620D01*
X92771101Y-107550537D01*
X92659990Y-107550537D01*
X92659990Y-107109942D01*
X98908782Y-107109942D01*
X98908782Y-108614561D01*
G37*
G36*
X114204746Y-33685000D02*
G01*
X114571171Y-34678946D01*
X114690056Y-34678946D01*
X115056482Y-33685000D01*
X114906089Y-33685000D01*
X114630583Y-34486849D01*
X114355138Y-33685000D01*
X114204746Y-33685000D01*
G37*
G36*
X114373579Y-33903047D02*
G01*
X114373579Y-34035671D01*
X114896503Y-34035671D01*
X114896503Y-33903047D01*
X114373579Y-33903047D01*
G37*
G36*
X115178725Y-34209328D02*
G01*
X115733828Y-34209328D01*
X115733828Y-34076704D01*
X115178725Y-34076704D01*
X115178725Y-34209328D01*
G37*
G36*
X115526038Y-34420537D02*
G01*
X115526038Y-33865495D01*
X115386576Y-33865495D01*
X115386576Y-34420537D01*
X115526038Y-34420537D01*
G37*
G36*
X42164753Y-103654306D02*
G01*
X43657870Y-103654306D01*
X43657870Y-103223279D01*
X42164753Y-103223279D01*
X42164753Y-103654306D01*
G37*
G36*
X42009170Y-98525317D02*
G01*
X43813255Y-98525317D01*
X43813255Y-98094289D01*
X42009170Y-98094289D01*
X42009170Y-98525317D01*
G37*
G36*
X43137939Y-99211746D02*
G01*
X43137939Y-97407860D01*
X42684685Y-97407860D01*
X42684685Y-99211746D01*
X43137939Y-99211746D01*
G37*
D11*
G36*
X85389385Y-102540206D02*
G01*
X85434281Y-102536696D01*
X85473476Y-102526646D01*
X85507941Y-102510436D01*
X85538422Y-102487987D01*
X85564052Y-102460211D01*
X85584810Y-102426994D01*
X85600723Y-102387498D01*
X85611451Y-102340611D01*
X85611451Y-102340025D01*
X85499881Y-102340025D01*
X85499881Y-102340611D01*
X85493037Y-102368383D01*
X85481364Y-102390740D01*
X85464905Y-102408706D01*
X85444326Y-102421888D01*
X85419519Y-102430110D01*
X85389385Y-102433032D01*
X85355354Y-102428784D01*
X85328289Y-102416823D01*
X85306538Y-102397226D01*
X85291004Y-102371732D01*
X85280957Y-102338779D01*
X85277278Y-102296305D01*
X85277278Y-102229578D01*
X85280964Y-102187105D01*
X85291015Y-102154263D01*
X85306538Y-102128950D01*
X85328270Y-102109499D01*
X85355334Y-102097613D01*
X85389385Y-102093388D01*
X85417573Y-102097410D01*
X85445219Y-102109801D01*
X85469969Y-102129127D01*
X85492211Y-102155768D01*
X85593914Y-102155768D01*
X85593914Y-101736842D01*
X85188715Y-101736842D01*
X85188715Y-101842942D01*
X85482393Y-101842942D01*
X85482393Y-102021776D01*
X85460412Y-102006771D01*
X85435889Y-101995545D01*
X85409853Y-101988536D01*
X85383377Y-101986214D01*
X85332081Y-101990605D01*
X85289171Y-102002984D01*
X85253062Y-102022721D01*
X85222616Y-102049962D01*
X85198837Y-102083126D01*
X85181131Y-102123144D01*
X85169812Y-102171388D01*
X85165756Y-102229578D01*
X85165756Y-102296305D01*
X85169920Y-102354677D01*
X85181546Y-102403066D01*
X85199758Y-102443216D01*
X85224277Y-102476508D01*
X85255467Y-102503655D01*
X85292523Y-102523391D01*
X85336625Y-102535800D01*
X85389385Y-102540206D01*
G37*
G36*
X84808234Y-102532000D02*
G01*
X85067424Y-101736842D01*
X84946036Y-101736842D01*
X84755184Y-102360297D01*
X84564284Y-101736842D01*
X84442895Y-101736842D01*
X84702135Y-102532000D01*
X84808234Y-102532000D01*
G37*
G36*
X106929385Y-106240206D02*
G01*
X106974281Y-106236696D01*
X107013476Y-106226646D01*
X107047941Y-106210436D01*
X107078422Y-106187987D01*
X107104052Y-106160211D01*
X107124810Y-106126994D01*
X107140723Y-106087498D01*
X107151451Y-106040611D01*
X107151451Y-106040025D01*
X107039881Y-106040025D01*
X107039881Y-106040611D01*
X107033037Y-106068383D01*
X107021364Y-106090740D01*
X107004905Y-106108706D01*
X106984326Y-106121888D01*
X106959519Y-106130110D01*
X106929385Y-106133032D01*
X106895354Y-106128784D01*
X106868289Y-106116823D01*
X106846538Y-106097226D01*
X106831004Y-106071732D01*
X106820957Y-106038779D01*
X106817278Y-105996305D01*
X106817278Y-105929578D01*
X106820964Y-105887105D01*
X106831015Y-105854263D01*
X106846538Y-105828950D01*
X106868270Y-105809499D01*
X106895334Y-105797613D01*
X106929385Y-105793388D01*
X106957573Y-105797410D01*
X106985219Y-105809801D01*
X107009969Y-105829127D01*
X107032211Y-105855768D01*
X107133914Y-105855768D01*
X107133914Y-105436842D01*
X106728715Y-105436842D01*
X106728715Y-105542942D01*
X107022393Y-105542942D01*
X107022393Y-105721776D01*
X107000412Y-105706771D01*
X106975889Y-105695545D01*
X106949853Y-105688536D01*
X106923377Y-105686214D01*
X106872081Y-105690605D01*
X106829171Y-105702984D01*
X106793062Y-105722721D01*
X106762616Y-105749962D01*
X106738837Y-105783126D01*
X106721131Y-105823144D01*
X106709812Y-105871388D01*
X106705756Y-105929578D01*
X106705756Y-105996305D01*
X106709920Y-106054677D01*
X106721546Y-106103066D01*
X106739758Y-106143216D01*
X106764277Y-106176508D01*
X106795467Y-106203655D01*
X106832523Y-106223391D01*
X106876625Y-106235800D01*
X106929385Y-106240206D01*
G37*
G36*
X106348234Y-106232000D02*
G01*
X106607424Y-105436842D01*
X106486036Y-105436842D01*
X106295184Y-106060297D01*
X106104284Y-105436842D01*
X105982895Y-105436842D01*
X106242135Y-106232000D01*
X106348234Y-106232000D01*
G37*
D10*
G36*
X63467682Y-33602370D02*
G01*
X63467682Y-35406455D01*
X63898710Y-35406455D01*
X63898710Y-33602370D01*
X63467682Y-33602370D01*
G37*
G36*
X62781253Y-34731139D02*
G01*
X64585139Y-34731139D01*
X64585139Y-34277885D01*
X62781253Y-34277885D01*
X62781253Y-34731139D01*
G37*
G36*
X69258693Y-33757953D02*
G01*
X69258693Y-35251070D01*
X69689720Y-35251070D01*
X69689720Y-33757953D01*
X69258693Y-33757953D01*
G37*
G36*
X130349198Y-33685000D02*
G01*
X130715623Y-34678946D01*
X130834508Y-34678946D01*
X131200934Y-33685000D01*
X131050541Y-33685000D01*
X130775035Y-34486849D01*
X130499590Y-33685000D01*
X130349198Y-33685000D01*
G37*
G36*
X130518031Y-33903047D02*
G01*
X130518031Y-34035671D01*
X131040955Y-34035671D01*
X131040955Y-33903047D01*
X130518031Y-33903047D01*
G37*
G36*
X131316338Y-34107479D02*
G01*
X131775759Y-34107479D01*
X131775759Y-33974855D01*
X131316338Y-33974855D01*
X131316338Y-34107479D01*
G37*
G36*
X75274493Y-33757953D02*
G01*
X75274493Y-35251070D01*
X75705520Y-35251070D01*
X75705520Y-33757953D01*
X75274493Y-33757953D01*
G37*
G36*
X80403482Y-33602370D02*
G01*
X80403482Y-35406455D01*
X80834510Y-35406455D01*
X80834510Y-33602370D01*
X80403482Y-33602370D01*
G37*
G36*
X79717053Y-34731139D02*
G01*
X81520939Y-34731139D01*
X81520939Y-34277885D01*
X79717053Y-34277885D01*
X79717053Y-34731139D01*
G37*
G36*
X127804746Y-33685000D02*
G01*
X128171171Y-34678946D01*
X128290056Y-34678946D01*
X128656482Y-33685000D01*
X128506089Y-33685000D01*
X128230583Y-34486849D01*
X127955138Y-33685000D01*
X127804746Y-33685000D01*
G37*
G36*
X127973579Y-33903047D02*
G01*
X127973579Y-34035671D01*
X128496503Y-34035671D01*
X128496503Y-33903047D01*
X127973579Y-33903047D01*
G37*
G36*
X128778725Y-34209328D02*
G01*
X129333828Y-34209328D01*
X129333828Y-34076704D01*
X128778725Y-34076704D01*
X128778725Y-34209328D01*
G37*
G36*
X129126038Y-34420537D02*
G01*
X129126038Y-33865495D01*
X128986576Y-33865495D01*
X128986576Y-34420537D01*
X129126038Y-34420537D01*
G37*
G36*
X109417664Y-33685000D02*
G01*
X109417664Y-33814204D01*
X109687003Y-33814204D01*
X109759936Y-33819978D01*
X109810206Y-33834898D01*
X109843868Y-33856580D01*
X109869300Y-33887440D01*
X109884659Y-33924008D01*
X109890030Y-33968016D01*
X109890030Y-33970031D01*
X109885272Y-34017825D01*
X109871963Y-34056501D01*
X109850707Y-34088000D01*
X109821388Y-34111122D01*
X109779644Y-34126344D01*
X109721136Y-34132086D01*
X109417664Y-34132086D01*
X109417664Y-34257871D01*
X109721136Y-34257871D01*
X109771382Y-34262518D01*
X109809280Y-34275089D01*
X109837701Y-34294446D01*
X109858823Y-34321286D01*
X109872170Y-34356130D01*
X109877024Y-34401425D01*
X109871621Y-34449122D01*
X109856794Y-34485321D01*
X109833244Y-34512800D01*
X109801928Y-34532155D01*
X109759333Y-34544957D01*
X109702024Y-34549741D01*
X109417664Y-34549741D01*
X109417664Y-34678946D01*
X109727303Y-34678946D01*
X109801292Y-34673596D01*
X109860667Y-34658863D01*
X109908191Y-34636109D01*
X109946023Y-34605795D01*
X109976742Y-34567202D01*
X109999017Y-34522492D01*
X110012930Y-34470484D01*
X110017830Y-34409607D01*
X110012961Y-34361319D01*
X109998497Y-34316154D01*
X109974050Y-34273197D01*
X109940713Y-34238008D01*
X109895877Y-34211622D01*
X109836663Y-34194307D01*
X109894776Y-34178711D01*
X109941833Y-34151690D01*
X109979911Y-34112913D01*
X110008165Y-34065687D01*
X110025072Y-34014386D01*
X110030836Y-33957758D01*
X110030836Y-33955682D01*
X110025593Y-33896008D01*
X110010579Y-33844346D01*
X109986245Y-33799198D01*
X109952190Y-33759494D01*
X109910919Y-33727832D01*
X109862591Y-33704695D01*
X109805845Y-33690147D01*
X109738905Y-33685000D01*
X109417664Y-33685000D01*
G37*
G36*
X109335599Y-33685000D02*
G01*
X109335599Y-34678946D01*
X109474390Y-34678946D01*
X109474390Y-33685000D01*
X109335599Y-33685000D01*
G37*
G36*
X110225620Y-34107479D02*
G01*
X110685041Y-34107479D01*
X110685041Y-33974855D01*
X110225620Y-33974855D01*
X110225620Y-34107479D01*
G37*
D11*
G36*
X83359916Y-102532000D02*
G01*
X83359916Y-102435182D01*
X83082651Y-102065496D01*
X83061041Y-102032889D01*
X83045184Y-101999892D01*
X83034986Y-101966171D01*
X83031800Y-101935900D01*
X83031800Y-101934826D01*
X83035179Y-101904290D01*
X83044591Y-101880176D01*
X83059692Y-101861016D01*
X83079817Y-101846954D01*
X83105690Y-101837995D01*
X83138973Y-101834735D01*
X83169908Y-101838117D01*
X83195699Y-101847741D01*
X83217473Y-101863458D01*
X83234509Y-101884343D01*
X83246905Y-101910947D01*
X83254354Y-101944644D01*
X83254354Y-101945182D01*
X83369783Y-101945182D01*
X83369783Y-101944644D01*
X83358873Y-101893815D01*
X83342536Y-101851072D01*
X83321183Y-101815198D01*
X83294849Y-101785251D01*
X83263192Y-101760845D01*
X83227408Y-101743289D01*
X83186709Y-101732427D01*
X83140048Y-101728636D01*
X83086345Y-101732489D01*
X83041849Y-101743248D01*
X83004943Y-101760105D01*
X82974354Y-101782809D01*
X82949444Y-101811650D01*
X82931308Y-101845976D01*
X82919891Y-101886891D01*
X82915833Y-101935900D01*
X82915833Y-101936438D01*
X82920044Y-101978687D01*
X82933370Y-102024756D01*
X82954105Y-102069628D01*
X82982023Y-102113074D01*
X83212246Y-102425900D01*
X82911486Y-102425900D01*
X82911486Y-102532000D01*
X83359916Y-102532000D01*
G37*
G36*
X82813300Y-102410025D02*
G01*
X82813300Y-102313256D01*
X82546391Y-101737380D01*
X82431548Y-101737380D01*
X82691862Y-102306710D01*
X82301953Y-102306710D01*
X82301953Y-102410025D01*
X82813300Y-102410025D01*
G37*
G36*
X82470383Y-102532537D02*
G01*
X82470383Y-102064421D01*
X82361548Y-102064421D01*
X82361548Y-102532537D01*
X82470383Y-102532537D01*
G37*
G36*
X81971786Y-102532000D02*
G01*
X82230976Y-101736842D01*
X82109588Y-101736842D01*
X81918736Y-102360297D01*
X81727836Y-101736842D01*
X81606447Y-101736842D01*
X81865687Y-102532000D01*
X81971786Y-102532000D01*
G37*
D10*
G36*
X116749198Y-33685000D02*
G01*
X117115623Y-34678946D01*
X117234508Y-34678946D01*
X117600934Y-33685000D01*
X117450541Y-33685000D01*
X117175035Y-34486849D01*
X116899590Y-33685000D01*
X116749198Y-33685000D01*
G37*
G36*
X116918031Y-33903047D02*
G01*
X116918031Y-34035671D01*
X117440955Y-34035671D01*
X117440955Y-33903047D01*
X116918031Y-33903047D01*
G37*
G36*
X117716338Y-34107479D02*
G01*
X118175759Y-34107479D01*
X118175759Y-33974855D01*
X117716338Y-33974855D01*
X117716338Y-34107479D01*
G37*
G36*
X112051665Y-107478274D02*
G01*
X112086636Y-107492751D01*
X112114594Y-107516211D01*
X112134838Y-107547036D01*
X112147795Y-107586543D01*
X112152513Y-107637172D01*
X112152513Y-107791656D01*
X112147786Y-107841816D01*
X112134827Y-107880756D01*
X112114594Y-107910969D01*
X112086722Y-107933780D01*
X112051753Y-107947917D01*
X112007555Y-107952978D01*
X111965441Y-107948382D01*
X111932084Y-107935576D01*
X111904714Y-107914363D01*
X111884579Y-107885323D01*
X111872493Y-107850333D01*
X111868153Y-107806677D01*
X111868153Y-107615984D01*
X111872496Y-107573018D01*
X111884579Y-107538742D01*
X111904695Y-107510412D01*
X111932084Y-107489894D01*
X111965400Y-107477547D01*
X112007555Y-107473102D01*
X112051665Y-107478274D01*
G37*
G36*
X116877903Y-107478274D02*
G01*
X116912875Y-107492751D01*
X116940833Y-107516211D01*
X116961077Y-107547036D01*
X116974033Y-107586543D01*
X116978752Y-107637172D01*
X116978752Y-107791656D01*
X116974025Y-107841816D01*
X116961066Y-107880756D01*
X116940833Y-107910969D01*
X116912960Y-107933780D01*
X116877991Y-107947917D01*
X116833794Y-107952978D01*
X116791680Y-107948382D01*
X116758323Y-107935576D01*
X116730953Y-107914363D01*
X116710817Y-107885323D01*
X116698731Y-107850333D01*
X116694392Y-107806677D01*
X116694392Y-107615984D01*
X116698735Y-107573018D01*
X116710817Y-107538742D01*
X116730934Y-107510412D01*
X116758323Y-107489894D01*
X116791639Y-107477547D01*
X116833794Y-107473102D01*
X116877903Y-107478274D01*
G37*
G36*
X115036705Y-107763321D02*
G01*
X115063136Y-107771704D01*
X115082817Y-107784512D01*
X115097422Y-107802477D01*
X115106744Y-107826535D01*
X115110172Y-107858640D01*
X115105795Y-107892828D01*
X115093662Y-107918839D01*
X115073963Y-107938690D01*
X115048375Y-107952144D01*
X115013109Y-107961218D01*
X114965275Y-107964641D01*
X114891144Y-107959649D01*
X114846329Y-107947544D01*
X114823466Y-107933280D01*
X114810879Y-107915837D01*
X114806639Y-107894177D01*
X114806639Y-107760210D01*
X115001484Y-107760210D01*
X115036705Y-107763321D01*
G37*
G36*
X115731635Y-107478127D02*
G01*
X115764987Y-107490199D01*
X115792376Y-107510352D01*
X115812492Y-107538071D01*
X115824510Y-107571763D01*
X115828856Y-107614641D01*
X115828856Y-107808081D01*
X115824512Y-107851641D01*
X115812492Y-107885995D01*
X115792353Y-107914409D01*
X115764987Y-107935210D01*
X115731590Y-107947786D01*
X115689394Y-107952307D01*
X115645198Y-107947244D01*
X115610251Y-107933106D01*
X115582415Y-107910297D01*
X115562156Y-107880096D01*
X115549210Y-107841357D01*
X115544497Y-107791656D01*
X115544497Y-107637844D01*
X115549215Y-107587215D01*
X115562171Y-107547708D01*
X115582415Y-107516883D01*
X115610337Y-107493424D01*
X115645286Y-107478947D01*
X115689394Y-107473774D01*
X115731635Y-107478127D01*
G37*
G36*
X118309856Y-108467395D02*
G01*
X110359302Y-108467395D01*
X110359302Y-107358247D01*
X110470413Y-107358247D01*
X110470413Y-107484032D01*
X110577757Y-107484032D01*
X110577757Y-107884651D01*
X110574946Y-107908124D01*
X110567499Y-107924280D01*
X110555082Y-107934927D01*
X110537396Y-107938629D01*
X110470413Y-107938629D01*
X110470413Y-108071253D01*
X110551074Y-108071253D01*
X110607263Y-108065102D01*
X110648251Y-108048531D01*
X110677897Y-108022710D01*
X110698625Y-107988178D01*
X110712162Y-107942725D01*
X110717159Y-107883247D01*
X110717159Y-107637172D01*
X110947114Y-107637172D01*
X110947114Y-108067834D01*
X111086576Y-108067834D01*
X111086576Y-107637844D01*
X111091362Y-107589174D01*
X111104530Y-107551242D01*
X111125228Y-107521645D01*
X111153439Y-107499480D01*
X111189240Y-107485610D01*
X111234893Y-107480613D01*
X111279138Y-107485014D01*
X111313619Y-107497134D01*
X111340528Y-107516211D01*
X111360650Y-107542136D01*
X111373241Y-107574940D01*
X111377775Y-107616656D01*
X111377775Y-108067834D01*
X111517237Y-108067834D01*
X111517237Y-107358247D01*
X111728691Y-107358247D01*
X111728691Y-108046645D01*
X111734292Y-108120277D01*
X111749989Y-108181532D01*
X111774726Y-108232625D01*
X111808314Y-108275257D01*
X111850413Y-108309533D01*
X111900787Y-108334686D01*
X111961104Y-108350608D01*
X112033567Y-108356284D01*
X112086226Y-108352819D01*
X112133723Y-108342796D01*
X112176815Y-108326548D01*
X112216394Y-108303610D01*
X112248810Y-108275790D01*
X112274879Y-108242834D01*
X112180540Y-108157410D01*
X112150245Y-108190969D01*
X112115266Y-108215478D01*
X112076187Y-108230909D01*
X112035582Y-108235995D01*
X111984068Y-108230594D01*
X111943694Y-108215648D01*
X111911934Y-108191909D01*
X111888390Y-108159935D01*
X111873530Y-108119204D01*
X111868153Y-108067162D01*
X111868153Y-107973214D01*
X111883965Y-108000954D01*
X111924512Y-108042249D01*
X111957633Y-108062747D01*
X111997707Y-108075592D01*
X112046512Y-108080168D01*
X112104349Y-108075002D01*
X112128135Y-108067834D01*
X112482729Y-108067834D01*
X112622192Y-108067834D01*
X112622192Y-107938629D01*
X112778508Y-107938629D01*
X112778508Y-108071253D01*
X112860512Y-108071253D01*
X112889679Y-108067834D01*
X113142063Y-108067834D01*
X113293860Y-108067834D01*
X113501700Y-107723859D01*
X113626763Y-107864648D01*
X113626763Y-108067834D01*
X113766226Y-108067834D01*
X113766226Y-107461501D01*
X113919305Y-107461501D01*
X114019811Y-107551748D01*
X114052045Y-107521440D01*
X114089603Y-107499114D01*
X114130920Y-107485239D01*
X114174294Y-107480613D01*
X114226235Y-107486120D01*
X114267105Y-107501398D01*
X114299408Y-107525737D01*
X114323322Y-107558424D01*
X114338407Y-107599946D01*
X114343860Y-107652865D01*
X114343860Y-107769796D01*
X114338376Y-107824138D01*
X114323258Y-107866533D01*
X114299408Y-107899672D01*
X114267052Y-107924402D01*
X114226182Y-107939891D01*
X114174294Y-107945468D01*
X114130984Y-107940536D01*
X114089603Y-107925684D01*
X114052135Y-107901862D01*
X114019811Y-107869569D01*
X113919305Y-107966656D01*
X113948389Y-107999083D01*
X113983790Y-108026490D01*
X114026344Y-108049027D01*
X114072033Y-108064935D01*
X114121820Y-108074722D01*
X114176370Y-108078092D01*
X114249209Y-108072439D01*
X114309892Y-108056579D01*
X114360609Y-108031534D01*
X114403028Y-107997430D01*
X114436943Y-107954895D01*
X114461881Y-107903986D01*
X114477686Y-107843021D01*
X114483323Y-107769796D01*
X114483323Y-107652865D01*
X114480139Y-107611893D01*
X114674015Y-107611893D01*
X114674015Y-108067834D01*
X114806639Y-108067834D01*
X114806639Y-108012149D01*
X114813049Y-108020253D01*
X114838085Y-108041211D01*
X114867031Y-108057178D01*
X114900673Y-108068872D01*
X114937133Y-108075666D01*
X114980296Y-108078092D01*
X115046789Y-108074059D01*
X115100095Y-108063008D01*
X115142571Y-108046142D01*
X115176178Y-108024114D01*
X115203705Y-107994931D01*
X115223918Y-107958733D01*
X115236808Y-107914003D01*
X115241452Y-107858640D01*
X115237181Y-107805859D01*
X115225325Y-107763109D01*
X115206773Y-107728445D01*
X115181613Y-107700431D01*
X115138605Y-107672941D01*
X115080339Y-107654847D01*
X115002155Y-107648102D01*
X114806639Y-107648102D01*
X114806639Y-107637172D01*
X115405034Y-107637172D01*
X115405034Y-107791656D01*
X115409637Y-107860099D01*
X115422474Y-107916864D01*
X115442512Y-107963937D01*
X115469331Y-108002926D01*
X115503932Y-108035220D01*
X115544733Y-108058461D01*
X115592976Y-108072964D01*
X115650437Y-108078092D01*
X115693702Y-108074394D01*
X115731900Y-108063730D01*
X115765964Y-108046340D01*
X115795686Y-108022412D01*
X115819741Y-107992703D01*
X115828856Y-107975008D01*
X115828856Y-108067834D01*
X115968319Y-108067834D01*
X116554929Y-108067834D01*
X116694392Y-108067834D01*
X116694392Y-107973215D01*
X116710204Y-108000954D01*
X116750751Y-108042249D01*
X116783871Y-108062747D01*
X116823945Y-108075592D01*
X116872750Y-108080168D01*
X116930588Y-108075002D01*
X116979000Y-108060413D01*
X117019808Y-108037060D01*
X117054284Y-108004636D01*
X117080901Y-107965508D01*
X117100832Y-107918131D01*
X117113623Y-107860855D01*
X117118214Y-107791656D01*
X117118214Y-107635096D01*
X117113701Y-107565426D01*
X117101151Y-107507915D01*
X117082057Y-107461501D01*
X117250777Y-107461501D01*
X117351283Y-107551748D01*
X117383517Y-107521440D01*
X117421076Y-107499114D01*
X117462393Y-107485239D01*
X117505767Y-107480613D01*
X117557708Y-107486120D01*
X117598577Y-107501398D01*
X117630880Y-107525737D01*
X117654794Y-107558424D01*
X117669879Y-107599946D01*
X117675332Y-107652865D01*
X117675332Y-107769796D01*
X117669848Y-107824138D01*
X117654730Y-107866533D01*
X117630880Y-107899672D01*
X117598525Y-107924402D01*
X117557654Y-107939891D01*
X117505767Y-107945468D01*
X117462457Y-107940536D01*
X117421076Y-107925684D01*
X117383608Y-107901862D01*
X117351283Y-107869569D01*
X117250777Y-107966656D01*
X117279861Y-107999083D01*
X117315263Y-108026490D01*
X117357817Y-108049027D01*
X117403505Y-108064935D01*
X117453293Y-108074722D01*
X117507843Y-108078092D01*
X117580682Y-108072439D01*
X117641364Y-108056579D01*
X117692081Y-108031534D01*
X117734500Y-107997430D01*
X117768416Y-107954895D01*
X117776384Y-107938629D01*
X117950594Y-107938629D01*
X117950594Y-108071253D01*
X118032599Y-108071253D01*
X118082837Y-108065364D01*
X118122857Y-108048847D01*
X118155025Y-108022038D01*
X118178360Y-107986759D01*
X118193300Y-107941442D01*
X118198745Y-107883247D01*
X118198745Y-107073887D01*
X118059282Y-107073887D01*
X118059282Y-107884651D01*
X118056214Y-107908033D01*
X118047986Y-107924280D01*
X118034638Y-107934933D01*
X118016234Y-107938629D01*
X117950594Y-107938629D01*
X117776384Y-107938629D01*
X117793354Y-107903986D01*
X117809159Y-107843021D01*
X117814795Y-107769796D01*
X117814795Y-107652865D01*
X117809163Y-107580386D01*
X117793370Y-107520072D01*
X117768439Y-107469725D01*
X117734500Y-107427673D01*
X117692145Y-107394023D01*
X117641452Y-107369273D01*
X117580748Y-107353584D01*
X117507843Y-107347989D01*
X117452858Y-107351412D01*
X117402965Y-107361332D01*
X117357450Y-107377420D01*
X117315228Y-107400209D01*
X117279930Y-107428165D01*
X117250777Y-107461501D01*
X117082057Y-107461501D01*
X117081647Y-107460504D01*
X117055688Y-107421506D01*
X117021827Y-107388925D01*
X116982065Y-107365593D01*
X116935227Y-107351090D01*
X116879589Y-107345974D01*
X116838604Y-107349661D01*
X116800443Y-107360551D01*
X116764429Y-107378763D01*
X116732201Y-107403236D01*
X116704121Y-107433753D01*
X116694392Y-107448775D01*
X116694392Y-107073887D01*
X116554929Y-107073887D01*
X116554929Y-108067834D01*
X115968319Y-108067834D01*
X115968319Y-107073887D01*
X115828856Y-107073887D01*
X115828856Y-107454690D01*
X115819008Y-107438786D01*
X115791031Y-107407072D01*
X115759125Y-107381877D01*
X115723231Y-107363065D01*
X115684966Y-107351807D01*
X115643598Y-107347989D01*
X115587592Y-107353124D01*
X115540620Y-107367653D01*
X115500912Y-107390986D01*
X115467255Y-107423521D01*
X115441436Y-107462499D01*
X115422025Y-107509910D01*
X115409529Y-107567447D01*
X115405034Y-107637172D01*
X114806639Y-107637172D01*
X114806639Y-107617999D01*
X114811217Y-107572997D01*
X114823883Y-107537605D01*
X114843947Y-107509678D01*
X114871096Y-107488827D01*
X114905566Y-107475745D01*
X114949521Y-107471026D01*
X114990860Y-107474185D01*
X115031892Y-107483727D01*
X115070691Y-107499326D01*
X115104676Y-107520302D01*
X115206587Y-107450571D01*
X115177416Y-107421095D01*
X115142249Y-107395933D01*
X115100280Y-107375039D01*
X115031721Y-107354958D01*
X114953612Y-107347989D01*
X114886946Y-107352877D01*
X114831571Y-107366549D01*
X114785496Y-107388026D01*
X114747166Y-107417048D01*
X114716074Y-107453753D01*
X114693392Y-107497443D01*
X114679097Y-107549526D01*
X114674015Y-107611893D01*
X114480139Y-107611893D01*
X114477691Y-107580386D01*
X114461897Y-107520072D01*
X114436966Y-107469725D01*
X114403028Y-107427673D01*
X114360672Y-107394023D01*
X114309980Y-107369273D01*
X114249275Y-107353584D01*
X114176370Y-107347989D01*
X114121386Y-107351412D01*
X114071493Y-107361332D01*
X114025978Y-107377420D01*
X113983755Y-107400209D01*
X113948458Y-107428165D01*
X113919305Y-107461501D01*
X113766226Y-107461501D01*
X113766226Y-107073887D01*
X113626763Y-107073887D01*
X113626763Y-107702846D01*
X113340999Y-107358247D01*
X113176929Y-107358247D01*
X113414546Y-107625745D01*
X113142063Y-108067834D01*
X112889679Y-108067834D01*
X112910750Y-108065364D01*
X112950770Y-108048847D01*
X112982939Y-108022038D01*
X113006274Y-107986759D01*
X113021214Y-107941442D01*
X113026658Y-107883247D01*
X113026658Y-107073887D01*
X112887196Y-107073887D01*
X112887196Y-107884651D01*
X112884127Y-107908033D01*
X112875899Y-107924280D01*
X112862552Y-107934933D01*
X112844148Y-107938629D01*
X112778508Y-107938629D01*
X112622192Y-107938629D01*
X112622192Y-107358247D01*
X112482729Y-107358247D01*
X112482729Y-108067834D01*
X112128135Y-108067834D01*
X112152761Y-108060413D01*
X112193569Y-108037060D01*
X112228045Y-108004636D01*
X112254663Y-107965508D01*
X112274593Y-107918131D01*
X112287384Y-107860855D01*
X112291976Y-107791656D01*
X112291976Y-107635096D01*
X112287462Y-107565426D01*
X112274912Y-107507915D01*
X112255408Y-107460504D01*
X112229450Y-107421506D01*
X112195588Y-107388925D01*
X112155827Y-107365593D01*
X112108988Y-107351090D01*
X112053350Y-107345974D01*
X112012366Y-107349661D01*
X111974204Y-107360551D01*
X111938190Y-107378763D01*
X111905962Y-107403236D01*
X111877882Y-107433753D01*
X111868153Y-107448775D01*
X111868153Y-107358247D01*
X111728691Y-107358247D01*
X111517237Y-107358247D01*
X111517237Y-107213350D01*
X112482729Y-107213350D01*
X112622192Y-107213350D01*
X112622192Y-107073887D01*
X112482729Y-107073887D01*
X112482729Y-107213350D01*
X111517237Y-107213350D01*
X111517237Y-107073887D01*
X111377775Y-107073887D01*
X111377775Y-107456946D01*
X111367454Y-107440407D01*
X111338911Y-107408219D01*
X111306334Y-107382549D01*
X111269731Y-107363341D01*
X111230895Y-107351871D01*
X111189097Y-107347989D01*
X111132376Y-107353130D01*
X111084772Y-107367677D01*
X111044513Y-107391020D01*
X111010372Y-107423521D01*
X110984086Y-107462567D01*
X110964359Y-107510004D01*
X110951674Y-107567518D01*
X110947114Y-107637172D01*
X110717159Y-107637172D01*
X110717159Y-107484032D01*
X110790310Y-107484032D01*
X110790310Y-107358247D01*
X110717159Y-107358247D01*
X110717159Y-107151801D01*
X110577757Y-107151801D01*
X110577757Y-107358247D01*
X110470413Y-107358247D01*
X110359302Y-107358247D01*
X110359302Y-106962776D01*
X118309856Y-106962776D01*
X118309856Y-108467395D01*
G37*
G36*
X98245693Y-33764753D02*
G01*
X98245693Y-35257870D01*
X98676720Y-35257870D01*
X98676720Y-33764753D01*
X98245693Y-33764753D01*
G37*
G36*
X103374682Y-33609170D02*
G01*
X103374682Y-35413255D01*
X103805710Y-35413255D01*
X103805710Y-33609170D01*
X103374682Y-33609170D01*
G37*
G36*
X102688253Y-34737939D02*
G01*
X104492139Y-34737939D01*
X104492139Y-34284685D01*
X102688253Y-34284685D01*
X102688253Y-34737939D01*
G37*
G36*
X137505409Y-107100713D02*
G01*
X138286424Y-107100713D01*
X138286424Y-106875252D01*
X137505409Y-106875252D01*
X137505409Y-107100713D01*
G37*
G36*
X137424027Y-104417857D02*
G01*
X138367702Y-104417857D01*
X138367702Y-104192396D01*
X137424027Y-104192396D01*
X137424027Y-104417857D01*
G37*
G36*
X138014460Y-104776912D02*
G01*
X138014460Y-103833341D01*
X137777373Y-103833341D01*
X137777373Y-104776912D01*
X138014460Y-104776912D01*
G37*
G36*
X137615409Y-101030713D02*
G01*
X138396424Y-101030713D01*
X138396424Y-100805252D01*
X137615409Y-100805252D01*
X137615409Y-101030713D01*
G37*
G36*
X137534027Y-98347857D02*
G01*
X138477702Y-98347857D01*
X138477702Y-98122396D01*
X137534027Y-98122396D01*
X137534027Y-98347857D01*
G37*
G36*
X138124460Y-98706912D02*
G01*
X138124460Y-97763341D01*
X137887373Y-97763341D01*
X137887373Y-98706912D01*
X138124460Y-98706912D01*
G37*
D11*
G36*
X109859252Y-106240206D02*
G01*
X109903562Y-106237327D01*
X109942592Y-106229086D01*
X109977124Y-106215879D01*
X110008769Y-106197152D01*
X110035680Y-106173845D01*
X110058310Y-106145635D01*
X110075854Y-106113796D01*
X110089073Y-106076867D01*
X110097682Y-106034016D01*
X109983963Y-106034016D01*
X109975522Y-106066626D01*
X109961963Y-106091134D01*
X109943516Y-106109243D01*
X109920520Y-106122066D01*
X109892809Y-106130150D01*
X109859252Y-106133032D01*
X109823593Y-106129411D01*
X109795551Y-106119393D01*
X109773425Y-106103528D01*
X109756879Y-106082002D01*
X109746524Y-106054827D01*
X109742797Y-106020339D01*
X109742797Y-105996305D01*
X109746411Y-105957580D01*
X109756316Y-105927510D01*
X109771764Y-105904177D01*
X109793074Y-105886478D01*
X109819861Y-105875519D01*
X109853781Y-105871595D01*
X109910104Y-105871595D01*
X109910104Y-105765496D01*
X109853781Y-105765496D01*
X109823661Y-105762112D01*
X109800012Y-105752703D01*
X109781339Y-105737603D01*
X109767732Y-105717554D01*
X109759048Y-105691844D01*
X109755889Y-105658859D01*
X109755889Y-105634288D01*
X109759188Y-105604066D01*
X109768351Y-105580314D01*
X109783000Y-105561553D01*
X109802542Y-105547764D01*
X109827606Y-105538996D01*
X109859790Y-105535810D01*
X109887012Y-105538576D01*
X109910543Y-105546535D01*
X109931157Y-105559599D01*
X109947800Y-105577366D01*
X109961314Y-105601866D01*
X109971360Y-105634826D01*
X110084591Y-105634826D01*
X110072810Y-105586217D01*
X110056083Y-105545341D01*
X110034766Y-105511066D01*
X110008875Y-105482516D01*
X109978004Y-105459248D01*
X109943380Y-105442538D01*
X109904290Y-105432225D01*
X109859790Y-105428636D01*
X109808447Y-105432461D01*
X109765787Y-105443169D01*
X109730266Y-105460008D01*
X109700690Y-105482809D01*
X109676787Y-105511511D01*
X109659315Y-105545706D01*
X109648290Y-105586499D01*
X109644367Y-105635363D01*
X109644367Y-105648503D01*
X109648088Y-105687168D01*
X109658876Y-105721399D01*
X109676656Y-105752111D01*
X109700589Y-105778396D01*
X109730682Y-105799978D01*
X109767954Y-105816933D01*
X109727120Y-105830409D01*
X109693910Y-105851531D01*
X109667033Y-105880632D01*
X109647700Y-105915624D01*
X109635548Y-105957468D01*
X109631227Y-106007785D01*
X109631227Y-106020925D01*
X109635379Y-106072783D01*
X109647049Y-106116073D01*
X109665537Y-106152357D01*
X109690822Y-106182809D01*
X109722122Y-106206966D01*
X109759720Y-106224808D01*
X109804885Y-106236153D01*
X109859252Y-106240206D01*
G37*
G36*
X109486928Y-106232000D02*
G01*
X109486928Y-106114958D01*
X109369887Y-106114958D01*
X109369887Y-106232000D01*
X109486928Y-106232000D01*
G37*
G36*
X109014367Y-106240206D02*
G01*
X109058677Y-106237327D01*
X109097707Y-106229086D01*
X109132239Y-106215879D01*
X109163884Y-106197152D01*
X109190795Y-106173845D01*
X109213425Y-106145635D01*
X109230969Y-106113796D01*
X109244189Y-106076867D01*
X109252797Y-106034016D01*
X109139078Y-106034016D01*
X109130637Y-106066626D01*
X109117078Y-106091134D01*
X109098631Y-106109243D01*
X109075635Y-106122066D01*
X109047924Y-106130150D01*
X109014367Y-106133032D01*
X108978708Y-106129411D01*
X108950666Y-106119393D01*
X108928540Y-106103528D01*
X108911994Y-106082002D01*
X108901639Y-106054827D01*
X108897912Y-106020339D01*
X108897912Y-105996305D01*
X108901527Y-105957580D01*
X108911431Y-105927510D01*
X108926880Y-105904177D01*
X108948189Y-105886478D01*
X108974976Y-105875519D01*
X109008896Y-105871595D01*
X109065219Y-105871595D01*
X109065219Y-105765496D01*
X109008896Y-105765496D01*
X108978776Y-105762112D01*
X108955127Y-105752703D01*
X108936454Y-105737603D01*
X108922847Y-105717554D01*
X108914164Y-105691844D01*
X108911004Y-105658859D01*
X108911004Y-105634288D01*
X108914303Y-105604066D01*
X108923466Y-105580314D01*
X108938115Y-105561553D01*
X108957657Y-105547764D01*
X108982721Y-105538996D01*
X109014905Y-105535810D01*
X109042127Y-105538576D01*
X109065658Y-105546535D01*
X109086273Y-105559599D01*
X109102915Y-105577366D01*
X109116429Y-105601866D01*
X109126475Y-105634826D01*
X109239706Y-105634826D01*
X109227925Y-105586217D01*
X109211199Y-105545341D01*
X109189881Y-105511066D01*
X109163991Y-105482516D01*
X109133119Y-105459248D01*
X109098495Y-105442538D01*
X109059405Y-105432225D01*
X109014905Y-105428636D01*
X108963563Y-105432461D01*
X108920902Y-105443169D01*
X108885381Y-105460008D01*
X108855805Y-105482809D01*
X108831902Y-105511511D01*
X108814430Y-105545706D01*
X108803405Y-105586499D01*
X108799483Y-105635363D01*
X108799483Y-105648503D01*
X108803203Y-105687168D01*
X108813992Y-105721399D01*
X108831771Y-105752111D01*
X108855704Y-105778396D01*
X108885797Y-105799978D01*
X108923069Y-105816933D01*
X108882235Y-105830409D01*
X108849025Y-105851531D01*
X108822148Y-105880632D01*
X108802815Y-105915624D01*
X108790663Y-105957468D01*
X108786342Y-106007785D01*
X108786342Y-106020925D01*
X108790494Y-106072783D01*
X108802164Y-106116073D01*
X108820652Y-106152357D01*
X108845938Y-106182809D01*
X108877237Y-106206966D01*
X108914835Y-106224808D01*
X108960000Y-106236153D01*
X109014367Y-106240206D01*
G37*
G36*
X108434779Y-106232000D02*
G01*
X108693970Y-105436842D01*
X108572581Y-105436842D01*
X108381730Y-106060297D01*
X108190829Y-105436842D01*
X108069441Y-105436842D01*
X108328680Y-106232000D01*
X108434779Y-106232000D01*
G37*
D10*
G36*
X125483470Y-33685000D02*
G01*
X125483470Y-33814204D01*
X125752809Y-33814204D01*
X125825742Y-33819978D01*
X125876012Y-33834898D01*
X125909674Y-33856580D01*
X125935106Y-33887440D01*
X125950465Y-33924008D01*
X125955836Y-33968016D01*
X125955836Y-33970031D01*
X125951078Y-34017825D01*
X125937769Y-34056501D01*
X125916513Y-34088000D01*
X125887194Y-34111122D01*
X125845450Y-34126344D01*
X125786942Y-34132086D01*
X125483470Y-34132086D01*
X125483470Y-34257871D01*
X125786942Y-34257871D01*
X125837188Y-34262518D01*
X125875086Y-34275089D01*
X125903507Y-34294446D01*
X125924629Y-34321286D01*
X125937976Y-34356130D01*
X125942830Y-34401425D01*
X125937427Y-34449122D01*
X125922600Y-34485321D01*
X125899050Y-34512800D01*
X125867734Y-34532155D01*
X125825139Y-34544957D01*
X125767830Y-34549741D01*
X125483470Y-34549741D01*
X125483470Y-34678946D01*
X125793109Y-34678946D01*
X125867098Y-34673596D01*
X125926473Y-34658863D01*
X125973997Y-34636109D01*
X126011829Y-34605795D01*
X126042548Y-34567202D01*
X126064823Y-34522492D01*
X126078736Y-34470484D01*
X126083636Y-34409607D01*
X126078767Y-34361319D01*
X126064303Y-34316154D01*
X126039856Y-34273197D01*
X126006519Y-34238008D01*
X125961683Y-34211622D01*
X125902469Y-34194307D01*
X125960582Y-34178711D01*
X126007639Y-34151690D01*
X126045717Y-34112913D01*
X126073971Y-34065687D01*
X126090878Y-34014386D01*
X126096642Y-33957758D01*
X126096642Y-33955682D01*
X126091399Y-33896008D01*
X126076385Y-33844346D01*
X126052051Y-33799198D01*
X126017996Y-33759494D01*
X125976725Y-33727832D01*
X125928397Y-33704695D01*
X125871651Y-33690147D01*
X125804711Y-33685000D01*
X125483470Y-33685000D01*
G37*
G36*
X125401405Y-33685000D02*
G01*
X125401405Y-34678946D01*
X125540196Y-34678946D01*
X125540196Y-33685000D01*
X125401405Y-33685000D01*
G37*
G36*
X126277748Y-34209328D02*
G01*
X126832851Y-34209328D01*
X126832851Y-34076704D01*
X126277748Y-34076704D01*
X126277748Y-34209328D01*
G37*
G36*
X126625061Y-34420537D02*
G01*
X126625061Y-33865495D01*
X126485599Y-33865495D01*
X126485599Y-34420537D01*
X126625061Y-34420537D01*
G37*
G36*
X131504078Y-107100309D02*
G01*
X131571422Y-107095045D01*
X131630214Y-107079969D01*
X131681912Y-107055655D01*
X131727633Y-107021981D01*
X131766078Y-106980316D01*
X131797215Y-106930492D01*
X131821084Y-106871247D01*
X131837176Y-106800916D01*
X131837176Y-106800037D01*
X131669821Y-106800037D01*
X131669821Y-106800916D01*
X131659555Y-106842574D01*
X131642046Y-106876110D01*
X131617358Y-106903059D01*
X131586489Y-106922832D01*
X131549279Y-106935166D01*
X131504078Y-106939549D01*
X131453031Y-106933176D01*
X131412433Y-106915235D01*
X131379807Y-106885840D01*
X131356506Y-106847598D01*
X131341436Y-106798169D01*
X131335917Y-106734458D01*
X131335917Y-106634367D01*
X131341446Y-106570658D01*
X131356523Y-106521395D01*
X131379807Y-106483425D01*
X131412405Y-106454249D01*
X131453001Y-106436420D01*
X131504078Y-106430083D01*
X131546360Y-106436115D01*
X131587829Y-106454702D01*
X131624954Y-106483690D01*
X131658317Y-106523652D01*
X131810871Y-106523652D01*
X131810871Y-105895264D01*
X131203073Y-105895264D01*
X131203073Y-106054413D01*
X131643589Y-106054413D01*
X131643589Y-106322665D01*
X131610618Y-106300157D01*
X131573834Y-106283317D01*
X131534780Y-106272805D01*
X131495065Y-106269322D01*
X131418122Y-106275908D01*
X131353756Y-106294476D01*
X131299593Y-106324081D01*
X131253924Y-106364943D01*
X131218255Y-106414690D01*
X131191697Y-106474716D01*
X131174718Y-106547082D01*
X131168635Y-106634367D01*
X131168635Y-106734458D01*
X131174880Y-106822016D01*
X131192319Y-106894599D01*
X131219637Y-106954824D01*
X131256416Y-107004762D01*
X131303201Y-107045482D01*
X131358785Y-107075087D01*
X131424937Y-107093700D01*
X131504078Y-107100309D01*
G37*
G36*
X130632351Y-107088000D02*
G01*
X131021137Y-105895264D01*
X130839054Y-105895264D01*
X130552777Y-106830445D01*
X130266426Y-105895264D01*
X130084343Y-105895264D01*
X130473202Y-107088000D01*
X130632351Y-107088000D01*
G37*
G36*
X52245693Y-33764753D02*
G01*
X52245693Y-35257870D01*
X52676720Y-35257870D01*
X52676720Y-33764753D01*
X52245693Y-33764753D01*
G37*
G36*
X57374682Y-33609170D02*
G01*
X57374682Y-35413255D01*
X57805710Y-35413255D01*
X57805710Y-33609170D01*
X57374682Y-33609170D01*
G37*
G36*
X56688253Y-34737939D02*
G01*
X58492139Y-34737939D01*
X58492139Y-34284685D01*
X56688253Y-34284685D01*
X56688253Y-34737939D01*
G37*
D11*
G36*
X88319252Y-102540206D02*
G01*
X88363562Y-102537327D01*
X88402592Y-102529086D01*
X88437124Y-102515879D01*
X88468769Y-102497152D01*
X88495680Y-102473845D01*
X88518310Y-102445635D01*
X88535854Y-102413796D01*
X88549073Y-102376867D01*
X88557682Y-102334016D01*
X88443963Y-102334016D01*
X88435522Y-102366626D01*
X88421963Y-102391134D01*
X88403516Y-102409243D01*
X88380520Y-102422066D01*
X88352809Y-102430150D01*
X88319252Y-102433032D01*
X88283593Y-102429411D01*
X88255551Y-102419393D01*
X88233425Y-102403528D01*
X88216879Y-102382002D01*
X88206524Y-102354827D01*
X88202797Y-102320339D01*
X88202797Y-102296305D01*
X88206411Y-102257580D01*
X88216316Y-102227510D01*
X88231764Y-102204177D01*
X88253074Y-102186478D01*
X88279861Y-102175519D01*
X88313781Y-102171595D01*
X88370104Y-102171595D01*
X88370104Y-102065496D01*
X88313781Y-102065496D01*
X88283661Y-102062112D01*
X88260012Y-102052703D01*
X88241339Y-102037603D01*
X88227732Y-102017554D01*
X88219048Y-101991844D01*
X88215889Y-101958859D01*
X88215889Y-101934288D01*
X88219188Y-101904066D01*
X88228351Y-101880314D01*
X88243000Y-101861553D01*
X88262542Y-101847764D01*
X88287606Y-101838996D01*
X88319790Y-101835810D01*
X88347012Y-101838576D01*
X88370543Y-101846535D01*
X88391157Y-101859599D01*
X88407800Y-101877366D01*
X88421314Y-101901866D01*
X88431360Y-101934826D01*
X88544591Y-101934826D01*
X88532810Y-101886217D01*
X88516083Y-101845341D01*
X88494766Y-101811066D01*
X88468875Y-101782516D01*
X88438004Y-101759248D01*
X88403380Y-101742538D01*
X88364290Y-101732225D01*
X88319790Y-101728636D01*
X88268447Y-101732461D01*
X88225787Y-101743169D01*
X88190266Y-101760008D01*
X88160690Y-101782809D01*
X88136787Y-101811511D01*
X88119315Y-101845706D01*
X88108290Y-101886499D01*
X88104367Y-101935363D01*
X88104367Y-101948503D01*
X88108088Y-101987168D01*
X88118876Y-102021399D01*
X88136656Y-102052111D01*
X88160589Y-102078396D01*
X88190682Y-102099978D01*
X88227954Y-102116933D01*
X88187120Y-102130409D01*
X88153910Y-102151531D01*
X88127033Y-102180632D01*
X88107700Y-102215624D01*
X88095548Y-102257468D01*
X88091227Y-102307785D01*
X88091227Y-102320925D01*
X88095379Y-102372783D01*
X88107049Y-102416073D01*
X88125537Y-102452357D01*
X88150822Y-102482809D01*
X88182122Y-102506966D01*
X88219720Y-102524808D01*
X88264885Y-102536153D01*
X88319252Y-102540206D01*
G37*
G36*
X87946928Y-102532000D02*
G01*
X87946928Y-102414958D01*
X87829887Y-102414958D01*
X87829887Y-102532000D01*
X87946928Y-102532000D01*
G37*
G36*
X87474367Y-102540206D02*
G01*
X87518677Y-102537327D01*
X87557707Y-102529086D01*
X87592239Y-102515879D01*
X87623884Y-102497152D01*
X87650795Y-102473845D01*
X87673425Y-102445635D01*
X87690969Y-102413796D01*
X87704189Y-102376867D01*
X87712797Y-102334016D01*
X87599078Y-102334016D01*
X87590637Y-102366626D01*
X87577078Y-102391134D01*
X87558631Y-102409243D01*
X87535635Y-102422066D01*
X87507924Y-102430150D01*
X87474367Y-102433032D01*
X87438708Y-102429411D01*
X87410666Y-102419393D01*
X87388540Y-102403528D01*
X87371994Y-102382002D01*
X87361639Y-102354827D01*
X87357912Y-102320339D01*
X87357912Y-102296305D01*
X87361527Y-102257580D01*
X87371431Y-102227510D01*
X87386880Y-102204177D01*
X87408189Y-102186478D01*
X87434976Y-102175519D01*
X87468896Y-102171595D01*
X87525219Y-102171595D01*
X87525219Y-102065496D01*
X87468896Y-102065496D01*
X87438776Y-102062112D01*
X87415127Y-102052703D01*
X87396454Y-102037603D01*
X87382847Y-102017554D01*
X87374164Y-101991844D01*
X87371004Y-101958859D01*
X87371004Y-101934288D01*
X87374303Y-101904066D01*
X87383466Y-101880314D01*
X87398115Y-101861553D01*
X87417657Y-101847764D01*
X87442721Y-101838996D01*
X87474905Y-101835810D01*
X87502127Y-101838576D01*
X87525658Y-101846535D01*
X87546273Y-101859599D01*
X87562915Y-101877366D01*
X87576429Y-101901866D01*
X87586475Y-101934826D01*
X87699706Y-101934826D01*
X87687925Y-101886217D01*
X87671199Y-101845341D01*
X87649881Y-101811066D01*
X87623991Y-101782516D01*
X87593119Y-101759248D01*
X87558495Y-101742538D01*
X87519405Y-101732225D01*
X87474905Y-101728636D01*
X87423563Y-101732461D01*
X87380902Y-101743169D01*
X87345381Y-101760008D01*
X87315805Y-101782809D01*
X87291902Y-101811511D01*
X87274430Y-101845706D01*
X87263405Y-101886499D01*
X87259483Y-101935363D01*
X87259483Y-101948503D01*
X87263203Y-101987168D01*
X87273992Y-102021399D01*
X87291771Y-102052111D01*
X87315704Y-102078396D01*
X87345797Y-102099978D01*
X87383069Y-102116933D01*
X87342235Y-102130409D01*
X87309025Y-102151531D01*
X87282148Y-102180632D01*
X87262815Y-102215624D01*
X87250663Y-102257468D01*
X87246342Y-102307785D01*
X87246342Y-102320925D01*
X87250494Y-102372783D01*
X87262164Y-102416073D01*
X87280652Y-102452357D01*
X87305938Y-102482809D01*
X87337237Y-102506966D01*
X87374835Y-102524808D01*
X87420000Y-102536153D01*
X87474367Y-102540206D01*
G37*
G36*
X86894779Y-102532000D02*
G01*
X87153970Y-101736842D01*
X87032581Y-101736842D01*
X86841730Y-102360297D01*
X86650829Y-101736842D01*
X86529441Y-101736842D01*
X86788680Y-102532000D01*
X86894779Y-102532000D01*
G37*
D10*
G36*
X90478798Y-103825293D02*
G01*
X90512150Y-103837365D01*
X90539539Y-103857518D01*
X90559655Y-103885237D01*
X90571673Y-103918929D01*
X90576019Y-103961807D01*
X90576019Y-104155247D01*
X90571675Y-104198807D01*
X90559655Y-104233161D01*
X90539516Y-104261575D01*
X90512150Y-104282376D01*
X90478753Y-104294952D01*
X90436556Y-104299473D01*
X90392360Y-104294410D01*
X90357414Y-104280272D01*
X90329578Y-104257463D01*
X90309318Y-104227262D01*
X90296372Y-104188523D01*
X90291659Y-104138822D01*
X90291659Y-103985010D01*
X90296378Y-103934381D01*
X90309334Y-103894874D01*
X90329578Y-103864049D01*
X90357499Y-103840590D01*
X90392449Y-103826113D01*
X90436556Y-103820940D01*
X90478798Y-103825293D01*
G37*
G36*
X90826593Y-104536369D02*
G01*
X88670334Y-104536369D01*
X88670334Y-103750537D01*
X88781445Y-103750537D01*
X88872364Y-103873574D01*
X88893094Y-103853865D01*
X88918892Y-103839441D01*
X88948338Y-103830839D01*
X88983800Y-103827779D01*
X89026544Y-103832252D01*
X89060153Y-103844647D01*
X89086687Y-103864354D01*
X89106454Y-103890861D01*
X89118821Y-103924064D01*
X89123263Y-103965898D01*
X89123263Y-104415000D01*
X89262725Y-104415000D01*
X89262725Y-104285795D01*
X89446518Y-104285795D01*
X89446518Y-104415000D01*
X89974937Y-104415000D01*
X89974937Y-104294710D01*
X89738832Y-103984338D01*
X90152197Y-103984338D01*
X90152197Y-104138822D01*
X90156799Y-104207265D01*
X90169636Y-104264030D01*
X90189675Y-104311103D01*
X90216494Y-104350092D01*
X90251094Y-104382386D01*
X90291896Y-104405627D01*
X90340139Y-104420130D01*
X90397600Y-104425258D01*
X90440865Y-104421560D01*
X90479063Y-104410896D01*
X90513127Y-104393506D01*
X90542849Y-104369578D01*
X90566904Y-104339869D01*
X90576019Y-104322174D01*
X90576019Y-104415000D01*
X90715482Y-104415000D01*
X90715482Y-103421053D01*
X90576019Y-103421053D01*
X90576019Y-103801856D01*
X90566171Y-103785952D01*
X90538193Y-103754238D01*
X90506288Y-103729043D01*
X90470394Y-103710231D01*
X90432128Y-103698973D01*
X90390761Y-103695155D01*
X90334755Y-103700290D01*
X90287783Y-103714819D01*
X90248074Y-103738152D01*
X90214418Y-103770687D01*
X90188599Y-103809665D01*
X90169188Y-103857076D01*
X90156692Y-103914613D01*
X90152197Y-103984338D01*
X89738832Y-103984338D01*
X89624937Y-103834617D01*
X89965351Y-103834617D01*
X89965351Y-103705413D01*
X89464958Y-103705413D01*
X89464958Y-103823016D01*
X89806044Y-104285795D01*
X89446518Y-104285795D01*
X89262725Y-104285795D01*
X89262725Y-103705413D01*
X89123263Y-103705413D01*
X89123263Y-103805672D01*
X89113427Y-103789557D01*
X89085346Y-103757009D01*
X89053226Y-103730753D01*
X89017007Y-103710909D01*
X88978846Y-103699128D01*
X88938004Y-103695155D01*
X88890950Y-103698800D01*
X88850199Y-103709199D01*
X88813191Y-103726620D01*
X88781445Y-103750537D01*
X88670334Y-103750537D01*
X88670334Y-103309942D01*
X90826593Y-103309942D01*
X90826593Y-104536369D01*
G37*
D12*
X74821427Y-76999757D02*
X74964285Y-76928328D01*
X74964285Y-76928328D02*
X75178570Y-76928328D01*
X75178570Y-76928328D02*
X75392856Y-76999757D01*
X75392856Y-76999757D02*
X75535713Y-77142614D01*
X75535713Y-77142614D02*
X75607142Y-77285471D01*
X75607142Y-77285471D02*
X75678570Y-77571185D01*
X75678570Y-77571185D02*
X75678570Y-77785471D01*
X75678570Y-77785471D02*
X75607142Y-78071185D01*
X75607142Y-78071185D02*
X75535713Y-78214042D01*
X75535713Y-78214042D02*
X75392856Y-78356900D01*
X75392856Y-78356900D02*
X75178570Y-78428328D01*
X75178570Y-78428328D02*
X75035713Y-78428328D01*
X75035713Y-78428328D02*
X74821427Y-78356900D01*
X74821427Y-78356900D02*
X74749999Y-78285471D01*
X74749999Y-78285471D02*
X74749999Y-77785471D01*
X74749999Y-77785471D02*
X75035713Y-77785471D01*
X73892856Y-76928328D02*
X73892856Y-77285471D01*
X74249999Y-77142614D02*
X73892856Y-77285471D01*
X73892856Y-77285471D02*
X73535713Y-77142614D01*
X74107142Y-77571185D02*
X73892856Y-77285471D01*
X73892856Y-77285471D02*
X73678570Y-77571185D01*
X72749999Y-76928328D02*
X72749999Y-77285471D01*
X73107142Y-77142614D02*
X72749999Y-77285471D01*
X72749999Y-77285471D02*
X72392856Y-77142614D01*
X72964285Y-77571185D02*
X72749999Y-77285471D01*
X72749999Y-77285471D02*
X72535713Y-77571185D01*
X71607142Y-76928328D02*
X71607142Y-77285471D01*
X71964285Y-77142614D02*
X71607142Y-77285471D01*
X71607142Y-77285471D02*
X71249999Y-77142614D01*
X71821428Y-77571185D02*
X71607142Y-77285471D01*
X71607142Y-77285471D02*
X71392856Y-77571185D01*
D13*
%TO.C,R13*%
X77477500Y-61630619D02*
X77477500Y-61121171D01*
X78522500Y-61630619D02*
X78522500Y-61121171D01*
%TO.C,R9*%
X70677500Y-61630619D02*
X70677500Y-61121171D01*
X71722500Y-61630619D02*
X71722500Y-61121171D01*
%TO.C,C6*%
X120490000Y-46906267D02*
X120490000Y-46613733D01*
X121510000Y-46906267D02*
X121510000Y-46613733D01*
%TO.C,R15*%
X54437500Y-92345276D02*
X54437500Y-92854724D01*
X55482500Y-92345276D02*
X55482500Y-92854724D01*
%TO.C,R18*%
X59477500Y-92832776D02*
X59477500Y-93342224D01*
X60522500Y-92832776D02*
X60522500Y-93342224D01*
%TO.C,JP5V8*%
X129600000Y-98200000D02*
X129600000Y-98800000D01*
X130300000Y-99500000D02*
X131700000Y-99500000D01*
X131700000Y-97500000D02*
X130300000Y-97500000D01*
X132400000Y-98800000D02*
X132400000Y-98200000D01*
X129600000Y-98200000D02*
G75*
G02*
X130300000Y-97500000I700000J0D01*
G01*
X130300000Y-99500000D02*
G75*
G02*
X129600000Y-98800000I0J700000D01*
G01*
X131700000Y-97500000D02*
G75*
G02*
X132400000Y-98200000I1J-699999D01*
G01*
X132400000Y-98800000D02*
G75*
G02*
X131700000Y-99500000I-699999J-1D01*
G01*
%TO.C,JP3V4*%
X86590000Y-103330000D02*
X86590000Y-104730000D01*
X87290000Y-105430000D02*
X87890000Y-105430000D01*
X87890000Y-102630000D02*
X87290000Y-102630000D01*
X88590000Y-104730000D02*
X88590000Y-103330000D01*
X86590000Y-103330000D02*
G75*
G02*
X87290000Y-102630000I699999J1D01*
G01*
X87290000Y-105430000D02*
G75*
G02*
X86590000Y-104730000I0J700000D01*
G01*
X87890000Y-102630000D02*
G75*
G02*
X88590000Y-103330000I1J-699999D01*
G01*
X88590000Y-104730000D02*
G75*
G02*
X87890000Y-105430000I-700000J0D01*
G01*
%TO.C,R12*%
X84527500Y-100115276D02*
X84527500Y-100624724D01*
X85572500Y-100115276D02*
X85572500Y-100624724D01*
%TO.C,R8*%
X50277500Y-82810619D02*
X50277500Y-82301171D01*
X51322500Y-82810619D02*
X51322500Y-82301171D01*
D14*
%TO.C,G\u002A\u002A\u002A*%
G36*
X66336954Y-80611102D02*
G01*
X66336954Y-81660859D01*
X66172286Y-81660859D01*
X66007618Y-81660859D01*
X66007618Y-80611102D01*
X66007618Y-79561345D01*
X66172286Y-79561345D01*
X66336954Y-79561345D01*
X66336954Y-80611102D01*
G37*
G36*
X80910049Y-80613469D02*
G01*
X80910049Y-81665593D01*
X80741024Y-81652934D01*
X80571998Y-81640275D01*
X80566064Y-81208023D01*
X80560130Y-80775770D01*
X80138169Y-80764038D01*
X79716208Y-80752306D01*
X79716208Y-80590519D01*
X79716208Y-80428731D01*
X80138169Y-80416999D01*
X80560130Y-80405267D01*
X80560130Y-80137682D01*
X80560130Y-79870097D01*
X80097002Y-79858457D01*
X79633874Y-79846817D01*
X79633874Y-79704081D01*
X79633874Y-79561345D01*
X80271962Y-79561345D01*
X80910049Y-79561345D01*
X80910049Y-80613469D01*
G37*
G36*
X79428040Y-79703626D02*
G01*
X79428040Y-79845907D01*
X79129579Y-79858002D01*
X78831119Y-79870097D01*
X78820566Y-80714019D01*
X78819779Y-80773185D01*
X78815319Y-81026203D01*
X78809663Y-81249815D01*
X78803262Y-81430790D01*
X78796565Y-81555898D01*
X78790022Y-81611905D01*
X78736688Y-81648285D01*
X78615323Y-81653072D01*
X78460617Y-81640275D01*
X78440033Y-80755186D01*
X78419450Y-79870097D01*
X78100406Y-79858074D01*
X77781362Y-79846050D01*
X77781362Y-79703698D01*
X77781362Y-79561345D01*
X78604701Y-79561345D01*
X79428040Y-79561345D01*
X79428040Y-79703626D01*
G37*
G36*
X68312967Y-79703626D02*
G01*
X68312967Y-79845907D01*
X68014506Y-79858002D01*
X67716046Y-79870097D01*
X67705493Y-80714019D01*
X67704703Y-80773620D01*
X67700306Y-81026351D01*
X67694794Y-81249475D01*
X67688600Y-81429812D01*
X67682160Y-81554181D01*
X67675910Y-81609400D01*
X67670412Y-81618281D01*
X67604658Y-81648903D01*
X67491723Y-81660859D01*
X67326566Y-81660859D01*
X67315471Y-80765478D01*
X67304377Y-79870097D01*
X66985333Y-79858074D01*
X66666289Y-79846050D01*
X66666289Y-79703698D01*
X66666289Y-79561345D01*
X67489628Y-79561345D01*
X68312967Y-79561345D01*
X68312967Y-79703626D01*
G37*
G36*
X76495602Y-83873582D02*
G01*
X76506601Y-84913047D01*
X76322188Y-84913047D01*
X76137774Y-84913047D01*
X76125938Y-84532253D01*
X76114101Y-84151459D01*
X75784766Y-84130434D01*
X75665330Y-84120542D01*
X75450212Y-84082967D01*
X75293890Y-84017559D01*
X75181250Y-83916432D01*
X75097176Y-83771701D01*
X75044778Y-83606952D01*
X75039219Y-83435845D01*
X75408852Y-83435845D01*
X75410780Y-83569773D01*
X75475283Y-83688343D01*
X75481806Y-83696566D01*
X75535931Y-83753589D01*
X75598950Y-83785161D01*
X75695322Y-83798678D01*
X75849504Y-83801540D01*
X76134685Y-83801540D01*
X76134685Y-83467559D01*
X76134685Y-83133578D01*
X75846648Y-83149853D01*
X75787435Y-83153786D01*
X75616546Y-83178230D01*
X75507128Y-83226189D01*
X75443295Y-83307975D01*
X75409164Y-83433901D01*
X75408852Y-83435845D01*
X75039219Y-83435845D01*
X75037565Y-83384930D01*
X75102049Y-83182713D01*
X75233280Y-83013555D01*
X75426305Y-82890705D01*
X75452448Y-82879873D01*
X75557412Y-82846009D01*
X75676714Y-82826806D01*
X75832913Y-82819794D01*
X76048567Y-82822498D01*
X76484604Y-82834117D01*
X76491306Y-83467559D01*
X76495602Y-83873582D01*
G37*
G36*
X85891249Y-74250810D02*
G01*
X85891249Y-78573339D01*
X85500163Y-78573339D01*
X85109077Y-78573339D01*
X85109077Y-74646301D01*
X85109075Y-74530722D01*
X85108943Y-73883521D01*
X85108553Y-73313052D01*
X85107825Y-72814511D01*
X85106681Y-72383096D01*
X85105041Y-72014004D01*
X85102826Y-71702433D01*
X85099957Y-71443580D01*
X85096354Y-71232641D01*
X85091939Y-71064816D01*
X85086633Y-70935300D01*
X85080356Y-70839291D01*
X85073030Y-70771987D01*
X85064574Y-70728584D01*
X85054910Y-70704281D01*
X85043960Y-70694275D01*
X85018880Y-70692779D01*
X84915530Y-70690741D01*
X84735470Y-70688753D01*
X84481969Y-70686822D01*
X84158297Y-70684955D01*
X83767721Y-70683159D01*
X83313511Y-70681441D01*
X82798937Y-70679807D01*
X82227268Y-70678265D01*
X81601771Y-70676821D01*
X80925718Y-70675482D01*
X80202376Y-70674254D01*
X79435014Y-70673146D01*
X78626903Y-70672163D01*
X77781310Y-70671313D01*
X76901505Y-70670602D01*
X75990758Y-70670037D01*
X75052336Y-70669625D01*
X74089510Y-70669372D01*
X73105548Y-70669287D01*
X61232254Y-70669287D01*
X61232254Y-70298784D01*
X61232254Y-69928282D01*
X73561751Y-69928282D01*
X85891249Y-69928282D01*
X85891249Y-74250810D01*
G37*
G36*
X78567313Y-82821458D02*
G01*
X78735760Y-82834117D01*
X78730773Y-83595705D01*
X78729081Y-83801187D01*
X78725356Y-84023017D01*
X78718714Y-84186707D01*
X78707725Y-84306275D01*
X78690957Y-84395736D01*
X78666982Y-84469107D01*
X78634368Y-84540405D01*
X78551345Y-84676831D01*
X78392781Y-84827773D01*
X78187976Y-84915369D01*
X78133910Y-84925960D01*
X77962714Y-84936914D01*
X77770872Y-84927000D01*
X77592393Y-84899009D01*
X77461286Y-84855731D01*
X77415969Y-84830980D01*
X77307153Y-84755583D01*
X77223899Y-84663420D01*
X77162954Y-84543602D01*
X77121064Y-84385237D01*
X77094976Y-84177433D01*
X77081438Y-83909300D01*
X77077194Y-83569947D01*
X77075871Y-82834117D01*
X77243366Y-82821458D01*
X77410860Y-82808799D01*
X77410860Y-83512326D01*
X77411662Y-83697011D01*
X77416985Y-83950389D01*
X77427903Y-84137836D01*
X77445127Y-84269587D01*
X77469367Y-84355881D01*
X77502962Y-84419475D01*
X77625456Y-84541529D01*
X77788557Y-84609636D01*
X77972407Y-84617892D01*
X78157152Y-84560394D01*
X78224429Y-84518903D01*
X78288493Y-84453989D01*
X78335116Y-84362870D01*
X78366882Y-84234345D01*
X78386373Y-84057213D01*
X78396173Y-83820274D01*
X78398866Y-83512326D01*
X78398866Y-82808799D01*
X78567313Y-82821458D01*
G37*
G36*
X70386037Y-80859725D02*
G01*
X70319701Y-81114242D01*
X70207148Y-81330818D01*
X70165485Y-81382705D01*
X70019948Y-81513662D01*
X69849579Y-81618084D01*
X69687846Y-81673860D01*
X69621848Y-81681604D01*
X69408722Y-81677853D01*
X69190378Y-81640859D01*
X69009217Y-81576695D01*
X68994168Y-81568824D01*
X68795830Y-81417460D01*
X68653987Y-81206754D01*
X68569096Y-80937653D01*
X68541617Y-80611102D01*
X68542412Y-80590860D01*
X68915304Y-80590860D01*
X68921954Y-80755887D01*
X68962783Y-80967183D01*
X69045973Y-81127272D01*
X69177472Y-81251134D01*
X69223306Y-81280418D01*
X69411137Y-81344547D01*
X69621703Y-81331142D01*
X69630221Y-81329135D01*
X69783673Y-81265333D01*
X69894491Y-81150761D01*
X69977776Y-80970110D01*
X69993639Y-80920119D01*
X70038626Y-80672398D01*
X70029617Y-80440447D01*
X69973378Y-80233735D01*
X69876676Y-80061735D01*
X69746278Y-79933917D01*
X69588949Y-79859752D01*
X69411458Y-79848711D01*
X69220569Y-79910266D01*
X69129459Y-79969830D01*
X69008859Y-80117049D01*
X68938286Y-80322248D01*
X68915304Y-80590860D01*
X68542412Y-80590860D01*
X68549812Y-80402556D01*
X68587415Y-80172431D01*
X68660923Y-79985986D01*
X68776272Y-79823296D01*
X68912477Y-79689728D01*
X69058812Y-79602561D01*
X69234954Y-79557588D01*
X69465641Y-79544818D01*
X69676548Y-79554938D01*
X69854312Y-79595332D01*
X70004187Y-79676420D01*
X70153157Y-79808555D01*
X70203573Y-79867314D01*
X70314923Y-80071062D01*
X70382929Y-80317882D01*
X70406873Y-80587520D01*
X70400376Y-80672398D01*
X70386037Y-80859725D01*
G37*
G36*
X64966160Y-79593990D02*
G01*
X65175178Y-79722248D01*
X65336711Y-79914423D01*
X65446760Y-80167055D01*
X65501322Y-80476685D01*
X65506644Y-80600419D01*
X65479602Y-80912764D01*
X65394870Y-81182544D01*
X65256431Y-81402660D01*
X65068267Y-81566015D01*
X64834361Y-81665511D01*
X64691600Y-81682517D01*
X64498704Y-81674725D01*
X64306566Y-81643469D01*
X64155292Y-81593031D01*
X64113239Y-81569282D01*
X63971176Y-81445570D01*
X63865248Y-81287121D01*
X63816726Y-81123438D01*
X63805187Y-80981604D01*
X63990438Y-80981604D01*
X64009213Y-80981669D01*
X64117188Y-80988980D01*
X64169298Y-81015981D01*
X64188737Y-81073410D01*
X64203853Y-81128082D01*
X64288969Y-81235156D01*
X64431814Y-81305944D01*
X64617561Y-81331523D01*
X64622806Y-81331518D01*
X64757757Y-81322509D01*
X64849534Y-81286790D01*
X64935261Y-81210181D01*
X65028779Y-81071290D01*
X65100688Y-80858157D01*
X65126286Y-80613668D01*
X65101172Y-80360372D01*
X65085743Y-80296741D01*
X65000721Y-80096377D01*
X64879969Y-79952269D01*
X64735074Y-79869024D01*
X64577622Y-79851247D01*
X64419199Y-79903543D01*
X64271389Y-80030517D01*
X64223132Y-80099816D01*
X64197643Y-80164640D01*
X64168819Y-80185172D01*
X64086501Y-80193263D01*
X63980143Y-80187172D01*
X63879636Y-80168814D01*
X63814871Y-80140106D01*
X63807902Y-80127817D01*
X63818685Y-80057866D01*
X63866735Y-79954658D01*
X63939165Y-79839525D01*
X64023090Y-79733798D01*
X64105623Y-79658809D01*
X64134343Y-79641231D01*
X64272799Y-79581193D01*
X64421600Y-79543077D01*
X64421680Y-79543065D01*
X64713661Y-79533109D01*
X64966160Y-79593990D01*
G37*
G36*
X81044531Y-84090672D02*
G01*
X81013137Y-84293123D01*
X80962214Y-84443525D01*
X80879757Y-84571637D01*
X80746444Y-84719789D01*
X80601134Y-84834703D01*
X80466750Y-84895470D01*
X80381623Y-84916043D01*
X80313129Y-84936470D01*
X80304722Y-84939180D01*
X80211454Y-84946033D01*
X80072605Y-84936985D01*
X79917808Y-84915922D01*
X79776699Y-84886731D01*
X79678912Y-84853298D01*
X79529507Y-84749560D01*
X79369880Y-84556078D01*
X79256592Y-84306826D01*
X79195633Y-84012229D01*
X79187561Y-83880079D01*
X79198370Y-83759129D01*
X79561625Y-83759129D01*
X79564954Y-83989432D01*
X79612922Y-84208359D01*
X79703900Y-84395670D01*
X79836259Y-84531121D01*
X79939554Y-84584731D01*
X80127886Y-84619172D01*
X80314388Y-84586764D01*
X80478216Y-84492675D01*
X80598522Y-84342076D01*
X80646164Y-84224120D01*
X80689003Y-83988043D01*
X80683262Y-83735976D01*
X80630736Y-83496614D01*
X80533220Y-83298651D01*
X80526553Y-83289599D01*
X80397592Y-83182028D01*
X80230859Y-83128202D01*
X80049600Y-83128335D01*
X79877067Y-83182641D01*
X79736507Y-83291333D01*
X79695395Y-83345368D01*
X79604562Y-83537694D01*
X79561625Y-83759129D01*
X79198370Y-83759129D01*
X79214529Y-83578300D01*
X79302914Y-83307909D01*
X79447764Y-83081078D01*
X79644126Y-82909979D01*
X79696013Y-82878862D01*
X79807188Y-82829488D01*
X79933168Y-82805093D01*
X80107487Y-82797542D01*
X80139780Y-82797554D01*
X80416415Y-82828913D01*
X80641529Y-82920701D01*
X80824464Y-83078411D01*
X80974561Y-83307536D01*
X81018620Y-83439434D01*
X81047564Y-83636986D01*
X81056104Y-83863012D01*
X81049748Y-83988043D01*
X81044531Y-84090672D01*
G37*
G36*
X82999978Y-83873582D02*
G01*
X83010977Y-84913047D01*
X82826510Y-84913047D01*
X82642042Y-84913047D01*
X82630260Y-84511669D01*
X82618477Y-84110292D01*
X82485398Y-84097445D01*
X82439171Y-84094744D01*
X82369492Y-84108948D01*
X82308627Y-84162864D01*
X82232846Y-84272988D01*
X82182166Y-84355555D01*
X82084364Y-84524161D01*
X81995423Y-84687114D01*
X81877472Y-84912851D01*
X81638333Y-84912949D01*
X81626549Y-84912935D01*
X81494710Y-84907827D01*
X81432796Y-84891633D01*
X81429567Y-84861588D01*
X81450859Y-84827872D01*
X81511864Y-84734440D01*
X81599591Y-84601698D01*
X81702975Y-84446451D01*
X81781515Y-84327145D01*
X81863355Y-84197929D01*
X81916585Y-84107665D01*
X81932325Y-84070893D01*
X81928723Y-84068320D01*
X81875068Y-84038053D01*
X81783026Y-83990028D01*
X81754177Y-83974056D01*
X81613866Y-83847198D01*
X81524236Y-83678209D01*
X81491254Y-83509586D01*
X81838257Y-83509586D01*
X81874703Y-83616010D01*
X81945610Y-83728994D01*
X82042829Y-83801801D01*
X82105834Y-83818059D01*
X82241241Y-83835809D01*
X82394739Y-83842707D01*
X82639061Y-83842707D01*
X82639061Y-83492788D01*
X82639061Y-83142869D01*
X82368769Y-83142869D01*
X82357427Y-83142886D01*
X82166160Y-83152200D01*
X82035432Y-83184227D01*
X81945625Y-83247208D01*
X81877120Y-83349384D01*
X81841954Y-83430014D01*
X81838257Y-83509586D01*
X81491254Y-83509586D01*
X81486855Y-83487096D01*
X81503294Y-83293868D01*
X81575122Y-83118534D01*
X81703907Y-82981101D01*
X81737520Y-82958460D01*
X81879352Y-82887776D01*
X82049831Y-82843717D01*
X82266273Y-82823022D01*
X82545993Y-82822428D01*
X82988980Y-82834117D01*
X82995949Y-83492788D01*
X82999978Y-83873582D01*
G37*
G36*
X74669600Y-80814633D02*
G01*
X74657357Y-80967002D01*
X74633877Y-81077788D01*
X74596517Y-81166856D01*
X74577381Y-81201511D01*
X74406611Y-81429508D01*
X74196573Y-81588927D01*
X73952837Y-81675367D01*
X73870532Y-81684610D01*
X73670380Y-81676669D01*
X73462042Y-81638160D01*
X73288240Y-81575502D01*
X73240836Y-81548149D01*
X73078738Y-81401473D01*
X72949031Y-81198622D01*
X72865074Y-80959059D01*
X72845480Y-80836301D01*
X72836624Y-80610007D01*
X72843594Y-80509467D01*
X73199370Y-80509467D01*
X73203397Y-80730945D01*
X73247617Y-80941097D01*
X73332579Y-81121262D01*
X73458834Y-81252781D01*
X73509219Y-81283961D01*
X73698248Y-81348009D01*
X73884700Y-81338807D01*
X74053718Y-81262192D01*
X74190446Y-81124003D01*
X74280027Y-80930078D01*
X74323174Y-80702726D01*
X74317475Y-80434706D01*
X74246109Y-80199409D01*
X74111072Y-80007749D01*
X74101859Y-79998584D01*
X73994545Y-79905035D01*
X73900319Y-79860711D01*
X73786125Y-79849514D01*
X73766853Y-79849900D01*
X73622193Y-79870285D01*
X73498360Y-79912112D01*
X73422940Y-79963664D01*
X73309691Y-80107167D01*
X73234984Y-80295321D01*
X73199370Y-80509467D01*
X72843594Y-80509467D01*
X72853041Y-80373205D01*
X72892042Y-80156238D01*
X72950943Y-79989445D01*
X72985763Y-79929326D01*
X73146134Y-79746202D01*
X73351971Y-79611111D01*
X73579262Y-79541184D01*
X73628549Y-79535223D01*
X73923095Y-79538230D01*
X74178560Y-79611365D01*
X74391325Y-79753075D01*
X74557775Y-79961804D01*
X74561784Y-79968639D01*
X74612906Y-80063032D01*
X74645492Y-80149978D01*
X74663666Y-80251915D01*
X74671547Y-80391282D01*
X74673258Y-80590519D01*
X74673254Y-80600813D01*
X74671512Y-80702726D01*
X74669600Y-80814633D01*
G37*
G36*
X83256565Y-80569984D02*
G01*
X83249141Y-80755831D01*
X83226891Y-80945686D01*
X83194014Y-81088764D01*
X83152566Y-81189518D01*
X83008925Y-81402878D01*
X82814999Y-81565943D01*
X82586571Y-81663773D01*
X82359903Y-81691700D01*
X82105295Y-81659782D01*
X81870303Y-81567242D01*
X81672588Y-81421341D01*
X81529808Y-81229338D01*
X81498579Y-81165712D01*
X81459993Y-81064892D01*
X81437578Y-80955144D01*
X81427179Y-80812028D01*
X81424758Y-80620714D01*
X81774555Y-80620714D01*
X81774789Y-80649056D01*
X81805495Y-80910547D01*
X81888705Y-81111083D01*
X82025733Y-81253979D01*
X82040935Y-81264256D01*
X82225771Y-81340058D01*
X82418709Y-81342374D01*
X82600102Y-81274321D01*
X82750304Y-81139015D01*
X82791363Y-81080917D01*
X82839057Y-80983563D01*
X82865628Y-80863276D01*
X82879623Y-80690404D01*
X82880583Y-80476658D01*
X82848825Y-80271288D01*
X82775703Y-80109969D01*
X82655698Y-79975072D01*
X82576508Y-79916231D01*
X82397709Y-79849922D01*
X82212713Y-79863707D01*
X82031366Y-79957858D01*
X81949955Y-80030129D01*
X81848294Y-80178616D01*
X81791936Y-80370036D01*
X81774555Y-80620714D01*
X81424758Y-80620714D01*
X81424636Y-80611102D01*
X81425384Y-80486777D01*
X81431949Y-80322166D01*
X81448769Y-80201273D01*
X81480001Y-80099656D01*
X81529803Y-79992876D01*
X81653984Y-79810930D01*
X81811226Y-79664639D01*
X81857375Y-79633013D01*
X81945167Y-79583144D01*
X82035544Y-79555372D01*
X82155070Y-79543358D01*
X82330309Y-79540762D01*
X82416036Y-79541157D01*
X82563855Y-79547196D01*
X82667901Y-79565537D01*
X82754916Y-79602528D01*
X82851641Y-79664517D01*
X82989381Y-79780778D01*
X83138968Y-79991499D01*
X83227453Y-80253280D01*
X83247986Y-80476658D01*
X83256565Y-80569984D01*
G37*
G36*
X76628003Y-80803516D02*
G01*
X76625245Y-81065626D01*
X76620674Y-81291355D01*
X76614609Y-81469214D01*
X76607372Y-81587716D01*
X76599284Y-81635374D01*
X76595170Y-81638533D01*
X76529229Y-81653132D01*
X76424325Y-81652526D01*
X76278769Y-81640275D01*
X76266986Y-81238898D01*
X76255204Y-80837520D01*
X76099470Y-80837520D01*
X76047254Y-80838513D01*
X75990876Y-80849302D01*
X75941624Y-80882303D01*
X75887705Y-80949949D01*
X75817326Y-81064670D01*
X75718694Y-81238898D01*
X75493651Y-81640275D01*
X75315455Y-81653164D01*
X75302253Y-81654107D01*
X75176664Y-81659243D01*
X75101390Y-81646828D01*
X75075915Y-81606956D01*
X75099726Y-81529722D01*
X75172309Y-81405220D01*
X75293148Y-81223544D01*
X75320371Y-81183426D01*
X75427949Y-81022836D01*
X75492156Y-80913385D01*
X75514374Y-80840287D01*
X75495985Y-80788754D01*
X75438372Y-80743999D01*
X75342918Y-80691233D01*
X75340491Y-80689904D01*
X75218608Y-80579045D01*
X75138330Y-80417785D01*
X75103829Y-80228705D01*
X75108546Y-80169369D01*
X75461472Y-80169369D01*
X75463581Y-80314135D01*
X75534993Y-80442270D01*
X75667035Y-80533832D01*
X75727373Y-80553230D01*
X75874294Y-80580011D01*
X76032048Y-80590519D01*
X76261391Y-80590519D01*
X76249496Y-80230308D01*
X76237602Y-79870097D01*
X76031767Y-79858876D01*
X75951392Y-79858367D01*
X75748885Y-79895114D01*
X75586880Y-79981581D01*
X75482632Y-80109883D01*
X75461472Y-80169369D01*
X75108546Y-80169369D01*
X75119278Y-80034387D01*
X75188849Y-79857412D01*
X75210441Y-79824185D01*
X75305616Y-79719907D01*
X75432166Y-79645497D01*
X75602525Y-79597032D01*
X75829123Y-79570590D01*
X76124393Y-79562249D01*
X76628688Y-79561345D01*
X76628688Y-80583657D01*
X76628667Y-80590519D01*
X76628003Y-80803516D01*
G37*
G36*
X72347326Y-80611102D02*
G01*
X72347326Y-81036494D01*
X72347326Y-81660859D01*
X71860657Y-81660859D01*
X71797993Y-81660555D01*
X71476328Y-81645780D01*
X71225924Y-81606198D01*
X71039560Y-81538204D01*
X70910013Y-81438193D01*
X70830060Y-81302561D01*
X70792479Y-81127702D01*
X70788910Y-81077560D01*
X70790699Y-81060371D01*
X71166617Y-81060371D01*
X71210322Y-81185056D01*
X71318837Y-81278583D01*
X71391152Y-81300317D01*
X71518020Y-81318621D01*
X71667393Y-81329137D01*
X71813271Y-81330876D01*
X71929656Y-81322852D01*
X71990546Y-81304079D01*
X72002300Y-81269044D01*
X72013617Y-81170534D01*
X72017991Y-81036494D01*
X72017991Y-80796353D01*
X71648438Y-80796353D01*
X71484756Y-80797454D01*
X71366020Y-80804008D01*
X71293246Y-80820623D01*
X71247378Y-80851906D01*
X71209360Y-80902461D01*
X71194527Y-80927914D01*
X71166617Y-81060371D01*
X70790699Y-81060371D01*
X70808063Y-80893565D01*
X70889198Y-80754938D01*
X71039758Y-80647215D01*
X71053835Y-80639909D01*
X71128247Y-80596672D01*
X71136589Y-80570961D01*
X71086223Y-80546871D01*
X71077672Y-80543558D01*
X70951093Y-80451964D01*
X70865047Y-80309863D01*
X70828110Y-80152834D01*
X71194652Y-80152834D01*
X71211611Y-80258525D01*
X71272133Y-80359708D01*
X71305385Y-80382230D01*
X71436798Y-80425825D01*
X71633290Y-80453610D01*
X71791574Y-80461937D01*
X71915652Y-80446025D01*
X71984298Y-80390404D01*
X72011152Y-80282635D01*
X72009857Y-80110280D01*
X71997408Y-79870097D01*
X71707327Y-79870097D01*
X71670516Y-79870380D01*
X71452763Y-79889283D01*
X71305118Y-79940316D01*
X71221206Y-80026995D01*
X71194652Y-80152834D01*
X70828110Y-80152834D01*
X70825118Y-80140114D01*
X70836892Y-79965571D01*
X70905953Y-79809092D01*
X70922587Y-79786898D01*
X71016484Y-79696861D01*
X71142122Y-79632602D01*
X71311910Y-79590805D01*
X71538258Y-79568158D01*
X71833573Y-79561345D01*
X72347326Y-79561345D01*
X72347326Y-80282635D01*
X72347326Y-80611102D01*
G37*
G36*
X62730825Y-79537371D02*
G01*
X62928753Y-79566290D01*
X63084766Y-79624496D01*
X63108474Y-79639073D01*
X63255967Y-79778466D01*
X63342687Y-79956372D01*
X63357881Y-80152020D01*
X63356316Y-80164103D01*
X63329669Y-80276057D01*
X63276456Y-80372100D01*
X63186318Y-80460467D01*
X63048896Y-80549394D01*
X62853830Y-80647115D01*
X62590762Y-80761867D01*
X62588941Y-80762632D01*
X62477116Y-80811891D01*
X62353078Y-80869445D01*
X62335204Y-80878408D01*
X62224148Y-80966350D01*
X62184260Y-81065486D01*
X62208946Y-81163693D01*
X62291608Y-81248851D01*
X62425652Y-81308835D01*
X62604482Y-81331523D01*
X62808494Y-81307242D01*
X62956585Y-81230862D01*
X63045178Y-81100951D01*
X63060253Y-81067868D01*
X63118006Y-81015895D01*
X63225402Y-81002188D01*
X63238953Y-81002368D01*
X63338739Y-81015447D01*
X63393224Y-81042880D01*
X63396979Y-81066243D01*
X63379989Y-81151800D01*
X63337432Y-81266555D01*
X63322779Y-81296904D01*
X63197268Y-81464115D01*
X63024545Y-81597854D01*
X62834229Y-81674133D01*
X62784941Y-81681649D01*
X62612380Y-81684203D01*
X62416074Y-81663438D01*
X62231229Y-81624232D01*
X62093051Y-81571462D01*
X61942260Y-81454455D01*
X61841608Y-81284882D01*
X61808591Y-81069311D01*
X61821989Y-80948505D01*
X61902302Y-80776317D01*
X62057069Y-80632623D01*
X62288550Y-80514811D01*
X62300510Y-80510134D01*
X62544824Y-80412252D01*
X62721889Y-80334629D01*
X62841886Y-80271014D01*
X62914994Y-80215154D01*
X62951394Y-80160799D01*
X62961265Y-80101697D01*
X62956469Y-80055136D01*
X62894728Y-79945887D01*
X62770341Y-79874854D01*
X62594193Y-79849514D01*
X62496261Y-79857415D01*
X62396695Y-79899460D01*
X62290125Y-79993598D01*
X62218537Y-80056488D01*
X62102037Y-80122514D01*
X61996677Y-80145776D01*
X61920344Y-80123597D01*
X61890925Y-80053304D01*
X61922833Y-79914238D01*
X62014006Y-79763921D01*
X62147087Y-79637156D01*
X62169973Y-79622490D01*
X62322991Y-79565855D01*
X62519423Y-79537354D01*
X62730825Y-79537371D01*
G37*
G36*
X84660887Y-79547483D02*
G01*
X84819352Y-79570850D01*
X84935938Y-79615099D01*
X85012599Y-79665333D01*
X85140484Y-79806012D01*
X85213347Y-79974628D01*
X85228157Y-80152288D01*
X85181878Y-80320101D01*
X85071477Y-80459172D01*
X85003802Y-80501841D01*
X84885754Y-80564395D01*
X84738034Y-80637111D01*
X84581200Y-80710385D01*
X84435809Y-80774613D01*
X84322419Y-80820193D01*
X84261586Y-80837520D01*
X84207862Y-80861159D01*
X84131745Y-80930654D01*
X84066449Y-81016560D01*
X84038737Y-81088710D01*
X84063316Y-81167977D01*
X84153947Y-81252126D01*
X84294558Y-81309997D01*
X84467381Y-81331523D01*
X84668653Y-81307264D01*
X84816658Y-81230062D01*
X84905768Y-81098462D01*
X84934935Y-81041654D01*
X84991762Y-81009726D01*
X85098713Y-81009990D01*
X85108246Y-81010796D01*
X85204241Y-81026039D01*
X85242220Y-81062296D01*
X85244898Y-81139727D01*
X85237006Y-81192030D01*
X85164405Y-81351345D01*
X85032093Y-81495261D01*
X84857046Y-81608337D01*
X84656241Y-81675134D01*
X84608983Y-81681218D01*
X84453213Y-81682292D01*
X84275321Y-81665754D01*
X84110070Y-81635730D01*
X83992224Y-81596344D01*
X83815697Y-81464666D01*
X83705788Y-81288390D01*
X83668234Y-81074989D01*
X83669217Y-81009135D01*
X83684439Y-80900137D01*
X83731233Y-80815603D01*
X83826238Y-80717937D01*
X83873487Y-80677493D01*
X84028903Y-80572122D01*
X84186449Y-80494464D01*
X84215409Y-80483628D01*
X84458790Y-80389195D01*
X84633685Y-80312272D01*
X84749302Y-80246589D01*
X84814847Y-80185871D01*
X84839526Y-80123845D01*
X84832546Y-80054239D01*
X84769592Y-79948949D01*
X84641651Y-79875589D01*
X84463811Y-79849514D01*
X84351275Y-79858558D01*
X84254057Y-79900658D01*
X84149769Y-79993598D01*
X84078180Y-80056488D01*
X83961681Y-80122514D01*
X83856321Y-80145776D01*
X83779987Y-80123597D01*
X83750568Y-80053304D01*
X83782476Y-79914238D01*
X83873650Y-79763921D01*
X84006731Y-79637156D01*
X84080599Y-79591717D01*
X84170670Y-79560480D01*
X84292183Y-79545509D01*
X84470480Y-79541581D01*
X84660887Y-79547483D01*
G37*
G36*
X84591487Y-82819281D02*
G01*
X84822123Y-82904585D01*
X85018505Y-83058273D01*
X85192270Y-83286953D01*
X85227863Y-83348323D01*
X85262867Y-83431720D01*
X85282979Y-83530476D01*
X85292149Y-83666897D01*
X85294328Y-83863290D01*
X85294161Y-83922253D01*
X85289343Y-84109819D01*
X85275277Y-84243516D01*
X85248481Y-84345925D01*
X85205473Y-84439627D01*
X85105519Y-84593744D01*
X84922513Y-84777556D01*
X84712340Y-84893912D01*
X84561365Y-84936547D01*
X84349867Y-84945573D01*
X84164568Y-84880582D01*
X83995440Y-84739414D01*
X83874069Y-84606529D01*
X83874069Y-84762273D01*
X83873866Y-84805839D01*
X83863703Y-84883589D01*
X83820380Y-84909251D01*
X83719693Y-84905240D01*
X83565317Y-84892463D01*
X83553658Y-84401735D01*
X83553027Y-84374010D01*
X83551022Y-84154702D01*
X83556770Y-84005840D01*
X83571097Y-83916933D01*
X83594825Y-83877487D01*
X83605047Y-83872956D01*
X83687285Y-83858078D01*
X83822025Y-83847522D01*
X83985829Y-83843337D01*
X84039703Y-83843374D01*
X84190968Y-83847031D01*
X84283716Y-83859256D01*
X84336601Y-83884054D01*
X84368280Y-83925430D01*
X84384616Y-83960812D01*
X84378295Y-84010375D01*
X84305298Y-84048930D01*
X84190317Y-84077349D01*
X84056640Y-84089708D01*
X83992946Y-84092379D01*
X83930953Y-84115684D01*
X83915236Y-84174086D01*
X83915251Y-84176834D01*
X83951060Y-84323055D01*
X84040436Y-84463438D01*
X84160890Y-84562431D01*
X84335695Y-84618155D01*
X84519445Y-84602658D01*
X84686817Y-84511471D01*
X84827226Y-84348000D01*
X84860770Y-84289271D01*
X84899539Y-84187396D01*
X84917815Y-84061988D01*
X84921528Y-83883874D01*
X84917965Y-83770496D01*
X84886808Y-83553285D01*
X84818652Y-83387434D01*
X84707295Y-83254734D01*
X84705816Y-83253402D01*
X84541565Y-83156990D01*
X84355687Y-83130416D01*
X84168587Y-83172850D01*
X84000669Y-83283462D01*
X83982461Y-83300558D01*
X83911352Y-83353079D01*
X83838238Y-83363345D01*
X83725227Y-83338995D01*
X83555803Y-83293481D01*
X83638596Y-83153157D01*
X83675948Y-83096023D01*
X83843252Y-82932493D01*
X84061665Y-82831608D01*
X84326905Y-82795593D01*
X84591487Y-82819281D01*
G37*
G36*
X85026743Y-74683063D02*
G01*
X85026743Y-78655673D01*
X73108915Y-78655673D01*
X61191087Y-78655673D01*
X61191087Y-74683063D01*
X61191087Y-73386305D01*
X62961265Y-73386305D01*
X62961265Y-74703647D01*
X62961265Y-76020989D01*
X63326727Y-76020989D01*
X63513574Y-76016504D01*
X63663900Y-75999381D01*
X63733553Y-75969530D01*
X63748608Y-75946803D01*
X63800759Y-75858216D01*
X63879571Y-75718717D01*
X63977350Y-75541993D01*
X64086403Y-75341734D01*
X64169511Y-75187525D01*
X64294042Y-74957640D01*
X64385415Y-74798563D01*
X64448754Y-74709934D01*
X64489184Y-74691392D01*
X64511829Y-74742574D01*
X64521814Y-74863121D01*
X64524262Y-75052669D01*
X64524299Y-75310859D01*
X64525608Y-76020989D01*
X64868666Y-76020989D01*
X64923158Y-76020645D01*
X65075521Y-76015715D01*
X65187917Y-76006159D01*
X65239169Y-75993544D01*
X65242550Y-75980342D01*
X65249025Y-75897085D01*
X65254795Y-75746598D01*
X65259650Y-75539000D01*
X65262840Y-75321151D01*
X65472448Y-75321151D01*
X65472448Y-75671070D01*
X65472448Y-76020989D01*
X66515344Y-76020989D01*
X66753893Y-76020264D01*
X67016892Y-76017633D01*
X67242908Y-76013354D01*
X67420604Y-76007720D01*
X67538641Y-76001019D01*
X67585684Y-75993544D01*
X67589043Y-75980508D01*
X67595523Y-75897514D01*
X67601299Y-75747260D01*
X67606158Y-75539875D01*
X67609890Y-75285486D01*
X67612284Y-74994219D01*
X67613129Y-74676202D01*
X67613129Y-73414237D01*
X67736630Y-73414237D01*
X67738827Y-73425388D01*
X67759755Y-73502360D01*
X67799989Y-73641183D01*
X67856053Y-73830092D01*
X67924467Y-74057322D01*
X68001754Y-74311108D01*
X68014275Y-74352009D01*
X68102295Y-74639797D01*
X68113414Y-74676202D01*
X68190390Y-74928234D01*
X68272509Y-75197479D01*
X68342599Y-75427691D01*
X68394608Y-75599027D01*
X68522337Y-76020989D01*
X68954114Y-76020989D01*
X69095879Y-76019675D01*
X69265357Y-76011517D01*
X69365663Y-75995106D01*
X69404778Y-75969530D01*
X69416813Y-75931322D01*
X69449656Y-75821933D01*
X69499361Y-75654149D01*
X69562607Y-75439321D01*
X69636070Y-75188798D01*
X69716430Y-74913928D01*
X69800364Y-74626062D01*
X69884550Y-74336548D01*
X69965667Y-74056736D01*
X70040392Y-73797974D01*
X70153057Y-73406888D01*
X69782164Y-73394964D01*
X69702741Y-73393175D01*
X69547079Y-73394565D01*
X69432802Y-73402371D01*
X69380328Y-73415548D01*
X69361651Y-73460223D01*
X69325559Y-73572416D01*
X69276405Y-73738514D01*
X69218090Y-73945319D01*
X69154515Y-74179633D01*
X69092074Y-74408185D01*
X69035071Y-74605782D01*
X68987495Y-74759387D01*
X68953038Y-74857084D01*
X68935391Y-74886957D01*
X68919318Y-74845639D01*
X68886163Y-74736488D01*
X68840038Y-74572913D01*
X68784623Y-74367989D01*
X68723601Y-74134795D01*
X68536065Y-73406888D01*
X68136347Y-73395106D01*
X68027266Y-73393068D01*
X67877574Y-73394878D01*
X67774809Y-73402216D01*
X67736630Y-73414237D01*
X67613129Y-73414237D01*
X67613129Y-73386305D01*
X70288980Y-73386305D01*
X70288985Y-73406888D01*
X70289209Y-74322852D01*
X70289456Y-74421807D01*
X70292645Y-74703955D01*
X70299094Y-74957859D01*
X70308265Y-75169998D01*
X70319620Y-75326853D01*
X70332622Y-75414902D01*
X70346682Y-75458122D01*
X70450476Y-75645216D01*
X70608669Y-75816565D01*
X70799669Y-75947542D01*
X70853575Y-75972473D01*
X70978424Y-76010771D01*
X71139344Y-76034050D01*
X71359320Y-76046367D01*
X71444411Y-76048252D01*
X71626798Y-76047038D01*
X71779808Y-76039270D01*
X71877023Y-76025989D01*
X72045585Y-75966764D01*
X72272876Y-75824962D01*
X72446264Y-75632362D01*
X72554284Y-75399571D01*
X72559652Y-75372405D01*
X72562648Y-75341734D01*
X72820746Y-75341734D01*
X72820746Y-75671070D01*
X72820746Y-76000405D01*
X73880795Y-76011392D01*
X74940844Y-76022379D01*
X74940844Y-75341734D01*
X75208429Y-75341734D01*
X75208429Y-75671070D01*
X75208429Y-76000405D01*
X76144976Y-76011470D01*
X77081524Y-76022534D01*
X77081524Y-74704419D01*
X77081524Y-73386305D01*
X78275365Y-73386305D01*
X78275365Y-74366228D01*
X78275377Y-74472935D01*
X78275779Y-74704419D01*
X78275873Y-74758509D01*
X78277868Y-74977401D01*
X78282405Y-75141485D01*
X78290523Y-75262636D01*
X78303265Y-75352730D01*
X78321672Y-75423641D01*
X78346785Y-75487244D01*
X78379646Y-75555415D01*
X78519722Y-75760628D01*
X78722438Y-75921448D01*
X78975203Y-76017872D01*
X79185360Y-76049985D01*
X79461905Y-76058181D01*
X79732934Y-76034917D01*
X79951682Y-75984060D01*
X80676753Y-75984060D01*
X80708560Y-76002574D01*
X80786594Y-76013852D01*
X80922879Y-76019466D01*
X81129436Y-76020989D01*
X81604633Y-76020989D01*
X81872119Y-75578444D01*
X81970054Y-75416116D01*
X82078423Y-75238115D01*
X82156400Y-75117585D01*
X82211826Y-75047288D01*
X82252547Y-75019984D01*
X82286406Y-75028434D01*
X82321247Y-75065398D01*
X82364914Y-75123637D01*
X82402943Y-75176378D01*
X82441358Y-75249230D01*
X82462891Y-75336347D01*
X82472312Y-75460405D01*
X82474393Y-75644080D01*
X82474393Y-76020989D01*
X82838034Y-76020989D01*
X82911033Y-76020438D01*
X83065298Y-76015269D01*
X83178144Y-76005826D01*
X83229120Y-75993544D01*
X83232479Y-75980508D01*
X83238959Y-75897514D01*
X83244735Y-75747260D01*
X83249594Y-75539875D01*
X83253326Y-75285486D01*
X83255720Y-74994219D01*
X83256565Y-74676202D01*
X83256565Y-73386305D01*
X82865479Y-73386305D01*
X82474393Y-73386305D01*
X82474393Y-73818557D01*
X82472756Y-73957037D01*
X82466336Y-74108447D01*
X82456186Y-74211332D01*
X82443518Y-74248794D01*
X82440227Y-74247402D01*
X82396717Y-74204266D01*
X82316115Y-74109879D01*
X82208632Y-73976539D01*
X82084485Y-73816541D01*
X81756327Y-73386305D01*
X81267770Y-73386305D01*
X80779214Y-73386305D01*
X81162280Y-73808266D01*
X81195632Y-73845019D01*
X81340490Y-74004987D01*
X81468399Y-74146750D01*
X81566538Y-74256076D01*
X81622089Y-74318733D01*
X81623201Y-74320016D01*
X81646791Y-74350473D01*
X81658067Y-74383126D01*
X81652245Y-74427436D01*
X81624541Y-74492865D01*
X81570173Y-74588871D01*
X81484355Y-74724915D01*
X81362304Y-74910458D01*
X81199236Y-75154959D01*
X81140442Y-75243127D01*
X80997831Y-75458498D01*
X80873167Y-75648881D01*
X80773457Y-75803450D01*
X80705712Y-75911377D01*
X80676939Y-75961834D01*
X80676753Y-75984060D01*
X79951682Y-75984060D01*
X79962642Y-75981512D01*
X80087407Y-75927367D01*
X80287177Y-75789289D01*
X80443105Y-75613534D01*
X80535943Y-75418987D01*
X80538766Y-75407204D01*
X80552374Y-75300372D01*
X80563856Y-75126070D01*
X80572705Y-74896748D01*
X80578417Y-74624859D01*
X80580484Y-74322852D01*
X80580714Y-73386305D01*
X80189628Y-73386305D01*
X79798542Y-73386305D01*
X79798542Y-74252855D01*
X79798195Y-74433005D01*
X79794310Y-74733180D01*
X79783657Y-74964443D01*
X79763219Y-75135696D01*
X79729979Y-75255845D01*
X79680920Y-75333794D01*
X79613023Y-75378447D01*
X79523272Y-75398709D01*
X79408650Y-75403485D01*
X79287238Y-75381486D01*
X79175307Y-75324856D01*
X79170203Y-75320713D01*
X79140036Y-75293288D01*
X79117115Y-75259541D01*
X79100259Y-75208615D01*
X79088288Y-75129652D01*
X79080021Y-75011794D01*
X79074278Y-74844182D01*
X79069878Y-74615959D01*
X79065640Y-74316266D01*
X79053159Y-73386305D01*
X78664262Y-73386305D01*
X78275365Y-73386305D01*
X77081524Y-73386305D01*
X76690438Y-73386305D01*
X76299352Y-73386305D01*
X76299352Y-74352533D01*
X76299352Y-74704342D01*
X76299352Y-75318761D01*
X75753891Y-75330248D01*
X75208429Y-75341734D01*
X74940844Y-75341734D01*
X74940844Y-74704342D01*
X74940844Y-73386305D01*
X73891087Y-73386305D01*
X72841330Y-73386305D01*
X72841330Y-73715640D01*
X72841330Y-74044976D01*
X73500001Y-74044976D01*
X74158672Y-74044976D01*
X74158672Y-74209643D01*
X74158672Y-74323124D01*
X74158672Y-74374311D01*
X73561751Y-74374311D01*
X72964831Y-74374311D01*
X72964831Y-74683063D01*
X72964831Y-74991815D01*
X73561751Y-74991815D01*
X74158672Y-74991815D01*
X74158672Y-75155463D01*
X74158672Y-75319111D01*
X73489709Y-75330423D01*
X72820746Y-75341734D01*
X72562648Y-75341734D01*
X72570750Y-75258786D01*
X72580287Y-75083085D01*
X72587741Y-74859267D01*
X72592595Y-74601292D01*
X72594328Y-74323124D01*
X72594328Y-73386305D01*
X72205431Y-73386305D01*
X71816535Y-73386305D01*
X71804054Y-74316266D01*
X71803397Y-74365100D01*
X71799209Y-74653634D01*
X71794686Y-74872291D01*
X71788646Y-75031928D01*
X71779910Y-75143404D01*
X71767297Y-75217577D01*
X71749626Y-75265304D01*
X71725716Y-75297445D01*
X71694387Y-75324856D01*
X71589039Y-75379267D01*
X71461044Y-75403485D01*
X71399999Y-75402459D01*
X71298285Y-75390995D01*
X71219921Y-75359557D01*
X71161892Y-75299242D01*
X71121179Y-75201146D01*
X71094766Y-75056363D01*
X71079635Y-74855990D01*
X71072770Y-74591122D01*
X71071151Y-74252855D01*
X71071151Y-73386305D01*
X70680066Y-73386305D01*
X70288980Y-73386305D01*
X67613129Y-73386305D01*
X66563372Y-73386305D01*
X65513615Y-73386305D01*
X65513615Y-73715640D01*
X65513615Y-74044976D01*
X66172286Y-74044976D01*
X66830957Y-74044976D01*
X66830957Y-74209643D01*
X66830957Y-74374311D01*
X66234036Y-74374311D01*
X65637116Y-74374311D01*
X65637116Y-74674762D01*
X65637116Y-74683063D01*
X65637116Y-74991815D01*
X66234036Y-74991815D01*
X66830957Y-74991815D01*
X66830957Y-75156483D01*
X66830957Y-75321151D01*
X66151702Y-75321151D01*
X65472448Y-75321151D01*
X65262840Y-75321151D01*
X65263378Y-75284414D01*
X65265769Y-74992961D01*
X65266613Y-74674762D01*
X65266613Y-73383424D01*
X64850016Y-73395156D01*
X64433419Y-73406888D01*
X64078136Y-74086143D01*
X63722853Y-74765397D01*
X63711566Y-74075851D01*
X63700279Y-73386305D01*
X63330772Y-73386305D01*
X62961265Y-73386305D01*
X61191087Y-73386305D01*
X61191087Y-70710454D01*
X73108915Y-70710454D01*
X85026743Y-70710454D01*
X85026743Y-74676202D01*
X85026743Y-74683063D01*
G37*
D13*
%TO.C,C7*%
X109593767Y-109965000D02*
X109301233Y-109965000D01*
X109593767Y-110985000D02*
X109301233Y-110985000D01*
%TO.C,C2*%
X52195000Y-82702162D02*
X52195000Y-82409628D01*
X53215000Y-82702162D02*
X53215000Y-82409628D01*
%TO.C,JP5V5*%
X84050000Y-103330000D02*
X84050000Y-104730000D01*
X84750000Y-105430000D02*
X85350000Y-105430000D01*
X85350000Y-102630000D02*
X84750000Y-102630000D01*
X86050000Y-104730000D02*
X86050000Y-103330000D01*
X84050000Y-103330000D02*
G75*
G02*
X84750000Y-102630000I699999J1D01*
G01*
X84750000Y-105430000D02*
G75*
G02*
X84050000Y-104730000I0J700000D01*
G01*
X85350000Y-102630000D02*
G75*
G02*
X86050000Y-103330000I1J-699999D01*
G01*
X86050000Y-104730000D02*
G75*
G02*
X85350000Y-105430000I-700000J0D01*
G01*
%TO.C,C3*%
X42670000Y-82702162D02*
X42670000Y-82409628D01*
X43690000Y-82702162D02*
X43690000Y-82409628D01*
%TO.C,R6*%
X46467500Y-82810619D02*
X46467500Y-82301171D01*
X47512500Y-82810619D02*
X47512500Y-82301171D01*
%TO.C,R4*%
X59372500Y-61121171D02*
X59372500Y-61630619D01*
X60417500Y-61121171D02*
X60417500Y-61630619D01*
%TO.C,R7*%
X44562500Y-82810619D02*
X44562500Y-82301171D01*
X45607500Y-82810619D02*
X45607500Y-82301171D01*
%TO.C,JP3V7*%
X108300000Y-107100000D02*
X108300000Y-108500000D01*
X109000000Y-109200000D02*
X109600000Y-109200000D01*
X109600000Y-106400000D02*
X109000000Y-106400000D01*
X110300000Y-108500000D02*
X110300000Y-107100000D01*
X108300000Y-107100000D02*
G75*
G02*
X109000000Y-106400000I700000J0D01*
G01*
X109000000Y-109200000D02*
G75*
G02*
X108300000Y-108500000I-1J699999D01*
G01*
X109600000Y-106400000D02*
G75*
G02*
X110300000Y-107100000I0J-700000D01*
G01*
X110300000Y-108500000D02*
G75*
G02*
X109600000Y-109200000I-699999J-1D01*
G01*
%TO.C,R3*%
X63182500Y-61630619D02*
X63182500Y-61121171D01*
X64227500Y-61630619D02*
X64227500Y-61121171D01*
%TO.C,JP5V6*%
X129600000Y-103940000D02*
X129600000Y-104540000D01*
X130300000Y-105240000D02*
X131700000Y-105240000D01*
X131700000Y-103240000D02*
X130300000Y-103240000D01*
X132400000Y-104540000D02*
X132400000Y-103940000D01*
X129600000Y-103940000D02*
G75*
G02*
X130300000Y-103240000I700000J0D01*
G01*
X130300000Y-105240000D02*
G75*
G02*
X129600000Y-104540000I0J700000D01*
G01*
X131700000Y-103240000D02*
G75*
G02*
X132400000Y-103940000I1J-699999D01*
G01*
X132400000Y-104540000D02*
G75*
G02*
X131700000Y-105240000I-699999J-1D01*
G01*
%TO.C,JP5V9*%
X105600000Y-107100000D02*
X105600000Y-108500000D01*
X106300000Y-109200000D02*
X106900000Y-109200000D01*
X106900000Y-106400000D02*
X106300000Y-106400000D01*
X107600000Y-108500000D02*
X107600000Y-107100000D01*
X105600000Y-107100000D02*
G75*
G02*
X106300000Y-106400000I700000J0D01*
G01*
X106300000Y-109200000D02*
G75*
G02*
X105600000Y-108500000I-1J699999D01*
G01*
X106900000Y-106400000D02*
G75*
G02*
X107600000Y-107100000I0J-700000D01*
G01*
X107600000Y-108500000D02*
G75*
G02*
X106900000Y-109200000I-699999J-1D01*
G01*
%TO.C,C8*%
X90023733Y-109980000D02*
X90316267Y-109980000D01*
X90023733Y-111000000D02*
X90316267Y-111000000D01*
%TO.C,R14*%
X72582500Y-61630619D02*
X72582500Y-61121171D01*
X73627500Y-61630619D02*
X73627500Y-61121171D01*
%TO.C,R5*%
X75572500Y-61630619D02*
X75572500Y-61121171D01*
X76617500Y-61630619D02*
X76617500Y-61121171D01*
%TO.C,JP5V10*%
X87800000Y-107100000D02*
X87800000Y-108500000D01*
X88500000Y-109200000D02*
X89100000Y-109200000D01*
X89100000Y-106400000D02*
X88500000Y-106400000D01*
X89800000Y-108500000D02*
X89800000Y-107100000D01*
X87800000Y-107100000D02*
G75*
G02*
X88500000Y-106400000I700000J0D01*
G01*
X88500000Y-109200000D02*
G75*
G02*
X87800000Y-108500000I-1J699999D01*
G01*
X89100000Y-106400000D02*
G75*
G02*
X89800000Y-107100000I0J-700000D01*
G01*
X89800000Y-108500000D02*
G75*
G02*
X89100000Y-109200000I-699999J-1D01*
G01*
%TO.C,C1*%
X61290000Y-61522162D02*
X61290000Y-61229628D01*
X62310000Y-61522162D02*
X62310000Y-61229628D01*
%TO.C,R16*%
X98957500Y-75144724D02*
X98957500Y-74635276D01*
X100002500Y-75144724D02*
X100002500Y-74635276D01*
%TO.C,C5*%
X65690000Y-61522162D02*
X65690000Y-61229628D01*
X66710000Y-61522162D02*
X66710000Y-61229628D01*
%TO.C,R10*%
X54087500Y-82810619D02*
X54087500Y-82301171D01*
X55132500Y-82810619D02*
X55132500Y-82301171D01*
%TO.C,JP24V2*%
X81510000Y-103330000D02*
X81510000Y-104730000D01*
X82210000Y-105430000D02*
X82810000Y-105430000D01*
X82810000Y-102630000D02*
X82210000Y-102630000D01*
X83510000Y-104730000D02*
X83510000Y-103330000D01*
X81510000Y-103330000D02*
G75*
G02*
X82210000Y-102630000I699999J1D01*
G01*
X82210000Y-105430000D02*
G75*
G02*
X81510000Y-104730000I0J700000D01*
G01*
X82810000Y-102630000D02*
G75*
G02*
X83510000Y-103330000I1J-699999D01*
G01*
X83510000Y-104730000D02*
G75*
G02*
X82810000Y-105430000I-700000J0D01*
G01*
%TO.C,R11*%
X58037500Y-82794724D02*
X58037500Y-82285276D01*
X59082500Y-82794724D02*
X59082500Y-82285276D01*
%TO.C,R1*%
X47527500Y-49454724D02*
X47527500Y-48945276D01*
X48572500Y-49454724D02*
X48572500Y-48945276D01*
%TO.C,C4*%
X48385000Y-82702162D02*
X48385000Y-82409628D01*
X49405000Y-82702162D02*
X49405000Y-82409628D01*
%TO.C,JP3V8*%
X90600000Y-107100000D02*
X90600000Y-108500000D01*
X91300000Y-109200000D02*
X91900000Y-109200000D01*
X91900000Y-106400000D02*
X91300000Y-106400000D01*
X92600000Y-108500000D02*
X92600000Y-107100000D01*
X90600000Y-107100000D02*
G75*
G02*
X91300000Y-106400000I700000J0D01*
G01*
X91300000Y-109200000D02*
G75*
G02*
X90600000Y-108500000I-1J699999D01*
G01*
X91900000Y-106400000D02*
G75*
G02*
X92600000Y-107100000I0J-700000D01*
G01*
X92600000Y-108500000D02*
G75*
G02*
X91900000Y-109200000I-699999J-1D01*
G01*
%TO.C,R17*%
X99977500Y-49844724D02*
X99977500Y-49335276D01*
X101022500Y-49844724D02*
X101022500Y-49335276D01*
%TD*%
M02*
