M48
; DRILL file {KiCad 9.0.0} date 2025-04-09T12:02:41+0200
; FORMAT={-:-/ absolute / metric / decimal}
; #@! TF.CreationDate,2025-04-09T12:02:41+02:00
; #@! TF.GenerationSoftware,Kicad,Pcbnew,9.0.0
; #@! TF.FileFunction,Plated,1,2,PTH
FMAT,2
METRIC
; #@! TA.AperFunction,Plated,PTH,ViaDrill
T1C0.400
; #@! TA.AperFunction,Plated,PTH,ComponentDrill
T2C0.500
; #@! TA.AperFunction,Plated,PTH,ComponentDrill
T3C0.800
; #@! TA.AperFunction,Plated,PTH,ComponentDrill
T4C0.950
; #@! TA.AperFunction,Plated,PTH,ComponentDrill
T5C1.000
; #@! TA.AperFunction,Plated,PTH,ComponentDrill
T6C1.010
; #@! TA.AperFunction,Plated,PTH,ComponentDrill
T7C1.100
; #@! TA.AperFunction,Plated,PTH,ComponentDrill
T8C1.200
; #@! TA.AperFunction,Plated,PTH,ComponentDrill
T9C1.300
; #@! TA.AperFunction,Plated,PTH,ComponentDrill
T10C1.500
; #@! TA.AperFunction,Plated,PTH,ComponentDrill
T11C3.200
%
G90
G05
T1
X43.0Y-96.0
X44.5Y-100.5
X46.0Y-72.5
X46.0Y-77.456
X48.82Y-77.5
X49.4Y-107.6
X50.5Y-35.75
X50.6Y-42.0
X50.6Y-44.4
X50.6Y-46.8
X50.6Y-48.9
X50.6Y-51.1
X50.6Y-53.2
X50.605Y-39.75
X52.0Y-54.6
X52.5Y-42.0
X52.5Y-44.4
X52.5Y-46.9
X52.5Y-48.9
X54.25Y-54.85
X54.25Y-72.5
X54.25Y-77.5
X54.5Y-39.75
X54.5Y-42.0
X54.5Y-44.4
X54.5Y-46.8
X54.75Y-35.75
X55.0Y-49.25
X55.3Y-102.5
X56.25Y-54.85
X56.75Y-40.25
X56.75Y-42.0
X56.75Y-44.0
X56.75Y-45.75
X56.75Y-47.5
X56.75Y-49.25
X58.25Y-40.25
X58.25Y-42.0
X58.25Y-44.0
X58.25Y-45.75
X58.25Y-47.5
X58.25Y-54.85
X58.5Y-60.0
X60.25Y-54.85
X61.0Y-39.5
X61.0Y-42.0
X61.0Y-45.0
X61.0Y-47.5
X62.0Y-93.0
X62.0Y-100.5
X62.25Y-54.85
X62.5Y-104.9
X63.2Y-49.3
X63.25Y-40.25
X63.25Y-42.25
X63.25Y-44.0
X63.25Y-45.75
X63.25Y-47.5
X63.25Y-72.5
X63.25Y-77.5
X63.25Y-82.0
X64.25Y-54.85
X64.45Y-109.46
X64.75Y-40.25
X64.75Y-42.25
X64.75Y-44.0
X64.75Y-45.75
X64.75Y-47.5
X64.8Y-49.3
X64.9Y-95.5
X65.3Y-96.7
X65.549Y-109.515
X66.0Y-93.0
X66.25Y-54.85
X66.6Y-35.8
X67.0Y-47.25
X67.09Y-109.59
X67.09Y-111.5
X68.25Y-54.5
X68.5Y-40.25
X68.5Y-42.25
X68.5Y-60.0
X69.0Y-48.5
X69.0Y-50.5
X69.0Y-52.75
X69.5Y-56.75
X70.0Y-40.25
X70.0Y-42.25
X70.0Y-44.0
X70.0Y-93.0
X70.0Y-100.5
X71.387Y-49.784
X71.75Y-44.0
X71.75Y-45.75
X72.25Y-72.5
X72.25Y-77.5
X72.303Y-84.0
X72.5Y-39.0
X73.5Y-45.75
X73.5Y-47.5
X74.0Y-42.0
X74.5Y-49.25
X74.75Y-60.0
X75.25Y-47.5
X75.5Y-40.0
X75.5Y-50.25
X75.6Y-44.0
X76.5Y-49.148
X76.5Y-54.75
X76.701Y-98.244
X76.825Y-103.142
X77.0Y-41.5
X77.6Y-46.1
X77.65Y-98.8
X77.68Y-102.45
X78.1Y-35.9
X78.5Y-43.0
X79.5Y-47.25
X79.5Y-72.5
X80.0Y-44.5
X80.75Y-50.25
X80.947Y-54.5
X81.25Y-39.75
X81.5Y-46.0
X82.18Y-59.83
X82.5Y-41.0
X82.75Y-47.25
X83.5Y-50.25
X83.5Y-52.25
X83.5Y-54.5
X84.0Y-72.5
X84.5Y-41.75
X84.99Y-107.4
X85.53Y-108.61
X85.56Y-60.03
X86.75Y-41.75
X86.77Y-47.25
X88.22Y-60.01
X88.825Y-48.02
X89.0Y-41.75
X89.5Y-36.0
X89.57Y-105.13
X90.0Y-49.5
X90.75Y-40.75
X91.0Y-43.0
X92.045Y-39.688
X93.0Y-44.75
X93.14Y-97.52
X93.5Y-105.18
X93.751Y-103.751
X93.865Y-88.0
X94.75Y-60.5
X96.0Y-106.48
X96.094Y-110.525
X96.5Y-41.0
X96.79Y-45.54
X97.18Y-110.35
X98.205Y-44.125
X98.83Y-99.21
X98.958Y-106.212
X99.0Y-41.0
X100.1Y-112.7
X100.5Y-43.75
X100.97Y-101.22
X101.11Y-99.88
X101.3Y-36.0
X102.0Y-42.25
X102.19Y-55.59
X102.2Y-82.2
X103.25Y-103.75
X103.545Y-40.705
X103.86Y-104.96
X104.94Y-98.22
X105.0Y-60.25
X105.0Y-74.5
X105.72Y-95.57
X106.13Y-98.61
X106.62Y-96.44
X108.19Y-104.86
X109.5Y-105.25
X113.25Y-74.5
X114.5Y-45.5
X114.5Y-111.75
X115.2Y-110.78
X115.25Y-108.49
X115.26Y-106.48
X115.514Y-109.558
X115.752Y-105.496
X117.98Y-109.69
X119.0Y-42.5
X120.25Y-74.5
X120.75Y-60.25
X123.5Y-107.5
X123.52Y-109.66
X125.0Y-45.5
X125.0Y-60.25
X125.0Y-74.5
X125.0Y-87.5
X125.0Y-96.25
X126.75Y-91.5
X127.5Y-45.5
X127.5Y-60.25
X127.5Y-74.5
X128.75Y-102.11
X130.0Y-45.5
X130.0Y-60.25
X130.0Y-74.5
X130.27Y-101.77
X130.75Y-87.5
X131.75Y-91.0
X136.0Y-45.5
X136.0Y-60.25
X136.0Y-74.5
X136.0Y-87.5
T2
X43.14Y-37.0
X43.14Y-112.0
X43.843Y-35.303
X43.843Y-38.697
X43.843Y-110.303
X43.843Y-113.697
X45.54Y-34.6
X45.54Y-39.4
X45.54Y-109.6
X45.54Y-114.4
X47.237Y-35.303
X47.237Y-38.697
X47.237Y-110.303
X47.237Y-113.697
X47.94Y-37.0
X47.94Y-112.0
X135.14Y-37.0
X135.14Y-112.0
X135.843Y-35.303
X135.843Y-38.697
X135.843Y-110.303
X135.843Y-113.697
X137.54Y-34.6
X137.54Y-39.4
X137.54Y-109.6
X137.54Y-114.4
X139.237Y-35.303
X139.237Y-38.697
X139.237Y-110.303
X139.237Y-113.697
X139.94Y-37.0
X139.94Y-112.0
T3
X96.925Y-52.91
X96.925Y-55.45
X96.925Y-57.99
X96.925Y-60.53
X96.925Y-63.07
X96.925Y-65.61
X96.925Y-68.15
X96.925Y-70.69
X96.925Y-78.51
X96.925Y-81.05
X96.925Y-83.59
X96.925Y-86.13
X96.925Y-88.67
X96.925Y-91.21
X96.925Y-93.75
X96.925Y-96.29
X99.465Y-52.91
X99.465Y-55.45
X99.465Y-57.99
X99.465Y-60.53
X99.465Y-63.07
X99.465Y-65.61
X99.465Y-68.15
X99.465Y-70.69
X99.465Y-78.51
X99.465Y-81.05
X99.465Y-83.59
X99.465Y-86.13
X99.465Y-88.67
X99.465Y-91.21
X99.465Y-93.75
X99.465Y-96.29
X102.005Y-52.91
X102.005Y-78.51
X104.545Y-52.91
X104.545Y-78.51
X112.165Y-52.91
X112.165Y-55.45
X112.165Y-57.99
X112.165Y-60.53
X112.165Y-63.07
X112.165Y-65.61
X112.165Y-68.15
X112.165Y-70.69
X112.165Y-78.51
X112.165Y-81.05
X112.165Y-83.59
X112.165Y-86.13
X112.165Y-88.67
X112.165Y-91.21
X112.165Y-93.75
X112.165Y-96.29
X115.165Y-52.91
X115.165Y-55.45
X115.165Y-57.99
X115.165Y-60.53
X115.165Y-63.07
X115.165Y-65.61
X115.165Y-68.15
X115.165Y-70.69
X115.165Y-78.51
X115.165Y-81.05
X115.165Y-83.59
X115.165Y-86.13
X115.165Y-88.67
X115.165Y-91.21
X115.165Y-93.75
X115.165Y-96.29
T4
X73.2Y-112.475
X75.7Y-112.475
X78.2Y-112.475
X80.7Y-112.475
X83.2Y-112.475
X89.4Y-112.4
X91.9Y-112.4
X94.4Y-112.4
X96.9Y-112.4
X103.0Y-112.4
X105.5Y-112.4
X108.0Y-112.4
X110.0Y-36.6
X110.5Y-112.4
X112.5Y-36.6
X115.0Y-36.6
X117.5Y-36.6
X123.6Y-36.6
X126.1Y-36.6
X128.6Y-36.6
X131.1Y-36.6
T5
X43.332Y-65.391
X43.332Y-68.566
X43.332Y-86.346
X43.332Y-89.521
X45.2Y-46.05
X45.2Y-48.55
X45.2Y-56.4
X45.2Y-58.9
X45.872Y-65.391
X45.872Y-68.566
X45.872Y-86.346
X45.872Y-89.521
X48.412Y-65.391
X48.412Y-68.566
X48.412Y-86.346
X48.412Y-89.521
X50.953Y-68.566
X50.953Y-86.346
X51.008Y-65.419
X51.008Y-89.549
X52.59Y-114.6
X53.492Y-65.391
X53.492Y-68.566
X53.492Y-86.346
X53.492Y-89.521
X55.13Y-114.6
X56.032Y-65.391
X56.032Y-68.566
X56.032Y-86.346
X56.032Y-89.521
X57.67Y-114.6
X58.572Y-65.391
X58.572Y-68.566
X58.572Y-86.346
X58.572Y-89.521
X60.21Y-114.6
X61.112Y-65.391
X61.112Y-68.566
X61.112Y-86.346
X61.112Y-89.521
X62.75Y-114.6
X63.652Y-65.391
X63.652Y-68.566
X63.652Y-86.346
X63.652Y-89.521
X65.29Y-114.6
X66.192Y-65.391
X66.192Y-68.566
X66.192Y-86.346
X66.192Y-89.521
X68.733Y-65.391
X68.733Y-68.566
X68.733Y-86.346
X68.733Y-89.521
X71.272Y-65.391
X71.272Y-68.566
X71.272Y-86.346
X71.272Y-89.521
X73.812Y-65.391
X73.812Y-68.566
X73.812Y-86.346
X73.812Y-89.521
X76.352Y-65.391
X76.352Y-68.566
X76.352Y-86.346
X76.352Y-89.521
X78.892Y-65.391
X78.892Y-68.566
X78.892Y-86.346
X78.892Y-89.521
X81.25Y-100.37
X81.432Y-65.391
X81.432Y-68.566
X81.432Y-86.346
X81.432Y-89.521
X83.972Y-65.391
X83.972Y-68.566
X83.972Y-86.346
X83.972Y-89.521
X86.513Y-65.391
X86.513Y-68.566
X86.513Y-86.346
X86.513Y-89.521
X88.85Y-100.37
X89.052Y-65.391
X89.052Y-68.566
X89.052Y-86.346
X89.052Y-89.521
X91.593Y-65.391
X91.593Y-68.566
X91.593Y-86.346
X91.593Y-89.521
X116.95Y-114.6
X119.49Y-114.6
X122.03Y-114.6
X124.57Y-114.6
X127.11Y-114.6
X129.65Y-114.6
X139.795Y-104.21
X139.795Y-106.75
X139.8Y-98.315
X139.8Y-100.855
T6
X53.4Y-105.9
X54.6Y-95.7
T7
X84.92Y-47.25
X95.08Y-47.25
X125.92Y-98.5
X125.92Y-104.24
X136.08Y-98.5
X136.08Y-104.24
T8
X59.805Y-98.06
X59.805Y-100.6
X59.805Y-103.14
X72.96Y-52.195
X74.2Y-97.86
X74.2Y-100.4
X74.2Y-102.94
X75.5Y-52.195
X78.04Y-52.195
X87.46Y-52.195
X90.0Y-52.195
X92.54Y-52.195
T9
X46.227Y-97.855
X46.227Y-102.935
X52.465Y-37.828
X57.545Y-37.828
X64.013Y-37.828
X69.093Y-37.828
X75.494Y-37.821
X80.574Y-37.821
X86.965Y-37.828
X92.045Y-37.828
X98.465Y-37.828
X103.545Y-37.828
T10
X120.98Y-51.38
X120.98Y-91.38
X138.98Y-51.38
X138.98Y-91.38
T11
X45.54Y-37.0
X45.54Y-112.0
X137.54Y-37.0
X137.54Y-112.0
T7
X53.5Y-51.2G85X53.5Y-52.3
G05
X57.2Y-51.2G85X57.2Y-52.3
G05
X61.5Y-51.2G85X61.5Y-52.3
G05
X65.2Y-51.2G85X65.2Y-52.3
G05
M30
